<svg xmlns="http://www.w3.org/2000/svg" width="1228.96875" height="846.525390625"><g transform="translate(40,70)"><g transform="translate(0,0)"><line y1="-3" stroke="black" stroke-opacity="0" shape-rendering="crispEdges" y2="0" x1="67.13836477987421" x2="67.13836477987421"/><rect clip-path="url(#57219)" fill="white" x="0" width="575" height="26"/><rect clip-path="url(#57219)" fill="#ffd92f" x="475.5503144654088" width="90.40880503144655" height="26"/><rect clip-path="url(#57219)" fill="#E8E89E" x="309.1981132075472" width="87.24449685534591" height="26"/><rect clip-path="url(#57219)" fill="#fb8072" x="226.92610062893084" width="84.98427672955978" height="26"/><rect clip-path="url(#57219)" fill="#e5c494" x="412.71619496855345" width="54.24528301886795" height="26"/><rect clip-path="url(#57219)" fill="#fdb462" x="36.615566037735846" width="42.04009433962264" height="26"/><rect clip-path="url(#57219)" fill="#8dd3c7" x="1.3561320754716981" width="32.54716981132076" height="26"/><rect clip-path="url(#57219)" fill="#bebada" x="292.4724842767296" width="0.45204402515719266" height="26"/><rect clip-path="url(#57219)" fill="#80b1d3" x="544.7130503144654" width="0.45204402515730635" height="26"/><rect clip-path="url(#57219)" fill="#bebada" x="294.2806603773585" width="0.45204402515719266" height="26"/><rect clip-path="url(#57219)" fill="#bebada" x="291.1163522012579" width="0.45204402515719266" height="26"/><rect clip-path="url(#57219)" fill="#bebada" x="289.30817610062894" width="0.45204402515719266" height="26"/><rect clip-path="url(#57219)" fill="#bebada" x="296.08883647798746" width="0.45204402515719266" height="26"/><rect clip-path="url(#57219)" fill="#bebada" x="309.6501572327044" width="0" height="26"/><rect clip-path="url(#57219)" fill="#bebada" x="311.4583333333333" width="0" height="26"/><rect clip-path="url(#57219)" fill="#bebada" x="273.938679245283" width="0" height="26"/><rect clip-path="url(#57219)" fill="#80b1d3" x="512.1658805031446" width="0" height="26"/><rect clip-path="url(#57219)" fill="#80b1d3" x="510.3577044025157" width="0" height="26"/><rect clip-path="url(#57219)" fill="#a6d854" x="492.72798742138366" width="0" height="26"/><rect clip-path="url(#57219)" fill="#80b1d3" x="561.8907232704403" width="0" height="26"/><rect clip-path="url(#57219)" fill="#bebada" x="230.09040880503144" width="0" height="26"/><rect clip-path="url(#57219)" fill="#80b1d3" x="492.72798742138366" width="0" height="26"/><rect clip-path="url(#57219)" fill="#80b1d3" x="543.3569182389937" width="0" height="26"/><rect clip-path="url(#57219)" fill="#bebada" x="228.2822327044025" width="0" height="26"/><rect clip-path="url(#57219)" fill="#bebada" x="297.89701257861634" width="0" height="26"/><line clip-path="url(#57219)" stroke="black" stroke-dasharray="3,2" shape-rendering="crispEdges" y1="0" y2="26" x1="192.7214360587002" x2="192.7214360587002"/><line clip-path="url(#57219)" stroke="black" stroke-dasharray="3,2" shape-rendering="crispEdges" y1="0" y2="26" x1="220.14544025157232" x2="220.14544025157232"/><line clip-path="url(#57219)" stroke="black" stroke-dasharray="3,2" shape-rendering="crispEdges" y1="0" y2="26" x1="235.9669811320755" x2="235.9669811320755"/><line clip-path="url(#57219)" stroke="black" stroke-dasharray="3,2" shape-rendering="crispEdges" y1="0" y2="26" x1="263.9937106918239" x2="263.9937106918239"/><line clip-path="url(#57219)" stroke="black" stroke-dasharray="3,2" shape-rendering="crispEdges" y1="0" y2="26" x1="280.2672955974843" x2="280.2672955974843"/><line clip-path="url(#57219)" stroke="black" stroke-dasharray="3,2" shape-rendering="crispEdges" y1="0" y2="26" x1="289.458857442348" x2="289.458857442348"/><line clip-path="url(#57219)" stroke="black" stroke-dasharray="3,2" shape-rendering="crispEdges" y1="0" y2="26" x1="297.44496855345915" x2="297.44496855345915"/><line clip-path="url(#57219)" stroke="black" stroke-dasharray="3,2" shape-rendering="crispEdges" y1="0" y2="26" x1="318.691037735849" x2="318.691037735849"/><line clip-path="url(#57219)" stroke="black" stroke-dasharray="3,2" shape-rendering="crispEdges" y1="0" y2="26" x1="337.0741614255765" x2="337.0741614255765"/><line clip-path="url(#57219)" stroke="black" stroke-dasharray="3,2" shape-rendering="crispEdges" y1="0" y2="26" x1="362.53930817610063" x2="362.53930817610063"/><line clip-path="url(#57219)" stroke="black" stroke-dasharray="3,2" shape-rendering="crispEdges" y1="0" y2="26" x1="380.62106918238993" x2="380.62106918238993"/><line clip-path="url(#57219)" stroke="black" stroke-dasharray="3,2" shape-rendering="crispEdges" y1="0" y2="26" x1="392.07285115303984" x2="392.07285115303984"/><line clip-path="url(#57219)" stroke="black" stroke-dasharray="3,2" shape-rendering="crispEdges" y1="0" y2="26" x1="407.894392033543" x2="407.894392033543"/><line clip-path="url(#57219)" stroke="black" stroke-dasharray="3,2" shape-rendering="crispEdges" y1="0" y2="26" x1="419.19549266247384" x2="419.19549266247384"/><line clip-path="url(#57219)" stroke="black" stroke-dasharray="3,2" shape-rendering="crispEdges" y1="0" y2="26" x1="433.96226415094344" x2="433.96226415094344"/><line clip-path="url(#57219)" stroke="black" stroke-dasharray="3,2" shape-rendering="crispEdges" y1="0" y2="26" x1="453.8522012578617" x2="453.8522012578617"/><line clip-path="url(#57219)" stroke="black" stroke-dasharray="3,2" shape-rendering="crispEdges" y1="0" y2="26" x1="462.89308176100633" x2="462.89308176100633"/><line clip-path="url(#57219)" stroke="black" stroke-dasharray="3,2" shape-rendering="crispEdges" y1="0" y2="26" x1="479.4680293501048" x2="479.4680293501048"/><line clip-path="url(#57219)" stroke="black" stroke-dasharray="3,2" shape-rendering="crispEdges" y1="0" y2="26" x1="500.5634171907756" x2="500.5634171907756"/><line clip-path="url(#57219)" stroke="black" stroke-dasharray="3,2" shape-rendering="crispEdges" y1="0" y2="26" x1="520.905398322851" x2="520.905398322851"/><line clip-path="url(#57219)" stroke="black" stroke-dasharray="3,2" shape-rendering="crispEdges" y1="0" y2="26" x1="536.8776205450733" x2="536.8776205450733"/><line clip-path="url(#57219)" stroke="black" stroke-dasharray="3,2" shape-rendering="crispEdges" y1="0" y2="26" x1="561.438679245283" x2="561.438679245283"/><rect clip-path="url(#57219)" stroke-dasharray="none" fill="none" stroke="black" x="0" width="575" height="26"/><text font-family="Arial" fill="black" font-size="15" dominant-baseline="central" x="580" y="13" text-anchor="start">BCR</text><text fill="#858585" fill-opacity="0" font-size="13" font-family="Arial" text-anchor="middle" dominant-baseline="auto" y="-24" x="67.13836477987421">ends at 427 AA</text><defs><clipPath id="57219"><rect x="0" y="0" height="26" width="611.671875"/></clipPath></defs><rect clip-path="url(#57219)" fill="white" fill-opacity="0" width="575" height="26"/></g><g transform="translate(1.07715627341463,106)"><line y1="26" stroke="black" stroke-opacity="0" shape-rendering="crispEdges" y2="29" x1="217.6100628930818" x2="217.6100628930818"/><rect clip-path="url(#27922)" fill="white" x="0" width="379.26493710691824" height="26"/><rect clip-path="url(#27922)" fill="#8dd3c7" x="250.43238993710693" width="121.5998427672956" height="26"/><rect clip-path="url(#27922)" fill="#bebada" x="312.81446540880506" width="0" height="26"/><rect clip-path="url(#27922)" fill="#fb8072" x="41.588050314465406" width="26.218553459119505" height="26"/><rect clip-path="url(#27922)" fill="#80b1d3" x="320.9512578616352" width="0" height="26"/><rect clip-path="url(#27922)" fill="#E8E89E" x="151.43474842767296" width="0" height="26"/><rect clip-path="url(#27922)" fill="#bebada" x="314.62264150943395" width="0" height="26"/><rect clip-path="url(#27922)" fill="#80b1d3" x="253.14465408805032" width="0.4520440251572495" height="26"/><rect clip-path="url(#27922)" fill="#E8E89E" x="159.57154088050314" width="0" height="26"/><rect clip-path="url(#27922)" fill="#E8E89E" x="157.76336477987422" width="0.4520440251572211" height="26"/><rect clip-path="url(#27922)" fill="#80b1d3" x="288.8561320754717" width="0.4520440251572495" height="26"/><rect clip-path="url(#27922)" fill="#a6d854" x="140.13364779874215" width="0" height="26"/><rect clip-path="url(#27922)" fill="#80b1d3" x="315.9787735849057" width="0" height="26"/><rect clip-path="url(#27922)" fill="#bebada" x="350.33411949685535" width="0" height="26"/><rect clip-path="url(#27922)" fill="#80b1d3" x="314.62264150943395" width="0.4520440251572495" height="26"/><rect clip-path="url(#27922)" fill="#bebada" x="334.96462264150944" width="0" height="26"/><rect clip-path="url(#27922)" fill="#80b1d3" x="264.8977987421384" width="0" height="26"/><rect clip-path="url(#27922)" fill="#fdb462" x="320.49921383647796" width="11.30110062893084" height="26"/><rect clip-path="url(#27922)" fill="#bebada" x="329.0880503144654" width="1.8081761006289412" height="26"/><rect clip-path="url(#27922)" fill="#80b1d3" x="286.1438679245283" width="1.3561320754716917" height="26"/><rect clip-path="url(#27922)" fill="#ffd92f" x="68.71069182389937" width="19.43789308176102" height="26"/><rect clip-path="url(#27922)" fill="#e5c494" x="247.72012578616355" width="129.73663522012575" height="26"/><rect clip-path="url(#27922)" fill="#b3b3b3" x="136.06525157232704" width="35.259433962264154" height="26"/><rect clip-path="url(#27922)" fill="#8dd3c7" x="92.66902515723271" width="35.259433962264154" height="26"/><rect clip-path="url(#27922)" fill="#80b1d3" x="265.8018867924528" width="0" height="26"/><rect clip-path="url(#27922)" fill="#80b1d3" x="256.76100628930817" width="0" height="26"/><rect clip-path="url(#27922)" fill="#80b1d3" x="254.50078616352204" width="0.4520440251572211" height="26"/><line clip-path="url(#27922)" stroke="black" stroke-dasharray="3,2" shape-rendering="crispEdges" y1="0" y2="26" x1="31.944444444444446" x2="31.944444444444446"/><line clip-path="url(#27922)" stroke="black" stroke-dasharray="3,2" shape-rendering="crispEdges" y1="0" y2="26" x1="43.24554507337526" x2="43.24554507337526"/><line clip-path="url(#27922)" stroke="black" stroke-dasharray="3,2" shape-rendering="crispEdges" y1="0" y2="26" x1="54.09460167714885" x2="54.09460167714885"/><line clip-path="url(#27922)" stroke="black" stroke-dasharray="3,2" shape-rendering="crispEdges" y1="0" y2="26" x1="64.4916142557652" x2="64.4916142557652"/><line clip-path="url(#27922)" stroke="black" stroke-dasharray="3,2" shape-rendering="crispEdges" y1="0" y2="26" x1="87.84722222222223" x2="87.84722222222223"/><line clip-path="url(#27922)" stroke="black" stroke-dasharray="3,2" shape-rendering="crispEdges" y1="0" y2="26" x1="108.49056603773585" x2="108.49056603773585"/><line clip-path="url(#27922)" stroke="black" stroke-dasharray="3,2" shape-rendering="crispEdges" y1="0" y2="26" x1="128.53118448637318" x2="128.53118448637318"/><line clip-path="url(#27922)" stroke="black" stroke-dasharray="3,2" shape-rendering="crispEdges" y1="0" y2="26" x1="174.6396750524109" x2="174.6396750524109"/><line clip-path="url(#27922)" stroke="black" stroke-dasharray="3,2" shape-rendering="crispEdges" y1="0" y2="26" x1="180.0642033542977" x2="180.0642033542977"/><line clip-path="url(#27922)" stroke="black" stroke-dasharray="3,2" shape-rendering="crispEdges" y1="0" y2="26" x1="195.28301886792454" x2="195.28301886792454"/><line clip-path="url(#27922)" stroke="black" stroke-dasharray="3,2" shape-rendering="crispEdges" y1="0" y2="26" x1="210.35115303983227" x2="210.35115303983227"/><line clip-path="url(#27922)" stroke="black" stroke-dasharray="3,2" shape-rendering="crispEdges" y1="0" y2="26" x1="217.58385744234798" x2="217.58385744234798"/><line clip-path="url(#27922)" stroke="black" stroke-dasharray="3,2" shape-rendering="crispEdges" y1="0" y2="26" x1="246.0626310272537" x2="246.0626310272537"/><line clip-path="url(#27922)" stroke="black" stroke-dasharray="3,2" shape-rendering="crispEdges" y1="0" y2="26" x1="265.8018867924528" x2="265.8018867924528"/><line clip-path="url(#27922)" stroke="black" stroke-dasharray="3,2" shape-rendering="crispEdges" y1="0" y2="26" x1="291.8697589098532" x2="291.8697589098532"/><line clip-path="url(#27922)" stroke="black" stroke-dasharray="3,2" shape-rendering="crispEdges" y1="0" y2="26" x1="327.2798742138365" x2="327.2798742138365"/><line clip-path="url(#27922)" stroke="black" stroke-dasharray="3,2" shape-rendering="crispEdges" y1="0" y2="26" x1="351.2382075471698" x2="351.2382075471698"/><rect clip-path="url(#27922)" stroke-dasharray="none" fill="none" stroke="black" x="0" width="379.26493710691824" height="26"/><text font-family="Arial" fill="black" font-size="15" dominant-baseline="central" x="384.26493710691824" y="13" text-anchor="start">NTRK2</text><text fill="#858585" fill-opacity="0" font-size="13" font-family="Arial" text-anchor="middle" dominant-baseline="hanging" y="50" x="217.6100628930818">starts at 545 AA</text><defs><clipPath id="27922"><rect x="0" y="0" height="26" width="433.44462460691824"/></clipPath></defs><rect clip-path="url(#27922)" fill="white" fill-opacity="0" width="379.26493710691824" height="26"/></g><line stroke="black" stroke-dasharray="3,2" x1="193.02279874213838" y1="34" x2="247.44114998410646" y2="98"/><g transform="translate(193.02279874213838,0)"><text font-family="Arial" font-size="13" fill="black" text-anchor="end" y="39" dominant-baseline="hanging" fill-opacity="1">exon 1, 427 AA</text><rect height="3" fill="black" x="-193.02279874213838" width="193.02279874213838" y="31" fill-opacity="1"/></g><g transform="translate(247.44114998410646,106)"><text font-family="Arial" font-size="13" fill="black" text-anchor="start" y="-13" dominant-baseline="auto" fill-opacity="1">exon 15, 545 AA</text><rect height="3" fill="black" x="0" width="132.9009433962264" y="-8" fill-opacity="1"/></g></g><g transform="translate(40,238)"/><text class="sja_svgtext" fill="black" font-size="12" text-anchor="end" x="664.1796875" y="291" style="display: none;">drag to resize</text><g transform="translate(0,259.525390625)" style="font-family: Arial;"><g><text transform="translate(10,30)" text-anchor="start" font-weight="700" font-size="12" dominant-baseline="central">BCR NM_004327</text><g transform="translate(10,50)"><text transform="translate(12.5,5)" font-size="12" dominant-baseline="central"><tspan dominant-baseline="central" font-weight="700" x="0">Bcr-Abl_Oligo</tspan><tspan dominant-baseline="central" x="90.671875">Bcr-Abl oncoprotein oligomerization domain</tspan></text><rect height="10" width="10" y="0.2373046875" fill="#8dd3c7" stroke="#aaa" shape-rendering="crispEdges"/></g><g transform="translate(10,75)"><text transform="translate(12.5,5)" font-size="12" dominant-baseline="central"><tspan dominant-baseline="central" font-weight="700" x="0">BAT2_N</tspan><tspan dominant-baseline="central" x="55.7890625">BAT2 N-terminus</tspan></text><rect height="10" width="10" y="0.25" fill="#fdb462" stroke="#aaa" shape-rendering="crispEdges"/></g><g transform="translate(10,100)"><text transform="translate(12.5,5)" font-size="12" dominant-baseline="central"><tspan dominant-baseline="central" font-weight="700" x="0">RhoGEF</tspan><tspan dominant-baseline="central" x="58">RhoGEF domain</tspan></text><rect height="10" width="10" y="0.25" fill="#fb8072" stroke="#aaa" shape-rendering="crispEdges"/></g><g transform="translate(10,125)"><text transform="translate(12.5,5)" font-size="12" dominant-baseline="central"><tspan dominant-baseline="central" font-weight="700" x="0">other</tspan><tspan dominant-baseline="central" x="40">GTPase interaction site [polypeptide binding]</tspan></text><rect height="10" width="10" y="0.2373046875" fill="#bebada" stroke="#aaa" shape-rendering="crispEdges"/></g><g transform="translate(10,150)"><text transform="translate(12.5,5)" font-size="12" dominant-baseline="central"><tspan dominant-baseline="central" font-weight="700" x="0">PH_BCR_vertebrate</tspan><tspan dominant-baseline="central" x="124.046875">Breakpoint Cluster Region-related pleckstrin homology (PH) domain</tspan></text><rect height="10" width="10" y="0.2373046875" fill="#E8E89E" stroke="#aaa" shape-rendering="crispEdges"/></g><g transform="translate(10,175)"><text transform="translate(12.5,5)" font-size="12" dominant-baseline="central"><tspan dominant-baseline="central" font-weight="700" x="0">C2_ABR</tspan><tspan dominant-baseline="central" x="58.015625">C2 domain in the Active BCR (Breakpoint cluster region) Related protein</tspan></text><rect height="10" width="10" y="0.2373046875" fill="#e5c494" stroke="#aaa" shape-rendering="crispEdges"/></g><g transform="translate(10,200)"><text transform="translate(12.5,5)" font-size="12" dominant-baseline="central"><tspan dominant-baseline="central" font-weight="700" x="0">RhoGAP_Bcr</tspan><tspan dominant-baseline="central" x="86.015625">RhoGAP_Bcr: RhoGAP (GTPase-activator protein [GAP] for Rho-like small GTPases...</tspan></text><rect height="10" width="10" y="0.2373046875" fill="#ffd92f" stroke="#aaa" shape-rendering="crispEdges"/></g><g transform="translate(10,225)"><text transform="translate(12.5,5)" font-size="12" dominant-baseline="central"><tspan dominant-baseline="central" font-weight="700" x="0">other</tspan><tspan dominant-baseline="central" x="40">putative GTPase interaction site [polypeptide binding]</tspan></text><rect height="10" width="10" y="0.2373046875" fill="#80b1d3" stroke="#aaa" shape-rendering="crispEdges"/></g><g transform="translate(10,250)"><text transform="translate(12.5,5)" font-size="12" dominant-baseline="central"><tspan dominant-baseline="central" font-weight="700" x="0">active</tspan><tspan dominant-baseline="central" x="44.03125">catalytic residue [active]</tspan></text><rect height="10" width="10" y="0.2373046875" fill="#a6d854" stroke="#aaa" shape-rendering="crispEdges"/></g></g><g><text transform="translate(10,280)" text-anchor="start" font-weight="700" font-size="12" dominant-baseline="central">NTRK2 NM_006180</text><g transform="translate(10,300)"><text transform="translate(12.5,5)" font-size="12" dominant-baseline="central"><tspan dominant-baseline="central" font-weight="700" x="0">LRR_8</tspan><tspan dominant-baseline="central" x="48.015625">Leucine rich repeat</tspan></text><rect height="10" width="10" y="0.25" fill="#fb8072" stroke="#aaa" shape-rendering="crispEdges"/></g><g transform="translate(10,325)"><text transform="translate(12.5,5)" font-size="12" dominant-baseline="central"><tspan dominant-baseline="central" font-weight="700" x="0">TPKR_C2</tspan><tspan dominant-baseline="central" x="64.6796875">Tyrosine-protein kinase receptor C2 Ig-like domain</tspan></text><rect height="10" width="10" y="0.2373046875" fill="#ffd92f" stroke="#aaa" shape-rendering="crispEdges"/></g><g transform="translate(10,350)"><text transform="translate(12.5,5)" font-size="12" dominant-baseline="central"><tspan dominant-baseline="central" font-weight="700" x="0">Ig</tspan><tspan dominant-baseline="central" x="20.6640625">Immunoglobulin domain</tspan></text><rect height="10" width="10" y="0.2373046875" fill="#8dd3c7" stroke="#aaa" shape-rendering="crispEdges"/></g><g transform="translate(10,375)"><text transform="translate(12.5,5)" font-size="12" dominant-baseline="central"><tspan dominant-baseline="central" font-weight="700" x="0">Ig_TrkB_d5</tspan><tspan dominant-baseline="central" x="74.6953125">Fifth domain (immunoglobulin-like) of Trk receptor TrkB</tspan></text><rect height="10" width="10" y="0.2373046875" fill="#b3b3b3" stroke="#aaa" shape-rendering="crispEdges"/></g><g transform="translate(10,400)"><text transform="translate(12.5,5)" font-size="12" dominant-baseline="central"><tspan dominant-baseline="central" font-weight="700" x="0">other</tspan><tspan dominant-baseline="central" x="40">interdomain interaction [polypeptide binding]</tspan></text><rect height="10" width="10" y="0.2373046875" fill="#a6d854" stroke="#aaa" shape-rendering="crispEdges"/></g><g transform="translate(10,425)"><text transform="translate(12.5,5)" font-size="12" dominant-baseline="central"><tspan dominant-baseline="central" font-weight="700" x="0">other</tspan><tspan dominant-baseline="central" x="40">receptor binding site [polypeptide binding]</tspan></text><rect height="10" width="10" y="0.2373046875" fill="#E8E89E" stroke="#aaa" shape-rendering="crispEdges"/></g><g transform="translate(10,450)"><text transform="translate(12.5,5)" font-size="12" dominant-baseline="central"><tspan dominant-baseline="central" font-weight="700" x="0">PTKc_TrkB</tspan><tspan dominant-baseline="central" x="74.03125">Catalytic domain of the Protein Tyrosine Kinase, Tropomyosin Related Kinase B</tspan></text><rect height="10" width="10" y="0.2373046875" fill="#e5c494" stroke="#aaa" shape-rendering="crispEdges"/></g><g transform="translate(10,475)"><text transform="translate(12.5,5)" font-size="12" dominant-baseline="central"><tspan dominant-baseline="central" font-weight="700" x="0">Pkinase_Tyr</tspan><tspan dominant-baseline="central" x="79.8203125">Protein tyrosine kinase</tspan></text><rect height="10" width="10" y="0.2373046875" fill="#8dd3c7" stroke="#aaa" shape-rendering="crispEdges"/></g><g transform="translate(10,500)"><text transform="translate(12.5,5)" font-size="12" dominant-baseline="central"><tspan dominant-baseline="central" font-weight="700" x="0">other</tspan><tspan dominant-baseline="central" x="40">ATP binding site [chemical binding]</tspan></text><rect height="10" width="10" y="0.2373046875" fill="#80b1d3" stroke="#aaa" shape-rendering="crispEdges"/></g><g transform="translate(10,525)"><text transform="translate(12.5,5)" font-size="12" dominant-baseline="central"><tspan dominant-baseline="central" font-weight="700" x="0">other</tspan><tspan dominant-baseline="central" x="40">polypeptide substrate binding site [polypeptide binding]</tspan></text><rect height="10" width="10" y="0.2373046875" fill="#bebada" stroke="#aaa" shape-rendering="crispEdges"/></g><g transform="translate(10,550)"><text transform="translate(12.5,5)" font-size="12" dominant-baseline="central"><tspan dominant-baseline="central" font-weight="700" x="0">other</tspan><tspan dominant-baseline="central" x="40">activation loop (A-loop)</tspan></text><rect height="10" width="10" y="0.2373046875" fill="#fdb462" stroke="#aaa" shape-rendering="crispEdges"/></g></g></g></svg>