<svg xmlns="http://www.w3.org/2000/svg" width="1012.6363102000149" height="646.525390625"><g transform="translate(48.5894352000149,70)"><g transform="translate(180.39242133210325,0)"><line y1="-3" stroke="black" stroke-opacity="0" shape-rendering="crispEdges" y2="0"/><rect clip-path="url(#78302)" fill="white" x="0" width="126.3408820023838" height="26"/><rect clip-path="url(#78302)" fill="#8dd3c7" x="34.32657926102503" width="60.548271752085824" height="26"/><line clip-path="url(#78302)" stroke="black" stroke-dasharray="3,2" shape-rendering="crispEdges" y1="0" y2="26" x1="36.23361144219309" x2="36.23361144219309"/><line clip-path="url(#78302)" stroke="black" stroke-dasharray="3,2" shape-rendering="crispEdges" y1="0" y2="26" x1="51.80770758839889" x2="51.80770758839889"/><line clip-path="url(#78302)" stroke="black" stroke-dasharray="3,2" shape-rendering="crispEdges" y1="0" y2="26" x1="61.978545887961864" x2="61.978545887961864"/><line clip-path="url(#78302)" stroke="black" stroke-dasharray="3,2" shape-rendering="crispEdges" y1="0" y2="26" x1="69.12991656734208" x2="69.12991656734208"/><line clip-path="url(#78302)" stroke="black" stroke-dasharray="3,2" shape-rendering="crispEdges" y1="0" y2="26" x1="79.14183551847437" x2="79.14183551847437"/><line clip-path="url(#78302)" stroke="black" stroke-dasharray="3,2" shape-rendering="crispEdges" y1="0" y2="26" x1="91.06078665077473" x2="91.06078665077473"/><rect clip-path="url(#78302)" stroke-dasharray="none" fill="none" stroke="black" x="0" width="126.3408820023838" height="26"/><text font-family="Arial" fill="black" font-size="15" dominant-baseline="central" x="131.3408820023838" y="13">TLE5</text><text fill="#858585" fill-opacity="0" font-size="13" font-family="Arial" text-anchor="middle" dominant-baseline="auto" y="-24">ends at 77 AA</text><defs><clipPath id="78302"><rect x="0" y="0" height="26" width="167.2002570023838"/></clipPath></defs><rect clip-path="url(#78302)" fill="white" fill-opacity="0" width="126.3408820023838" height="26"/></g><g transform="translate(0,106)"><line y1="26" stroke="black" stroke-opacity="0" shape-rendering="crispEdges" y2="29"/><rect clip-path="url(#29986)" fill="white" x="0" width="400" height="26"/><rect clip-path="url(#29986)" fill="#8dd3c7" x="264.12395709177594" width="128.2479141835518" height="26"/><rect clip-path="url(#29986)" fill="#bebada" x="329.9165673420739" width="0" height="26"/><rect clip-path="url(#29986)" fill="#fb8072" x="43.86174016686532" width="27.651966626936826" height="26"/><rect clip-path="url(#29986)" fill="#80b1d3" x="338.49821215733016" width="0" height="26"/><rect clip-path="url(#29986)" fill="#E8E89E" x="159.7139451728248" width="0" height="26"/><rect clip-path="url(#29986)" fill="#bebada" x="331.82359952324197" width="0" height="26"/><rect clip-path="url(#29986)" fill="#80b1d3" x="266.984505363528" width="0.47675804529205834" height="26"/><rect clip-path="url(#29986)" fill="#E8E89E" x="168.29558998808105" width="0" height="26"/><rect clip-path="url(#29986)" fill="#E8E89E" x="166.38855780691298" width="0.4767580452920299" height="26"/><rect clip-path="url(#29986)" fill="#80b1d3" x="304.64839094159714" width="0.4767580452920015" height="26"/><rect clip-path="url(#29986)" fill="#a6d854" x="147.79499404052444" width="0" height="26"/><rect clip-path="url(#29986)" fill="#80b1d3" x="333.253873659118" width="0" height="26"/><rect clip-path="url(#29986)" fill="#bebada" x="369.48748510131105" width="0" height="26"/><rect clip-path="url(#29986)" fill="#80b1d3" x="331.82359952324197" width="0.4767580452920015" height="26"/><rect clip-path="url(#29986)" fill="#bebada" x="353.2777115613826" width="0" height="26"/><rect clip-path="url(#29986)" fill="#80b1d3" x="279.3802145411204" width="0" height="26"/><rect clip-path="url(#29986)" fill="#fdb462" x="338.02145411203816" width="11.918951132300322" height="26"/><rect clip-path="url(#29986)" fill="#bebada" x="347.0798569725864" width="1.9070321811680628" height="26"/><rect clip-path="url(#29986)" fill="#80b1d3" x="301.787842669845" width="1.4302741358760613" height="26"/><rect clip-path="url(#29986)" fill="#ffd92f" x="72.46722288438617" width="20.50059594755662" height="26"/><rect clip-path="url(#29986)" fill="#e5c494" x="261.26340882002387" width="136.82955899880807" height="26"/><rect clip-path="url(#29986)" fill="#b3b3b3" x="143.50417163289632" width="37.18712753277708" height="26"/><rect clip-path="url(#29986)" fill="#8dd3c7" x="97.73539928486294" width="37.187127532777126" height="26"/><rect clip-path="url(#29986)" fill="#80b1d3" x="280.33373063170444" width="0" height="26"/><rect clip-path="url(#29986)" fill="#80b1d3" x="270.7985697258641" width="0" height="26"/><rect clip-path="url(#29986)" fill="#80b1d3" x="268.41477949940406" width="0.4767580452920015" height="26"/><line clip-path="url(#29986)" stroke="black" stroke-dasharray="3,2" shape-rendering="crispEdges" y1="0" y2="26" x1="33.690901867302344" x2="33.690901867302344"/><line clip-path="url(#29986)" stroke="black" stroke-dasharray="3,2" shape-rendering="crispEdges" y1="0" y2="26" x1="45.6098529996027" x2="45.6098529996027"/><line clip-path="url(#29986)" stroke="black" stroke-dasharray="3,2" shape-rendering="crispEdges" y1="0" y2="26" x1="57.05204608661105" x2="57.05204608661105"/><line clip-path="url(#29986)" stroke="black" stroke-dasharray="3,2" shape-rendering="crispEdges" y1="0" y2="26" x1="68.01748112832738" x2="68.01748112832738"/><line clip-path="url(#29986)" stroke="black" stroke-dasharray="3,2" shape-rendering="crispEdges" y1="0" y2="26" x1="92.64998013508145" x2="92.64998013508145"/><line clip-path="url(#29986)" stroke="black" stroke-dasharray="3,2" shape-rendering="crispEdges" y1="0" y2="26" x1="114.42193087008343" x2="114.42193087008343"/><line clip-path="url(#29986)" stroke="black" stroke-dasharray="3,2" shape-rendering="crispEdges" y1="0" y2="26" x1="135.55820421136272" x2="135.55820421136272"/><line clip-path="url(#29986)" stroke="black" stroke-dasharray="3,2" shape-rendering="crispEdges" y1="0" y2="26" x1="184.18752483114818" x2="184.18752483114818"/><line clip-path="url(#29986)" stroke="black" stroke-dasharray="3,2" shape-rendering="crispEdges" y1="0" y2="26" x1="189.90862137465237" x2="189.90862137465237"/><line clip-path="url(#29986)" stroke="black" stroke-dasharray="3,2" shape-rendering="crispEdges" y1="0" y2="26" x1="205.9594755661502" x2="205.9594755661502"/><line clip-path="url(#29986)" stroke="black" stroke-dasharray="3,2" shape-rendering="crispEdges" y1="0" y2="26" x1="221.8514104092173" x2="221.8514104092173"/><line clip-path="url(#29986)" stroke="black" stroke-dasharray="3,2" shape-rendering="crispEdges" y1="0" y2="26" x1="229.47953913388952" x2="229.47953913388952"/><line clip-path="url(#29986)" stroke="black" stroke-dasharray="3,2" shape-rendering="crispEdges" y1="0" y2="26" x1="259.5152959872865" x2="259.5152959872865"/><line clip-path="url(#29986)" stroke="black" stroke-dasharray="3,2" shape-rendering="crispEdges" y1="0" y2="26" x1="280.33373063170444" x2="280.33373063170444"/><line clip-path="url(#29986)" stroke="black" stroke-dasharray="3,2" shape-rendering="crispEdges" y1="0" y2="26" x1="307.8267779102105" x2="307.8267779102105"/><line clip-path="url(#29986)" stroke="black" stroke-dasharray="3,2" shape-rendering="crispEdges" y1="0" y2="26" x1="345.17282479141835" x2="345.17282479141835"/><line clip-path="url(#29986)" stroke="black" stroke-dasharray="3,2" shape-rendering="crispEdges" y1="0" y2="26" x1="370.4410011918951" x2="370.4410011918951"/><rect clip-path="url(#29986)" stroke-dasharray="none" fill="none" stroke="black" x="0" width="400" height="26"/><text font-family="Arial" fill="black" font-size="15" dominant-baseline="central" x="405" y="13">NTRK2</text><text fill="#858585" fill-opacity="0" font-size="13" font-family="Arial" text-anchor="middle" dominant-baseline="hanging" y="50">starts at 466 AA</text><defs><clipPath id="29986"><rect x="0" y="0" height="26" width="454.1796875"/></clipPath></defs><rect clip-path="url(#29986)" fill="white" fill-opacity="0" width="400" height="26"/></g><line stroke="black" stroke-dasharray="3,2" x1="217.10279081958836" y1="34" x2="222.16924910607867" y2="98"/><g transform="translate(217.10279081958836,0)"><text font-family="Arial" font-size="13" fill="black" text-anchor="end" y="39" dominant-baseline="hanging">intron 1, 77 AA</text><rect height="3" fill="black" x="-36.7103694874851" width="36.7103694874851" y="31"/></g><g transform="translate(222.16924910607867,106)"><text font-family="Arial" font-size="13" fill="black" text-anchor="start" y="-13" dominant-baseline="auto">intron 12, 466 AA</text><rect height="3" fill="black" x="0" width="177.83075089392133" y="-8"/></g></g><g transform="translate(48.5894352000149,238)"/><text class="sja_svgtext" fill="black" font-size="12" text-anchor="end" x="497.7691227000149" y="291" style="display: none;">drag to resize</text><g transform="translate(0,259.525390625)" style="font-family: Arial;"><g><text transform="translate(10,30)" text-anchor="start" font-weight="700" font-size="12" dominant-baseline="central">TLE5 NM_198969</text><g transform="translate(10,50)"><text transform="translate(12.5,5)" font-size="12" dominant-baseline="central"><tspan dominant-baseline="central" font-weight="700" x="0">TLE_N</tspan><tspan dominant-baseline="central" x="48.0078125">Groucho/TLE N-terminal Q-rich domain</tspan></text><rect height="10" width="10" y="0.25" fill="#8dd3c7" stroke="#aaa" shape-rendering="crispEdges"/></g></g><g><text transform="translate(10,80)" text-anchor="start" font-weight="700" font-size="12" dominant-baseline="central">NTRK2 NM_006180</text><g transform="translate(10,100)"><text transform="translate(12.5,5)" font-size="12" dominant-baseline="central"><tspan dominant-baseline="central" font-weight="700" x="0">LRR_8</tspan><tspan dominant-baseline="central" x="48.015625">Leucine rich repeat</tspan></text><rect height="10" width="10" y="0.25" fill="#fb8072" stroke="#aaa" shape-rendering="crispEdges"/></g><g transform="translate(10,125)"><text transform="translate(12.5,5)" font-size="12" dominant-baseline="central"><tspan dominant-baseline="central" font-weight="700" x="0">TPKR_C2</tspan><tspan dominant-baseline="central" x="64.6796875">Tyrosine-protein kinase receptor C2 Ig-like domain</tspan></text><rect height="10" width="10" y="0.2373046875" fill="#ffd92f" stroke="#aaa" shape-rendering="crispEdges"/></g><g transform="translate(10,150)"><text transform="translate(12.5,5)" font-size="12" dominant-baseline="central"><tspan dominant-baseline="central" font-weight="700" x="0">Ig</tspan><tspan dominant-baseline="central" x="20.6640625">Immunoglobulin domain</tspan></text><rect height="10" width="10" y="0.2373046875" fill="#8dd3c7" stroke="#aaa" shape-rendering="crispEdges"/></g><g transform="translate(10,175)"><text transform="translate(12.5,5)" font-size="12" dominant-baseline="central"><tspan dominant-baseline="central" font-weight="700" x="0">Ig_TrkB_d5</tspan><tspan dominant-baseline="central" x="74.6953125">Fifth domain (immunoglobulin-like) of Trk receptor TrkB</tspan></text><rect height="10" width="10" y="0.2373046875" fill="#b3b3b3" stroke="#aaa" shape-rendering="crispEdges"/></g><g transform="translate(10,200)"><text transform="translate(12.5,5)" font-size="12" dominant-baseline="central"><tspan dominant-baseline="central" font-weight="700" x="0">other</tspan><tspan dominant-baseline="central" x="40">interdomain interaction [polypeptide binding]</tspan></text><rect height="10" width="10" y="0.2373046875" fill="#a6d854" stroke="#aaa" shape-rendering="crispEdges"/></g><g transform="translate(10,225)"><text transform="translate(12.5,5)" font-size="12" dominant-baseline="central"><tspan dominant-baseline="central" font-weight="700" x="0">other</tspan><tspan dominant-baseline="central" x="40">receptor binding site [polypeptide binding]</tspan></text><rect height="10" width="10" y="0.2373046875" fill="#E8E89E" stroke="#aaa" shape-rendering="crispEdges"/></g><g transform="translate(10,250)"><text transform="translate(12.5,5)" font-size="12" dominant-baseline="central"><tspan dominant-baseline="central" font-weight="700" x="0">PTKc_TrkB</tspan><tspan dominant-baseline="central" x="74.03125">Catalytic domain of the Protein Tyrosine Kinase, Tropomyosin Related Kinase B</tspan></text><rect height="10" width="10" y="0.2373046875" fill="#e5c494" stroke="#aaa" shape-rendering="crispEdges"/></g><g transform="translate(10,275)"><text transform="translate(12.5,5)" font-size="12" dominant-baseline="central"><tspan dominant-baseline="central" font-weight="700" x="0">Pkinase_Tyr</tspan><tspan dominant-baseline="central" x="79.8203125">Protein tyrosine kinase</tspan></text><rect height="10" width="10" y="0.2373046875" fill="#8dd3c7" stroke="#aaa" shape-rendering="crispEdges"/></g><g transform="translate(10,300)"><text transform="translate(12.5,5)" font-size="12" dominant-baseline="central"><tspan dominant-baseline="central" font-weight="700" x="0">other</tspan><tspan dominant-baseline="central" x="40">ATP binding site [chemical binding]</tspan></text><rect height="10" width="10" y="0.2373046875" fill="#80b1d3" stroke="#aaa" shape-rendering="crispEdges"/></g><g transform="translate(10,325)"><text transform="translate(12.5,5)" font-size="12" dominant-baseline="central"><tspan dominant-baseline="central" font-weight="700" x="0">other</tspan><tspan dominant-baseline="central" x="40">polypeptide substrate binding site [polypeptide binding]</tspan></text><rect height="10" width="10" y="0.2373046875" fill="#bebada" stroke="#aaa" shape-rendering="crispEdges"/></g><g transform="translate(10,350)"><text transform="translate(12.5,5)" font-size="12" dominant-baseline="central"><tspan dominant-baseline="central" font-weight="700" x="0">other</tspan><tspan dominant-baseline="central" x="40">activation loop (A-loop)</tspan></text><rect height="10" width="10" y="0.2373046875" fill="#fdb462" stroke="#aaa" shape-rendering="crispEdges"/></g></g></g></svg>