<svg xmlns="http://www.w3.org/2000/svg" width="1004.046875" height="696.525390625"><g transform="translate(40,70)"><g transform="translate(0,0)"><line y1="-3" stroke="black" stroke-opacity="0" shape-rendering="crispEdges" y2="0"/><rect clip-path="url(#39536)" fill="white" x="0" width="388.5578069129917" height="26"/><rect clip-path="url(#39536)" fill="#8dd3c7" x="68.17640047675805" width="50.53635280095352" height="26"/><rect clip-path="url(#39536)" fill="#fb8072" x="165.43504171632895" width="47.675804529201486" height="26"/><rect clip-path="url(#39536)" fill="#80b1d3" x="73.89749702026222" width="43.86174016686533" height="26"/><rect clip-path="url(#39536)" fill="#80b1d3" x="167.34207389749704" width="39.094159713945174" height="26"/><line clip-path="url(#39536)" stroke="black" stroke-dasharray="3,2" shape-rendering="crispEdges" y1="0" y2="26" x1="20.182757250695275" x2="20.182757250695275"/><line clip-path="url(#39536)" stroke="black" stroke-dasharray="3,2" shape-rendering="crispEdges" y1="0" y2="26" x1="35.75685339690107" x2="35.75685339690107"/><line clip-path="url(#39536)" stroke="black" stroke-dasharray="3,2" shape-rendering="crispEdges" y1="0" y2="26" x1="53.07906237584426" x2="53.07906237584426"/><line clip-path="url(#39536)" stroke="black" stroke-dasharray="3,2" shape-rendering="crispEdges" y1="0" y2="26" x1="86.7699642431466" x2="86.7699642431466"/><line clip-path="url(#39536)" stroke="black" stroke-dasharray="3,2" shape-rendering="crispEdges" y1="0" y2="26" x1="115.37544696066747" x2="115.37544696066747"/><line clip-path="url(#39536)" stroke="black" stroke-dasharray="3,2" shape-rendering="crispEdges" y1="0" y2="26" x1="130.63170441001193" x2="130.63170441001193"/><line clip-path="url(#39536)" stroke="black" stroke-dasharray="3,2" shape-rendering="crispEdges" y1="0" y2="26" x1="143.66309098132697" x2="143.66309098132697"/><line clip-path="url(#39536)" stroke="black" stroke-dasharray="3,2" shape-rendering="crispEdges" y1="0" y2="26" x1="167.5009932459277" x2="167.5009932459277"/><line clip-path="url(#39536)" stroke="black" stroke-dasharray="3,2" shape-rendering="crispEdges" y1="0" y2="26" x1="201.19189511323006" x2="201.19189511323006"/><line clip-path="url(#39536)" stroke="black" stroke-dasharray="3,2" shape-rendering="crispEdges" y1="0" y2="26" x1="224.3941199841081" x2="224.3941199841081"/><line clip-path="url(#39536)" stroke="black" stroke-dasharray="3,2" shape-rendering="crispEdges" y1="0" y2="26" x1="243.14660309892733" x2="243.14660309892733"/><line clip-path="url(#39536)" stroke="black" stroke-dasharray="3,2" shape-rendering="crispEdges" y1="0" y2="26" x1="283.1942789034565" x2="283.1942789034565"/><line clip-path="url(#39536)" stroke="black" stroke-dasharray="3,2" shape-rendering="crispEdges" y1="0" y2="26" x1="301.4700039729837" x2="301.4700039729837"/><line clip-path="url(#39536)" stroke="black" stroke-dasharray="3,2" shape-rendering="crispEdges" y1="0" y2="26" x1="327.6916964640445" x2="327.6916964640445"/><line clip-path="url(#39536)" stroke="black" stroke-dasharray="3,2" shape-rendering="crispEdges" y1="0" y2="26" x1="358.0452920143028" x2="358.0452920143028"/><line clip-path="url(#39536)" stroke="black" stroke-dasharray="3,2" shape-rendering="crispEdges" y1="0" y2="26" x1="384.26698450536355" x2="384.26698450536355"/><rect clip-path="url(#39536)" stroke-dasharray="none" fill="none" stroke="black" x="0" width="388.5578069129917" height="26"/><text font-family="Arial" fill="black" font-size="15" dominant-baseline="central" x="393.5578069129917" y="13">AFAP1</text><text fill="#858585" fill-opacity="0" font-size="13" font-family="Arial" text-anchor="middle" dominant-baseline="auto" y="-24">ends at 632 AA</text><defs><clipPath id="39536"><rect x="0" y="0" height="26" width="440.2750920692417"/></clipPath></defs><rect clip-path="url(#39536)" fill="white" fill-opacity="0" width="388.5578069129917" height="26"/></g><g transform="translate(0,106)"><line y1="26" stroke="black" stroke-opacity="0" shape-rendering="crispEdges" y2="29"/><rect clip-path="url(#32292)" fill="white" x="0" width="400" height="26"/><rect clip-path="url(#32292)" fill="#8dd3c7" x="264.12395709177594" width="128.2479141835518" height="26"/><rect clip-path="url(#32292)" fill="#bebada" x="329.9165673420739" width="0" height="26"/><rect clip-path="url(#32292)" fill="#fb8072" x="43.86174016686532" width="27.651966626936826" height="26"/><rect clip-path="url(#32292)" fill="#80b1d3" x="338.49821215733016" width="0" height="26"/><rect clip-path="url(#32292)" fill="#E8E89E" x="159.7139451728248" width="0" height="26"/><rect clip-path="url(#32292)" fill="#bebada" x="331.82359952324197" width="0" height="26"/><rect clip-path="url(#32292)" fill="#80b1d3" x="266.984505363528" width="0.47675804529205834" height="26"/><rect clip-path="url(#32292)" fill="#E8E89E" x="168.29558998808105" width="0" height="26"/><rect clip-path="url(#32292)" fill="#E8E89E" x="166.38855780691298" width="0.4767580452920299" height="26"/><rect clip-path="url(#32292)" fill="#80b1d3" x="304.64839094159714" width="0.4767580452920015" height="26"/><rect clip-path="url(#32292)" fill="#a6d854" x="147.79499404052444" width="0" height="26"/><rect clip-path="url(#32292)" fill="#80b1d3" x="333.253873659118" width="0" height="26"/><rect clip-path="url(#32292)" fill="#bebada" x="369.48748510131105" width="0" height="26"/><rect clip-path="url(#32292)" fill="#80b1d3" x="331.82359952324197" width="0.4767580452920015" height="26"/><rect clip-path="url(#32292)" fill="#bebada" x="353.2777115613826" width="0" height="26"/><rect clip-path="url(#32292)" fill="#80b1d3" x="279.3802145411204" width="0" height="26"/><rect clip-path="url(#32292)" fill="#fdb462" x="338.02145411203816" width="11.918951132300322" height="26"/><rect clip-path="url(#32292)" fill="#bebada" x="347.0798569725864" width="1.9070321811680628" height="26"/><rect clip-path="url(#32292)" fill="#80b1d3" x="301.787842669845" width="1.4302741358760613" height="26"/><rect clip-path="url(#32292)" fill="#ffd92f" x="72.46722288438617" width="20.50059594755662" height="26"/><rect clip-path="url(#32292)" fill="#e5c494" x="261.26340882002387" width="136.82955899880807" height="26"/><rect clip-path="url(#32292)" fill="#b3b3b3" x="143.50417163289632" width="37.18712753277708" height="26"/><rect clip-path="url(#32292)" fill="#8dd3c7" x="97.73539928486294" width="37.187127532777126" height="26"/><rect clip-path="url(#32292)" fill="#80b1d3" x="280.33373063170444" width="0" height="26"/><rect clip-path="url(#32292)" fill="#80b1d3" x="270.7985697258641" width="0" height="26"/><rect clip-path="url(#32292)" fill="#80b1d3" x="268.41477949940406" width="0.4767580452920015" height="26"/><line clip-path="url(#32292)" stroke="black" stroke-dasharray="3,2" shape-rendering="crispEdges" y1="0" y2="26" x1="33.690901867302344" x2="33.690901867302344"/><line clip-path="url(#32292)" stroke="black" stroke-dasharray="3,2" shape-rendering="crispEdges" y1="0" y2="26" x1="45.6098529996027" x2="45.6098529996027"/><line clip-path="url(#32292)" stroke="black" stroke-dasharray="3,2" shape-rendering="crispEdges" y1="0" y2="26" x1="57.05204608661105" x2="57.05204608661105"/><line clip-path="url(#32292)" stroke="black" stroke-dasharray="3,2" shape-rendering="crispEdges" y1="0" y2="26" x1="68.01748112832738" x2="68.01748112832738"/><line clip-path="url(#32292)" stroke="black" stroke-dasharray="3,2" shape-rendering="crispEdges" y1="0" y2="26" x1="92.64998013508145" x2="92.64998013508145"/><line clip-path="url(#32292)" stroke="black" stroke-dasharray="3,2" shape-rendering="crispEdges" y1="0" y2="26" x1="114.42193087008343" x2="114.42193087008343"/><line clip-path="url(#32292)" stroke="black" stroke-dasharray="3,2" shape-rendering="crispEdges" y1="0" y2="26" x1="135.55820421136272" x2="135.55820421136272"/><line clip-path="url(#32292)" stroke="black" stroke-dasharray="3,2" shape-rendering="crispEdges" y1="0" y2="26" x1="184.18752483114818" x2="184.18752483114818"/><line clip-path="url(#32292)" stroke="black" stroke-dasharray="3,2" shape-rendering="crispEdges" y1="0" y2="26" x1="189.90862137465237" x2="189.90862137465237"/><line clip-path="url(#32292)" stroke="black" stroke-dasharray="3,2" shape-rendering="crispEdges" y1="0" y2="26" x1="205.9594755661502" x2="205.9594755661502"/><line clip-path="url(#32292)" stroke="black" stroke-dasharray="3,2" shape-rendering="crispEdges" y1="0" y2="26" x1="221.8514104092173" x2="221.8514104092173"/><line clip-path="url(#32292)" stroke="black" stroke-dasharray="3,2" shape-rendering="crispEdges" y1="0" y2="26" x1="229.47953913388952" x2="229.47953913388952"/><line clip-path="url(#32292)" stroke="black" stroke-dasharray="3,2" shape-rendering="crispEdges" y1="0" y2="26" x1="259.5152959872865" x2="259.5152959872865"/><line clip-path="url(#32292)" stroke="black" stroke-dasharray="3,2" shape-rendering="crispEdges" y1="0" y2="26" x1="280.33373063170444" x2="280.33373063170444"/><line clip-path="url(#32292)" stroke="black" stroke-dasharray="3,2" shape-rendering="crispEdges" y1="0" y2="26" x1="307.8267779102105" x2="307.8267779102105"/><line clip-path="url(#32292)" stroke="black" stroke-dasharray="3,2" shape-rendering="crispEdges" y1="0" y2="26" x1="345.17282479141835" x2="345.17282479141835"/><line clip-path="url(#32292)" stroke="black" stroke-dasharray="3,2" shape-rendering="crispEdges" y1="0" y2="26" x1="370.4410011918951" x2="370.4410011918951"/><rect clip-path="url(#32292)" stroke-dasharray="none" fill="none" stroke="black" x="0" width="400" height="26"/><text font-family="Arial" fill="black" font-size="15" dominant-baseline="central" x="405" y="13">NTRK2</text><text fill="#858585" fill-opacity="0" font-size="13" font-family="Arial" text-anchor="middle" dominant-baseline="hanging" y="50">starts at 387 AA</text><defs><clipPath id="32292"><rect x="0" y="0" height="26" width="454.1796875"/></clipPath></defs><rect clip-path="url(#32292)" fill="white" fill-opacity="0" width="400" height="26"/></g><line stroke="black" stroke-dasharray="3,2" x1="301.311084624553" y1="34" x2="184.50536352800952" y2="98"/><g transform="translate(301.311084624553,0)"><text font-family="Arial" font-size="13" fill="black" text-anchor="start" y="39" dominant-baseline="hanging">exon 14, 632 AA</text><rect height="3" fill="black" x="-301.311084624553" width="301.311084624553" y="31"/></g><g transform="translate(184.50536352800952,106)"><text font-family="Arial" font-size="13" fill="black" text-anchor="end" y="-13" dominant-baseline="auto">exon 10, 387 AA</text><rect height="3" fill="black" x="0" width="215.49463647199048" y="-8"/></g></g><g transform="translate(40,238)"/><text class="sja_svgtext" fill="black" font-size="12" text-anchor="end" x="489.1796875" y="291" style="display: none;">drag to resize</text><g transform="translate(0,259.525390625)" style="font-family: Arial;"><g><text transform="translate(10,30)" text-anchor="start" font-weight="700" font-size="12" dominant-baseline="central">AFAP1 NM_001134647</text><g transform="translate(10,50)"><text transform="translate(12.5,5)" font-size="12" dominant-baseline="central"><tspan dominant-baseline="central" font-weight="700" x="0">PH1_AFAP</tspan><tspan dominant-baseline="central" x="72.0234375">Actin filament associated protein family Pleckstrin homology (PH) domain, rep...</tspan></text><rect height="10" width="10" y="0.2373046875" fill="#8dd3c7" stroke="#aaa" shape-rendering="crispEdges"/></g><g transform="translate(10,75)"><text transform="translate(12.5,5)" font-size="12" dominant-baseline="central"><tspan dominant-baseline="central" font-weight="700" x="0">PH</tspan><tspan dominant-baseline="central" x="26.671875">PH domain</tspan></text><rect height="10" width="10" y="0.25" fill="#80b1d3" stroke="#aaa" shape-rendering="crispEdges"/></g><g transform="translate(10,100)"><text transform="translate(12.5,5)" font-size="12" dominant-baseline="central"><tspan dominant-baseline="central" font-weight="700" x="0">PH2_AFAP</tspan><tspan dominant-baseline="central" x="72.0234375">Actin filament associated protein family Pleckstrin homology (PH) domain, rep...</tspan></text><rect height="10" width="10" y="0.2373046875" fill="#fb8072" stroke="#aaa" shape-rendering="crispEdges"/></g></g><g><text transform="translate(10,130)" text-anchor="start" font-weight="700" font-size="12" dominant-baseline="central">NTRK2 NM_006180</text><g transform="translate(10,150)"><text transform="translate(12.5,5)" font-size="12" dominant-baseline="central"><tspan dominant-baseline="central" font-weight="700" x="0">LRR_8</tspan><tspan dominant-baseline="central" x="48.015625">Leucine rich repeat</tspan></text><rect height="10" width="10" y="0.25" fill="#fb8072" stroke="#aaa" shape-rendering="crispEdges"/></g><g transform="translate(10,175)"><text transform="translate(12.5,5)" font-size="12" dominant-baseline="central"><tspan dominant-baseline="central" font-weight="700" x="0">TPKR_C2</tspan><tspan dominant-baseline="central" x="64.6796875">Tyrosine-protein kinase receptor C2 Ig-like domain</tspan></text><rect height="10" width="10" y="0.2373046875" fill="#ffd92f" stroke="#aaa" shape-rendering="crispEdges"/></g><g transform="translate(10,200)"><text transform="translate(12.5,5)" font-size="12" dominant-baseline="central"><tspan dominant-baseline="central" font-weight="700" x="0">Ig</tspan><tspan dominant-baseline="central" x="20.6640625">Immunoglobulin domain</tspan></text><rect height="10" width="10" y="0.2373046875" fill="#8dd3c7" stroke="#aaa" shape-rendering="crispEdges"/></g><g transform="translate(10,225)"><text transform="translate(12.5,5)" font-size="12" dominant-baseline="central"><tspan dominant-baseline="central" font-weight="700" x="0">Ig_TrkB_d5</tspan><tspan dominant-baseline="central" x="74.6953125">Fifth domain (immunoglobulin-like) of Trk receptor TrkB</tspan></text><rect height="10" width="10" y="0.2373046875" fill="#b3b3b3" stroke="#aaa" shape-rendering="crispEdges"/></g><g transform="translate(10,250)"><text transform="translate(12.5,5)" font-size="12" dominant-baseline="central"><tspan dominant-baseline="central" font-weight="700" x="0">other</tspan><tspan dominant-baseline="central" x="40">interdomain interaction [polypeptide binding]</tspan></text><rect height="10" width="10" y="0.2373046875" fill="#a6d854" stroke="#aaa" shape-rendering="crispEdges"/></g><g transform="translate(10,275)"><text transform="translate(12.5,5)" font-size="12" dominant-baseline="central"><tspan dominant-baseline="central" font-weight="700" x="0">other</tspan><tspan dominant-baseline="central" x="40">receptor binding site [polypeptide binding]</tspan></text><rect height="10" width="10" y="0.2373046875" fill="#E8E89E" stroke="#aaa" shape-rendering="crispEdges"/></g><g transform="translate(10,300)"><text transform="translate(12.5,5)" font-size="12" dominant-baseline="central"><tspan dominant-baseline="central" font-weight="700" x="0">PTKc_TrkB</tspan><tspan dominant-baseline="central" x="74.03125">Catalytic domain of the Protein Tyrosine Kinase, Tropomyosin Related Kinase B</tspan></text><rect height="10" width="10" y="0.2373046875" fill="#e5c494" stroke="#aaa" shape-rendering="crispEdges"/></g><g transform="translate(10,325)"><text transform="translate(12.5,5)" font-size="12" dominant-baseline="central"><tspan dominant-baseline="central" font-weight="700" x="0">Pkinase_Tyr</tspan><tspan dominant-baseline="central" x="79.8203125">Protein tyrosine kinase</tspan></text><rect height="10" width="10" y="0.2373046875" fill="#8dd3c7" stroke="#aaa" shape-rendering="crispEdges"/></g><g transform="translate(10,350)"><text transform="translate(12.5,5)" font-size="12" dominant-baseline="central"><tspan dominant-baseline="central" font-weight="700" x="0">other</tspan><tspan dominant-baseline="central" x="40">ATP binding site [chemical binding]</tspan></text><rect height="10" width="10" y="0.2373046875" fill="#80b1d3" stroke="#aaa" shape-rendering="crispEdges"/></g><g transform="translate(10,375)"><text transform="translate(12.5,5)" font-size="12" dominant-baseline="central"><tspan dominant-baseline="central" font-weight="700" x="0">other</tspan><tspan dominant-baseline="central" x="40">polypeptide substrate binding site [polypeptide binding]</tspan></text><rect height="10" width="10" y="0.2373046875" fill="#bebada" stroke="#aaa" shape-rendering="crispEdges"/></g><g transform="translate(10,400)"><text transform="translate(12.5,5)" font-size="12" dominant-baseline="central"><tspan dominant-baseline="central" font-weight="700" x="0">other</tspan><tspan dominant-baseline="central" x="40">activation loop (A-loop)</tspan></text><rect height="10" width="10" y="0.2373046875" fill="#fdb462" stroke="#aaa" shape-rendering="crispEdges"/></g></g></g></svg>