<svg xmlns="http://www.w3.org/2000/svg" width="1170.3671875" height="921.525390625"><g transform="translate(40,70)"><g transform="translate(0,0)"><line y1="-3" stroke="black" stroke-opacity="0" shape-rendering="crispEdges" y2="0"/><rect clip-path="url(#60077)" fill="white" x="0" width="400" height="26"/><rect clip-path="url(#60077)" fill="#8dd3c7" x="301.7543859649123" width="53.9473684210526" height="26"/><rect clip-path="url(#60077)" fill="#bebada" x="19.298245614035086" width="48.245614035087726" height="26"/><rect clip-path="url(#60077)" fill="#8dd3c7" x="21.49122807017544" width="47.80701754385966" height="26"/><rect clip-path="url(#60077)" fill="#fb8072" x="113.1578947368421" width="41.66666666666667" height="26"/><rect clip-path="url(#60077)" fill="#E8E89E" x="68.85964912280701" width="41.2280701754386" height="26"/><rect clip-path="url(#60077)" fill="#b3b3b3" x="211.84210526315786" width="32.89473684210529" height="26"/><rect clip-path="url(#60077)" fill="#e5c494" x="357.4561403508772" width="25" height="26"/><rect clip-path="url(#60077)" fill="#fdb462" x="285.08771929824564" width="12.71929824561397" height="26"/><rect clip-path="url(#60077)" fill="#ffd92f" x="349.1228070175439" width="1.3157894736841627" height="26"/><rect clip-path="url(#60077)" fill="#ffd92f" x="351.7543859649123" width="0.8771929824561084" height="26"/><rect clip-path="url(#60077)" fill="#80b1d3" x="116.22807017543859" width="0.43859649122808264" height="26"/><rect clip-path="url(#60077)" fill="#80b1d3" x="73.24561403508771" width="0.43859649122806843" height="26"/><rect clip-path="url(#60077)" fill="#a6d854" x="361.84210526315786" width="0" height="26"/><rect clip-path="url(#60077)" fill="#ffd92f" x="345.6140350877193" width="0" height="26"/><rect clip-path="url(#60077)" fill="#a6d854" x="370.6140350877193" width="0" height="26"/><rect clip-path="url(#60077)" fill="#ffd92f" x="344.7368421052631" width="0" height="26"/><rect clip-path="url(#60077)" fill="#ffd92f" x="342.98245614035085" width="0" height="26"/><rect clip-path="url(#60077)" fill="#ffd92f" x="348.2456140350877" width="0" height="26"/><line clip-path="url(#60077)" stroke="black" stroke-dasharray="3,2" shape-rendering="crispEdges" y1="0" y2="26" x1="13.304093567251464" x2="13.304093567251464"/><line clip-path="url(#60077)" stroke="black" stroke-dasharray="3,2" shape-rendering="crispEdges" y1="0" y2="26" x1="68.12865497076024" x2="68.12865497076024"/><line clip-path="url(#60077)" stroke="black" stroke-dasharray="3,2" shape-rendering="crispEdges" y1="0" y2="26" x1="93.71345029239765" x2="93.71345029239765"/><line clip-path="url(#60077)" stroke="black" stroke-dasharray="3,2" shape-rendering="crispEdges" y1="0" y2="26" x1="112.42690058479532" x2="112.42690058479532"/><line clip-path="url(#60077)" stroke="black" stroke-dasharray="3,2" shape-rendering="crispEdges" y1="0" y2="26" x1="155.4093567251462" x2="155.4093567251462"/><line clip-path="url(#60077)" stroke="black" stroke-dasharray="3,2" shape-rendering="crispEdges" y1="0" y2="26" x1="189.61988304093566" x2="189.61988304093566"/><line clip-path="url(#60077)" stroke="black" stroke-dasharray="3,2" shape-rendering="crispEdges" y1="0" y2="26" x1="283.9181286549708" x2="283.9181286549708"/><line clip-path="url(#60077)" stroke="black" stroke-dasharray="3,2" shape-rendering="crispEdges" y1="0" y2="26" x1="299.70760233918134" x2="299.70760233918134"/><line clip-path="url(#60077)" stroke="black" stroke-dasharray="3,2" shape-rendering="crispEdges" y1="0" y2="26" x1="322.95321637426906" x2="322.95321637426906"/><line clip-path="url(#60077)" stroke="black" stroke-dasharray="3,2" shape-rendering="crispEdges" y1="0" y2="26" x1="335.08771929824564" x2="335.08771929824564"/><line clip-path="url(#60077)" stroke="black" stroke-dasharray="3,2" shape-rendering="crispEdges" y1="0" y2="26" x1="356.2865497076023" x2="356.2865497076023"/><line clip-path="url(#60077)" stroke="black" stroke-dasharray="3,2" shape-rendering="crispEdges" y1="0" y2="26" x1="384.2105263157895" x2="384.2105263157895"/><rect clip-path="url(#60077)" stroke-dasharray="none" fill="none" stroke="black" x="0" width="400" height="26"/><text font-family="Arial" fill="black" font-size="15" dominant-baseline="central" x="405" y="13">BCAN</text><text fill="#858585" fill-opacity="0" font-size="13" font-family="Arial" text-anchor="middle" dominant-baseline="auto" y="-24">ends at 355 AA</text><defs><clipPath id="60077"><rect x="0" y="0" height="26" width="446.6796875"/></clipPath></defs><rect clip-path="url(#60077)" fill="white" fill-opacity="0" width="400" height="26"/></g><g transform="translate(41.25202114922537,106)"><line y1="26" stroke="black" stroke-opacity="0" shape-rendering="crispEdges" y2="29"/><rect clip-path="url(#40390)" fill="white" x="0" width="346.9298245614035" height="26"/><rect clip-path="url(#40390)" fill="#8dd3c7" x="85.52631578947368" width="38.157894736842096" height="26"/><rect clip-path="url(#40390)" fill="#bebada" x="51.315789473684205" width="9.649122807017548" height="26"/><rect clip-path="url(#40390)" fill="#fb8072" x="235.96491228070175" width="0" height="26"/><rect clip-path="url(#40390)" fill="#fb8072" x="258.3333333333333" width="0.43859649122811106" height="26"/><rect clip-path="url(#40390)" fill="#fb8072" x="284.2105263157895" width="0.4385964912280542" height="26"/><rect clip-path="url(#40390)" fill="#fb8072" x="235.08771929824562" width="0" height="26"/><rect clip-path="url(#40390)" fill="#80b1d3" x="135.08771929824562" width="0" height="26"/><rect clip-path="url(#40390)" fill="#E8E89E" x="303.94736842105266" width="0" height="26"/><rect clip-path="url(#40390)" fill="#fb8072" x="227.19298245614036" width="0" height="26"/><rect clip-path="url(#40390)" fill="#a6d854" x="66.22807017543859" width="17.982456140350877" height="26"/><rect clip-path="url(#40390)" fill="#fdb462" x="131.140350877193" width="35.08771929824562" height="26"/><rect clip-path="url(#40390)" fill="#E8E89E" x="298.2456140350877" width="1.7543859649122737" height="26"/><rect clip-path="url(#40390)" fill="#fb8072" x="223.68421052631578" width="0.43859649122808264" height="26"/><rect clip-path="url(#40390)" fill="#ffd92f" x="146.05263157894737" width="0" height="26"/><rect clip-path="url(#40390)" fill="#fb8072" x="290.35087719298247" width="0" height="26"/><rect clip-path="url(#40390)" fill="#e5c494" x="221.05263157894737" width="118.85964912280699" height="26"/><rect clip-path="url(#40390)" fill="#fb8072" x="285.52631578947364" width="0" height="26"/><rect clip-path="url(#40390)" fill="#b3b3b3" x="218.42105263157896" width="122.36842105263156" height="26"/><rect clip-path="url(#40390)" fill="#fb8072" x="225" width="0.43859649122808264" height="26"/><rect clip-path="url(#40390)" fill="#8dd3c7" x="289.9122807017544" width="10.964912280701753" height="26"/><rect clip-path="url(#40390)" fill="#ffd92f" x="153.0701754385965" width="0.43859649122808264" height="26"/><rect clip-path="url(#40390)" fill="#E8E89E" x="282.4561403508772" width="0" height="26"/><rect clip-path="url(#40390)" fill="#ffd92f" x="154.82456140350877" width="0" height="26"/><rect clip-path="url(#40390)" fill="#bebada" x="40.35087719298246" width="25.43859649122806" height="26"/><rect clip-path="url(#40390)" fill="#80b1d3" x="123.24561403508771" width="0.43859649122806843" height="26"/><rect clip-path="url(#40390)" fill="#bebada" x="29.82456140350877" width="10.526315789473689" height="26"/><rect clip-path="url(#40390)" fill="#E8E89E" x="318.859649122807" width="0" height="26"/><rect clip-path="url(#40390)" fill="#bebada" x="40.78947368421053" width="10.087719298245617" height="26"/><rect clip-path="url(#40390)" fill="#E8E89E" x="284.2105263157895" width="0" height="26"/><rect clip-path="url(#40390)" fill="#fb8072" x="255.7017543859649" width="1.315789473684191" height="26"/><rect clip-path="url(#40390)" fill="#bebada" x="61.40350877192982" width="5.26315789473685" height="26"/><line clip-path="url(#40390)" stroke="black" stroke-dasharray="3,2" shape-rendering="crispEdges" y1="0" y2="26" x1="30.99415204678363" x2="30.99415204678363"/><line clip-path="url(#40390)" stroke="black" stroke-dasharray="3,2" shape-rendering="crispEdges" y1="0" y2="26" x1="41.959064327485386" x2="41.959064327485386"/><line clip-path="url(#40390)" stroke="black" stroke-dasharray="3,2" shape-rendering="crispEdges" y1="0" y2="26" x1="52.485380116959064" x2="52.485380116959064"/><line clip-path="url(#40390)" stroke="black" stroke-dasharray="3,2" shape-rendering="crispEdges" y1="0" y2="26" x1="62.57309941520467" x2="62.57309941520467"/><line clip-path="url(#40390)" stroke="black" stroke-dasharray="3,2" shape-rendering="crispEdges" y1="0" y2="26" x1="83.91812865497077" x2="83.91812865497077"/><line clip-path="url(#40390)" stroke="black" stroke-dasharray="3,2" shape-rendering="crispEdges" y1="0" y2="26" x1="104.82456140350878" x2="104.82456140350878"/><line clip-path="url(#40390)" stroke="black" stroke-dasharray="3,2" shape-rendering="crispEdges" y1="0" y2="26" x1="124.26900584795321" x2="124.26900584795321"/><line clip-path="url(#40390)" stroke="black" stroke-dasharray="3,2" shape-rendering="crispEdges" y1="0" y2="26" x1="172.07602339181287" x2="172.07602339181287"/><line clip-path="url(#40390)" stroke="black" stroke-dasharray="3,2" shape-rendering="crispEdges" y1="0" y2="26" x1="180.26315789473685" x2="180.26315789473685"/><line clip-path="url(#40390)" stroke="black" stroke-dasharray="3,2" shape-rendering="crispEdges" y1="0" y2="26" x1="195.3216374269006" x2="195.3216374269006"/><line clip-path="url(#40390)" stroke="black" stroke-dasharray="3,2" shape-rendering="crispEdges" y1="0" y2="26" x1="216.81286549707602" x2="216.81286549707602"/><line clip-path="url(#40390)" stroke="black" stroke-dasharray="3,2" shape-rendering="crispEdges" y1="0" y2="26" x1="235.96491228070175" x2="235.96491228070175"/><line clip-path="url(#40390)" stroke="black" stroke-dasharray="3,2" shape-rendering="crispEdges" y1="0" y2="26" x1="261.2573099415205" x2="261.2573099415205"/><line clip-path="url(#40390)" stroke="black" stroke-dasharray="3,2" shape-rendering="crispEdges" y1="0" y2="26" x1="296.49122807017545" x2="296.49122807017545"/><line clip-path="url(#40390)" stroke="black" stroke-dasharray="3,2" shape-rendering="crispEdges" y1="0" y2="26" x1="319.7368421052632" x2="319.7368421052632"/><rect clip-path="url(#40390)" stroke-dasharray="none" fill="none" stroke="black" x="0" width="346.9298245614035" height="26"/><text font-family="Arial" fill="black" font-size="15" dominant-baseline="central" x="351.9298245614035" y="13">NTRK1</text><text fill="#858585" fill-opacity="0" font-size="13" font-family="Arial" text-anchor="middle" dominant-baseline="hanging" y="50">starts at 284 AA</text><defs><clipPath id="40390"><rect x="0" y="0" height="26" width="401.1095120614035"/></clipPath></defs><rect clip-path="url(#40390)" fill="white" fill-opacity="0" width="346.9298245614035" height="26"/></g><line stroke="black" stroke-dasharray="3,2" x1="155.70175438596493" y1="34" x2="165.8134246579973" y2="98"/><g transform="translate(155.70175438596493,0)"><text font-family="Arial" font-size="13" fill="black" text-anchor="end" y="39" dominant-baseline="hanging">exon 6, 355 AA</text><rect height="3" fill="black" x="-155.70175438596493" width="155.70175438596493" y="31"/></g><g transform="translate(165.8134246579973,106)"><text font-family="Arial" font-size="13" fill="black" text-anchor="start" y="-13" dominant-baseline="auto">exon 8, 284 AA</text><rect height="3" fill="black" x="0" width="222.36842105263156" y="-8"/></g></g><g transform="translate(40,238)"/><text class="sja_svgtext" fill="black" font-size="12" text-anchor="end" x="489.1796875" y="291" style="display: none;">drag to resize</text><g transform="translate(0,259.525390625)" style="font-family: Arial;"><g><text transform="translate(10,30)" text-anchor="start" font-weight="700" font-size="12" dominant-baseline="central">BCAN NM_021948</text><g transform="translate(10,50)"><text transform="translate(12.5,5)" font-size="12" dominant-baseline="central"><tspan dominant-baseline="central" font-weight="700" x="0">IG_like</tspan><tspan dominant-baseline="central" x="49.359375">Immunoglobulin like</tspan></text><rect height="10" width="10" y="0.2373046875" fill="#bebada" stroke="#aaa" shape-rendering="crispEdges"/></g><g transform="translate(10,75)"><text transform="translate(12.5,5)" font-size="12" dominant-baseline="central"><tspan dominant-baseline="central" font-weight="700" x="0">Ig</tspan><tspan dominant-baseline="central" x="20.6640625">Immunoglobulin domain</tspan></text><rect height="10" width="10" y="0.2373046875" fill="#8dd3c7" stroke="#aaa" shape-rendering="crispEdges"/></g><g transform="translate(10,100)"><text transform="translate(12.5,5)" font-size="12" dominant-baseline="central"><tspan dominant-baseline="central" font-weight="700" x="0">Link_domain_CSPGs_modules_1_3</tspan><tspan dominant-baseline="central" x="214.078125">Link_domain_CSPGs_modules_1_3; this extracellular link domain is found in the...</tspan></text><rect height="10" width="10" y="0.25" fill="#E8E89E" stroke="#aaa" shape-rendering="crispEdges"/></g><g transform="translate(10,125)"><text transform="translate(12.5,5)" font-size="12" dominant-baseline="central"><tspan dominant-baseline="central" font-weight="700" x="0">other</tspan><tspan dominant-baseline="central" x="40">putative hyaluronan binding site [chemical binding]</tspan></text><rect height="10" width="10" y="0.2373046875" fill="#80b1d3" stroke="#aaa" shape-rendering="crispEdges"/></g><g transform="translate(10,150)"><text transform="translate(12.5,5)" font-size="12" dominant-baseline="central"><tspan dominant-baseline="central" font-weight="700" x="0">Link_domain_CSPGs_modules_2_4</tspan><tspan dominant-baseline="central" x="214.078125">Link_domain_CSPGs_modules_2_4; this link domain is found in the second and fo...</tspan></text><rect height="10" width="10" y="0.25" fill="#fb8072" stroke="#aaa" shape-rendering="crispEdges"/></g><g transform="translate(10,175)"><text transform="translate(12.5,5)" font-size="12" dominant-baseline="central"><tspan dominant-baseline="central" font-weight="700" x="0">ASD1</tspan><tspan dominant-baseline="central" x="42.015625">Apx/Shroom domain ASD1</tspan></text><rect height="10" width="10" y="0.25" fill="#b3b3b3" stroke="#aaa" shape-rendering="crispEdges"/></g><g transform="translate(10,200)"><text transform="translate(12.5,5)" font-size="12" dominant-baseline="central"><tspan dominant-baseline="central" font-weight="700" x="0">EGF</tspan><tspan dominant-baseline="central" x="34.671875">EGF-like domain</tspan></text><rect height="10" width="10" y="0.25" fill="#fdb462" stroke="#aaa" shape-rendering="crispEdges"/></g><g transform="translate(10,225)"><text transform="translate(12.5,5)" font-size="12" dominant-baseline="central"><tspan dominant-baseline="central" font-weight="700" x="0">CLECT</tspan><tspan dominant-baseline="central" x="50">C-type lectin (CTL)/C-type lectin-like (CTLD) domain</tspan></text><rect height="10" width="10" y="0.2373046875" fill="#8dd3c7" stroke="#aaa" shape-rendering="crispEdges"/></g><g transform="translate(10,250)"><text transform="translate(12.5,5)" font-size="12" dominant-baseline="central"><tspan dominant-baseline="central" font-weight="700" x="0">other</tspan><tspan dominant-baseline="central" x="40">ligand binding surface [chemical binding]</tspan></text><rect height="10" width="10" y="0.2373046875" fill="#ffd92f" stroke="#aaa" shape-rendering="crispEdges"/></g><g transform="translate(10,275)"><text transform="translate(12.5,5)" font-size="12" dominant-baseline="central"><tspan dominant-baseline="central" font-weight="700" x="0">CCP</tspan><tspan dominant-baseline="central" x="35.3359375">Complement control protein (CCP) modules (aka short consensus repeats SCRs or...</tspan></text><rect height="10" width="10" y="0.2373046875" fill="#e5c494" stroke="#aaa" shape-rendering="crispEdges"/></g><g transform="translate(10,300)"><text transform="translate(12.5,5)" font-size="12" dominant-baseline="central"><tspan dominant-baseline="central" font-weight="700" x="0">other</tspan><tspan dominant-baseline="central" x="40">receptor-ligand interactions</tspan></text><rect height="10" width="10" y="0.2373046875" fill="#a6d854" stroke="#aaa" shape-rendering="crispEdges"/></g></g><g><text transform="translate(10,330)" text-anchor="start" font-weight="700" font-size="12" dominant-baseline="central">NTRK1 NM_001012331</text><g transform="translate(10,350)"><text transform="translate(12.5,5)" font-size="12" dominant-baseline="central"><tspan dominant-baseline="central" font-weight="700" x="0">leucine-rich repeat</tspan><tspan dominant-baseline="central" x="116.7109375">leucine-rich repeat [structural motif]</tspan></text><rect height="10" width="10" y="0.25" fill="#bebada" stroke="#aaa" shape-rendering="crispEdges"/></g><g transform="translate(10,375)"><text transform="translate(12.5,5)" font-size="12" dominant-baseline="central"><tspan dominant-baseline="central" font-weight="700" x="0">LRR_8</tspan><tspan dominant-baseline="central" x="48.015625">Leucine rich repeat</tspan></text><rect height="10" width="10" y="0.25" fill="#bebada" stroke="#aaa" shape-rendering="crispEdges"/></g><g transform="translate(10,400)"><text transform="translate(12.5,5)" font-size="12" dominant-baseline="central"><tspan dominant-baseline="central" font-weight="700" x="0">TPKR_C2</tspan><tspan dominant-baseline="central" x="64.6796875">Tyrosine-protein kinase receptor C2 Ig-like domain</tspan></text><rect height="10" width="10" y="0.2373046875" fill="#a6d854" stroke="#aaa" shape-rendering="crispEdges"/></g><g transform="translate(10,425)"><text transform="translate(12.5,5)" font-size="12" dominant-baseline="central"><tspan dominant-baseline="central" font-weight="700" x="0">Ig_TrkABC_d4</tspan><tspan dominant-baseline="central" x="92.03125">Fourth domain (immunoglobulin-like) of Trk receptors TrkA, TrkB and TrkC</tspan></text><rect height="10" width="10" y="0.2373046875" fill="#8dd3c7" stroke="#aaa" shape-rendering="crispEdges"/></g><g transform="translate(10,450)"><text transform="translate(12.5,5)" font-size="12" dominant-baseline="central"><tspan dominant-baseline="central" font-weight="700" x="0">other</tspan><tspan dominant-baseline="central" x="40">interdomain interface</tspan></text><rect height="10" width="10" y="0.25" fill="#80b1d3" stroke="#aaa" shape-rendering="crispEdges"/></g><g transform="translate(10,475)"><text transform="translate(12.5,5)" font-size="12" dominant-baseline="central"><tspan dominant-baseline="central" font-weight="700" x="0">Ig_TrKABC_d5</tspan><tspan dominant-baseline="central" x="94.0234375">Fifth domain (immunoglobulin-like) of Trk receptors TrkA, TrkB and TrkC</tspan></text><rect height="10" width="10" y="0.2373046875" fill="#fdb462" stroke="#aaa" shape-rendering="crispEdges"/></g><g transform="translate(10,500)"><text transform="translate(12.5,5)" font-size="12" dominant-baseline="central"><tspan dominant-baseline="central" font-weight="700" x="0">other</tspan><tspan dominant-baseline="central" x="40">receptor binding site</tspan></text><rect height="10" width="10" y="0.2373046875" fill="#ffd92f" stroke="#aaa" shape-rendering="crispEdges"/></g><g transform="translate(10,525)"><text transform="translate(12.5,5)" font-size="12" dominant-baseline="central"><tspan dominant-baseline="central" font-weight="700" x="0">PTKc_TrkA</tspan><tspan dominant-baseline="central" x="74.03125">Catalytic domain of the Protein Tyrosine Kinase, Tropomyosin Related Kinase A</tspan></text><rect height="10" width="10" y="0.2373046875" fill="#b3b3b3" stroke="#aaa" shape-rendering="crispEdges"/></g><g transform="translate(10,550)"><text transform="translate(12.5,5)" font-size="12" dominant-baseline="central"><tspan dominant-baseline="central" font-weight="700" x="0">Pkinase_Tyr</tspan><tspan dominant-baseline="central" x="79.8203125">Protein tyrosine kinase</tspan></text><rect height="10" width="10" y="0.2373046875" fill="#e5c494" stroke="#aaa" shape-rendering="crispEdges"/></g><g transform="translate(10,575)"><text transform="translate(12.5,5)" font-size="12" dominant-baseline="central"><tspan dominant-baseline="central" font-weight="700" x="0">other</tspan><tspan dominant-baseline="central" x="40">ATP binding site [chemical binding]</tspan></text><rect height="10" width="10" y="0.2373046875" fill="#fb8072" stroke="#aaa" shape-rendering="crispEdges"/></g><g transform="translate(10,600)"><text transform="translate(12.5,5)" font-size="12" dominant-baseline="central"><tspan dominant-baseline="central" font-weight="700" x="0">other</tspan><tspan dominant-baseline="central" x="40">polypeptide substrate binding site [polypeptide binding]</tspan></text><rect height="10" width="10" y="0.2373046875" fill="#E8E89E" stroke="#aaa" shape-rendering="crispEdges"/></g><g transform="translate(10,625)"><text transform="translate(12.5,5)" font-size="12" dominant-baseline="central"><tspan dominant-baseline="central" font-weight="700" x="0">other</tspan><tspan dominant-baseline="central" x="40">activation loop (A-loop)</tspan></text><rect height="10" width="10" y="0.2373046875" fill="#8dd3c7" stroke="#aaa" shape-rendering="crispEdges"/></g></g></g></svg>