<svg xmlns="http://www.w3.org/2000/svg" width="1053.96875" height="846.525390625"><g transform="translate(40,70)"><g transform="translate(0,0)"><line y1="-3" stroke="black" stroke-opacity="0" shape-rendering="crispEdges" y2="0"/><rect clip-path="url(#46463)" fill="white" x="0" width="400" height="26"/><rect clip-path="url(#46463)" fill="#ffd92f" x="330.8176100628931" width="62.89308176100627" height="26"/><rect clip-path="url(#46463)" fill="#E8E89E" x="215.0943396226415" width="60.69182389937109" height="26"/><rect clip-path="url(#46463)" fill="#fb8072" x="157.8616352201258" width="59.119496855345915" height="26"/><rect clip-path="url(#46463)" fill="#e5c494" x="287.1069182389937" width="37.73584905660374" height="26"/><rect clip-path="url(#46463)" fill="#fdb462" x="25.471698113207548" width="29.24528301886792" height="26"/><rect clip-path="url(#46463)" fill="#8dd3c7" x="0.9433962264150944" width="22.641509433962266" height="26"/><rect clip-path="url(#46463)" fill="#bebada" x="203.45911949685535" width="0.3144654088050345" height="26"/><rect clip-path="url(#46463)" fill="#80b1d3" x="378.9308176100629" width="0.31446540880500606" height="26"/><rect clip-path="url(#46463)" fill="#bebada" x="204.7169811320755" width="0.31446540880500606" height="26"/><rect clip-path="url(#46463)" fill="#bebada" x="202.51572327044025" width="0.3144654088050345" height="26"/><rect clip-path="url(#46463)" fill="#bebada" x="201.25786163522014" width="0.31446540880500606" height="26"/><rect clip-path="url(#46463)" fill="#bebada" x="205.9748427672956" width="0.3144654088050345" height="26"/><rect clip-path="url(#46463)" fill="#bebada" x="215.40880503144652" width="0" height="26"/><rect clip-path="url(#46463)" fill="#bebada" x="216.66666666666666" width="0" height="26"/><rect clip-path="url(#46463)" fill="#bebada" x="190.56603773584905" width="0" height="26"/><rect clip-path="url(#46463)" fill="#80b1d3" x="356.28930817610063" width="0" height="26"/><rect clip-path="url(#46463)" fill="#80b1d3" x="355.0314465408805" width="0" height="26"/><rect clip-path="url(#46463)" fill="#a6d854" x="342.7672955974843" width="0" height="26"/><rect clip-path="url(#46463)" fill="#80b1d3" x="390.8805031446541" width="0" height="26"/><rect clip-path="url(#46463)" fill="#bebada" x="160.062893081761" width="0" height="26"/><rect clip-path="url(#46463)" fill="#80b1d3" x="342.7672955974843" width="0" height="26"/><rect clip-path="url(#46463)" fill="#80b1d3" x="377.98742138364776" width="0" height="26"/><rect clip-path="url(#46463)" fill="#bebada" x="158.80503144654088" width="0" height="26"/><rect clip-path="url(#46463)" fill="#bebada" x="207.23270440251574" width="0" height="26"/><line clip-path="url(#46463)" stroke="black" stroke-dasharray="3,2" shape-rendering="crispEdges" y1="0" y2="26" x1="134.0670859538784" x2="134.0670859538784"/><line clip-path="url(#46463)" stroke="black" stroke-dasharray="3,2" shape-rendering="crispEdges" y1="0" y2="26" x1="153.14465408805032" x2="153.14465408805032"/><line clip-path="url(#46463)" stroke="black" stroke-dasharray="3,2" shape-rendering="crispEdges" y1="0" y2="26" x1="164.1509433962264" x2="164.1509433962264"/><line clip-path="url(#46463)" stroke="black" stroke-dasharray="3,2" shape-rendering="crispEdges" y1="0" y2="26" x1="183.64779874213838" x2="183.64779874213838"/><line clip-path="url(#46463)" stroke="black" stroke-dasharray="3,2" shape-rendering="crispEdges" y1="0" y2="26" x1="194.9685534591195" x2="194.9685534591195"/><line clip-path="url(#46463)" stroke="black" stroke-dasharray="3,2" shape-rendering="crispEdges" y1="0" y2="26" x1="201.36268343815513" x2="201.36268343815513"/><line clip-path="url(#46463)" stroke="black" stroke-dasharray="3,2" shape-rendering="crispEdges" y1="0" y2="26" x1="206.9182389937107" x2="206.9182389937107"/><line clip-path="url(#46463)" stroke="black" stroke-dasharray="3,2" shape-rendering="crispEdges" y1="0" y2="26" x1="221.69811320754715" x2="221.69811320754715"/><line clip-path="url(#46463)" stroke="black" stroke-dasharray="3,2" shape-rendering="crispEdges" y1="0" y2="26" x1="234.48637316561843" x2="234.48637316561843"/><line clip-path="url(#46463)" stroke="black" stroke-dasharray="3,2" shape-rendering="crispEdges" y1="0" y2="26" x1="252.20125786163524" x2="252.20125786163524"/><line clip-path="url(#46463)" stroke="black" stroke-dasharray="3,2" shape-rendering="crispEdges" y1="0" y2="26" x1="264.7798742138365" x2="264.7798742138365"/><line clip-path="url(#46463)" stroke="black" stroke-dasharray="3,2" shape-rendering="crispEdges" y1="0" y2="26" x1="272.7463312368973" x2="272.7463312368973"/><line clip-path="url(#46463)" stroke="black" stroke-dasharray="3,2" shape-rendering="crispEdges" y1="0" y2="26" x1="283.7526205450734" x2="283.7526205450734"/><line clip-path="url(#46463)" stroke="black" stroke-dasharray="3,2" shape-rendering="crispEdges" y1="0" y2="26" x1="291.6142557651992" x2="291.6142557651992"/><line clip-path="url(#46463)" stroke="black" stroke-dasharray="3,2" shape-rendering="crispEdges" y1="0" y2="26" x1="301.8867924528302" x2="301.8867924528302"/><line clip-path="url(#46463)" stroke="black" stroke-dasharray="3,2" shape-rendering="crispEdges" y1="0" y2="26" x1="315.7232704402516" x2="315.7232704402516"/><line clip-path="url(#46463)" stroke="black" stroke-dasharray="3,2" shape-rendering="crispEdges" y1="0" y2="26" x1="322.01257861635224" x2="322.01257861635224"/><line clip-path="url(#46463)" stroke="black" stroke-dasharray="3,2" shape-rendering="crispEdges" y1="0" y2="26" x1="333.54297693920336" x2="333.54297693920336"/><line clip-path="url(#46463)" stroke="black" stroke-dasharray="3,2" shape-rendering="crispEdges" y1="0" y2="26" x1="348.2180293501048" x2="348.2180293501048"/><line clip-path="url(#46463)" stroke="black" stroke-dasharray="3,2" shape-rendering="crispEdges" y1="0" y2="26" x1="362.3689727463312" x2="362.3689727463312"/><line clip-path="url(#46463)" stroke="black" stroke-dasharray="3,2" shape-rendering="crispEdges" y1="0" y2="26" x1="373.48008385744237" x2="373.48008385744237"/><line clip-path="url(#46463)" stroke="black" stroke-dasharray="3,2" shape-rendering="crispEdges" y1="0" y2="26" x1="390.566037735849" x2="390.566037735849"/><rect clip-path="url(#46463)" stroke-dasharray="none" fill="none" stroke="black" x="0" width="400" height="26"/><text font-family="Arial" fill="black" font-size="15" dominant-baseline="central" x="405" y="13">BCR</text><text fill="#858585" fill-opacity="0" font-size="13" font-family="Arial" text-anchor="middle" dominant-baseline="auto" y="-24">ends at 427 AA</text><defs><clipPath id="46463"><rect x="0" y="0" height="26" width="436.671875"/></clipPath></defs><rect clip-path="url(#46463)" fill="white" fill-opacity="0" width="400" height="26"/></g><g transform="translate(0,106)"><line y1="26" stroke="black" stroke-opacity="0" shape-rendering="crispEdges" y2="29"/><rect clip-path="url(#37775)" fill="white" x="0" width="263.8364779874214" height="26"/><rect clip-path="url(#37775)" fill="#8dd3c7" x="174.21383647798746" width="84.59119496855345" height="26"/><rect clip-path="url(#37775)" fill="#bebada" x="217.6100628930818" width="0" height="26"/><rect clip-path="url(#37775)" fill="#fb8072" x="28.930817610062896" width="18.238993710691823" height="26"/><rect clip-path="url(#37775)" fill="#80b1d3" x="223.27044025157235" width="0" height="26"/><rect clip-path="url(#37775)" fill="#E8E89E" x="105.34591194968554" width="0" height="26"/><rect clip-path="url(#37775)" fill="#bebada" x="218.8679245283019" width="0" height="26"/><rect clip-path="url(#37775)" fill="#80b1d3" x="176.10062893081763" width="0.3144654088050345" height="26"/><rect clip-path="url(#37775)" fill="#E8E89E" x="111.00628930817611" width="0" height="26"/><rect clip-path="url(#37775)" fill="#E8E89E" x="109.74842767295598" width="0.3144654088050345" height="26"/><rect clip-path="url(#37775)" fill="#80b1d3" x="200.9433962264151" width="0.3144654088050345" height="26"/><rect clip-path="url(#37775)" fill="#a6d854" x="97.48427672955975" width="0" height="26"/><rect clip-path="url(#37775)" fill="#80b1d3" x="219.811320754717" width="0" height="26"/><rect clip-path="url(#37775)" fill="#bebada" x="243.71069182389937" width="0" height="26"/><rect clip-path="url(#37775)" fill="#80b1d3" x="218.8679245283019" width="0.3144654088050345" height="26"/><rect clip-path="url(#37775)" fill="#bebada" x="233.0188679245283" width="0" height="26"/><rect clip-path="url(#37775)" fill="#80b1d3" x="184.27672955974845" width="0" height="26"/><rect clip-path="url(#37775)" fill="#fdb462" x="222.95597484276732" width="7.861635220125777" height="26"/><rect clip-path="url(#37775)" fill="#bebada" x="228.93081761006292" width="1.2578616352201095" height="26"/><rect clip-path="url(#37775)" fill="#80b1d3" x="199.05660377358492" width="0.943396226415075" height="26"/><rect clip-path="url(#37775)" fill="#ffd92f" x="47.79874213836478" width="13.522012578616362" height="26"/><rect clip-path="url(#37775)" fill="#e5c494" x="172.32704402515725" width="90.25157232704402" height="26"/><rect clip-path="url(#37775)" fill="#b3b3b3" x="94.65408805031447" width="24.52830188679245" height="26"/><rect clip-path="url(#37775)" fill="#8dd3c7" x="64.46540880503146" width="24.52830188679245" height="26"/><rect clip-path="url(#37775)" fill="#80b1d3" x="184.90566037735852" width="0" height="26"/><rect clip-path="url(#37775)" fill="#80b1d3" x="178.61635220125788" width="0" height="26"/><rect clip-path="url(#37775)" fill="#80b1d3" x="177.04402515723274" width="0.31446540880500606" height="26"/><line clip-path="url(#37775)" stroke="black" stroke-dasharray="3,2" shape-rendering="crispEdges" y1="0" y2="26" x1="22.222222222222225" x2="22.222222222222225"/><line clip-path="url(#37775)" stroke="black" stroke-dasharray="3,2" shape-rendering="crispEdges" y1="0" y2="26" x1="30.08385744234801" x2="30.08385744234801"/><line clip-path="url(#37775)" stroke="black" stroke-dasharray="3,2" shape-rendering="crispEdges" y1="0" y2="26" x1="37.63102725366877" x2="37.63102725366877"/><line clip-path="url(#37775)" stroke="black" stroke-dasharray="3,2" shape-rendering="crispEdges" y1="0" y2="26" x1="44.86373165618449" x2="44.86373165618449"/><line clip-path="url(#37775)" stroke="black" stroke-dasharray="3,2" shape-rendering="crispEdges" y1="0" y2="26" x1="61.11111111111112" x2="61.11111111111112"/><line clip-path="url(#37775)" stroke="black" stroke-dasharray="3,2" shape-rendering="crispEdges" y1="0" y2="26" x1="75.47169811320755" x2="75.47169811320755"/><line clip-path="url(#37775)" stroke="black" stroke-dasharray="3,2" shape-rendering="crispEdges" y1="0" y2="26" x1="89.41299790356395" x2="89.41299790356395"/><line clip-path="url(#37775)" stroke="black" stroke-dasharray="3,2" shape-rendering="crispEdges" y1="0" y2="26" x1="121.48846960167715" x2="121.48846960167715"/><line clip-path="url(#37775)" stroke="black" stroke-dasharray="3,2" shape-rendering="crispEdges" y1="0" y2="26" x1="125.26205450733754" x2="125.26205450733754"/><line clip-path="url(#37775)" stroke="black" stroke-dasharray="3,2" shape-rendering="crispEdges" y1="0" y2="26" x1="135.84905660377362" x2="135.84905660377362"/><line clip-path="url(#37775)" stroke="black" stroke-dasharray="3,2" shape-rendering="crispEdges" y1="0" y2="26" x1="146.33123689727464" x2="146.33123689727464"/><line clip-path="url(#37775)" stroke="black" stroke-dasharray="3,2" shape-rendering="crispEdges" y1="0" y2="26" x1="151.36268343815513" x2="151.36268343815513"/><line clip-path="url(#37775)" stroke="black" stroke-dasharray="3,2" shape-rendering="crispEdges" y1="0" y2="26" x1="171.17400419287216" x2="171.17400419287216"/><line clip-path="url(#37775)" stroke="black" stroke-dasharray="3,2" shape-rendering="crispEdges" y1="0" y2="26" x1="184.90566037735852" x2="184.90566037735852"/><line clip-path="url(#37775)" stroke="black" stroke-dasharray="3,2" shape-rendering="crispEdges" y1="0" y2="26" x1="203.0398322851153" x2="203.0398322851153"/><line clip-path="url(#37775)" stroke="black" stroke-dasharray="3,2" shape-rendering="crispEdges" y1="0" y2="26" x1="227.67295597484278" x2="227.67295597484278"/><line clip-path="url(#37775)" stroke="black" stroke-dasharray="3,2" shape-rendering="crispEdges" y1="0" y2="26" x1="244.33962264150944" x2="244.33962264150944"/><rect clip-path="url(#37775)" stroke-dasharray="none" fill="none" stroke="black" x="0" width="263.8364779874214" height="26"/><text font-family="Arial" fill="black" font-size="15" dominant-baseline="central" x="268.8364779874214" y="13">NTRK2</text><text fill="#858585" fill-opacity="0" font-size="13" font-family="Arial" text-anchor="middle" dominant-baseline="hanging" y="50">starts at 545 AA</text><defs><clipPath id="37775"><rect x="0" y="0" height="26" width="318.0161654874214"/></clipPath></defs><rect clip-path="url(#37775)" fill="white" fill-opacity="0" width="263.8364779874214" height="26"/></g><line stroke="black" stroke-dasharray="3,2" x1="134.27672955974842" y1="34" x2="171.38364779874217" y2="98"/><g transform="translate(134.27672955974842,0)"><text font-family="Arial" font-size="13" fill="black" text-anchor="end" y="39" dominant-baseline="hanging">exon 1, 427 AA</text><rect height="3" fill="black" x="-134.27672955974842" width="134.27672955974842" y="31"/></g><g transform="translate(171.38364779874217,106)"><text font-family="Arial" font-size="13" fill="black" text-anchor="start" y="-13" dominant-baseline="auto">exon 15, 545 AA</text><rect height="3" fill="black" x="0" width="92.45283018867923" y="-8"/></g></g><g transform="translate(40,238)"/><text class="sja_svgtext" fill="black" font-size="12" text-anchor="end" x="489.1796875" y="291" style="display: none;">drag to resize</text><g transform="translate(0,259.525390625)" style="font-family: Arial;"><g><text transform="translate(10,30)" text-anchor="start" font-weight="700" font-size="12" dominant-baseline="central">BCR NM_004327</text><g transform="translate(10,50)"><text transform="translate(12.5,5)" font-size="12" dominant-baseline="central"><tspan dominant-baseline="central" font-weight="700" x="0">Bcr-Abl_Oligo</tspan><tspan dominant-baseline="central" x="90.671875">Bcr-Abl oncoprotein oligomerization domain</tspan></text><rect height="10" width="10" y="0.2373046875" fill="#8dd3c7" stroke="#aaa" shape-rendering="crispEdges"/></g><g transform="translate(10,75)"><text transform="translate(12.5,5)" font-size="12" dominant-baseline="central"><tspan dominant-baseline="central" font-weight="700" x="0">BAT2_N</tspan><tspan dominant-baseline="central" x="55.7890625">BAT2 N-terminus</tspan></text><rect height="10" width="10" y="0.25" fill="#fdb462" stroke="#aaa" shape-rendering="crispEdges"/></g><g transform="translate(10,100)"><text transform="translate(12.5,5)" font-size="12" dominant-baseline="central"><tspan dominant-baseline="central" font-weight="700" x="0">RhoGEF</tspan><tspan dominant-baseline="central" x="58">RhoGEF domain</tspan></text><rect height="10" width="10" y="0.25" fill="#fb8072" stroke="#aaa" shape-rendering="crispEdges"/></g><g transform="translate(10,125)"><text transform="translate(12.5,5)" font-size="12" dominant-baseline="central"><tspan dominant-baseline="central" font-weight="700" x="0">other</tspan><tspan dominant-baseline="central" x="40">GTPase interaction site [polypeptide binding]</tspan></text><rect height="10" width="10" y="0.2373046875" fill="#bebada" stroke="#aaa" shape-rendering="crispEdges"/></g><g transform="translate(10,150)"><text transform="translate(12.5,5)" font-size="12" dominant-baseline="central"><tspan dominant-baseline="central" font-weight="700" x="0">PH_BCR_vertebrate</tspan><tspan dominant-baseline="central" x="124.046875">Breakpoint Cluster Region-related pleckstrin homology (PH) domain</tspan></text><rect height="10" width="10" y="0.2373046875" fill="#E8E89E" stroke="#aaa" shape-rendering="crispEdges"/></g><g transform="translate(10,175)"><text transform="translate(12.5,5)" font-size="12" dominant-baseline="central"><tspan dominant-baseline="central" font-weight="700" x="0">C2_ABR</tspan><tspan dominant-baseline="central" x="58.015625">C2 domain in the Active BCR (Breakpoint cluster region) Related protein</tspan></text><rect height="10" width="10" y="0.2373046875" fill="#e5c494" stroke="#aaa" shape-rendering="crispEdges"/></g><g transform="translate(10,200)"><text transform="translate(12.5,5)" font-size="12" dominant-baseline="central"><tspan dominant-baseline="central" font-weight="700" x="0">RhoGAP_Bcr</tspan><tspan dominant-baseline="central" x="86.015625">RhoGAP_Bcr: RhoGAP (GTPase-activator protein [GAP] for Rho-like small GTPases...</tspan></text><rect height="10" width="10" y="0.2373046875" fill="#ffd92f" stroke="#aaa" shape-rendering="crispEdges"/></g><g transform="translate(10,225)"><text transform="translate(12.5,5)" font-size="12" dominant-baseline="central"><tspan dominant-baseline="central" font-weight="700" x="0">other</tspan><tspan dominant-baseline="central" x="40">putative GTPase interaction site [polypeptide binding]</tspan></text><rect height="10" width="10" y="0.2373046875" fill="#80b1d3" stroke="#aaa" shape-rendering="crispEdges"/></g><g transform="translate(10,250)"><text transform="translate(12.5,5)" font-size="12" dominant-baseline="central"><tspan dominant-baseline="central" font-weight="700" x="0">active</tspan><tspan dominant-baseline="central" x="44.03125">catalytic residue [active]</tspan></text><rect height="10" width="10" y="0.2373046875" fill="#a6d854" stroke="#aaa" shape-rendering="crispEdges"/></g></g><g><text transform="translate(10,280)" text-anchor="start" font-weight="700" font-size="12" dominant-baseline="central">NTRK2 NM_006180</text><g transform="translate(10,300)"><text transform="translate(12.5,5)" font-size="12" dominant-baseline="central"><tspan dominant-baseline="central" font-weight="700" x="0">LRR_8</tspan><tspan dominant-baseline="central" x="48.015625">Leucine rich repeat</tspan></text><rect height="10" width="10" y="0.25" fill="#fb8072" stroke="#aaa" shape-rendering="crispEdges"/></g><g transform="translate(10,325)"><text transform="translate(12.5,5)" font-size="12" dominant-baseline="central"><tspan dominant-baseline="central" font-weight="700" x="0">TPKR_C2</tspan><tspan dominant-baseline="central" x="64.6796875">Tyrosine-protein kinase receptor C2 Ig-like domain</tspan></text><rect height="10" width="10" y="0.2373046875" fill="#ffd92f" stroke="#aaa" shape-rendering="crispEdges"/></g><g transform="translate(10,350)"><text transform="translate(12.5,5)" font-size="12" dominant-baseline="central"><tspan dominant-baseline="central" font-weight="700" x="0">Ig</tspan><tspan dominant-baseline="central" x="20.6640625">Immunoglobulin domain</tspan></text><rect height="10" width="10" y="0.2373046875" fill="#8dd3c7" stroke="#aaa" shape-rendering="crispEdges"/></g><g transform="translate(10,375)"><text transform="translate(12.5,5)" font-size="12" dominant-baseline="central"><tspan dominant-baseline="central" font-weight="700" x="0">Ig_TrkB_d5</tspan><tspan dominant-baseline="central" x="74.6953125">Fifth domain (immunoglobulin-like) of Trk receptor TrkB</tspan></text><rect height="10" width="10" y="0.2373046875" fill="#b3b3b3" stroke="#aaa" shape-rendering="crispEdges"/></g><g transform="translate(10,400)"><text transform="translate(12.5,5)" font-size="12" dominant-baseline="central"><tspan dominant-baseline="central" font-weight="700" x="0">other</tspan><tspan dominant-baseline="central" x="40">interdomain interaction [polypeptide binding]</tspan></text><rect height="10" width="10" y="0.2373046875" fill="#a6d854" stroke="#aaa" shape-rendering="crispEdges"/></g><g transform="translate(10,425)"><text transform="translate(12.5,5)" font-size="12" dominant-baseline="central"><tspan dominant-baseline="central" font-weight="700" x="0">other</tspan><tspan dominant-baseline="central" x="40">receptor binding site [polypeptide binding]</tspan></text><rect height="10" width="10" y="0.2373046875" fill="#E8E89E" stroke="#aaa" shape-rendering="crispEdges"/></g><g transform="translate(10,450)"><text transform="translate(12.5,5)" font-size="12" dominant-baseline="central"><tspan dominant-baseline="central" font-weight="700" x="0">PTKc_TrkB</tspan><tspan dominant-baseline="central" x="74.03125">Catalytic domain of the Protein Tyrosine Kinase, Tropomyosin Related Kinase B</tspan></text><rect height="10" width="10" y="0.2373046875" fill="#e5c494" stroke="#aaa" shape-rendering="crispEdges"/></g><g transform="translate(10,475)"><text transform="translate(12.5,5)" font-size="12" dominant-baseline="central"><tspan dominant-baseline="central" font-weight="700" x="0">Pkinase_Tyr</tspan><tspan dominant-baseline="central" x="79.8203125">Protein tyrosine kinase</tspan></text><rect height="10" width="10" y="0.2373046875" fill="#8dd3c7" stroke="#aaa" shape-rendering="crispEdges"/></g><g transform="translate(10,500)"><text transform="translate(12.5,5)" font-size="12" dominant-baseline="central"><tspan dominant-baseline="central" font-weight="700" x="0">other</tspan><tspan dominant-baseline="central" x="40">ATP binding site [chemical binding]</tspan></text><rect height="10" width="10" y="0.2373046875" fill="#80b1d3" stroke="#aaa" shape-rendering="crispEdges"/></g><g transform="translate(10,525)"><text transform="translate(12.5,5)" font-size="12" dominant-baseline="central"><tspan dominant-baseline="central" font-weight="700" x="0">other</tspan><tspan dominant-baseline="central" x="40">polypeptide substrate binding site [polypeptide binding]</tspan></text><rect height="10" width="10" y="0.2373046875" fill="#bebada" stroke="#aaa" shape-rendering="crispEdges"/></g><g transform="translate(10,550)"><text transform="translate(12.5,5)" font-size="12" dominant-baseline="central"><tspan dominant-baseline="central" font-weight="700" x="0">other</tspan><tspan dominant-baseline="central" x="40">activation loop (A-loop)</tspan></text><rect height="10" width="10" y="0.2373046875" fill="#fdb462" stroke="#aaa" shape-rendering="crispEdges"/></g></g></g></svg>