<svg xmlns="http://www.w3.org/2000/svg" width="1053.1032329925233" height="646.525390625"><g transform="translate(70.21260799252343,70)"><g transform="translate(0,0)"><line y1="-3" stroke="black" stroke-opacity="0" shape-rendering="crispEdges" y2="0"/><rect clip-path="url(#85761)" fill="white" x="0" width="400" height="26"/><rect clip-path="url(#85761)" fill="#fdb462" x="211.6868798235943" width="145.53472987872104" height="26"/><rect clip-path="url(#85761)" fill="#e5c494" x="23.814773980154357" width="53.36273428886439" height="26"/><rect clip-path="url(#85761)" fill="#b3b3b3" x="112.89966923925027" width="42.33737596471886" height="26"/><rect clip-path="url(#85761)" fill="#80b1d3" x="78.94156560088203" width="36.60418963616317" height="26"/><rect clip-path="url(#85761)" fill="#8dd3c7" x="159.64718853362734" width="28.66593164277839" height="26"/><rect clip-path="url(#85761)" fill="#a6d854" x="377.9492833517089" width="17.19955898566701" height="26"/><rect clip-path="url(#85761)" fill="#ffd92f" x="168.02646085997793" width="16.758544652701232" height="26"/><rect clip-path="url(#85761)" fill="#8dd3c7" x="168.46747519294377" width="1.3230429988974777" height="26"/><rect clip-path="url(#85761)" fill="#bebada" x="130.54024255788312" width="1.3230429988974777" height="26"/><rect clip-path="url(#85761)" fill="#8dd3c7" x="183.90297684674752" width="1.3230429988974493" height="26"/><rect clip-path="url(#85761)" fill="#E8E89E" x="140.68357221609702" width="1.3230429988974777" height="26"/><rect clip-path="url(#85761)" fill="#8dd3c7" x="164.9393605292172" width="0.8820286659316423" height="26"/><rect clip-path="url(#85761)" fill="#E8E89E" x="147.7398015435502" width="0.8820286659316139" height="26"/><rect clip-path="url(#85761)" fill="#8dd3c7" x="179.4928335170893" width="0.44101433296580694" height="26"/><rect clip-path="url(#85761)" fill="#8dd3c7" x="163.1753031973539" width="0.44101433296580694" height="26"/><rect clip-path="url(#85761)" fill="#bebada" x="134.0683572216097" width="0" height="26"/><rect clip-path="url(#85761)" fill="#fb8072" x="169.3495038588754" width="0" height="26"/><rect clip-path="url(#85761)" fill="#fb8072" x="176.84674751929435" width="0" height="26"/><rect clip-path="url(#85761)" fill="#fb8072" x="175.5237045203969" width="0" height="26"/><rect clip-path="url(#85761)" fill="#fb8072" x="184.78500551267916" width="0" height="26"/><rect clip-path="url(#85761)" fill="#bebada" x="139.36052921719957" width="0" height="26"/><rect clip-path="url(#85761)" fill="#bebada" x="120.83792723263507" width="0" height="26"/><rect clip-path="url(#85761)" fill="#fb8072" x="174.64167585446526" width="0" height="26"/><rect clip-path="url(#85761)" fill="#8dd3c7" x="181.2568908489526" width="0" height="26"/><rect clip-path="url(#85761)" fill="#bebada" x="129.6582138919515" width="0" height="26"/><rect clip-path="url(#85761)" fill="#fb8072" x="178.16979051819183" width="0" height="26"/><rect clip-path="url(#85761)" fill="#8dd3c7" x="178.16979051819183" width="0" height="26"/><rect clip-path="url(#85761)" fill="#bebada" x="140.2425578831312" width="0" height="26"/><rect clip-path="url(#85761)" fill="#8dd3c7" x="175.5237045203969" width="0" height="26"/><rect clip-path="url(#85761)" fill="#fb8072" x="168.02646085997793" width="0" height="26"/><rect clip-path="url(#85761)" fill="#fb8072" x="183.4619625137817" width="0" height="26"/><line clip-path="url(#85761)" stroke="black" stroke-dasharray="3,2" shape-rendering="crispEdges" y1="0" y2="26" x1="28.665931642778393" x2="28.665931642778393"/><line clip-path="url(#85761)" stroke="black" stroke-dasharray="3,2" shape-rendering="crispEdges" y1="0" y2="26" x1="65.12311650128628" x2="65.12311650128628"/><line clip-path="url(#85761)" stroke="black" stroke-dasharray="3,2" shape-rendering="crispEdges" y1="0" y2="26" x1="86.73281881661154" x2="86.73281881661154"/><line clip-path="url(#85761)" stroke="black" stroke-dasharray="3,2" shape-rendering="crispEdges" y1="0" y2="26" x1="109.81256890848951" x2="109.81256890848951"/><line clip-path="url(#85761)" stroke="black" stroke-dasharray="3,2" shape-rendering="crispEdges" y1="0" y2="26" x1="127.74715178243295" x2="127.74715178243295"/><line clip-path="url(#85761)" stroke="black" stroke-dasharray="3,2" shape-rendering="crispEdges" y1="0" y2="26" x1="148.03381109886072" x2="148.03381109886072"/><line clip-path="url(#85761)" stroke="black" stroke-dasharray="3,2" shape-rendering="crispEdges" y1="0" y2="26" x1="160.97023153252482" x2="160.97023153252482"/><line clip-path="url(#85761)" stroke="black" stroke-dasharray="3,2" shape-rendering="crispEdges" y1="0" y2="26" x1="180.37486218302095" x2="180.37486218302095"/><line clip-path="url(#85761)" stroke="black" stroke-dasharray="3,2" shape-rendering="crispEdges" y1="0" y2="26" x1="210.36383682469682" x2="210.36383682469682"/><line clip-path="url(#85761)" stroke="black" stroke-dasharray="3,2" shape-rendering="crispEdges" y1="0" y2="26" x1="229.76846747519292" x2="229.76846747519292"/><line clip-path="url(#85761)" stroke="black" stroke-dasharray="3,2" shape-rendering="crispEdges" y1="0" y2="26" x1="285.33627342888644" x2="285.33627342888644"/><line clip-path="url(#85761)" stroke="black" stroke-dasharray="3,2" shape-rendering="crispEdges" y1="0" y2="26" x1="299.3017273061374" x2="299.3017273061374"/><line clip-path="url(#85761)" stroke="black" stroke-dasharray="3,2" shape-rendering="crispEdges" y1="0" y2="26" x1="316.50128629180443" x2="316.50128629180443"/><line clip-path="url(#85761)" stroke="black" stroke-dasharray="3,2" shape-rendering="crispEdges" y1="0" y2="26" x1="330.9077545020213" x2="330.9077545020213"/><line clip-path="url(#85761)" stroke="black" stroke-dasharray="3,2" shape-rendering="crispEdges" y1="0" y2="26" x1="357.8096288129364" x2="357.8096288129364"/><rect clip-path="url(#85761)" stroke-dasharray="none" fill="none" stroke="black" x="0" width="400" height="26"/><text font-family="Arial" fill="black" font-size="15" dominant-baseline="central" x="405" y="13">CBL</text><text fill="#858585" fill-opacity="0" font-size="13" font-family="Arial" text-anchor="middle" dominant-baseline="auto" y="-24">ends at 812 AA</text><defs><clipPath id="85761"><rect x="0" y="0" height="26" width="434.1796875"/></clipPath></defs><rect clip-path="url(#85761)" fill="white" fill-opacity="0" width="400" height="26"/></g><g transform="translate(269.01874310915105,106)"><line y1="26" stroke="black" stroke-opacity="0" shape-rendering="crispEdges" y2="29"/><rect clip-path="url(#73041)" fill="white" x="0" width="130.98125689084895" height="26"/><rect clip-path="url(#73041)" fill="#8dd3c7" x="50.27563395810363" width="79.38257993384786" height="26"/><line clip-path="url(#73041)" stroke="black" stroke-dasharray="3,2" shape-rendering="crispEdges" y1="0" y2="26" x1="3.2341051084160233" x2="3.2341051084160233"/><line clip-path="url(#73041)" stroke="black" stroke-dasharray="3,2" shape-rendering="crispEdges" y1="0" y2="26" x1="57.47886806321206" x2="57.47886806321206"/><line clip-path="url(#73041)" stroke="black" stroke-dasharray="3,2" shape-rendering="crispEdges" y1="0" y2="26" x1="76.58948915839765" x2="76.58948915839765"/><line clip-path="url(#73041)" stroke="black" stroke-dasharray="3,2" shape-rendering="crispEdges" y1="0" y2="26" x1="90.70194781330393" x2="90.70194781330393"/><line clip-path="url(#73041)" stroke="black" stroke-dasharray="3,2" shape-rendering="crispEdges" y1="0" y2="26" x1="111.13561190738699" x2="111.13561190738699"/><rect clip-path="url(#73041)" stroke-dasharray="none" fill="none" stroke="black" x="0" width="130.98125689084895" height="26"/><text font-family="Arial" fill="black" font-size="15" dominant-baseline="central" x="135.98125689084895" y="13">FBXO2</text><text fill="#858585" fill-opacity="0" font-size="13" font-family="Arial" text-anchor="middle" dominant-baseline="hanging" y="50">starts at 8 AA</text><defs><clipPath id="73041"><rect x="0" y="0" height="26" width="185.16875689084895"/></clipPath></defs><rect clip-path="url(#73041)" fill="white" fill-opacity="0" width="130.98125689084895" height="26"/></g><line stroke="black" stroke-dasharray="3,2" x1="358.10363836824695" y1="34" x2="272.5468577728776" y2="98"/><g transform="translate(358.10363836824695,0)"><text font-family="Arial" font-size="13" fill="black" text-anchor="start" y="39" dominant-baseline="hanging">exon 15, 812 AA</text><rect height="3" fill="black" x="-358.10363836824695" width="358.10363836824695" y="31"/></g><g transform="translate(272.5468577728776,106)"><text font-family="Arial" font-size="13" fill="black" text-anchor="end" y="-13" dominant-baseline="auto">exon 2, 8 AA</text><rect height="3" fill="black" x="0" width="127.45314222712238" y="-8"/></g></g><g transform="translate(70.21260799252343,238)"/><text class="sja_svgtext" fill="black" font-size="12" text-anchor="end" x="519.4001079925234" y="291" style="display: none;">drag to resize</text><g transform="translate(0,259.525390625)" style="font-family: Arial;"><g><text transform="translate(10,30)" text-anchor="start" font-weight="700" font-size="12" dominant-baseline="central">CBL NM_005188</text><g transform="translate(10,50)"><text transform="translate(12.5,5)" font-size="12" dominant-baseline="central"><tspan dominant-baseline="central" font-weight="700" x="0">Cbl_N</tspan><tspan dominant-baseline="central" x="44.671875">CBL proto-oncogene N-terminal domain 1</tspan></text><rect height="10" width="10" y="0.2373046875" fill="#e5c494" stroke="#aaa" shape-rendering="crispEdges"/></g><g transform="translate(10,75)"><text transform="translate(12.5,5)" font-size="12" dominant-baseline="central"><tspan dominant-baseline="central" font-weight="700" x="0">Cbl_N2</tspan><tspan dominant-baseline="central" x="51.34375">CBL proto-oncogene N-terminus, EF hand-like domain</tspan></text><rect height="10" width="10" y="0.2373046875" fill="#80b1d3" stroke="#aaa" shape-rendering="crispEdges"/></g><g transform="translate(10,100)"><text transform="translate(12.5,5)" font-size="12" dominant-baseline="central"><tspan dominant-baseline="central" font-weight="700" x="0">SH2_Cbl-b_TKB</tspan><tspan dominant-baseline="central" x="102.015625">Src homology 2 (SH2) domain found in the Cbl-b TKB domain</tspan></text><rect height="10" width="10" y="0.2373046875" fill="#b3b3b3" stroke="#aaa" shape-rendering="crispEdges"/></g><g transform="translate(10,125)"><text transform="translate(12.5,5)" font-size="12" dominant-baseline="central"><tspan dominant-baseline="central" font-weight="700" x="0">other</tspan><tspan dominant-baseline="central" x="40">phosphotyrosine binding pocket [polypeptide binding]</tspan></text><rect height="10" width="10" y="0.2373046875" fill="#bebada" stroke="#aaa" shape-rendering="crispEdges"/></g><g transform="translate(10,150)"><text transform="translate(12.5,5)" font-size="12" dominant-baseline="central"><tspan dominant-baseline="central" font-weight="700" x="0">other</tspan><tspan dominant-baseline="central" x="40">hydrophobic binding pocket [polypeptide binding]</tspan></text><rect height="10" width="10" y="0.2373046875" fill="#E8E89E" stroke="#aaa" shape-rendering="crispEdges"/></g><g transform="translate(10,175)"><text transform="translate(12.5,5)" font-size="12" dominant-baseline="central"><tspan dominant-baseline="central" font-weight="700" x="0">RING-HC_Cbl-b</tspan><tspan dominant-baseline="central" x="98.6640625">RING finger, HC subclass, found in E3 ubiquitin-protein ligase Cbl-b and simi...</tspan></text><rect height="10" width="10" y="0.2373046875" fill="#8dd3c7" stroke="#aaa" shape-rendering="crispEdges"/></g><g transform="translate(10,200)"><text transform="translate(12.5,5)" font-size="12" dominant-baseline="central"><tspan dominant-baseline="central" font-weight="700" x="0">other</tspan><tspan dominant-baseline="central" x="40">polypeptide substrate binding site [polypeptide binding]</tspan></text><rect height="10" width="10" y="0.2373046875" fill="#8dd3c7" stroke="#aaa" shape-rendering="crispEdges"/></g><g transform="translate(10,225)"><text transform="translate(12.5,5)" font-size="12" dominant-baseline="central"><tspan dominant-baseline="central" font-weight="700" x="0">RING-HC finger (C3HC4-type)</tspan><tspan dominant-baseline="central" x="177.34375">RING-HC finger (C3HC4-type) [structural motif]</tspan></text><rect height="10" width="10" y="0.2373046875" fill="#ffd92f" stroke="#aaa" shape-rendering="crispEdges"/></g><g transform="translate(10,250)"><text transform="translate(12.5,5)" font-size="12" dominant-baseline="central"><tspan dominant-baseline="central" font-weight="700" x="0">other</tspan><tspan dominant-baseline="central" x="40">Zn binding site [ion binding]</tspan></text><rect height="10" width="10" y="0.2373046875" fill="#fb8072" stroke="#aaa" shape-rendering="crispEdges"/></g><g transform="translate(10,275)"><text transform="translate(12.5,5)" font-size="12" dominant-baseline="central"><tspan dominant-baseline="central" font-weight="700" x="0">Atrophin-1</tspan><tspan dominant-baseline="central" x="70.65625">Atrophin-1 family</tspan></text><rect height="10" width="10" y="0.2373046875" fill="#fdb462" stroke="#aaa" shape-rendering="crispEdges"/></g><g transform="translate(10,300)"><text transform="translate(12.5,5)" font-size="12" dominant-baseline="central"><tspan dominant-baseline="central" font-weight="700" x="0">UBA_c-Cbl</tspan><tspan dominant-baseline="central" x="72.671875">UBA domain found in E3 ubiquitin-protein ligase Cbl and similar proteins</tspan></text><rect height="10" width="10" y="0.2373046875" fill="#a6d854" stroke="#aaa" shape-rendering="crispEdges"/></g></g><g><text transform="translate(10,330)" text-anchor="start" font-weight="700" font-size="12" dominant-baseline="central">FBXO2 NM_012168</text><g transform="translate(10,350)"><text transform="translate(12.5,5)" font-size="12" dominant-baseline="central"><tspan dominant-baseline="central" font-weight="700" x="0">FBA</tspan><tspan dominant-baseline="central" x="34.6640625">F-box associated region</tspan></text><rect height="10" width="10" y="0.2373046875" fill="#8dd3c7" stroke="#aaa" shape-rendering="crispEdges"/></g></g></g></svg>