<svg xmlns="http://www.w3.org/2000/svg" width="1016.4164265457537" height="546.525390625"><g transform="translate(50.54923904575372,70)"><g transform="translate(213.15446860671156,0)"><line y1="-3" stroke="black" stroke-opacity="0" shape-rendering="crispEdges" y2="0"/><rect clip-path="url(#8193)" fill="white" x="0" width="177.07362534948743" height="26"/><rect clip-path="url(#8193)" fill="#8dd3c7" x="19.384902143522837" width="106.24417520969246" height="26"/><line clip-path="url(#8193)" stroke="black" stroke-dasharray="3,2" shape-rendering="crispEdges" y1="0" y2="26" x1="37.65144454799628" x2="37.65144454799628"/><line clip-path="url(#8193)" stroke="black" stroke-dasharray="3,2" shape-rendering="crispEdges" y1="0" y2="26" x1="56.29077353215285" x2="56.29077353215285"/><line clip-path="url(#8193)" stroke="black" stroke-dasharray="3,2" shape-rendering="crispEdges" y1="0" y2="26" x1="72.3205964585275" x2="72.3205964585275"/><line clip-path="url(#8193)" stroke="black" stroke-dasharray="3,2" shape-rendering="crispEdges" y1="0" y2="26" x1="85.24386455420938" x2="85.24386455420938"/><line clip-path="url(#8193)" stroke="black" stroke-dasharray="3,2" shape-rendering="crispEdges" y1="0" y2="26" x1="105.25007766387077" x2="105.25007766387077"/><line clip-path="url(#8193)" stroke="black" stroke-dasharray="3,2" shape-rendering="crispEdges" y1="0" y2="26" x1="124.75924200062133" x2="124.75924200062133"/><line clip-path="url(#8193)" stroke="black" stroke-dasharray="3,2" shape-rendering="crispEdges" y1="0" y2="26" x1="137.30972351662007" x2="137.30972351662007"/><line clip-path="url(#8193)" stroke="black" stroke-dasharray="3,2" shape-rendering="crispEdges" y1="0" y2="26" x1="152.8424976700839" x2="152.8424976700839"/><rect clip-path="url(#8193)" stroke-dasharray="none" fill="none" stroke="black" x="0" width="177.07362534948743" height="26"/><text font-family="Arial" fill="black" font-size="15" dominant-baseline="central" x="182.07362534948743" y="13">CCDC6</text><text fill="#858585" fill-opacity="0" font-size="13" font-family="Arial" text-anchor="middle" dominant-baseline="auto" y="-24">ends at 101 AA</text><defs><clipPath id="8193"><rect x="0" y="0" height="26" width="233.75331284948743"/></clipPath></defs><rect clip-path="url(#8193)" fill="white" fill-opacity="0" width="177.07362534948743" height="26"/></g><g transform="translate(0,106)"><line y1="26" stroke="black" stroke-opacity="0" shape-rendering="crispEdges" y2="29"/><rect clip-path="url(#32879)" fill="white" x="0" width="400" height="26"/><rect clip-path="url(#32879)" fill="#8dd3c7" x="86.48648648648648" width="0" height="26"/><rect clip-path="url(#32879)" fill="#bebada" x="325.81547064305687" width="0" height="26"/><rect clip-path="url(#32879)" fill="#fb8072" x="302.3299161230196" width="0" height="26"/><rect clip-path="url(#32879)" fill="#80b1d3" x="269.89748369058714" width="104.75302889095991" height="26"/><rect clip-path="url(#32879)" fill="#E8E89E" x="332.15284249767006" width="9.319664492078289" height="26"/><rect clip-path="url(#32879)" fill="#fb8072" x="282.5722273998136" width="0" height="26"/><rect clip-path="url(#32879)" fill="#bebada" x="356.7567567567568" width="0" height="26"/><rect clip-path="url(#32879)" fill="#8dd3c7" x="99.16123019571296" width="0.37278657968312245" height="26"/><rect clip-path="url(#32879)" fill="#bebada" x="339.23578751164956" width="1.4911463187325467" height="26"/><rect clip-path="url(#32879)" fill="#fb8072" x="300.83876980428704" width="0" height="26"/><rect clip-path="url(#32879)" fill="#fb8072" x="328.4249767008388" width="0" height="26"/><rect clip-path="url(#32879)" fill="#bebada" x="344.0820130475303" width="0" height="26"/><rect clip-path="url(#32879)" fill="#fb8072" x="275.11649580615097" width="0" height="26"/><rect clip-path="url(#32879)" fill="#a6d854" x="64.11929170549861" width="33.178005591798694" height="26"/><rect clip-path="url(#32879)" fill="#8dd3c7" x="66.35601118359739" width="0.37278657968313667" height="26"/><rect clip-path="url(#32879)" fill="#8dd3c7" x="85.74091332712023" width="0" height="26"/><rect clip-path="url(#32879)" fill="#fb8072" x="272.13420316868593" width="1.1183597390493674" height="26"/><rect clip-path="url(#32879)" fill="#fb8072" x="332.52562907735324" width="0" height="26"/><rect clip-path="url(#32879)" fill="#8dd3c7" x="98.41565703634669" width="0" height="26"/><rect clip-path="url(#32879)" fill="#fb8072" x="281.82665424044734" width="0" height="26"/><rect clip-path="url(#32879)" fill="#bebada" x="327.30661696178936" width="0" height="26"/><rect clip-path="url(#32879)" fill="#fb8072" x="299.7204100652377" width="0.37278657968312245" height="26"/><rect clip-path="url(#32879)" fill="#fdb462" x="269.524697110904" width="107.73532152842495" height="26"/><line clip-path="url(#32879)" stroke="black" stroke-dasharray="3,2" shape-rendering="crispEdges" y1="0" y2="26" x1="9.071140105622865" x2="9.071140105622865"/><line clip-path="url(#32879)" stroke="black" stroke-dasharray="3,2" shape-rendering="crispEdges" y1="0" y2="26" x1="41.876359117738424" x2="41.876359117738424"/><line clip-path="url(#32879)" stroke="black" stroke-dasharray="3,2" shape-rendering="crispEdges" y1="0" y2="26" x1="77.66387076731904" x2="77.66387076731904"/><line clip-path="url(#32879)" stroke="black" stroke-dasharray="3,2" shape-rendering="crispEdges" y1="0" y2="26" x1="107.73532152842498" x2="107.73532152842498"/><line clip-path="url(#32879)" stroke="black" stroke-dasharray="3,2" shape-rendering="crispEdges" y1="0" y2="26" x1="132.0907114010562" x2="132.0907114010562"/><line clip-path="url(#32879)" stroke="black" stroke-dasharray="3,2" shape-rendering="crispEdges" y1="0" y2="26" x1="156.9431500465983" x2="156.9431500465983"/><line clip-path="url(#32879)" stroke="black" stroke-dasharray="3,2" shape-rendering="crispEdges" y1="0" y2="26" x1="189.12705809257534" x2="189.12705809257534"/><line clip-path="url(#32879)" stroke="black" stroke-dasharray="3,2" shape-rendering="crispEdges" y1="0" y2="26" x1="204.78409443926688" x2="204.78409443926688"/><line clip-path="url(#32879)" stroke="black" stroke-dasharray="3,2" shape-rendering="crispEdges" y1="0" y2="26" x1="218.57719788754272" x2="218.57719788754272"/><line clip-path="url(#32879)" stroke="black" stroke-dasharray="3,2" shape-rendering="crispEdges" y1="0" y2="26" x1="233.48866107486796" x2="233.48866107486796"/><line clip-path="url(#32879)" stroke="black" stroke-dasharray="3,2" shape-rendering="crispEdges" y1="0" y2="26" x1="265.42404473438955" x2="265.42404473438955"/><line clip-path="url(#32879)" stroke="black" stroke-dasharray="3,2" shape-rendering="crispEdges" y1="0" y2="26" x1="283.8148493320907" x2="283.8148493320907"/><line clip-path="url(#32879)" stroke="black" stroke-dasharray="3,2" shape-rendering="crispEdges" y1="0" y2="26" x1="297.23516620068347" x2="297.23516620068347"/><line clip-path="url(#32879)" stroke="black" stroke-dasharray="3,2" shape-rendering="crispEdges" y1="0" y2="26" x1="323.9515377446412" x2="323.9515377446412"/><line clip-path="url(#32879)" stroke="black" stroke-dasharray="3,2" shape-rendering="crispEdges" y1="0" y2="26" x1="339.23578751164956" x2="339.23578751164956"/><line clip-path="url(#32879)" stroke="black" stroke-dasharray="3,2" shape-rendering="crispEdges" y1="0" y2="26" x1="348.058403230817" x2="348.058403230817"/><line clip-path="url(#32879)" stroke="black" stroke-dasharray="3,2" shape-rendering="crispEdges" y1="0" y2="26" x1="365.20658589624105" x2="365.20658589624105"/><line clip-path="url(#32879)" stroke="black" stroke-dasharray="3,2" shape-rendering="crispEdges" y1="0" y2="26" x1="377.6328052190121" x2="377.6328052190121"/><rect clip-path="url(#32879)" stroke-dasharray="none" fill="none" stroke="black" x="0" width="400" height="26"/><text font-family="Arial" fill="black" font-size="15" dominant-baseline="central" x="405" y="13">RET</text><text fill="#858585" fill-opacity="0" font-size="13" font-family="Arial" text-anchor="middle" dominant-baseline="hanging" y="50">starts at 713 AA</text><defs><clipPath id="32879"><rect x="0" y="0" height="26" width="435"/></clipPath></defs><rect clip-path="url(#32879)" fill="white" fill-opacity="0" width="400" height="26"/></g><line stroke="black" stroke-dasharray="3,2" x1="250.80591315470784" y1="34" x2="265.7968313140727" y2="98"/><g transform="translate(250.80591315470784,0)"><text font-family="Arial" font-size="13" fill="black" text-anchor="end" y="39" dominant-baseline="hanging">exon 1, 101 AA</text><rect height="3" fill="black" x="-37.65144454799628" width="37.65144454799628" y="31"/></g><g transform="translate(265.7968313140727,106)"><text font-family="Arial" font-size="13" fill="black" text-anchor="start" y="-13" dominant-baseline="auto">exon 12, 713 AA</text><rect height="3" fill="black" x="0" width="134.20316868592732" y="-8"/></g></g><g transform="translate(50.54923904575372,238)"/><text class="sja_svgtext" fill="black" font-size="12" text-anchor="end" x="502.2289265457537" y="291" style="display: none;">drag to resize</text><g transform="translate(0,259.525390625)" style="font-family: Arial;"><g><text transform="translate(10,30)" text-anchor="start" font-weight="700" font-size="12" dominant-baseline="central">CCDC6 NM_005436</text><g transform="translate(10,50)"><text transform="translate(12.5,5)" font-size="12" dominant-baseline="central"><tspan dominant-baseline="central" font-weight="700" x="0">DUF2046</tspan><tspan dominant-baseline="central" x="61.359375">Uncharacterized conserved protein H4 (DUF2046)</tspan></text><rect height="10" width="10" y="0.2373046875" fill="#8dd3c7" stroke="#aaa" shape-rendering="crispEdges"/></g></g><g><text transform="translate(10,80)" text-anchor="start" font-weight="700" font-size="12" dominant-baseline="central">RET NM_020630</text><g transform="translate(10,100)"><text transform="translate(12.5,5)" font-size="12" dominant-baseline="central"><tspan dominant-baseline="central" font-weight="700" x="0">Cadherin</tspan><tspan dominant-baseline="central" x="62.0078125">Cadherin domain</tspan></text><rect height="10" width="10" y="0.25" fill="#a6d854" stroke="#aaa" shape-rendering="crispEdges"/></g><g transform="translate(10,125)"><text transform="translate(12.5,5)" font-size="12" dominant-baseline="central"><tspan dominant-baseline="central" font-weight="700" x="0">other</tspan><tspan dominant-baseline="central" x="40">Ca2+ binding site [ion binding]</tspan></text><rect height="10" width="10" y="0.2373046875" fill="#8dd3c7" stroke="#aaa" shape-rendering="crispEdges"/></g><g transform="translate(10,150)"><text transform="translate(12.5,5)" font-size="12" dominant-baseline="central"><tspan dominant-baseline="central" font-weight="700" x="0">PTKc_RET</tspan><tspan dominant-baseline="central" x="71.3515625">Catalytic domain of the Protein Tyrosine Kinase, REarranged during Transfecti...</tspan></text><rect height="10" width="10" y="0.2373046875" fill="#fdb462" stroke="#aaa" shape-rendering="crispEdges"/></g><g transform="translate(10,175)"><text transform="translate(12.5,5)" font-size="12" dominant-baseline="central"><tspan dominant-baseline="central" font-weight="700" x="0">Pkinase_Tyr</tspan><tspan dominant-baseline="central" x="79.8203125">Protein tyrosine kinase</tspan></text><rect height="10" width="10" y="0.2373046875" fill="#80b1d3" stroke="#aaa" shape-rendering="crispEdges"/></g><g transform="translate(10,200)"><text transform="translate(12.5,5)" font-size="12" dominant-baseline="central"><tspan dominant-baseline="central" font-weight="700" x="0">other</tspan><tspan dominant-baseline="central" x="40">ATP binding site [chemical binding]</tspan></text><rect height="10" width="10" y="0.2373046875" fill="#fb8072" stroke="#aaa" shape-rendering="crispEdges"/></g><g transform="translate(10,225)"><text transform="translate(12.5,5)" font-size="12" dominant-baseline="central"><tspan dominant-baseline="central" font-weight="700" x="0">other</tspan><tspan dominant-baseline="central" x="40">polypeptide substrate binding site [polypeptide binding]</tspan></text><rect height="10" width="10" y="0.2373046875" fill="#bebada" stroke="#aaa" shape-rendering="crispEdges"/></g><g transform="translate(10,250)"><text transform="translate(12.5,5)" font-size="12" dominant-baseline="central"><tspan dominant-baseline="central" font-weight="700" x="0">other</tspan><tspan dominant-baseline="central" x="40">activation loop (A-loop)</tspan></text><rect height="10" width="10" y="0.2373046875" fill="#E8E89E" stroke="#aaa" shape-rendering="crispEdges"/></g></g></g></svg>