<svg xmlns="http://www.w3.org/2000/svg" width="958.2890625" height="571.525390625"><g transform="translate(40,70)"><g transform="translate(200.01814293291505,0)"><line y1="-3" stroke="black" stroke-opacity="0" shape-rendering="crispEdges" y2="0"/><rect clip-path="url(#26170)" fill="white" x="0" width="137.3083475298126" height="26"/><rect clip-path="url(#26170)" fill="#8dd3c7" x="75.46848381601363" width="43.781942078364565" height="26"/><line clip-path="url(#26170)" stroke="black" stroke-dasharray="3,2" shape-rendering="crispEdges" y1="0" y2="26" x1="4.1453719477569555" x2="4.1453719477569555"/><line clip-path="url(#26170)" stroke="black" stroke-dasharray="3,2" shape-rendering="crispEdges" y1="0" y2="26" x1="13.17433276547416" x2="13.17433276547416"/><line clip-path="url(#26170)" stroke="black" stroke-dasharray="3,2" shape-rendering="crispEdges" y1="0" y2="26" x1="57.921635434412266" x2="57.921635434412266"/><line clip-path="url(#26170)" stroke="black" stroke-dasharray="3,2" shape-rendering="crispEdges" y1="0" y2="26" x1="64.67915956842702" x2="64.67915956842702"/><line clip-path="url(#26170)" stroke="black" stroke-dasharray="3,2" shape-rendering="crispEdges" y1="0" y2="26" x1="71.37989778534923" x2="71.37989778534923"/><line clip-path="url(#26170)" stroke="black" stroke-dasharray="3,2" shape-rendering="crispEdges" y1="0" y2="26" x1="81.60136286201022" x2="81.60136286201022"/><line clip-path="url(#26170)" stroke="black" stroke-dasharray="3,2" shape-rendering="crispEdges" y1="0" y2="26" x1="90.28960817717206" x2="90.28960817717206"/><line clip-path="url(#26170)" stroke="black" stroke-dasharray="3,2" shape-rendering="crispEdges" y1="0" y2="26" x1="99.09142532651902" x2="99.09142532651902"/><line clip-path="url(#26170)" stroke="black" stroke-dasharray="3,2" shape-rendering="crispEdges" y1="0" y2="26" x1="105.79216354344123" x2="105.79216354344123"/><line clip-path="url(#26170)" stroke="black" stroke-dasharray="3,2" shape-rendering="crispEdges" y1="0" y2="26" x1="108.68824531516185" x2="108.68824531516185"/><line clip-path="url(#26170)" stroke="black" stroke-dasharray="3,2" shape-rendering="crispEdges" y1="0" y2="26" x1="114.82112436115844" x2="114.82112436115844"/><line clip-path="url(#26170)" stroke="black" stroke-dasharray="3,2" shape-rendering="crispEdges" y1="0" y2="26" x1="127.9954571266326" x2="127.9954571266326"/><rect clip-path="url(#26170)" stroke-dasharray="none" fill="none" stroke="black" x="0" width="137.3083475298126" height="26"/><text font-family="Arial" fill="black" font-size="15" dominant-baseline="central" x="142.3083475298126" y="13">CEP85L</text><text fill="#858585" fill-opacity="0" font-size="13" font-family="Arial" text-anchor="middle" dominant-baseline="auto" y="-24">ends at 582 AA</text><defs><clipPath id="26170"><rect x="0" y="0" height="26" width="198.1833475298126"/></clipPath></defs><rect clip-path="url(#26170)" fill="white" fill-opacity="0" width="137.3083475298126" height="26"/></g><g transform="translate(0,106)"><line y1="26" stroke="black" stroke-opacity="0" shape-rendering="crispEdges" y2="29"/><rect clip-path="url(#59993)" fill="white" x="0" width="400" height="26"/><rect clip-path="url(#59993)" fill="#8dd3c7" x="295.9114139693356" width="0.17035775127766328" height="26"/><rect clip-path="url(#59993)" fill="#bebada" x="331.3458262350937" width="45.99659284497443" height="26"/><rect clip-path="url(#59993)" fill="#fb8072" x="354.17376490630323" width="0" height="26"/><rect clip-path="url(#59993)" fill="#80b1d3" x="354.855195911414" width="0.17035775127766328" height="26"/><rect clip-path="url(#59993)" fill="#E8E89E" x="163.7137989778535" width="11.413969335604776" height="26"/><rect clip-path="url(#59993)" fill="#80b1d3" x="346.16695059625215" width="0.17035775127766328" height="26"/><rect clip-path="url(#59993)" fill="#fb8072" x="363.37308347529813" width="0" height="26"/><rect clip-path="url(#59993)" fill="#E8E89E" x="17.37649063032368" width="14.139693356047701" height="26"/><rect clip-path="url(#59993)" fill="#8dd3c7" x="194.0374787052811" width="0.17035775127766328" height="26"/><rect clip-path="url(#59993)" fill="#a6d854" x="332.1976149914821" width="45.31516183986372" height="26"/><rect clip-path="url(#59993)" fill="#E8E89E" x="177.34241908006814" width="18.05792163543441" height="26"/><rect clip-path="url(#59993)" fill="#E8E89E" x="282.62350936967636" width="15.161839863713794" height="26"/><rect clip-path="url(#59993)" fill="#8dd3c7" x="296.4224872231687" width="0.17035775127766328" height="26"/><rect clip-path="url(#59993)" fill="#fdb462" x="293.1856899488927" width="0" height="26"/><rect clip-path="url(#59993)" fill="#8dd3c7" x="313.62862010221465" width="0.17035775127766328" height="26"/><rect clip-path="url(#59993)" fill="#8dd3c7" x="31.005110732538334" width="0.17035775127768105" height="26"/><rect clip-path="url(#59993)" fill="#fdb462" x="95.05962521294718" width="0" height="26"/><rect clip-path="url(#59993)" fill="#ffd92f" x="357.9216354344123" width="4.258943781942037" height="26"/><rect clip-path="url(#59993)" fill="#8dd3c7" x="30.494037478705284" width="0.17035775127768105" height="26"/><rect clip-path="url(#59993)" fill="#E8E89E" x="298.6371379897785" width="15.161839863713794" height="26"/><rect clip-path="url(#59993)" fill="#fb8072" x="361.1584327086883" width="0.68143100511071" height="26"/><rect clip-path="url(#59993)" fill="#fdb462" x="177.34241908006814" width="0" height="26"/><rect clip-path="url(#59993)" fill="#8dd3c7" x="112.43611584327087" width="0.1703577512776917" height="26"/><rect clip-path="url(#59993)" fill="#fb8072" x="354.855195911414" width="0" height="26"/><rect clip-path="url(#59993)" fill="#80b1d3" x="337.3083475298126" width="0" height="26"/><rect clip-path="url(#59993)" fill="#E8E89E" x="34.41226575809199" width="13.45826235093697" height="26"/><rect clip-path="url(#59993)" fill="#80b1d3" x="355.366269165247" width="0" height="26"/><rect clip-path="url(#59993)" fill="#fdb462" x="190.8006814310051" width="0" height="26"/><rect clip-path="url(#59993)" fill="#80b1d3" x="336.96763202725725" width="0" height="26"/><rect clip-path="url(#59993)" fill="#8dd3c7" x="46.678023850085175" width="0.1703577512776846" height="26"/><rect clip-path="url(#59993)" fill="#fdb462" x="282.62350936967636" width="0" height="26"/><rect clip-path="url(#59993)" fill="#80b1d3" x="345.144804088586" width="0.5110732538330467" height="26"/><rect clip-path="url(#59993)" fill="#8dd3c7" x="46.166950596252136" width="0.1703577512776775" height="26"/><rect clip-path="url(#59993)" fill="#80b1d3" x="332.3679727427598" width="0.17035775127772013" height="26"/><rect clip-path="url(#59993)" fill="#fdb462" x="109.1993185689949" width="0" height="26"/><rect clip-path="url(#59993)" fill="#80b1d3" x="358.09199318568994" width="0" height="26"/><rect clip-path="url(#59993)" fill="#fb8072" x="369.16524701873936" width="0" height="26"/><rect clip-path="url(#59993)" fill="#80b1d3" x="332.8790459965929" width="0.17035775127766328" height="26"/><rect clip-path="url(#59993)" fill="#fdb462" x="193.35604770017036" width="0" height="26"/><rect clip-path="url(#59993)" fill="#E8E89E" x="95.05962521294718" width="18.73935264054515" height="26"/><rect clip-path="url(#59993)" fill="#fdb462" x="111.75468483816013" width="0" height="26"/><rect clip-path="url(#59993)" fill="#fdb462" x="295.7410562180579" width="0" height="26"/><rect clip-path="url(#59993)" fill="#8dd3c7" x="193.52640545144803" width="0.1703577512776917" height="26"/><rect clip-path="url(#59993)" fill="#8dd3c7" x="313.1175468483816" width="0.17035775127766328" height="26"/><rect clip-path="url(#59993)" fill="#80b1d3" x="333.73083475298125" width="0" height="26"/><rect clip-path="url(#59993)" fill="#8dd3c7" x="111.92504258943782" width="0.1703577512776775" height="26"/><line clip-path="url(#59993)" stroke="black" stroke-dasharray="3,2" shape-rendering="crispEdges" y1="0" y2="26" x1="6.984667802385008" x2="6.984667802385008"/><line clip-path="url(#59993)" stroke="black" stroke-dasharray="3,2" shape-rendering="crispEdges" y1="0" y2="26" x1="9.540034071550256" x2="9.540034071550256"/><line clip-path="url(#59993)" stroke="black" stroke-dasharray="3,2" shape-rendering="crispEdges" y1="0" y2="26" x1="12.947189097103918" x2="12.947189097103918"/><line clip-path="url(#59993)" stroke="black" stroke-dasharray="3,2" shape-rendering="crispEdges" y1="0" y2="26" x1="16.41113003975014" x2="16.41113003975014"/><line clip-path="url(#59993)" stroke="black" stroke-dasharray="3,2" shape-rendering="crispEdges" y1="0" y2="26" x1="24.87223168654174" x2="24.87223168654174"/><line clip-path="url(#59993)" stroke="black" stroke-dasharray="3,2" shape-rendering="crispEdges" y1="0" y2="26" x1="32.76547416240773" x2="32.76547416240773"/><line clip-path="url(#59993)" stroke="black" stroke-dasharray="3,2" shape-rendering="crispEdges" y1="0" y2="26" x1="44.23622941510506" x2="44.23622941510506"/><line clip-path="url(#59993)" stroke="black" stroke-dasharray="3,2" shape-rendering="crispEdges" y1="0" y2="26" x1="48.60874503123225" x2="48.60874503123225"/><line clip-path="url(#59993)" stroke="black" stroke-dasharray="3,2" shape-rendering="crispEdges" y1="0" y2="26" x1="55.593412833617265" x2="55.593412833617265"/><line clip-path="url(#59993)" stroke="black" stroke-dasharray="3,2" shape-rendering="crispEdges" y1="0" y2="26" x1="66.09880749574106" x2="66.09880749574106"/><line clip-path="url(#59993)" stroke="black" stroke-dasharray="3,2" shape-rendering="crispEdges" y1="0" y2="26" x1="71.66382737081204" x2="71.66382737081204"/><line clip-path="url(#59993)" stroke="black" stroke-dasharray="3,2" shape-rendering="crispEdges" y1="0" y2="26" x1="99.88642816581489" x2="99.88642816581489"/><line clip-path="url(#59993)" stroke="black" stroke-dasharray="3,2" shape-rendering="crispEdges" y1="0" y2="26" x1="114.36683702441795" x2="114.36683702441795"/><line clip-path="url(#59993)" stroke="black" stroke-dasharray="3,2" shape-rendering="crispEdges" y1="0" y2="26" x1="120.67007382169224" x2="120.67007382169224"/><line clip-path="url(#59993)" stroke="black" stroke-dasharray="3,2" shape-rendering="crispEdges" y1="0" y2="26" x1="130.83475298126064" x2="130.83475298126064"/><line clip-path="url(#59993)" stroke="black" stroke-dasharray="3,2" shape-rendering="crispEdges" y1="0" y2="26" x1="141.73764906303236" x2="141.73764906303236"/><line clip-path="url(#59993)" stroke="black" stroke-dasharray="3,2" shape-rendering="crispEdges" y1="0" y2="26" x1="147.47302668938102" x2="147.47302668938102"/><line clip-path="url(#59993)" stroke="black" stroke-dasharray="3,2" shape-rendering="crispEdges" y1="0" y2="26" x1="159.68199886428167" x2="159.68199886428167"/><line clip-path="url(#59993)" stroke="black" stroke-dasharray="3,2" shape-rendering="crispEdges" y1="0" y2="26" x1="168.82453151618398" x2="168.82453151618398"/><line clip-path="url(#59993)" stroke="black" stroke-dasharray="3,2" shape-rendering="crispEdges" y1="0" y2="26" x1="177.0584894946053" x2="177.0584894946053"/><line clip-path="url(#59993)" stroke="black" stroke-dasharray="3,2" shape-rendering="crispEdges" y1="0" y2="26" x1="191.9931856899489" x2="191.9931856899489"/><line clip-path="url(#59993)" stroke="black" stroke-dasharray="3,2" shape-rendering="crispEdges" y1="0" y2="26" x1="195.6274843838728" x2="195.6274843838728"/><line clip-path="url(#59993)" stroke="black" stroke-dasharray="3,2" shape-rendering="crispEdges" y1="0" y2="26" x1="207.15502555366268" x2="207.15502555366268"/><line clip-path="url(#59993)" stroke="black" stroke-dasharray="3,2" shape-rendering="crispEdges" y1="0" y2="26" x1="218.8529244747303" x2="218.8529244747303"/><line clip-path="url(#59993)" stroke="black" stroke-dasharray="3,2" shape-rendering="crispEdges" y1="0" y2="26" x1="235.15048268029526" x2="235.15048268029526"/><line clip-path="url(#59993)" stroke="black" stroke-dasharray="3,2" shape-rendering="crispEdges" y1="0" y2="26" x1="245.37194775695625" x2="245.37194775695625"/><line clip-path="url(#59993)" stroke="black" stroke-dasharray="3,2" shape-rendering="crispEdges" y1="0" y2="26" x1="256.8994889267462" x2="256.8994889267462"/><line clip-path="url(#59993)" stroke="black" stroke-dasharray="3,2" shape-rendering="crispEdges" y1="0" y2="26" x1="265.1334469051675" x2="265.1334469051675"/><line clip-path="url(#59993)" stroke="black" stroke-dasharray="3,2" shape-rendering="crispEdges" y1="0" y2="26" x1="278.36456558773426" x2="278.36456558773426"/><line clip-path="url(#59993)" stroke="black" stroke-dasharray="3,2" shape-rendering="crispEdges" y1="0" y2="26" x1="288.41567291311753" x2="288.41567291311753"/><line clip-path="url(#59993)" stroke="black" stroke-dasharray="3,2" shape-rendering="crispEdges" y1="0" y2="26" x1="298.0124929017603" x2="298.0124929017603"/><line clip-path="url(#59993)" stroke="black" stroke-dasharray="3,2" shape-rendering="crispEdges" y1="0" y2="26" x1="304.7132311186826" x2="304.7132311186826"/><line clip-path="url(#59993)" stroke="black" stroke-dasharray="3,2" shape-rendering="crispEdges" y1="0" y2="26" x1="315.55934128336173" x2="315.55934128336173"/><line clip-path="url(#59993)" stroke="black" stroke-dasharray="3,2" shape-rendering="crispEdges" y1="0" y2="26" x1="320.3293583191369" x2="320.3293583191369"/><line clip-path="url(#59993)" stroke="black" stroke-dasharray="3,2" shape-rendering="crispEdges" y1="0" y2="26" x1="328.0522430437252" x2="328.0522430437252"/><line clip-path="url(#59993)" stroke="black" stroke-dasharray="3,2" shape-rendering="crispEdges" y1="0" y2="26" x1="337.3083475298126" x2="337.3083475298126"/><line clip-path="url(#59993)" stroke="black" stroke-dasharray="3,2" shape-rendering="crispEdges" y1="0" y2="26" x1="340.9994321408291" x2="340.9994321408291"/><line clip-path="url(#59993)" stroke="black" stroke-dasharray="3,2" shape-rendering="crispEdges" y1="0" y2="26" x1="348.381601362862" x2="348.381601362862"/><line clip-path="url(#59993)" stroke="black" stroke-dasharray="3,2" shape-rendering="crispEdges" y1="0" y2="26" x1="353.94662123793296" x2="353.94662123793296"/><line clip-path="url(#59993)" stroke="black" stroke-dasharray="3,2" shape-rendering="crispEdges" y1="0" y2="26" x1="365.36059057353776" x2="365.36059057353776"/><line clip-path="url(#59993)" stroke="black" stroke-dasharray="3,2" shape-rendering="crispEdges" y1="0" y2="26" x1="373.0266893810335" x2="373.0266893810335"/><line clip-path="url(#59993)" stroke="black" stroke-dasharray="3,2" shape-rendering="crispEdges" y1="0" y2="26" x1="382.3395797842136" x2="382.3395797842136"/><rect clip-path="url(#59993)" stroke-dasharray="none" fill="none" stroke="black" x="0" width="400" height="26"/><text font-family="Arial" fill="black" font-size="15" dominant-baseline="central" x="405" y="13">ROS1</text><text fill="#858585" fill-opacity="0" font-size="13" font-family="Arial" text-anchor="middle" dominant-baseline="hanging" y="50">starts at 1926 AA</text><defs><clipPath id="59993"><rect x="0" y="0" height="26" width="445.8515625"/></clipPath></defs><rect clip-path="url(#59993)" fill="white" fill-opacity="0" width="400" height="26"/></g><line stroke="black" stroke-dasharray="3,2" x1="299.1663541765266" y1="34" x2="328.10902896081774" y2="98"/><g transform="translate(299.1663541765266,0)"><text font-family="Arial" font-size="13" fill="black" text-anchor="end" y="39" dominant-baseline="hanging">exon 8, 582 AA</text><rect height="3" fill="black" x="-99.14821124361158" width="99.14821124361158" y="31"/></g><g transform="translate(328.10902896081774,106)"><text font-family="Arial" font-size="13" fill="black" text-anchor="start" y="-13" dominant-baseline="auto">exon 36, 1926 AA</text><rect height="3" fill="black" x="0" width="71.89097103918226" y="-8"/></g></g><g transform="translate(40,238)"/><text class="sja_svgtext" fill="black" font-size="12" text-anchor="end" x="495.875" y="291" style="display: none;">drag to resize</text><g transform="translate(0,259.525390625)" style="font-family: Arial;"><g><text transform="translate(10,30)" text-anchor="start" font-weight="700" font-size="12" dominant-baseline="central">CEP85L NM_001042475</text><g transform="translate(10,50)"><text transform="translate(12.5,5)" font-size="12" dominant-baseline="central"><tspan dominant-baseline="central" font-weight="700" x="0">SMC_N</tspan><tspan dominant-baseline="central" x="52.0078125">RecF/RecN/SMC N terminal domain</tspan></text><rect height="10" width="10" y="0.25" fill="#8dd3c7" stroke="#aaa" shape-rendering="crispEdges"/></g></g><g><text transform="translate(10,80)" text-anchor="start" font-weight="700" font-size="12" dominant-baseline="central">ROS1 NM_002944</text><g transform="translate(10,100)"><text transform="translate(12.5,5)" font-size="12" dominant-baseline="central"><tspan dominant-baseline="central" font-weight="700" x="0">FN3</tspan><tspan dominant-baseline="central" x="32.671875">Fibronectin type 3 domain; One of three types of internal repeats found in th...</tspan></text><rect height="10" width="10" y="0.2373046875" fill="#E8E89E" stroke="#aaa" shape-rendering="crispEdges"/></g><g transform="translate(10,125)"><text transform="translate(12.5,5)" font-size="12" dominant-baseline="central"><tspan dominant-baseline="central" font-weight="700" x="0">other</tspan><tspan dominant-baseline="central" x="40">Cytokine receptor motif</tspan></text><rect height="10" width="10" y="0.2373046875" fill="#8dd3c7" stroke="#aaa" shape-rendering="crispEdges"/></g><g transform="translate(10,150)"><text transform="translate(12.5,5)" font-size="12" dominant-baseline="central"><tspan dominant-baseline="central" font-weight="700" x="0">other</tspan><tspan dominant-baseline="central" x="40">Interdomain contacts</tspan></text><rect height="10" width="10" y="0.25" fill="#fdb462" stroke="#aaa" shape-rendering="crispEdges"/></g><g transform="translate(10,175)"><text transform="translate(12.5,5)" font-size="12" dominant-baseline="central"><tspan dominant-baseline="central" font-weight="700" x="0">Pkinase_Tyr</tspan><tspan dominant-baseline="central" x="79.8203125">Protein tyrosine kinase</tspan></text><rect height="10" width="10" y="0.2373046875" fill="#bebada" stroke="#aaa" shape-rendering="crispEdges"/></g><g transform="translate(10,200)"><text transform="translate(12.5,5)" font-size="12" dominant-baseline="central"><tspan dominant-baseline="central" font-weight="700" x="0">PTKc_c-ros</tspan><tspan dominant-baseline="central" x="76.6953125">Catalytic domain of the Protein Tyrosine Kinase, C-ros</tspan></text><rect height="10" width="10" y="0.2373046875" fill="#a6d854" stroke="#aaa" shape-rendering="crispEdges"/></g><g transform="translate(10,225)"><text transform="translate(12.5,5)" font-size="12" dominant-baseline="central"><tspan dominant-baseline="central" font-weight="700" x="0">other</tspan><tspan dominant-baseline="central" x="40">ATP binding site [chemical binding]</tspan></text><rect height="10" width="10" y="0.2373046875" fill="#80b1d3" stroke="#aaa" shape-rendering="crispEdges"/></g><g transform="translate(10,250)"><text transform="translate(12.5,5)" font-size="12" dominant-baseline="central"><tspan dominant-baseline="central" font-weight="700" x="0">other</tspan><tspan dominant-baseline="central" x="40">polypeptide substrate binding site [polypeptide binding]</tspan></text><rect height="10" width="10" y="0.2373046875" fill="#fb8072" stroke="#aaa" shape-rendering="crispEdges"/></g><g transform="translate(10,275)"><text transform="translate(12.5,5)" font-size="12" dominant-baseline="central"><tspan dominant-baseline="central" font-weight="700" x="0">other</tspan><tspan dominant-baseline="central" x="40">activation loop (A-loop)</tspan></text><rect height="10" width="10" y="0.2373046875" fill="#ffd92f" stroke="#aaa" shape-rendering="crispEdges"/></g></g></g></svg>