<svg xmlns="http://www.w3.org/2000/svg" width="1059.6847178855285" height="696.5"><g transform="translate(68.41909288552849,70)"><g transform="translate(0,0)"><line y1="-3" stroke="black" stroke-opacity="0" shape-rendering="crispEdges" y2="0"/><rect clip-path="url(#13940)" fill="white" x="0" width="400" height="26"/><rect clip-path="url(#13940)" fill="#8dd3c7" x="232.53509496284065" width="103.05532617671346" height="26"/><rect clip-path="url(#13940)" fill="#e5c494" x="235.50784475639966" width="84.2279108175062" height="26"/><rect clip-path="url(#13940)" fill="#fb8072" x="61.1065235342692" width="49.5458298926507" height="26"/><rect clip-path="url(#13940)" fill="#80b1d3" x="166.804293971924" width="43.60033030553265" height="26"/><rect clip-path="url(#13940)" fill="#8dd3c7" x="119.24029727497935" width="39.63666391412056" height="26"/><rect clip-path="url(#13940)" fill="#8dd3c7" x="18.827415359207265" width="36.663914120561515" height="26"/><rect clip-path="url(#13940)" fill="#bebada" x="167.1345995045417" width="17.506193228736578" height="26"/><rect clip-path="url(#13940)" fill="#E8E89E" x="182.3286540049546" width="15.194054500412875" height="26"/><rect clip-path="url(#13940)" fill="#bebada" x="76.30057803468208" width="14.203137902559874" height="26"/><rect clip-path="url(#13940)" fill="#fb8072" x="209.41370767960362" width="14.20313790255986" height="26"/><rect clip-path="url(#13940)" fill="#a6d854" x="282.08092485549133" width="8.257638315441795" height="26"/><rect clip-path="url(#13940)" fill="#bebada" x="214.03798513625105" width="1.6515276630883022" height="26"/><rect clip-path="url(#13940)" fill="#ffd92f" x="289.3476465730801" width="1.3212221304706873" height="26"/><rect clip-path="url(#13940)" fill="#fdb462" x="240.46242774566474" width="0.6606110652353436" height="26"/><rect clip-path="url(#13940)" fill="#fdb462" x="236.168455821635" width="0.6606110652353436" height="26"/><rect clip-path="url(#13940)" fill="#bebada" x="212.71676300578034" width="0.6606110652353436" height="26"/><rect clip-path="url(#13940)" fill="#fdb462" x="333.2782824112304" width="0.33030553261761497" height="26"/><rect clip-path="url(#13940)" fill="#fdb462" x="262.2625928984311" width="0.3303055326176718" height="26"/><rect clip-path="url(#13940)" fill="#b3b3b3" x="260.9413707679604" width="0.33030553261761497" height="26"/><rect clip-path="url(#13940)" fill="#bebada" x="216.6804293971924" width="0.33030553261770024" height="26"/><rect clip-path="url(#13940)" fill="#b3b3b3" x="237.15937241948802" width="0.33030553261770024" height="26"/><rect clip-path="url(#13940)" fill="#b3b3b3" x="277.7869529314616" width="0.3303055326176718" height="26"/><rect clip-path="url(#13940)" fill="#fdb462" x="265.5656482246078" width="0.33030553261761497" height="26"/><rect clip-path="url(#13940)" fill="#ffd92f" x="292.32039636663916" width="0" height="26"/><rect clip-path="url(#13940)" fill="#b3b3b3" x="253.01403798513627" width="0" height="26"/><rect clip-path="url(#13940)" fill="#ffd92f" x="293.64161849710985" width="0" height="26"/><rect clip-path="url(#13940)" fill="#b3b3b3" x="282.411230388109" width="0" height="26"/><rect clip-path="url(#13940)" fill="#b3b3b3" x="278.7778695293146" width="0" height="26"/><rect clip-path="url(#13940)" fill="#b3b3b3" x="239.8018166804294" width="0" height="26"/><rect clip-path="url(#13940)" fill="#b3b3b3" x="245.41701073492982" width="0" height="26"/><rect clip-path="url(#13940)" fill="#b3b3b3" x="261.93228736581335" width="0" height="26"/><rect clip-path="url(#13940)" fill="#b3b3b3" x="246.07762180016516" width="0" height="26"/><rect clip-path="url(#13940)" fill="#fdb462" x="263.25350949628404" width="0" height="26"/><line clip-path="url(#13940)" stroke="black" stroke-dasharray="3,2" shape-rendering="crispEdges" y1="0" y2="26" x1="9.68896229011836" x2="9.68896229011836"/><line clip-path="url(#13940)" stroke="black" stroke-dasharray="3,2" shape-rendering="crispEdges" y1="0" y2="26" x1="26.424442609413706" x2="26.424442609413706"/><line clip-path="url(#13940)" stroke="black" stroke-dasharray="3,2" shape-rendering="crispEdges" y1="0" y2="26" x1="46.683181943297555" x2="46.683181943297555"/><line clip-path="url(#13940)" stroke="black" stroke-dasharray="3,2" shape-rendering="crispEdges" y1="0" y2="26" x1="61.546930911092765" x2="61.546930911092765"/><line clip-path="url(#13940)" stroke="black" stroke-dasharray="3,2" shape-rendering="crispEdges" y1="0" y2="26" x1="69.1439581612992" x2="69.1439581612992"/><line clip-path="url(#13940)" stroke="black" stroke-dasharray="3,2" shape-rendering="crispEdges" y1="0" y2="26" x1="82.24607762180017" x2="82.24607762180017"/><line clip-path="url(#13940)" stroke="black" stroke-dasharray="3,2" shape-rendering="crispEdges" y1="0" y2="26" x1="97.8805394990366" x2="97.8805394990366"/><line clip-path="url(#13940)" stroke="black" stroke-dasharray="3,2" shape-rendering="crispEdges" y1="0" y2="26" x1="110.76245527112579" x2="110.76245527112579"/><line clip-path="url(#13940)" stroke="black" stroke-dasharray="3,2" shape-rendering="crispEdges" y1="0" y2="26" x1="124.74538948527389" x2="124.74538948527389"/><line clip-path="url(#13940)" stroke="black" stroke-dasharray="3,2" shape-rendering="crispEdges" y1="0" y2="26" x1="132.89292595650977" x2="132.89292595650977"/><line clip-path="url(#13940)" stroke="black" stroke-dasharray="3,2" shape-rendering="crispEdges" y1="0" y2="26" x1="142.9121937792458" x2="142.9121937792458"/><line clip-path="url(#13940)" stroke="black" stroke-dasharray="3,2" shape-rendering="crispEdges" y1="0" y2="26" x1="164.93256262042388" x2="164.93256262042388"/><line clip-path="url(#13940)" stroke="black" stroke-dasharray="3,2" shape-rendering="crispEdges" y1="0" y2="26" x1="179.5761078998073" x2="179.5761078998073"/><line clip-path="url(#13940)" stroke="black" stroke-dasharray="3,2" shape-rendering="crispEdges" y1="0" y2="26" x1="189.59537572254334" x2="189.59537572254334"/><line clip-path="url(#13940)" stroke="black" stroke-dasharray="3,2" shape-rendering="crispEdges" y1="0" y2="26" x1="206.99146710707402" x2="206.99146710707402"/><line clip-path="url(#13940)" stroke="black" stroke-dasharray="3,2" shape-rendering="crispEdges" y1="0" y2="26" x1="211.28543903110378" x2="211.28543903110378"/><line clip-path="url(#13940)" stroke="black" stroke-dasharray="3,2" shape-rendering="crispEdges" y1="0" y2="26" x1="226.9199009083402" x2="226.9199009083402"/><line clip-path="url(#13940)" stroke="black" stroke-dasharray="3,2" shape-rendering="crispEdges" y1="0" y2="26" x1="240.46242774566474" x2="240.46242774566474"/><line clip-path="url(#13940)" stroke="black" stroke-dasharray="3,2" shape-rendering="crispEdges" y1="0" y2="26" x1="251.3625103220479" x2="251.3625103220479"/><line clip-path="url(#13940)" stroke="black" stroke-dasharray="3,2" shape-rendering="crispEdges" y1="0" y2="26" x1="271.8414533443435" x2="271.8414533443435"/><line clip-path="url(#13940)" stroke="black" stroke-dasharray="3,2" shape-rendering="crispEdges" y1="0" y2="26" x1="289.01734104046244" x2="289.01734104046244"/><line clip-path="url(#13940)" stroke="black" stroke-dasharray="3,2" shape-rendering="crispEdges" y1="0" y2="26" x1="297.3850812001101" x2="297.3850812001101"/><line clip-path="url(#13940)" stroke="black" stroke-dasharray="3,2" shape-rendering="crispEdges" y1="0" y2="26" x1="313.570052298376" x2="313.570052298376"/><line clip-path="url(#13940)" stroke="black" stroke-dasharray="3,2" shape-rendering="crispEdges" y1="0" y2="26" x1="324.36003303055327" x2="324.36003303055327"/><line clip-path="url(#13940)" stroke="black" stroke-dasharray="3,2" shape-rendering="crispEdges" y1="0" y2="26" x1="342.85714285714283" x2="342.85714285714283"/><line clip-path="url(#13940)" stroke="black" stroke-dasharray="3,2" shape-rendering="crispEdges" y1="0" y2="26" x1="348.1420313790256" x2="348.1420313790256"/><line clip-path="url(#13940)" stroke="black" stroke-dasharray="3,2" shape-rendering="crispEdges" y1="0" y2="26" x1="360.14313239746764" x2="360.14313239746764"/><rect clip-path="url(#13940)" stroke-dasharray="none" fill="none" stroke="black" x="0" width="400" height="26"/><text font-family="Arial" fill="black" font-size="15" dominant-baseline="central" x="405" y="13">EGFR</text><text fill="#858585" fill-opacity="0" font-size="13" font-family="Arial" text-anchor="middle" dominant-baseline="auto" y="-24">ends at 762 AA</text><defs><clipPath id="13940"><rect x="0" y="0" height="26" width="446.671875"/></clipPath></defs><rect clip-path="url(#13940)" fill="white" fill-opacity="0" width="400" height="26"/></g><g transform="translate(227.34831454060424,106)"><line y1="26" stroke="black" stroke-opacity="0" shape-rendering="crispEdges" y2="29"/><rect clip-path="url(#25515)" fill="white" x="0" width="36.33360858794385" height="26"/><rect clip-path="url(#25515)" fill="#8dd3c7" x="0.990916597853014" width="23.781998348472335" height="26"/><line clip-path="url(#25515)" stroke="black" stroke-dasharray="3,2" shape-rendering="crispEdges" y1="0" y2="26" x1="12.221304706853841" x2="12.221304706853841"/><line clip-path="url(#25515)" stroke="black" stroke-dasharray="3,2" shape-rendering="crispEdges" y1="0" y2="26" x1="21.800165152766308" x2="21.800165152766308"/><line clip-path="url(#25515)" stroke="black" stroke-dasharray="3,2" shape-rendering="crispEdges" y1="0" y2="26" x1="27.41535920726672" x2="27.41535920726672"/><line clip-path="url(#25515)" stroke="black" stroke-dasharray="3,2" shape-rendering="crispEdges" y1="0" y2="26" x1="31.048720066061108" x2="31.048720066061108"/><rect clip-path="url(#25515)" stroke-dasharray="none" fill="none" stroke="black" x="0" width="36.33360858794385" height="26"/><text font-family="Arial" fill="black" font-size="15" dominant-baseline="central" x="41.33360858794385" y="13">HMGA2</text><text fill="#858585" fill-opacity="0" font-size="13" font-family="Arial" text-anchor="middle" dominant-baseline="hanging" y="50">starts at 38 AA</text><defs><clipPath id="25515"><rect x="0" y="0" height="26" width="94.67735858794384"/></clipPath></defs><rect clip-path="url(#25515)" fill="white" fill-opacity="0" width="36.33360858794385" height="26"/></g><line stroke="black" stroke-dasharray="3,2" x1="251.69281585466558" y1="34" x2="239.89992478007574" y2="98"/><g transform="translate(251.69281585466558,0)"><text font-family="Arial" font-size="13" fill="black" text-anchor="start" y="39" dominant-baseline="hanging">exon 19, 762 AA</text><rect height="3" fill="black" x="-251.69281585466558" width="251.69281585466558" y="31"/></g><g transform="translate(239.89992478007574,106)"><text font-family="Arial" font-size="13" fill="black" text-anchor="end" y="-13" dominant-baseline="auto">exon 2, 38 AA</text><rect height="3" fill="black" x="0" width="23.78199834847234" y="-8"/></g></g><g transform="translate(68.41909288552849,238)"/><text class="sja_svgtext" fill="black" font-size="12" text-anchor="end" x="521.7628428855285" y="291" style="display: none;">drag to resize</text><g transform="translate(0,259.525390625)" style="font-family: Arial;"><g><text transform="translate(10,30)" text-anchor="start" font-weight="700" font-size="12" dominant-baseline="central">EGFR NM_005228</text><g transform="translate(10,50)"><text transform="translate(12.5,5)" font-size="12" dominant-baseline="central"><tspan dominant-baseline="central" font-weight="700" x="0">Recep_L_domain</tspan><tspan dominant-baseline="central" x="109.3671875">Receptor L domain</tspan></text><rect height="10" width="10" y="0.25" fill="#8dd3c7" stroke="#aaa" shape-rendering="crispEdges"/></g><g transform="translate(10,75)"><text transform="translate(12.5,5)" font-size="12" dominant-baseline="central"><tspan dominant-baseline="central" font-weight="700" x="0">Furin-like</tspan><tspan dominant-baseline="central" x="64.0078125">Furin-like cysteine rich region</tspan></text><rect height="10" width="10" y="0.2373046875" fill="#fb8072" stroke="#aaa" shape-rendering="crispEdges"/></g><g transform="translate(10,100)"><text transform="translate(12.5,5)" font-size="12" dominant-baseline="central"><tspan dominant-baseline="central" font-weight="700" x="0">FU</tspan><tspan dominant-baseline="central" x="26">Furin-like repeats. Cysteine rich region. Exact function of the domain is not...</tspan></text><rect height="10" width="10" y="0.2373046875" fill="#bebada" stroke="#aaa" shape-rendering="crispEdges"/></g><g transform="translate(10,125)"><text transform="translate(12.5,5)" font-size="12" dominant-baseline="central"><tspan dominant-baseline="central" font-weight="700" x="0">GF_recep_IV</tspan><tspan dominant-baseline="central" x="83.375">Growth factor receptor domain IV</tspan></text><rect height="10" width="10" y="0.25" fill="#80b1d3" stroke="#aaa" shape-rendering="crispEdges"/></g><g transform="translate(10,150)"><text transform="translate(12.5,5)" font-size="12" dominant-baseline="central"><tspan dominant-baseline="central" font-weight="700" x="0">FU</tspan><tspan dominant-baseline="central" x="26">Furin-like repeats</tspan></text><rect height="10" width="10" y="0.25" fill="#E8E89E" stroke="#aaa" shape-rendering="crispEdges"/></g><g transform="translate(10,175)"><text transform="translate(12.5,5)" font-size="12" dominant-baseline="central"><tspan dominant-baseline="central" font-weight="700" x="0">TM_ErbB1</tspan><tspan dominant-baseline="central" x="69.34375">Transmembrane domain of Epidermal Growth Factor Receptor or ErbB1, a Protein ...</tspan></text><rect height="10" width="10" y="0.25" fill="#fb8072" stroke="#aaa" shape-rendering="crispEdges"/></g><g transform="translate(10,200)"><text transform="translate(12.5,5)" font-size="12" dominant-baseline="central"><tspan dominant-baseline="central" font-weight="700" x="0">other</tspan><tspan dominant-baseline="central" x="40">heterodimer interface [polypeptide binding]</tspan></text><rect height="10" width="10" y="0.2373046875" fill="#bebada" stroke="#aaa" shape-rendering="crispEdges"/></g><g transform="translate(10,225)"><text transform="translate(12.5,5)" font-size="12" dominant-baseline="central"><tspan dominant-baseline="central" font-weight="700" x="0">PTKc_EGFR</tspan><tspan dominant-baseline="central" x="80.6875">Catalytic domain of the Protein Tyrosine Kinase, Epidermal Growth Factor Rece...</tspan></text><rect height="10" width="10" y="0.2373046875" fill="#8dd3c7" stroke="#aaa" shape-rendering="crispEdges"/></g><g transform="translate(10,250)"><text transform="translate(12.5,5)" font-size="12" dominant-baseline="central"><tspan dominant-baseline="central" font-weight="700" x="0">TyrKc</tspan><tspan dominant-baseline="central" x="43.125">Tyrosine kinase, catalytic domain</tspan></text><rect height="10" width="10" y="0.2373046875" fill="#e5c494" stroke="#aaa" shape-rendering="crispEdges"/></g><g transform="translate(10,275)"><text transform="translate(12.5,5)" font-size="12" dominant-baseline="central"><tspan dominant-baseline="central" font-weight="700" x="0">other</tspan><tspan dominant-baseline="central" x="40">dimer interface [polypeptide binding]</tspan></text><rect height="10" width="10" y="0.2373046875" fill="#fdb462" stroke="#aaa" shape-rendering="crispEdges"/></g><g transform="translate(10,300)"><text transform="translate(12.5,5)" font-size="12" dominant-baseline="central"><tspan dominant-baseline="central" font-weight="700" x="0">other</tspan><tspan dominant-baseline="central" x="40">ATP binding site [chemical binding]</tspan></text><rect height="10" width="10" y="0.2373046875" fill="#b3b3b3" stroke="#aaa" shape-rendering="crispEdges"/></g><g transform="translate(10,325)"><text transform="translate(12.5,5)" font-size="12" dominant-baseline="central"><tspan dominant-baseline="central" font-weight="700" x="0">other</tspan><tspan dominant-baseline="central" x="40">activation loop (A-loop)</tspan></text><rect height="10" width="10" y="0.2373046875" fill="#a6d854" stroke="#aaa" shape-rendering="crispEdges"/></g><g transform="translate(10,350)"><text transform="translate(12.5,5)" font-size="12" dominant-baseline="central"><tspan dominant-baseline="central" font-weight="700" x="0">other</tspan><tspan dominant-baseline="central" x="40">polypeptide substrate binding site [polypeptide binding]</tspan></text><rect height="10" width="10" y="0.2373046875" fill="#ffd92f" stroke="#aaa" shape-rendering="crispEdges"/></g></g><g><text transform="translate(10,380)" text-anchor="start" font-weight="700" font-size="12" dominant-baseline="central">HMGA2 NM_003483</text><g transform="translate(10,400)"><text transform="translate(12.5,5)" font-size="12" dominant-baseline="central"><tspan dominant-baseline="central" font-weight="700" x="0">RNB</tspan><tspan dominant-baseline="central" x="36">RNB domain</tspan></text><rect height="10" width="10" y="0.25" fill="#8dd3c7" stroke="#aaa" shape-rendering="crispEdges"/></g></g></g></svg>