<svg xmlns="http://www.w3.org/2000/svg" width="1024.046875" height="1021.525390625"><g transform="translate(40,70)"><g transform="translate(0,0)"><line y1="-3" stroke="black" stroke-opacity="0" shape-rendering="crispEdges" y2="0"/><rect clip-path="url(#18015)" fill="white" x="0" width="400" height="26"/><rect clip-path="url(#18015)" fill="#fb8072" x="249.645390070922" width="108.61195542046605" height="26"/><rect clip-path="url(#18015)" fill="#ffd92f" x="7.700101317122594" width="71.7325227963526" height="26"/><rect clip-path="url(#18015)" fill="#8dd3c7" x="132.1175278622087" width="37.68996960486322" height="26"/><rect clip-path="url(#18015)" fill="#8dd3c7" x="177.10233029381965" width="33.23201621073963" height="26"/><rect clip-path="url(#18015)" fill="#80b1d3" x="368.79432624113474" width="28.36879432624113" height="26"/><rect clip-path="url(#18015)" fill="#E8E89E" x="222.08713272543062" width="27.55825734549137" height="26"/><rect clip-path="url(#18015)" fill="#80b1d3" x="309.21985815602835" width="11.347517730496463" height="26"/><rect clip-path="url(#18015)" fill="#8dd3c7" x="60.385005065856134" width="2.8368794326241087" height="26"/><rect clip-path="url(#18015)" fill="#bebada" x="383.3839918946302" width="2.0263424518743705" height="26"/><rect clip-path="url(#18015)" fill="#fb8072" x="318.1357649442756" width="1.621073961499519" height="26"/><rect clip-path="url(#18015)" fill="#bebada" x="389.05775075987845" width="1.215805471124611" height="26"/><rect clip-path="url(#18015)" fill="#8dd3c7" x="17.831813576494426" width="1.2158054711246216" height="26"/><rect clip-path="url(#18015)" fill="#8dd3c7" x="11.347517730496454" width="0.8105369807497471" height="26"/><rect clip-path="url(#18015)" fill="#E8E89E" x="254.10334346504558" width="0.8105369807497311" height="26"/><rect clip-path="url(#18015)" fill="#8dd3c7" x="37.68996960486322" width="0.8105369807497453" height="26"/><rect clip-path="url(#18015)" fill="#8dd3c7" x="64.03242147923" width="0.40526849037486556" height="26"/><rect clip-path="url(#18015)" fill="#e5c494" x="210.33434650455928" width="0.40526849037485135" height="26"/><rect clip-path="url(#18015)" fill="#bebada" x="391.0840932117528" width="0.40526849037485135" height="26"/><rect clip-path="url(#18015)" fill="#a6d854" x="394.32624113475174" width="0.4052684903749082" height="26"/><rect clip-path="url(#18015)" fill="#E8E89E" x="283.28267477203644" width="0.4052684903749082" height="26"/><rect clip-path="url(#18015)" fill="#bebada" x="369.6048632218845" width="0.40526849037485135" height="26"/><rect clip-path="url(#18015)" fill="#e5c494" x="209.11854103343464" width="0.4052684903749082" height="26"/><rect clip-path="url(#18015)" fill="#bebada" x="396.3525835866261" width="0.4052684903749082" height="26"/><rect clip-path="url(#18015)" fill="#e5c494" x="170.2127659574468" width="0.4052684903748798" height="26"/><rect clip-path="url(#18015)" fill="#bebada" x="382.1681864235056" width="0.40526849037485135" height="26"/><rect clip-path="url(#18015)" fill="#8dd3c7" x="75.37993920972644" width="0" height="26"/><rect clip-path="url(#18015)" fill="#E8E89E" x="305.16717325227967" width="0" height="26"/><rect clip-path="url(#18015)" fill="#a6d854" x="369.6048632218845" width="0" height="26"/><rect clip-path="url(#18015)" fill="#E8E89E" x="257.3454913880446" width="0" height="26"/><rect clip-path="url(#18015)" fill="#E8E89E" x="263.82978723404256" width="0" height="26"/><rect clip-path="url(#18015)" fill="#bebada" x="385.8156028368794" width="0" height="26"/><rect clip-path="url(#18015)" fill="#8dd3c7" x="40.93211752786221" width="0" height="26"/><rect clip-path="url(#18015)" fill="#bebada" x="379.7365754812563" width="0" height="26"/><rect clip-path="url(#18015)" fill="#b3b3b3" x="208.7132725430598" width="0" height="26"/><rect clip-path="url(#18015)" fill="#bebada" x="393.9209726443769" width="0" height="26"/><rect clip-path="url(#18015)" fill="#b3b3b3" x="162.10739614994932" width="0" height="26"/><rect clip-path="url(#18015)" fill="#e5c494" x="169.40222897669705" width="0" height="26"/><rect clip-path="url(#18015)" fill="#E8E89E" x="286.1195542046606" width="0" height="26"/><rect clip-path="url(#18015)" fill="#8dd3c7" x="40.121580547112465" width="0" height="26"/><rect clip-path="url(#18015)" fill="#8dd3c7" x="59.57446808510638" width="0" height="26"/><rect clip-path="url(#18015)" fill="#8dd3c7" x="76.19047619047619" width="0" height="26"/><rect clip-path="url(#18015)" fill="#e5c494" x="168.59169199594731" width="0" height="26"/><rect clip-path="url(#18015)" fill="#b3b3b3" x="176.69706180344477" width="0" height="26"/><rect clip-path="url(#18015)" fill="#E8E89E" x="284.4984802431611" width="0" height="26"/><rect clip-path="url(#18015)" fill="#a6d854" x="381.76291793313067" width="0" height="26"/><rect clip-path="url(#18015)" fill="#fb8072" x="302.33029381965554" width="0" height="26"/><rect clip-path="url(#18015)" fill="#a6d854" x="393.11043566362713" width="0" height="26"/><rect clip-path="url(#18015)" fill="#fdb462" x="390.27355623100306" width="0" height="26"/><rect clip-path="url(#18015)" fill="#b3b3b3" x="202.6342451874367" width="0" height="26"/><rect clip-path="url(#18015)" fill="#a6d854" x="370.8206686930091" width="0" height="26"/><rect clip-path="url(#18015)" fill="#8dd3c7" x="22.289766970618036" width="0" height="26"/><rect clip-path="url(#18015)" fill="#8dd3c7" x="19.858156028368796" width="0" height="26"/><rect clip-path="url(#18015)" fill="#a6d854" x="373.2522796352584" width="0" height="26"/><rect clip-path="url(#18015)" fill="#b3b3b3" x="131.71225937183385" width="0" height="26"/><rect clip-path="url(#18015)" fill="#bebada" x="386.62613981762917" width="0" height="26"/><rect clip-path="url(#18015)" fill="#b3b3b3" x="168.18642350557244" width="0" height="26"/><rect clip-path="url(#18015)" fill="#8dd3c7" x="23.10030395136778" width="0" height="26"/><rect clip-path="url(#18015)" fill="#8dd3c7" x="24.316109422492403" width="0" height="26"/><rect clip-path="url(#18015)" fill="#E8E89E" x="309.6251266464032" width="0" height="26"/><rect clip-path="url(#18015)" fill="#E8E89E" x="255.72441742654507" width="0" height="26"/><rect clip-path="url(#18015)" fill="#E8E89E" x="304.3566362715299" width="0" height="26"/><rect clip-path="url(#18015)" fill="#8dd3c7" x="21.479229989868287" width="0" height="26"/><rect clip-path="url(#18015)" fill="#bebada" x="394.73150962512665" width="0" height="26"/><rect clip-path="url(#18015)" fill="#fb8072" x="337.18338399189463" width="0" height="26"/><rect clip-path="url(#18015)" fill="#bebada" x="370.8206686930091" width="0" height="26"/><rect clip-path="url(#18015)" fill="#fb8072" x="323.4042553191489" width="0" height="26"/><rect clip-path="url(#18015)" fill="#E8E89E" x="264.6403242147923" width="0" height="26"/><rect clip-path="url(#18015)" fill="#bebada" x="396.3525835866261" width="0" height="26"/><rect clip-path="url(#18015)" fill="#bebada" x="395.1367781155015" width="0" height="26"/><rect clip-path="url(#18015)" fill="#fdb462" x="376.8996960486322" width="0" height="26"/><rect clip-path="url(#18015)" fill="#fb8072" x="303.95136778115506" width="0" height="26"/><rect clip-path="url(#18015)" fill="#8dd3c7" x="12.968591691995949" width="0" height="26"/><rect clip-path="url(#18015)" fill="#8dd3c7" x="74.5694022289767" width="0" height="26"/><line clip-path="url(#18015)" stroke="black" stroke-dasharray="3,2" shape-rendering="crispEdges" y1="0" y2="26" x1="8.240459304289091" x2="8.240459304289091"/><line clip-path="url(#18015)" stroke="black" stroke-dasharray="3,2" shape-rendering="crispEdges" y1="0" y2="26" x1="17.02127659574468" x2="17.02127659574468"/><line clip-path="url(#18015)" stroke="black" stroke-dasharray="3,2" shape-rendering="crispEdges" y1="0" y2="26" x1="109.55758189800741" x2="109.55758189800741"/><line clip-path="url(#18015)" stroke="black" stroke-dasharray="3,2" shape-rendering="crispEdges" y1="0" y2="26" x1="130.63154339750082" x2="130.63154339750082"/><line clip-path="url(#18015)" stroke="black" stroke-dasharray="3,2" shape-rendering="crispEdges" y1="0" y2="26" x1="176.02161431948664" x2="176.02161431948664"/><line clip-path="url(#18015)" stroke="black" stroke-dasharray="3,2" shape-rendering="crispEdges" y1="0" y2="26" x1="192.9078014184397" x2="192.9078014184397"/><line clip-path="url(#18015)" stroke="black" stroke-dasharray="3,2" shape-rendering="crispEdges" y1="0" y2="26" x1="214.92738939547453" x2="214.92738939547453"/><line clip-path="url(#18015)" stroke="black" stroke-dasharray="3,2" shape-rendering="crispEdges" y1="0" y2="26" x1="229.65214454576156" x2="229.65214454576156"/><line clip-path="url(#18015)" stroke="black" stroke-dasharray="3,2" shape-rendering="crispEdges" y1="0" y2="26" x1="238.4329618372172" x2="238.4329618372172"/><line clip-path="url(#18015)" stroke="black" stroke-dasharray="3,2" shape-rendering="crispEdges" y1="0" y2="26" x1="255.04896994258698" x2="255.04896994258698"/><line clip-path="url(#18015)" stroke="black" stroke-dasharray="3,2" shape-rendering="crispEdges" y1="0" y2="26" x1="288.55116514690985" x2="288.55116514690985"/><line clip-path="url(#18015)" stroke="black" stroke-dasharray="3,2" shape-rendering="crispEdges" y1="0" y2="26" x1="317.73049645390074" x2="317.73049645390074"/><line clip-path="url(#18015)" stroke="black" stroke-dasharray="3,2" shape-rendering="crispEdges" y1="0" y2="26" x1="337.99392097264433" x2="337.99392097264433"/><line clip-path="url(#18015)" stroke="black" stroke-dasharray="3,2" shape-rendering="crispEdges" y1="0" y2="26" x1="364.2012833502195" x2="364.2012833502195"/><line clip-path="url(#18015)" stroke="black" stroke-dasharray="3,2" shape-rendering="crispEdges" y1="0" y2="26" x1="385.2752448497129" x2="385.2752448497129"/><rect clip-path="url(#18015)" stroke-dasharray="none" fill="none" stroke="black" x="0" width="400" height="26"/><text font-family="Arial" fill="black" font-size="15" dominant-baseline="central" x="405" y="13">EPHB2</text><text fill="#858585" fill-opacity="0" font-size="13" font-family="Arial" text-anchor="middle" dominant-baseline="auto" y="-24">ends at 271 AA</text><defs><clipPath id="18015"><rect x="0" y="0" height="26" width="454.1953125"/></clipPath></defs><rect clip-path="url(#18015)" fill="white" fill-opacity="0" width="400" height="26"/></g><g transform="translate(15.216591299870771,106)"><line y1="26" stroke="black" stroke-opacity="0" shape-rendering="crispEdges" y2="29"/><rect clip-path="url(#96954)" fill="white" x="0" width="320.5673758865248" height="26"/><rect clip-path="url(#96954)" fill="#8dd3c7" x="79.0273556231003" width="35.25835866261397" height="26"/><rect clip-path="url(#96954)" fill="#bebada" x="47.41641337386018" width="8.915906788247213" height="26"/><rect clip-path="url(#96954)" fill="#fb8072" x="218.03444782168185" width="0" height="26"/><rect clip-path="url(#96954)" fill="#fb8072" x="238.7031408308004" width="0.4052684903748798" height="26"/><rect clip-path="url(#96954)" fill="#fb8072" x="262.61398176291794" width="0.40526849037485135" height="26"/><rect clip-path="url(#96954)" fill="#fb8072" x="217.22391084093212" width="0" height="26"/><rect clip-path="url(#96954)" fill="#80b1d3" x="124.82269503546098" width="0" height="26"/><rect clip-path="url(#96954)" fill="#E8E89E" x="280.8510638297872" width="0" height="26"/><rect clip-path="url(#96954)" fill="#fb8072" x="209.9290780141844" width="0" height="26"/><rect clip-path="url(#96954)" fill="#a6d854" x="61.19554204660587" width="16.616008105369808" height="26"/><rect clip-path="url(#96954)" fill="#fdb462" x="121.17527862208713" width="32.421479229989856" height="26"/><rect clip-path="url(#96954)" fill="#E8E89E" x="275.58257345491387" width="1.621073961499519" height="26"/><rect clip-path="url(#96954)" fill="#fb8072" x="206.6869300911854" width="0.4052684903748798" height="26"/><rect clip-path="url(#96954)" fill="#ffd92f" x="134.95440729483283" width="0" height="26"/><rect clip-path="url(#96954)" fill="#fb8072" x="268.28774062816615" width="0" height="26"/><rect clip-path="url(#96954)" fill="#e5c494" x="204.25531914893617" width="109.82776089159069" height="26"/><rect clip-path="url(#96954)" fill="#fb8072" x="263.82978723404256" width="0" height="26"/><rect clip-path="url(#96954)" fill="#b3b3b3" x="201.82370820668694" width="113.06990881458961" height="26"/><rect clip-path="url(#96954)" fill="#fb8072" x="207.90273556231003" width="0.4052684903748798" height="26"/><rect clip-path="url(#96954)" fill="#8dd3c7" x="267.8824721377913" width="10.131712259371795" height="26"/><rect clip-path="url(#96954)" fill="#ffd92f" x="141.4387031408308" width="0.4052684903748798" height="26"/><rect clip-path="url(#96954)" fill="#E8E89E" x="260.9929078014184" width="0" height="26"/><rect clip-path="url(#96954)" fill="#ffd92f" x="143.0597771023303" width="0" height="26"/><rect clip-path="url(#96954)" fill="#bebada" x="37.28470111448835" width="23.50557244174265" height="26"/><rect clip-path="url(#96954)" fill="#80b1d3" x="113.88044579533941" width="0.40526849037486556" height="26"/><rect clip-path="url(#96954)" fill="#bebada" x="27.558257345491388" width="9.726443768996962" height="26"/><rect clip-path="url(#96954)" fill="#E8E89E" x="294.63019250253296" width="0" height="26"/><rect clip-path="url(#96954)" fill="#bebada" x="37.68996960486322" width="9.321175278622086" height="26"/><rect clip-path="url(#96954)" fill="#E8E89E" x="262.61398176291794" width="0" height="26"/><rect clip-path="url(#96954)" fill="#fb8072" x="236.27152988855116" width="1.215805471124611" height="26"/><rect clip-path="url(#96954)" fill="#bebada" x="56.737588652482266" width="4.863221884498486" height="26"/><line clip-path="url(#96954)" stroke="black" stroke-dasharray="3,2" shape-rendering="crispEdges" y1="0" y2="26" x1="28.638973319824387" x2="28.638973319824387"/><line clip-path="url(#96954)" stroke="black" stroke-dasharray="3,2" shape-rendering="crispEdges" y1="0" y2="26" x1="38.77068557919622" x2="38.77068557919622"/><line clip-path="url(#96954)" stroke="black" stroke-dasharray="3,2" shape-rendering="crispEdges" y1="0" y2="26" x1="48.49712934819318" x2="48.49712934819318"/><line clip-path="url(#96954)" stroke="black" stroke-dasharray="3,2" shape-rendering="crispEdges" y1="0" y2="26" x1="57.818304626815255" x2="57.818304626815255"/><line clip-path="url(#96954)" stroke="black" stroke-dasharray="3,2" shape-rendering="crispEdges" y1="0" y2="26" x1="77.54137115839244" x2="77.54137115839244"/><line clip-path="url(#96954)" stroke="black" stroke-dasharray="3,2" shape-rendering="crispEdges" y1="0" y2="26" x1="96.85916919959473" x2="96.85916919959473"/><line clip-path="url(#96954)" stroke="black" stroke-dasharray="3,2" shape-rendering="crispEdges" y1="0" y2="26" x1="114.82607227288078" x2="114.82607227288078"/><line clip-path="url(#96954)" stroke="black" stroke-dasharray="3,2" shape-rendering="crispEdges" y1="0" y2="26" x1="159.00033772374198" x2="159.00033772374198"/><line clip-path="url(#96954)" stroke="black" stroke-dasharray="3,2" shape-rendering="crispEdges" y1="0" y2="26" x1="166.56534954407297" x2="166.56534954407297"/><line clip-path="url(#96954)" stroke="black" stroke-dasharray="3,2" shape-rendering="crispEdges" y1="0" y2="26" x1="180.47956771361027" x2="180.47956771361027"/><line clip-path="url(#96954)" stroke="black" stroke-dasharray="3,2" shape-rendering="crispEdges" y1="0" y2="26" x1="200.33772374197906" x2="200.33772374197906"/><line clip-path="url(#96954)" stroke="black" stroke-dasharray="3,2" shape-rendering="crispEdges" y1="0" y2="26" x1="218.03444782168185" x2="218.03444782168185"/><line clip-path="url(#96954)" stroke="black" stroke-dasharray="3,2" shape-rendering="crispEdges" y1="0" y2="26" x1="241.40493076663287" x2="241.40493076663287"/><line clip-path="url(#96954)" stroke="black" stroke-dasharray="3,2" shape-rendering="crispEdges" y1="0" y2="26" x1="273.96149949341435" x2="273.96149949341435"/><line clip-path="url(#96954)" stroke="black" stroke-dasharray="3,2" shape-rendering="crispEdges" y1="0" y2="26" x1="295.44072948328267" x2="295.44072948328267"/><rect clip-path="url(#96954)" stroke-dasharray="none" fill="none" stroke="black" x="0" width="320.5673758865248" height="26"/><text font-family="Arial" fill="black" font-size="15" dominant-baseline="central" x="325.5673758865248" y="13">NTRK1</text><text fill="#858585" fill-opacity="0" font-size="13" font-family="Arial" text-anchor="middle" dominant-baseline="hanging" y="50">starts at 284 AA</text><defs><clipPath id="96954"><rect x="0" y="0" height="26" width="374.7470633865248"/></clipPath></defs><rect clip-path="url(#96954)" fill="white" fill-opacity="0" width="320.5673758865248" height="26"/></g><line stroke="black" stroke-dasharray="3,2" x1="109.82776089159067" y1="34" x2="130.3128425663348" y2="98"/><g transform="translate(109.82776089159067,0)"><text font-family="Arial" font-size="13" fill="black" text-anchor="end" y="39" dominant-baseline="hanging">exon 3, 271 AA</text><rect height="3" fill="black" x="-109.82776089159067" width="109.82776089159067" y="31"/></g><g transform="translate(130.3128425663348,106)"><text font-family="Arial" font-size="13" fill="black" text-anchor="start" y="-13" dominant-baseline="auto">exon 8, 284 AA</text><rect height="3" fill="black" x="0" width="205.47112462006078" y="-8"/></g></g><g transform="translate(40,238)"/><text class="sja_svgtext" fill="black" font-size="12" text-anchor="end" x="489.1953125" y="291" style="display: none;">drag to resize</text><g transform="translate(0,259.525390625)" style="font-family: Arial;"><g><text transform="translate(10,30)" text-anchor="start" font-weight="700" font-size="12" dominant-baseline="central">EPHB2 NM_017449</text><g transform="translate(10,50)"><text transform="translate(12.5,5)" font-size="12" dominant-baseline="central"><tspan dominant-baseline="central" font-weight="700" x="0">EphR_LBD_B2</tspan><tspan dominant-baseline="central" x="94.6796875">Ligand Binding Domain of Ephrin type-B Receptor 2</tspan></text><rect height="10" width="10" y="0.2373046875" fill="#ffd92f" stroke="#aaa" shape-rendering="crispEdges"/></g><g transform="translate(10,75)"><text transform="translate(12.5,5)" font-size="12" dominant-baseline="central"><tspan dominant-baseline="central" font-weight="700" x="0">other</tspan><tspan dominant-baseline="central" x="40">ephrin binding site [polypeptide binding]</tspan></text><rect height="10" width="10" y="0.2373046875" fill="#8dd3c7" stroke="#aaa" shape-rendering="crispEdges"/></g><g transform="translate(10,100)"><text transform="translate(12.5,5)" font-size="12" dominant-baseline="central"><tspan dominant-baseline="central" font-weight="700" x="0">other</tspan><tspan dominant-baseline="central" x="40">Interdomain contacts</tspan></text><rect height="10" width="10" y="0.25" fill="#b3b3b3" stroke="#aaa" shape-rendering="crispEdges"/></g><g transform="translate(10,125)"><text transform="translate(12.5,5)" font-size="12" dominant-baseline="central"><tspan dominant-baseline="central" font-weight="700" x="0">fn3</tspan><tspan dominant-baseline="central" x="28">Fibronectin type III domain</tspan></text><rect height="10" width="10" y="0.2373046875" fill="#8dd3c7" stroke="#aaa" shape-rendering="crispEdges"/></g><g transform="translate(10,150)"><text transform="translate(12.5,5)" font-size="12" dominant-baseline="central"><tspan dominant-baseline="central" font-weight="700" x="0">other</tspan><tspan dominant-baseline="central" x="40">Cytokine receptor motif</tspan></text><rect height="10" width="10" y="0.2373046875" fill="#e5c494" stroke="#aaa" shape-rendering="crispEdges"/></g><g transform="translate(10,175)"><text transform="translate(12.5,5)" font-size="12" dominant-baseline="central"><tspan dominant-baseline="central" font-weight="700" x="0">EphA2_TM</tspan><tspan dominant-baseline="central" x="72.0078125">Ephrin type-A receptor 2 transmembrane domain</tspan></text><rect height="10" width="10" y="0.2373046875" fill="#E8E89E" stroke="#aaa" shape-rendering="crispEdges"/></g><g transform="translate(10,200)"><text transform="translate(12.5,5)" font-size="12" dominant-baseline="central"><tspan dominant-baseline="central" font-weight="700" x="0">PTKc_EphR_B</tspan><tspan dominant-baseline="central" x="94.0234375">Catalytic domain of the Protein Tyrosine Kinases, Class EphB Ephrin Receptors</tspan></text><rect height="10" width="10" y="0.2373046875" fill="#fb8072" stroke="#aaa" shape-rendering="crispEdges"/></g><g transform="translate(10,225)"><text transform="translate(12.5,5)" font-size="12" dominant-baseline="central"><tspan dominant-baseline="central" font-weight="700" x="0">other</tspan><tspan dominant-baseline="central" x="40">ATP binding site [chemical binding]</tspan></text><rect height="10" width="10" y="0.2373046875" fill="#E8E89E" stroke="#aaa" shape-rendering="crispEdges"/></g><g transform="translate(10,250)"><text transform="translate(12.5,5)" font-size="12" dominant-baseline="central"><tspan dominant-baseline="central" font-weight="700" x="0">other</tspan><tspan dominant-baseline="central" x="40">polypeptide substrate binding site [polypeptide binding]</tspan></text><rect height="10" width="10" y="0.2373046875" fill="#fb8072" stroke="#aaa" shape-rendering="crispEdges"/></g><g transform="translate(10,275)"><text transform="translate(12.5,5)" font-size="12" dominant-baseline="central"><tspan dominant-baseline="central" font-weight="700" x="0">other</tspan><tspan dominant-baseline="central" x="40">activation loop (A-loop)</tspan></text><rect height="10" width="10" y="0.2373046875" fill="#80b1d3" stroke="#aaa" shape-rendering="crispEdges"/></g><g transform="translate(10,300)"><text transform="translate(12.5,5)" font-size="12" dominant-baseline="central"><tspan dominant-baseline="central" font-weight="700" x="0">SAM_EPH-B2</tspan><tspan dominant-baseline="central" x="87.3515625">SAM domain of EPH-B2 subfamily of tyrosine kinase receptors</tspan></text><rect height="10" width="10" y="0.2373046875" fill="#80b1d3" stroke="#aaa" shape-rendering="crispEdges"/></g><g transform="translate(10,325)"><text transform="translate(12.5,5)" font-size="12" dominant-baseline="central"><tspan dominant-baseline="central" font-weight="700" x="0">other</tspan><tspan dominant-baseline="central" x="40">homooligomer interface [polypeptide binding]</tspan></text><rect height="10" width="10" y="0.2373046875" fill="#bebada" stroke="#aaa" shape-rendering="crispEdges"/></g><g transform="translate(10,350)"><text transform="translate(12.5,5)" font-size="12" dominant-baseline="central"><tspan dominant-baseline="central" font-weight="700" x="0">other</tspan><tspan dominant-baseline="central" x="40">putative homodimer interface (head-to-head) [polypeptide binding]</tspan></text><rect height="10" width="10" y="0.2373046875" fill="#a6d854" stroke="#aaa" shape-rendering="crispEdges"/></g><g transform="translate(10,375)"><text transform="translate(12.5,5)" font-size="12" dominant-baseline="central"><tspan dominant-baseline="central" font-weight="700" x="0">other</tspan><tspan dominant-baseline="central" x="40">putative phosphorylation site [posttranslational modification]</tspan></text><rect height="10" width="10" y="0.2373046875" fill="#fdb462" stroke="#aaa" shape-rendering="crispEdges"/></g><g transform="translate(10,400)"><text transform="translate(12.5,5)" font-size="12" dominant-baseline="central"><tspan dominant-baseline="central" font-weight="700" x="0">other</tspan><tspan dominant-baseline="central" x="40">homodimer interface (tail-to-tail) [polypeptide binding]</tspan></text><rect height="10" width="10" y="0.2373046875" fill="#bebada" stroke="#aaa" shape-rendering="crispEdges"/></g></g><g><text transform="translate(10,430)" text-anchor="start" font-weight="700" font-size="12" dominant-baseline="central">NTRK1 NM_001012331</text><g transform="translate(10,450)"><text transform="translate(12.5,5)" font-size="12" dominant-baseline="central"><tspan dominant-baseline="central" font-weight="700" x="0">leucine-rich repeat</tspan><tspan dominant-baseline="central" x="116.7109375">leucine-rich repeat [structural motif]</tspan></text><rect height="10" width="10" y="0.25" fill="#bebada" stroke="#aaa" shape-rendering="crispEdges"/></g><g transform="translate(10,475)"><text transform="translate(12.5,5)" font-size="12" dominant-baseline="central"><tspan dominant-baseline="central" font-weight="700" x="0">LRR_8</tspan><tspan dominant-baseline="central" x="48.015625">Leucine rich repeat</tspan></text><rect height="10" width="10" y="0.25" fill="#bebada" stroke="#aaa" shape-rendering="crispEdges"/></g><g transform="translate(10,500)"><text transform="translate(12.5,5)" font-size="12" dominant-baseline="central"><tspan dominant-baseline="central" font-weight="700" x="0">TPKR_C2</tspan><tspan dominant-baseline="central" x="64.6796875">Tyrosine-protein kinase receptor C2 Ig-like domain</tspan></text><rect height="10" width="10" y="0.2373046875" fill="#a6d854" stroke="#aaa" shape-rendering="crispEdges"/></g><g transform="translate(10,525)"><text transform="translate(12.5,5)" font-size="12" dominant-baseline="central"><tspan dominant-baseline="central" font-weight="700" x="0">Ig_TrkABC_d4</tspan><tspan dominant-baseline="central" x="92.03125">Fourth domain (immunoglobulin-like) of Trk receptors TrkA, TrkB and TrkC</tspan></text><rect height="10" width="10" y="0.2373046875" fill="#8dd3c7" stroke="#aaa" shape-rendering="crispEdges"/></g><g transform="translate(10,550)"><text transform="translate(12.5,5)" font-size="12" dominant-baseline="central"><tspan dominant-baseline="central" font-weight="700" x="0">other</tspan><tspan dominant-baseline="central" x="40">interdomain interface</tspan></text><rect height="10" width="10" y="0.25" fill="#80b1d3" stroke="#aaa" shape-rendering="crispEdges"/></g><g transform="translate(10,575)"><text transform="translate(12.5,5)" font-size="12" dominant-baseline="central"><tspan dominant-baseline="central" font-weight="700" x="0">Ig_TrKABC_d5</tspan><tspan dominant-baseline="central" x="94.0234375">Fifth domain (immunoglobulin-like) of Trk receptors TrkA, TrkB and TrkC</tspan></text><rect height="10" width="10" y="0.2373046875" fill="#fdb462" stroke="#aaa" shape-rendering="crispEdges"/></g><g transform="translate(10,600)"><text transform="translate(12.5,5)" font-size="12" dominant-baseline="central"><tspan dominant-baseline="central" font-weight="700" x="0">other</tspan><tspan dominant-baseline="central" x="40">receptor binding site</tspan></text><rect height="10" width="10" y="0.2373046875" fill="#ffd92f" stroke="#aaa" shape-rendering="crispEdges"/></g><g transform="translate(10,625)"><text transform="translate(12.5,5)" font-size="12" dominant-baseline="central"><tspan dominant-baseline="central" font-weight="700" x="0">PTKc_TrkA</tspan><tspan dominant-baseline="central" x="74.03125">Catalytic domain of the Protein Tyrosine Kinase, Tropomyosin Related Kinase A</tspan></text><rect height="10" width="10" y="0.2373046875" fill="#b3b3b3" stroke="#aaa" shape-rendering="crispEdges"/></g><g transform="translate(10,650)"><text transform="translate(12.5,5)" font-size="12" dominant-baseline="central"><tspan dominant-baseline="central" font-weight="700" x="0">Pkinase_Tyr</tspan><tspan dominant-baseline="central" x="79.8203125">Protein tyrosine kinase</tspan></text><rect height="10" width="10" y="0.2373046875" fill="#e5c494" stroke="#aaa" shape-rendering="crispEdges"/></g><g transform="translate(10,675)"><text transform="translate(12.5,5)" font-size="12" dominant-baseline="central"><tspan dominant-baseline="central" font-weight="700" x="0">other</tspan><tspan dominant-baseline="central" x="40">ATP binding site [chemical binding]</tspan></text><rect height="10" width="10" y="0.2373046875" fill="#fb8072" stroke="#aaa" shape-rendering="crispEdges"/></g><g transform="translate(10,700)"><text transform="translate(12.5,5)" font-size="12" dominant-baseline="central"><tspan dominant-baseline="central" font-weight="700" x="0">other</tspan><tspan dominant-baseline="central" x="40">polypeptide substrate binding site [polypeptide binding]</tspan></text><rect height="10" width="10" y="0.2373046875" fill="#E8E89E" stroke="#aaa" shape-rendering="crispEdges"/></g><g transform="translate(10,725)"><text transform="translate(12.5,5)" font-size="12" dominant-baseline="central"><tspan dominant-baseline="central" font-weight="700" x="0">other</tspan><tspan dominant-baseline="central" x="40">activation loop (A-loop)</tspan></text><rect height="10" width="10" y="0.2373046875" fill="#8dd3c7" stroke="#aaa" shape-rendering="crispEdges"/></g></g></g></svg>