<svg xmlns="http://www.w3.org/2000/svg" width="1027.1171875" height="921.525390625"><g transform="translate(40,70)"><g transform="translate(0,0)"><line y1="-3" stroke="black" stroke-opacity="0" shape-rendering="crispEdges" y2="0"/><rect clip-path="url(#60748)" fill="white" x="0" width="400" height="26"/><rect clip-path="url(#60748)" fill="#8dd3c7" x="208.7862993298585" width="82.79970215934478" height="26"/><rect clip-path="url(#60748)" fill="#bebada" x="148.62248696947134" width="39.01712583767684" height="26"/><rect clip-path="url(#60748)" fill="#fb8072" x="250.48399106478035" width="0" height="26"/><rect clip-path="url(#60748)" fill="#80b1d3" x="192.1072226358898" width="0" height="26"/><rect clip-path="url(#60748)" fill="#E8E89E" x="148.92032762472078" width="15.785554728220376" height="26"/><rect clip-path="url(#60748)" fill="#80b1d3" x="194.19210722263588" width="0.2978406552494448" height="26"/><rect clip-path="url(#60748)" fill="#a6d854" x="16.679076693968728" width="33.060312732688004" height="26"/><rect clip-path="url(#60748)" fill="#fdb462" x="211.16902457185404" width="76.24720774385708" height="26"/><rect clip-path="url(#60748)" fill="#fb8072" x="212.9560685033507" width="1.1913626209977792" height="26"/><rect clip-path="url(#60748)" fill="#80b1d3" x="195.08562918838422" width="0.2978406552494448" height="26"/><rect clip-path="url(#60748)" fill="#ffd92f" x="163.21667907669396" width="13.10498883097543" height="26"/><rect clip-path="url(#60748)" fill="#e5c494" x="54.5048399106478" width="43.48473566641846" height="26"/><rect clip-path="url(#60748)" fill="#fb8072" x="220.99776619508563" width="0" height="26"/><rect clip-path="url(#60748)" fill="#fb8072" x="234.40059568131048" width="0.8935219657483628" height="26"/><rect clip-path="url(#60748)" fill="#ffd92f" x="53.61131794489948" width="10.424422933730455" height="26"/><rect clip-path="url(#60748)" fill="#80b1d3" x="193.00074460163813" width="0.2978406552494448" height="26"/><rect clip-path="url(#60748)" fill="#80b1d3" x="197.46835443037975" width="0.2978406552494448" height="26"/><rect clip-path="url(#60748)" fill="#fb8072" x="253.7602382725242" width="0" height="26"/><rect clip-path="url(#60748)" fill="#80b1d3" x="196.276991809382" width="0" height="26"/><rect clip-path="url(#60748)" fill="#fb8072" x="249.590469099032" width="0.2978406552494448" height="26"/><rect clip-path="url(#60748)" fill="#fb8072" x="215.33879374534624" width="0" height="26"/><rect clip-path="url(#60748)" fill="#E8E89E" x="67.31198808637379" width="11.913626209977664" height="26"/><rect clip-path="url(#60748)" fill="#b3b3b3" x="190.0223380491437" width="11.31794489947876" height="26"/><rect clip-path="url(#60748)" fill="#80b1d3" x="190.91586001489202" width="0" height="26"/><rect clip-path="url(#60748)" fill="#fb8072" x="220.4020848845867" width="0" height="26"/><rect clip-path="url(#60748)" fill="#fb8072" x="214.74311243484735" width="0" height="26"/><rect clip-path="url(#60748)" fill="#fb8072" x="248.39910647803424" width="0" height="26"/><rect clip-path="url(#60748)" fill="#a6d854" x="105.13775130305288" width="36.038719285182424" height="26"/><rect clip-path="url(#60748)" fill="#80b1d3" x="198.6597170513775" width="0" height="26"/><line clip-path="url(#60748)" stroke="black" stroke-dasharray="3,2" shape-rendering="crispEdges" y1="0" y2="26" x1="8.140977910151403" x2="8.140977910151403"/><line clip-path="url(#60748)" stroke="black" stroke-dasharray="3,2" shape-rendering="crispEdges" y1="0" y2="26" x1="23.231571109456443" x2="23.231571109456443"/><line clip-path="url(#60748)" stroke="black" stroke-dasharray="3,2" shape-rendering="crispEdges" y1="0" y2="26" x1="41.7969719533383" x2="41.7969719533383"/><line clip-path="url(#60748)" stroke="black" stroke-dasharray="3,2" shape-rendering="crispEdges" y1="0" y2="26" x1="54.30627947381485" x2="54.30627947381485"/><line clip-path="url(#60748)" stroke="black" stroke-dasharray="3,2" shape-rendering="crispEdges" y1="0" y2="26" x1="60.85877388930256" x2="60.85877388930256"/><line clip-path="url(#60748)" stroke="black" stroke-dasharray="3,2" shape-rendering="crispEdges" y1="0" y2="26" x1="72.67311988086374" x2="72.67311988086374"/><line clip-path="url(#60748)" stroke="black" stroke-dasharray="3,2" shape-rendering="crispEdges" y1="0" y2="26" x1="86.77091089600395" x2="86.77091089600395"/><line clip-path="url(#60748)" stroke="black" stroke-dasharray="3,2" shape-rendering="crispEdges" y1="0" y2="26" x1="98.08885579548274" x2="98.08885579548274"/><line clip-path="url(#60748)" stroke="black" stroke-dasharray="3,2" shape-rendering="crispEdges" y1="0" y2="26" x1="110.1017622238769" x2="110.1017622238769"/><line clip-path="url(#60748)" stroke="black" stroke-dasharray="3,2" shape-rendering="crispEdges" y1="0" y2="26" x1="117.44849838669644" x2="117.44849838669644"/><line clip-path="url(#60748)" stroke="black" stroke-dasharray="3,2" shape-rendering="crispEdges" y1="0" y2="26" x1="126.4829982625962" x2="126.4829982625962"/><line clip-path="url(#60748)" stroke="black" stroke-dasharray="3,2" shape-rendering="crispEdges" y1="0" y2="26" x1="146.93472325639115" x2="146.93472325639115"/><line clip-path="url(#60748)" stroke="black" stroke-dasharray="3,2" shape-rendering="crispEdges" y1="0" y2="26" x1="160.13899230578306" x2="160.13899230578306"/><line clip-path="url(#60748)" stroke="black" stroke-dasharray="3,2" shape-rendering="crispEdges" y1="0" y2="26" x1="169.1734921816828" x2="169.1734921816828"/><line clip-path="url(#60748)" stroke="black" stroke-dasharray="3,2" shape-rendering="crispEdges" y1="0" y2="26" x1="184.56192603623725" x2="184.56192603623725"/><line clip-path="url(#60748)" stroke="black" stroke-dasharray="3,2" shape-rendering="crispEdges" y1="0" y2="26" x1="189.92305783072723" x2="189.92305783072723"/><line clip-path="url(#60748)" stroke="black" stroke-dasharray="3,2" shape-rendering="crispEdges" y1="0" y2="26" x1="204.02084884586748" x2="204.02084884586748"/><line clip-path="url(#60748)" stroke="black" stroke-dasharray="3,2" shape-rendering="crispEdges" y1="0" y2="26" x1="215.93447505584513" x2="215.93447505584513"/><line clip-path="url(#60748)" stroke="black" stroke-dasharray="3,2" shape-rendering="crispEdges" y1="0" y2="26" x1="225.76321667907672" x2="225.76321667907672"/><line clip-path="url(#60748)" stroke="black" stroke-dasharray="3,2" shape-rendering="crispEdges" y1="0" y2="26" x1="244.22933730454207" x2="244.22933730454207"/><line clip-path="url(#60748)" stroke="black" stroke-dasharray="3,2" shape-rendering="crispEdges" y1="0" y2="26" x1="259.71705137751303" x2="259.71705137751303"/><line clip-path="url(#60748)" stroke="black" stroke-dasharray="3,2" shape-rendering="crispEdges" y1="0" y2="26" x1="267.2623479771656" x2="267.2623479771656"/><line clip-path="url(#60748)" stroke="black" stroke-dasharray="3,2" shape-rendering="crispEdges" y1="0" y2="26" x1="281.8565400843882" x2="281.8565400843882"/><line clip-path="url(#60748)" stroke="black" stroke-dasharray="3,2" shape-rendering="crispEdges" y1="0" y2="26" x1="291.5860014892033" x2="291.5860014892033"/><line clip-path="url(#60748)" stroke="black" stroke-dasharray="3,2" shape-rendering="crispEdges" y1="0" y2="26" x1="310.6478034251675" x2="310.6478034251675"/><line clip-path="url(#60748)" stroke="black" stroke-dasharray="3,2" shape-rendering="crispEdges" y1="0" y2="26" x1="317.79597915115414" x2="317.79597915115414"/><line clip-path="url(#60748)" stroke="black" stroke-dasharray="3,2" shape-rendering="crispEdges" y1="0" y2="26" x1="347.67932489451476" x2="347.67932489451476"/><rect clip-path="url(#60748)" stroke-dasharray="none" fill="none" stroke="black" x="0" width="400" height="26"/><text font-family="Arial" fill="black" font-size="15" dominant-baseline="central" x="405" y="13">ERBB3</text><text fill="#858585" fill-opacity="0" font-size="13" font-family="Arial" text-anchor="middle" dominant-baseline="auto" y="-24">ends at 898 AA</text><defs><clipPath id="60748"><rect x="0" y="0" height="26" width="454.1953125"/></clipPath></defs><rect clip-path="url(#60748)" fill="white" fill-opacity="0" width="400" height="26"/></g><g transform="translate(0,106)"><line y1="26" stroke="black" stroke-opacity="0" shape-rendering="crispEdges" y2="29"/><rect clip-path="url(#75437)" fill="white" x="0" width="360.68503350707374" height="26"/><rect clip-path="url(#75437)" fill="#8dd3c7" x="209.67982129560687" width="92.92628443782576" height="26"/><rect clip-path="url(#75437)" fill="#e5c494" x="212.36038719285185" width="75.9493670886076" height="26"/><rect clip-path="url(#75437)" fill="#fb8072" x="55.100521221146685" width="44.676098287416245" height="26"/><rect clip-path="url(#75437)" fill="#80b1d3" x="150.40953090096798" width="39.31496649292632" height="26"/><rect clip-path="url(#75437)" fill="#8dd3c7" x="107.52047654504841" width="35.74087862993298" height="26"/><rect clip-path="url(#75437)" fill="#8dd3c7" x="16.97691734921817" width="33.06031273268801" height="26"/><rect clip-path="url(#75437)" fill="#bebada" x="150.70737155621742" width="15.785554728220433" height="26"/><rect clip-path="url(#75437)" fill="#E8E89E" x="164.40804169769174" width="13.700670141474319" height="26"/><rect clip-path="url(#75437)" fill="#bebada" x="68.801191362621" width="12.807148175725985" height="26"/><rect clip-path="url(#75437)" fill="#fb8072" x="188.83097542814593" width="12.807148175725985" height="26"/><rect clip-path="url(#75437)" fill="#a6d854" x="254.35591958302308" width="7.446016381236063" height="26"/><rect clip-path="url(#75437)" fill="#bebada" x="193.00074460163816" width="1.4892032762471672" height="26"/><rect clip-path="url(#75437)" fill="#ffd92f" x="260.9084139985108" width="1.1913626209977792" height="26"/><rect clip-path="url(#75437)" fill="#fdb462" x="216.82799702159346" width="0.5956813104988612" height="26"/><rect clip-path="url(#75437)" fill="#fdb462" x="212.9560685033507" width="0.5956813104988896" height="26"/><rect clip-path="url(#75437)" fill="#bebada" x="191.80938198064035" width="0.5956813104988896" height="26"/><rect clip-path="url(#75437)" fill="#fdb462" x="300.52122114668657" width="0.29784065524938796" height="26"/><rect clip-path="url(#75437)" fill="#fdb462" x="236.48548026805662" width="0.2978406552494448" height="26"/><rect clip-path="url(#75437)" fill="#b3b3b3" x="235.29411764705884" width="0.2978406552494164" height="26"/><rect clip-path="url(#75437)" fill="#bebada" x="195.38346984363366" width="0.29784065524947323" height="26"/><rect clip-path="url(#75437)" fill="#b3b3b3" x="213.84959046909904" width="0.29784065524947323" height="26"/><rect clip-path="url(#75437)" fill="#b3b3b3" x="250.48399106478035" width="0.2978406552494448" height="26"/><rect clip-path="url(#75437)" fill="#fdb462" x="239.46388682055104" width="0.2978406552494164" height="26"/><rect clip-path="url(#75437)" fill="#ffd92f" x="263.5889798957558" width="0" height="26"/><rect clip-path="url(#75437)" fill="#b3b3b3" x="228.14594192107225" width="0" height="26"/><rect clip-path="url(#75437)" fill="#ffd92f" x="264.78034251675354" width="0" height="26"/><rect clip-path="url(#75437)" fill="#b3b3b3" x="254.65376023827255" width="0" height="26"/><rect clip-path="url(#75437)" fill="#b3b3b3" x="251.37751303052866" width="0" height="26"/><rect clip-path="url(#75437)" fill="#b3b3b3" x="216.23231571109457" width="0" height="26"/><rect clip-path="url(#75437)" fill="#b3b3b3" x="221.2956068503351" width="0" height="26"/><rect clip-path="url(#75437)" fill="#b3b3b3" x="236.18763961280717" width="0" height="26"/><rect clip-path="url(#75437)" fill="#b3b3b3" x="221.89128816083397" width="0" height="26"/><rect clip-path="url(#75437)" fill="#fdb462" x="237.37900223380493" width="0" height="26"/><line clip-path="url(#75437)" stroke="black" stroke-dasharray="3,2" shape-rendering="crispEdges" y1="0" y2="26" x1="8.736659220650287" x2="8.736659220650287"/><line clip-path="url(#75437)" stroke="black" stroke-dasharray="3,2" shape-rendering="crispEdges" y1="0" y2="26" x1="23.827252419955325" x2="23.827252419955325"/><line clip-path="url(#75437)" stroke="black" stroke-dasharray="3,2" shape-rendering="crispEdges" y1="0" y2="26" x1="42.094812608587745" x2="42.094812608587745"/><line clip-path="url(#75437)" stroke="black" stroke-dasharray="3,2" shape-rendering="crispEdges" y1="0" y2="26" x1="55.49764209481262" x2="55.49764209481262"/><line clip-path="url(#75437)" stroke="black" stroke-dasharray="3,2" shape-rendering="crispEdges" y1="0" y2="26" x1="62.34797716554977" x2="62.34797716554977"/><line clip-path="url(#75437)" stroke="black" stroke-dasharray="3,2" shape-rendering="crispEdges" y1="0" y2="26" x1="74.16232315711095" x2="74.16232315711095"/><line clip-path="url(#75437)" stroke="black" stroke-dasharray="3,2" shape-rendering="crispEdges" y1="0" y2="26" x1="88.26011417225118" x2="88.26011417225118"/><line clip-path="url(#75437)" stroke="black" stroke-dasharray="3,2" shape-rendering="crispEdges" y1="0" y2="26" x1="99.8758997269794" x2="99.8758997269794"/><line clip-path="url(#75437)" stroke="black" stroke-dasharray="3,2" shape-rendering="crispEdges" y1="0" y2="26" x1="112.48448746587245" x2="112.48448746587245"/><line clip-path="url(#75437)" stroke="black" stroke-dasharray="3,2" shape-rendering="crispEdges" y1="0" y2="26" x1="119.83122362869199" x2="119.83122362869199"/><line clip-path="url(#75437)" stroke="black" stroke-dasharray="3,2" shape-rendering="crispEdges" y1="0" y2="26" x1="128.86572350459173" x2="128.86572350459173"/><line clip-path="url(#75437)" stroke="black" stroke-dasharray="3,2" shape-rendering="crispEdges" y1="0" y2="26" x1="148.72176718788782" x2="148.72176718788782"/><line clip-path="url(#75437)" stroke="black" stroke-dasharray="3,2" shape-rendering="crispEdges" y1="0" y2="26" x1="161.92603623727973" x2="161.92603623727973"/><line clip-path="url(#75437)" stroke="black" stroke-dasharray="3,2" shape-rendering="crispEdges" y1="0" y2="26" x1="170.96053611317944" x2="170.96053611317944"/><line clip-path="url(#75437)" stroke="black" stroke-dasharray="3,2" shape-rendering="crispEdges" y1="0" y2="26" x1="186.64681062298337" x2="186.64681062298337"/><line clip-path="url(#75437)" stroke="black" stroke-dasharray="3,2" shape-rendering="crispEdges" y1="0" y2="26" x1="190.51873914122612" x2="190.51873914122612"/><line clip-path="url(#75437)" stroke="black" stroke-dasharray="3,2" shape-rendering="crispEdges" y1="0" y2="26" x1="204.61653015636634" x2="204.61653015636634"/><line clip-path="url(#75437)" stroke="black" stroke-dasharray="3,2" shape-rendering="crispEdges" y1="0" y2="26" x1="216.82799702159346" x2="216.82799702159346"/><line clip-path="url(#75437)" stroke="black" stroke-dasharray="3,2" shape-rendering="crispEdges" y1="0" y2="26" x1="226.65673864482505" x2="226.65673864482505"/><line clip-path="url(#75437)" stroke="black" stroke-dasharray="3,2" shape-rendering="crispEdges" y1="0" y2="26" x1="245.12285927029043" x2="245.12285927029043"/><line clip-path="url(#75437)" stroke="black" stroke-dasharray="3,2" shape-rendering="crispEdges" y1="0" y2="26" x1="260.61057334326136" x2="260.61057334326136"/><line clip-path="url(#75437)" stroke="black" stroke-dasharray="3,2" shape-rendering="crispEdges" y1="0" y2="26" x1="268.1558699429139" x2="268.1558699429139"/><line clip-path="url(#75437)" stroke="black" stroke-dasharray="3,2" shape-rendering="crispEdges" y1="0" y2="26" x1="282.75006205013653" x2="282.75006205013653"/><line clip-path="url(#75437)" stroke="black" stroke-dasharray="3,2" shape-rendering="crispEdges" y1="0" y2="26" x1="292.4795234549516" x2="292.4795234549516"/><line clip-path="url(#75437)" stroke="black" stroke-dasharray="3,2" shape-rendering="crispEdges" y1="0" y2="26" x1="309.15860014892036" x2="309.15860014892036"/><line clip-path="url(#75437)" stroke="black" stroke-dasharray="3,2" shape-rendering="crispEdges" y1="0" y2="26" x1="313.9240506329114" x2="313.9240506329114"/><line clip-path="url(#75437)" stroke="black" stroke-dasharray="3,2" shape-rendering="crispEdges" y1="0" y2="26" x1="324.74559444030774" x2="324.74559444030774"/><rect clip-path="url(#75437)" stroke-dasharray="none" fill="none" stroke="black" x="0" width="360.68503350707374" height="26"/><text font-family="Arial" fill="black" font-size="15" dominant-baseline="central" x="365.68503350707374" y="13">EGFR</text><text fill="#858585" fill-opacity="0" font-size="13" font-family="Arial" text-anchor="middle" dominant-baseline="hanging" y="50">starts at 901 AA</text><defs><clipPath id="75437"><rect x="0" y="0" height="26" width="407.35690850707374"/></clipPath></defs><rect clip-path="url(#75437)" fill="white" fill-opacity="0" width="360.68503350707374" height="26"/></g><line stroke="black" stroke-dasharray="3,2" x1="267.4609084139985" y1="34" x2="268.3544303797468" y2="98"/><g transform="translate(267.4609084139985,0)"><text font-family="Arial" font-size="13" fill="black" text-anchor="end" y="39" dominant-baseline="hanging">exon 22, 898 AA</text><rect height="3" fill="black" x="-267.4609084139985" width="267.4609084139985" y="31"/></g><g transform="translate(268.3544303797468,106)"><text font-family="Arial" font-size="13" fill="black" text-anchor="start" y="-13" dominant-baseline="auto">exon 23, 901 AA</text><rect height="3" fill="black" x="0" width="92.33060312732692" y="-8"/></g></g><g transform="translate(40,238)"/><text class="sja_svgtext" fill="black" font-size="12" text-anchor="end" x="489.1953125" y="291" style="display: none;">drag to resize</text><g transform="translate(0,259.525390625)" style="font-family: Arial;"><g><text transform="translate(10,30)" text-anchor="start" font-weight="700" font-size="12" dominant-baseline="central">ERBB3 NM_001982</text><g transform="translate(10,50)"><text transform="translate(12.5,5)" font-size="12" dominant-baseline="central"><tspan dominant-baseline="central" font-weight="700" x="0">Recep_L_domain</tspan><tspan dominant-baseline="central" x="109.3671875">Receptor L domain</tspan></text><rect height="10" width="10" y="0.25" fill="#a6d854" stroke="#aaa" shape-rendering="crispEdges"/></g><g transform="translate(10,75)"><text transform="translate(12.5,5)" font-size="12" dominant-baseline="central"><tspan dominant-baseline="central" font-weight="700" x="0">FU</tspan><tspan dominant-baseline="central" x="26">Furin-like repeats</tspan></text><rect height="10" width="10" y="0.25" fill="#ffd92f" stroke="#aaa" shape-rendering="crispEdges"/></g><g transform="translate(10,100)"><text transform="translate(12.5,5)" font-size="12" dominant-baseline="central"><tspan dominant-baseline="central" font-weight="700" x="0">Furin-like</tspan><tspan dominant-baseline="central" x="64.0078125">Furin-like cysteine rich region</tspan></text><rect height="10" width="10" y="0.2373046875" fill="#e5c494" stroke="#aaa" shape-rendering="crispEdges"/></g><g transform="translate(10,125)"><text transform="translate(12.5,5)" font-size="12" dominant-baseline="central"><tspan dominant-baseline="central" font-weight="700" x="0">FU</tspan><tspan dominant-baseline="central" x="26">Furin-like repeats. Cysteine rich region. Exact function of the domain is not...</tspan></text><rect height="10" width="10" y="0.2373046875" fill="#E8E89E" stroke="#aaa" shape-rendering="crispEdges"/></g><g transform="translate(10,150)"><text transform="translate(12.5,5)" font-size="12" dominant-baseline="central"><tspan dominant-baseline="central" font-weight="700" x="0">GF_recep_IV</tspan><tspan dominant-baseline="central" x="83.375">Growth factor receptor domain IV</tspan></text><rect height="10" width="10" y="0.25" fill="#bebada" stroke="#aaa" shape-rendering="crispEdges"/></g><g transform="translate(10,175)"><text transform="translate(12.5,5)" font-size="12" dominant-baseline="central"><tspan dominant-baseline="central" font-weight="700" x="0">TM_ErbB3</tspan><tspan dominant-baseline="central" x="69.34375">Transmembrane domain of ErbB3, a Protein Tyrosine Kinase</tspan></text><rect height="10" width="10" y="0.2373046875" fill="#b3b3b3" stroke="#aaa" shape-rendering="crispEdges"/></g><g transform="translate(10,200)"><text transform="translate(12.5,5)" font-size="12" dominant-baseline="central"><tspan dominant-baseline="central" font-weight="700" x="0">other</tspan><tspan dominant-baseline="central" x="40">homodimer interface [polypeptide binding]</tspan></text><rect height="10" width="10" y="0.2373046875" fill="#80b1d3" stroke="#aaa" shape-rendering="crispEdges"/></g><g transform="translate(10,225)"><text transform="translate(12.5,5)" font-size="12" dominant-baseline="central"><tspan dominant-baseline="central" font-weight="700" x="0">PTK_HER3</tspan><tspan dominant-baseline="central" x="72.6875">Pseudokinase domain of the Protein Tyrosine Kinase, HER3</tspan></text><rect height="10" width="10" y="0.2373046875" fill="#8dd3c7" stroke="#aaa" shape-rendering="crispEdges"/></g><g transform="translate(10,250)"><text transform="translate(12.5,5)" font-size="12" dominant-baseline="central"><tspan dominant-baseline="central" font-weight="700" x="0">Pkinase_Tyr</tspan><tspan dominant-baseline="central" x="79.8203125">Protein tyrosine kinase</tspan></text><rect height="10" width="10" y="0.2373046875" fill="#fdb462" stroke="#aaa" shape-rendering="crispEdges"/></g><g transform="translate(10,275)"><text transform="translate(12.5,5)" font-size="12" dominant-baseline="central"><tspan dominant-baseline="central" font-weight="700" x="0">other</tspan><tspan dominant-baseline="central" x="40">ATP binding site [chemical binding]</tspan></text><rect height="10" width="10" y="0.2373046875" fill="#fb8072" stroke="#aaa" shape-rendering="crispEdges"/></g></g><g><text transform="translate(10,305)" text-anchor="start" font-weight="700" font-size="12" dominant-baseline="central">EGFR NM_005228</text><g transform="translate(10,325)"><text transform="translate(12.5,5)" font-size="12" dominant-baseline="central"><tspan dominant-baseline="central" font-weight="700" x="0">Recep_L_domain</tspan><tspan dominant-baseline="central" x="109.3671875">Receptor L domain</tspan></text><rect height="10" width="10" y="0.25" fill="#8dd3c7" stroke="#aaa" shape-rendering="crispEdges"/></g><g transform="translate(10,350)"><text transform="translate(12.5,5)" font-size="12" dominant-baseline="central"><tspan dominant-baseline="central" font-weight="700" x="0">Furin-like</tspan><tspan dominant-baseline="central" x="64.0078125">Furin-like cysteine rich region</tspan></text><rect height="10" width="10" y="0.2373046875" fill="#fb8072" stroke="#aaa" shape-rendering="crispEdges"/></g><g transform="translate(10,375)"><text transform="translate(12.5,5)" font-size="12" dominant-baseline="central"><tspan dominant-baseline="central" font-weight="700" x="0">FU</tspan><tspan dominant-baseline="central" x="26">Furin-like repeats. Cysteine rich region. Exact function of the domain is not...</tspan></text><rect height="10" width="10" y="0.2373046875" fill="#bebada" stroke="#aaa" shape-rendering="crispEdges"/></g><g transform="translate(10,400)"><text transform="translate(12.5,5)" font-size="12" dominant-baseline="central"><tspan dominant-baseline="central" font-weight="700" x="0">GF_recep_IV</tspan><tspan dominant-baseline="central" x="83.375">Growth factor receptor domain IV</tspan></text><rect height="10" width="10" y="0.25" fill="#80b1d3" stroke="#aaa" shape-rendering="crispEdges"/></g><g transform="translate(10,425)"><text transform="translate(12.5,5)" font-size="12" dominant-baseline="central"><tspan dominant-baseline="central" font-weight="700" x="0">FU</tspan><tspan dominant-baseline="central" x="26">Furin-like repeats</tspan></text><rect height="10" width="10" y="0.25" fill="#E8E89E" stroke="#aaa" shape-rendering="crispEdges"/></g><g transform="translate(10,450)"><text transform="translate(12.5,5)" font-size="12" dominant-baseline="central"><tspan dominant-baseline="central" font-weight="700" x="0">TM_ErbB1</tspan><tspan dominant-baseline="central" x="69.34375">Transmembrane domain of Epidermal Growth Factor Receptor or ErbB1, a Protein ...</tspan></text><rect height="10" width="10" y="0.25" fill="#fb8072" stroke="#aaa" shape-rendering="crispEdges"/></g><g transform="translate(10,475)"><text transform="translate(12.5,5)" font-size="12" dominant-baseline="central"><tspan dominant-baseline="central" font-weight="700" x="0">other</tspan><tspan dominant-baseline="central" x="40">heterodimer interface [polypeptide binding]</tspan></text><rect height="10" width="10" y="0.2373046875" fill="#bebada" stroke="#aaa" shape-rendering="crispEdges"/></g><g transform="translate(10,500)"><text transform="translate(12.5,5)" font-size="12" dominant-baseline="central"><tspan dominant-baseline="central" font-weight="700" x="0">PTKc_EGFR</tspan><tspan dominant-baseline="central" x="80.6875">Catalytic domain of the Protein Tyrosine Kinase, Epidermal Growth Factor Rece...</tspan></text><rect height="10" width="10" y="0.2373046875" fill="#8dd3c7" stroke="#aaa" shape-rendering="crispEdges"/></g><g transform="translate(10,525)"><text transform="translate(12.5,5)" font-size="12" dominant-baseline="central"><tspan dominant-baseline="central" font-weight="700" x="0">TyrKc</tspan><tspan dominant-baseline="central" x="43.125">Tyrosine kinase, catalytic domain</tspan></text><rect height="10" width="10" y="0.2373046875" fill="#e5c494" stroke="#aaa" shape-rendering="crispEdges"/></g><g transform="translate(10,550)"><text transform="translate(12.5,5)" font-size="12" dominant-baseline="central"><tspan dominant-baseline="central" font-weight="700" x="0">other</tspan><tspan dominant-baseline="central" x="40">dimer interface [polypeptide binding]</tspan></text><rect height="10" width="10" y="0.2373046875" fill="#fdb462" stroke="#aaa" shape-rendering="crispEdges"/></g><g transform="translate(10,575)"><text transform="translate(12.5,5)" font-size="12" dominant-baseline="central"><tspan dominant-baseline="central" font-weight="700" x="0">other</tspan><tspan dominant-baseline="central" x="40">ATP binding site [chemical binding]</tspan></text><rect height="10" width="10" y="0.2373046875" fill="#b3b3b3" stroke="#aaa" shape-rendering="crispEdges"/></g><g transform="translate(10,600)"><text transform="translate(12.5,5)" font-size="12" dominant-baseline="central"><tspan dominant-baseline="central" font-weight="700" x="0">other</tspan><tspan dominant-baseline="central" x="40">activation loop (A-loop)</tspan></text><rect height="10" width="10" y="0.2373046875" fill="#a6d854" stroke="#aaa" shape-rendering="crispEdges"/></g><g transform="translate(10,625)"><text transform="translate(12.5,5)" font-size="12" dominant-baseline="central"><tspan dominant-baseline="central" font-weight="700" x="0">other</tspan><tspan dominant-baseline="central" x="40">polypeptide substrate binding site [polypeptide binding]</tspan></text><rect height="10" width="10" y="0.2373046875" fill="#ffd92f" stroke="#aaa" shape-rendering="crispEdges"/></g></g></g></svg>