<svg xmlns="http://www.w3.org/2000/svg" width="1026.3245472416884" height="621.525390625"><g transform="translate(50.7229847416884,70)"><g transform="translate(192.08337134370603,0)"><line y1="-3" stroke="black" stroke-opacity="0" shape-rendering="crispEdges" y2="0"/><rect clip-path="url(#98690)" fill="white" x="0" width="188.26597131681876" height="26"/><rect clip-path="url(#98690)" fill="#8dd3c7" x="34.94132985658409" width="149.15254237288133" height="26"/><line clip-path="url(#98690)" stroke="black" stroke-dasharray="3,2" shape-rendering="crispEdges" y1="0" y2="26" x1="4.8674489352455454" x2="4.8674489352455454"/><line clip-path="url(#98690)" stroke="black" stroke-dasharray="3,2" shape-rendering="crispEdges" y1="0" y2="26" x1="23.989569752281618" x2="23.989569752281618"/><line clip-path="url(#98690)" stroke="black" stroke-dasharray="3,2" shape-rendering="crispEdges" y1="0" y2="26" x1="30.2477183833116" x2="30.2477183833116"/><line clip-path="url(#98690)" stroke="black" stroke-dasharray="3,2" shape-rendering="crispEdges" y1="0" y2="26" x1="46.58843980877879" x2="46.58843980877879"/><line clip-path="url(#98690)" stroke="black" stroke-dasharray="3,2" shape-rendering="crispEdges" y1="0" y2="26" x1="81.00825727944371" x2="81.00825727944371"/><line clip-path="url(#98690)" stroke="black" stroke-dasharray="3,2" shape-rendering="crispEdges" y1="0" y2="26" x1="106.04085180356367" x2="106.04085180356367"/><rect clip-path="url(#98690)" stroke-dasharray="none" fill="none" stroke="black" x="0" width="188.26597131681876" height="26"/><text font-family="Arial" fill="black" font-size="15" dominant-baseline="central" x="193.26597131681876" y="13">FAM131B</text><text fill="#858585" fill-opacity="0" font-size="13" font-family="Arial" text-anchor="middle" dominant-baseline="auto" y="-24">ends at 58 AA</text><defs><clipPath id="98690"><rect x="0" y="0" height="26" width="259.13315881681876"/></clipPath></defs><rect clip-path="url(#98690)" fill="white" fill-opacity="0" width="188.26597131681876" height="26"/></g><g transform="translate(0,106)"><line y1="26" stroke="black" stroke-opacity="0" shape-rendering="crispEdges" y2="29"/><rect clip-path="url(#13617)" fill="white" x="0" width="400" height="26"/><rect clip-path="url(#13617)" fill="#8dd3c7" x="85.00651890482399" width="0" height="26"/><rect clip-path="url(#13617)" fill="#8dd3c7" x="95.4367666232073" width="0" height="26"/><rect clip-path="url(#13617)" fill="#bebada" x="146.02346805736636" width="0" height="26"/><rect clip-path="url(#13617)" fill="#fb8072" x="300.3911342894394" width="0" height="26"/><rect clip-path="url(#13617)" fill="#fb8072" x="251.890482398957" width="0" height="26"/><rect clip-path="url(#13617)" fill="#80b1d3" x="81.35593220338984" width="37.02737940026074" height="26"/><rect clip-path="url(#13617)" fill="#8dd3c7" x="97.52281616688396" width="1.0430247718383328" height="26"/><rect clip-path="url(#13617)" fill="#E8E89E" x="319.1655801825293" width="3.1290743155150267" height="26"/><rect clip-path="url(#13617)" fill="#a6d854" x="279.5306388526727" width="0" height="26"/><rect clip-path="url(#13617)" fill="#fb8072" x="309.77835723598434" width="0" height="26"/><rect clip-path="url(#13617)" fill="#bebada" x="130.89960886571058" width="0" height="26"/><rect clip-path="url(#13617)" fill="#a6d854" x="311.34289439374186" width="0" height="26"/><rect clip-path="url(#13617)" fill="#fdb462" x="305.60625814863107" width="0" height="26"/><rect clip-path="url(#13617)" fill="#fdb462" x="294.65449804432853" width="0.5215123859191522" height="26"/><rect clip-path="url(#13617)" fill="#a6d854" x="320.7301173402868" width="1.5645371577575133" height="26"/><rect clip-path="url(#13617)" fill="#a6d854" x="301.4341590612777" width="0" height="26"/><rect clip-path="url(#13617)" fill="#bebada" x="129.33507170795306" width="0" height="26"/><rect clip-path="url(#13617)" fill="#fdb462" x="293.089960886571" width="0" height="26"/><rect clip-path="url(#13617)" fill="#fdb462" x="268.5788787483703" width="1.0430247718383043" height="26"/><rect clip-path="url(#13617)" fill="#8dd3c7" x="88.65710560625814" width="0" height="26"/><rect clip-path="url(#13617)" fill="#8dd3c7" x="82.39895697522816" width="0" height="26"/><rect clip-path="url(#13617)" fill="#fb8072" x="245.63233376792698" width="0" height="26"/><rect clip-path="url(#13617)" fill="#bebada" x="137.6792698826597" width="0" height="26"/><rect clip-path="url(#13617)" fill="#fdb462" x="248.76140808344198" width="0.5215123859191522" height="26"/><rect clip-path="url(#13617)" fill="#bebada" x="136.1147327249022" width="0" height="26"/><rect clip-path="url(#13617)" fill="#fdb462" x="296.7405475880052" width="0.5215123859191522" height="26"/><rect clip-path="url(#13617)" fill="#fb8072" x="304.04172099087356" width="0" height="26"/><rect clip-path="url(#13617)" fill="#fdb462" x="306.6492829204694" width="0" height="26"/><rect clip-path="url(#13617)" fill="#ffd92f" x="241.46023468057365" width="131.4211212516297" height="26"/><rect clip-path="url(#13617)" fill="#fb8072" x="301.4341590612777" width="0" height="26"/><rect clip-path="url(#13617)" fill="#bebada" x="122.55541069100391" width="0" height="26"/><rect clip-path="url(#13617)" fill="#fdb462" x="247.71838331160362" width="0" height="26"/><rect clip-path="url(#13617)" fill="#fb8072" x="302.47718383311604" width="0.5215123859191522" height="26"/><rect clip-path="url(#13617)" fill="#fb8072" x="241.46023468057365" width="2.0860495436766655" height="26"/><rect clip-path="url(#13617)" fill="#bebada" x="141.85136897001306" width="0" height="26"/><rect clip-path="url(#13617)" fill="#a6d854" x="300.3911342894394" width="0" height="26"/><rect clip-path="url(#13617)" fill="#fb8072" x="268.05736636245115" width="0" height="26"/><rect clip-path="url(#13617)" fill="#e5c494" x="128.81355932203388" width="0" height="26"/><rect clip-path="url(#13617)" fill="#fb8072" x="275.8800521512386" width="1.5645371577574565" height="26"/><rect clip-path="url(#13617)" fill="#fdb462" x="372.88135593220335" width="0" height="26"/><rect clip-path="url(#13617)" fill="#fb8072" x="279.5306388526727" width="0" height="26"/><rect clip-path="url(#13617)" fill="#a6d854" x="243.54628422425031" width="0" height="26"/><rect clip-path="url(#13617)" fill="#b3b3b3" x="122.55541069100391" width="23.468057366362444" height="26"/><rect clip-path="url(#13617)" fill="#E8E89E" x="309.2568448500652" width="6.779661016949149" height="26"/><rect clip-path="url(#13617)" fill="#a6d854" x="280.5736636245111" width="0" height="26"/><rect clip-path="url(#13617)" fill="#fdb462" x="263.3637548891786" width="3.1290743155150267" height="26"/><rect clip-path="url(#13617)" fill="#bebada" x="140.28683181225554" width="0" height="26"/><rect clip-path="url(#13617)" fill="#8dd3c7" x="86.04954367666232" width="1.564537157757485" height="26"/><rect clip-path="url(#13617)" fill="#e5c494" x="127.77053455019556" width="0" height="26"/><rect clip-path="url(#13617)" fill="#fb8072" x="250.84745762711864" width="0" height="26"/><rect clip-path="url(#13617)" fill="#a6d854" x="302.47718383311604" width="0" height="26"/><line clip-path="url(#13617)" stroke="black" stroke-dasharray="3,2" shape-rendering="crispEdges" y1="0" y2="26" x1="23.989569752281618" x2="23.989569752281618"/><line clip-path="url(#13617)" stroke="black" stroke-dasharray="3,2" shape-rendering="crispEdges" y1="0" y2="26" x1="41.720990873533246" x2="41.720990873533246"/><line clip-path="url(#13617)" stroke="black" stroke-dasharray="3,2" shape-rendering="crispEdges" y1="0" y2="26" x1="87.61408083441981" x2="87.61408083441981"/><line clip-path="url(#13617)" stroke="black" stroke-dasharray="3,2" shape-rendering="crispEdges" y1="0" y2="26" x1="105.69317687961754" x2="105.69317687961754"/><line clip-path="url(#13617)" stroke="black" stroke-dasharray="3,2" shape-rendering="crispEdges" y1="0" y2="26" x1="123.59843546284223" x2="123.59843546284223"/><line clip-path="url(#13617)" stroke="black" stroke-dasharray="3,2" shape-rendering="crispEdges" y1="0" y2="26" x1="149.5002172968275" x2="149.5002172968275"/><line clip-path="url(#13617)" stroke="black" stroke-dasharray="3,2" shape-rendering="crispEdges" y1="0" y2="26" x1="170.3607127335941" x2="170.3607127335941"/><line clip-path="url(#13617)" stroke="black" stroke-dasharray="3,2" shape-rendering="crispEdges" y1="0" y2="26" x1="198.1747066492829" x2="198.1747066492829"/><line clip-path="url(#13617)" stroke="black" stroke-dasharray="3,2" shape-rendering="crispEdges" y1="0" y2="26" x1="204.60669274228596" x2="204.60669274228596"/><line clip-path="url(#13617)" stroke="black" stroke-dasharray="3,2" shape-rendering="crispEdges" y1="0" y2="26" x1="228.42242503259453" x2="228.42242503259453"/><line clip-path="url(#13617)" stroke="black" stroke-dasharray="3,2" shape-rendering="crispEdges" y1="0" y2="26" x1="248.93524554541503" x2="248.93524554541503"/><line clip-path="url(#13617)" stroke="black" stroke-dasharray="3,2" shape-rendering="crispEdges" y1="0" y2="26" x1="263.7114298131247" x2="263.7114298131247"/><line clip-path="url(#13617)" stroke="black" stroke-dasharray="3,2" shape-rendering="crispEdges" y1="0" y2="26" x1="294.4806605823555" x2="294.4806605823555"/><line clip-path="url(#13617)" stroke="black" stroke-dasharray="3,2" shape-rendering="crispEdges" y1="0" y2="26" x1="302.6510212950891" x2="302.6510212950891"/><line clip-path="url(#13617)" stroke="black" stroke-dasharray="3,2" shape-rendering="crispEdges" y1="0" y2="26" x1="323.33767926988264" x2="323.33767926988264"/><line clip-path="url(#13617)" stroke="black" stroke-dasharray="3,2" shape-rendering="crispEdges" y1="0" y2="26" x1="346.28422425032596" x2="346.28422425032596"/><line clip-path="url(#13617)" stroke="black" stroke-dasharray="3,2" shape-rendering="crispEdges" y1="0" y2="26" x1="369.7522816166884" x2="369.7522816166884"/><rect clip-path="url(#13617)" stroke-dasharray="none" fill="none" stroke="black" x="0" width="400" height="26"/><text font-family="Arial" fill="black" font-size="15" dominant-baseline="central" x="405" y="13">BRAF</text><text fill="#858585" fill-opacity="0" font-size="13" font-family="Arial" text-anchor="middle" dominant-baseline="hanging" y="50">starts at 439 AA</text><defs><clipPath id="13617"><rect x="0" y="0" height="26" width="445.0078125"/></clipPath></defs><rect clip-path="url(#13617)" fill="white" fill-opacity="0" width="400" height="26"/></g><line stroke="black" stroke-dasharray="3,2" x1="222.33108972701763" y1="34" x2="228.94393741851368" y2="98"/><g transform="translate(222.33108972701763,0)"><text font-family="Arial" font-size="13" fill="black" text-anchor="end" y="39" dominant-baseline="hanging">exon 3, 58 AA</text><rect height="3" fill="black" x="-30.2477183833116" width="30.2477183833116" y="31"/></g><g transform="translate(228.94393741851368,106)"><text font-family="Arial" font-size="13" fill="black" text-anchor="start" y="-13" dominant-baseline="auto">exon 11, 439 AA</text><rect height="3" fill="black" x="0" width="171.05606258148632" y="-8"/></g></g><g transform="translate(50.7229847416884,238)"/><text class="sja_svgtext" fill="black" font-size="12" text-anchor="end" x="516.5901722416884" y="291" style="display: none;">drag to resize</text><g transform="translate(0,259.525390625)" style="font-family: Arial;"><g><text transform="translate(10,30)" text-anchor="start" font-weight="700" font-size="12" dominant-baseline="central">FAM131B NM_001031690</text><g transform="translate(10,50)"><text transform="translate(12.5,5)" font-size="12" dominant-baseline="central"><tspan dominant-baseline="central" font-weight="700" x="0">FAM131</tspan><tspan dominant-baseline="central" x="55.3515625">Putative cell signalling</tspan></text><rect height="10" width="10" y="0.2373046875" fill="#8dd3c7" stroke="#aaa" shape-rendering="crispEdges"/></g></g><g><text transform="translate(10,80)" text-anchor="start" font-weight="700" font-size="12" dominant-baseline="central">BRAF NM_004333</text><g transform="translate(10,100)"><text transform="translate(12.5,5)" font-size="12" dominant-baseline="central"><tspan dominant-baseline="central" font-weight="700" x="0">Raf_RBD</tspan><tspan dominant-baseline="central" x="62.0078125">Ubiquitin domain of Raf serine/threonine kinases</tspan></text><rect height="10" width="10" y="0.25" fill="#80b1d3" stroke="#aaa" shape-rendering="crispEdges"/></g><g transform="translate(10,125)"><text transform="translate(12.5,5)" font-size="12" dominant-baseline="central"><tspan dominant-baseline="central" font-weight="700" x="0">other</tspan><tspan dominant-baseline="central" x="40">RafRBD - Ras interaction site [polypeptide binding]</tspan></text><rect height="10" width="10" y="0.2373046875" fill="#8dd3c7" stroke="#aaa" shape-rendering="crispEdges"/></g><g transform="translate(10,150)"><text transform="translate(12.5,5)" font-size="12" dominant-baseline="central"><tspan dominant-baseline="central" font-weight="700" x="0">other</tspan><tspan dominant-baseline="central" x="40">zinc binding sites [ion binding]</tspan></text><rect height="10" width="10" y="0.2373046875" fill="#bebada" stroke="#aaa" shape-rendering="crispEdges"/></g><g transform="translate(10,175)"><text transform="translate(12.5,5)" font-size="12" dominant-baseline="central"><tspan dominant-baseline="central" font-weight="700" x="0">C1_1</tspan><tspan dominant-baseline="central" x="38.6875">Phorbol esters/diacylglycerol binding domain (C1 domain)</tspan></text><rect height="10" width="10" y="0.2373046875" fill="#b3b3b3" stroke="#aaa" shape-rendering="crispEdges"/></g><g transform="translate(10,200)"><text transform="translate(12.5,5)" font-size="12" dominant-baseline="central"><tspan dominant-baseline="central" font-weight="700" x="0">other</tspan><tspan dominant-baseline="central" x="40">putative RAS interaction site [polypeptide binding]</tspan></text><rect height="10" width="10" y="0.2373046875" fill="#e5c494" stroke="#aaa" shape-rendering="crispEdges"/></g><g transform="translate(10,225)"><text transform="translate(12.5,5)" font-size="12" dominant-baseline="central"><tspan dominant-baseline="central" font-weight="700" x="0">other</tspan><tspan dominant-baseline="central" x="40">ATP binding site [chemical binding]</tspan></text><rect height="10" width="10" y="0.2373046875" fill="#fb8072" stroke="#aaa" shape-rendering="crispEdges"/></g><g transform="translate(10,250)"><text transform="translate(12.5,5)" font-size="12" dominant-baseline="central"><tspan dominant-baseline="central" font-weight="700" x="0">STKc_Raf</tspan><tspan dominant-baseline="central" x="66.6875">Catalytic domain of the Serine/Threonine Kinases, Raf (Rapidly Accelerated Fi...</tspan></text><rect height="10" width="10" y="0.2373046875" fill="#ffd92f" stroke="#aaa" shape-rendering="crispEdges"/></g><g transform="translate(10,275)"><text transform="translate(12.5,5)" font-size="12" dominant-baseline="central"><tspan dominant-baseline="central" font-weight="700" x="0">other</tspan><tspan dominant-baseline="central" x="40">polypeptide substrate binding site [polypeptide binding]</tspan></text><rect height="10" width="10" y="0.2373046875" fill="#a6d854" stroke="#aaa" shape-rendering="crispEdges"/></g><g transform="translate(10,300)"><text transform="translate(12.5,5)" font-size="12" dominant-baseline="central"><tspan dominant-baseline="central" font-weight="700" x="0">other</tspan><tspan dominant-baseline="central" x="40">dimer interface [polypeptide binding]</tspan></text><rect height="10" width="10" y="0.2373046875" fill="#fdb462" stroke="#aaa" shape-rendering="crispEdges"/></g><g transform="translate(10,325)"><text transform="translate(12.5,5)" font-size="12" dominant-baseline="central"><tspan dominant-baseline="central" font-weight="700" x="0">other</tspan><tspan dominant-baseline="central" x="40">activation loop (A-loop)</tspan></text><rect height="10" width="10" y="0.2373046875" fill="#E8E89E" stroke="#aaa" shape-rendering="crispEdges"/></g></g></g></svg>