<svg xmlns="http://www.w3.org/2000/svg" width="1014.9825925011617" height="721.525390625"><g transform="translate(40,70)"><g transform="translate(0,0)"><line y1="-3" stroke="black" stroke-opacity="0" shape-rendering="crispEdges" y2="0"/><rect clip-path="url(#85700)" fill="white" x="0" width="400" height="26"/><rect clip-path="url(#85700)" fill="#b3b3b3" x="227.50929368029742" width="165.05576208178437" height="26"/><rect clip-path="url(#85700)" fill="#fb8072" x="233.95291201982653" width="136.8029739776952" height="26"/><rect clip-path="url(#85700)" fill="#ffd92f" x="128.87236679058242" width="47.58364312267656" height="26"/><rect clip-path="url(#85700)" fill="#80b1d3" x="132.8376703841388" width="44.114002478314745" height="26"/><rect clip-path="url(#85700)" fill="#e5c494" x="79.80173482032218" width="41.63568773234201" height="26"/><rect clip-path="url(#85700)" fill="#fdb462" x="26.765799256505574" width="35.19206939281288" height="26"/><rect clip-path="url(#85700)" fill="#a6d854" x="26.270136307311027" width="28.252788104089227" height="26"/><rect clip-path="url(#85700)" fill="#8dd3c7" x="275.09293680297395" width="1.4869888475836888" height="26"/><rect clip-path="url(#85700)" fill="#8dd3c7" x="236.9268897149938" width="1.486988847583632" height="26"/><rect clip-path="url(#85700)" fill="#bebada" x="139.77695167286245" width="0.9913258983890785" height="26"/><rect clip-path="url(#85700)" fill="#bebada" x="84.75836431226766" width="0.9913258983890927" height="26"/><rect clip-path="url(#85700)" fill="#8dd3c7" x="307.80669144981414" width="0.495662949194525" height="26"/><rect clip-path="url(#85700)" fill="#bebada" x="155.14250309789344" width="0.495662949194525" height="26"/><rect clip-path="url(#85700)" fill="#8dd3c7" x="314.25030978934325" width="0.49566294919458187" height="26"/><rect clip-path="url(#85700)" fill="#8dd3c7" x="250.80545229244115" width="0" height="26"/><rect clip-path="url(#85700)" fill="#bebada" x="137.2986369268897" width="0" height="26"/><rect clip-path="url(#85700)" fill="#8dd3c7" x="267.1623296158612" width="0" height="26"/><rect clip-path="url(#85700)" fill="#8dd3c7" x="239.90086741016108" width="0" height="26"/><rect clip-path="url(#85700)" fill="#8dd3c7" x="305.8240396530359" width="0" height="26"/><rect clip-path="url(#85700)" fill="#8dd3c7" x="309.29368029739777" width="0" height="26"/><rect clip-path="url(#85700)" fill="#E8E89E" x="80.79306071871127" width="0" height="26"/><rect clip-path="url(#85700)" fill="#bebada" x="81.28872366790583" width="0" height="26"/><rect clip-path="url(#85700)" fill="#bebada" x="86.74101610904586" width="0" height="26"/><rect clip-path="url(#85700)" fill="#8dd3c7" x="251.79677819083022" width="0" height="26"/><rect clip-path="url(#85700)" fill="#E8E89E" x="82.77571251548946" width="0" height="26"/><rect clip-path="url(#85700)" fill="#bebada" x="170.01239157372987" width="0" height="26"/><rect clip-path="url(#85700)" fill="#bebada" x="157.62081784386618" width="0" height="26"/><rect clip-path="url(#85700)" fill="#8dd3c7" x="240.89219330855022" width="0" height="26"/><rect clip-path="url(#85700)" fill="#bebada" x="159.60346964064436" width="0" height="26"/><rect clip-path="url(#85700)" fill="#E8E89E" x="81.78438661710037" width="0" height="26"/><line clip-path="url(#85700)" stroke="black" stroke-dasharray="3,2" shape-rendering="crispEdges" y1="0" y2="26" x1="18.009087154068567" x2="18.009087154068567"/><line clip-path="url(#85700)" stroke="black" stroke-dasharray="3,2" shape-rendering="crispEdges" y1="0" y2="26" x1="62.618752581577866" x2="62.618752581577866"/><line clip-path="url(#85700)" stroke="black" stroke-dasharray="3,2" shape-rendering="crispEdges" y1="0" y2="26" x1="73.52333746385791" x2="73.52333746385791"/><line clip-path="url(#85700)" stroke="black" stroke-dasharray="3,2" shape-rendering="crispEdges" y1="0" y2="26" x1="101.61090458488229" x2="101.61090458488229"/><line clip-path="url(#85700)" stroke="black" stroke-dasharray="3,2" shape-rendering="crispEdges" y1="0" y2="26" x1="122.0983064849236" x2="122.0983064849236"/><line clip-path="url(#85700)" stroke="black" stroke-dasharray="3,2" shape-rendering="crispEdges" y1="0" y2="26" x1="153.65551425030978" x2="153.65551425030978"/><line clip-path="url(#85700)" stroke="black" stroke-dasharray="3,2" shape-rendering="crispEdges" y1="0" y2="26" x1="177.61255679471293" x2="177.61255679471293"/><line clip-path="url(#85700)" stroke="black" stroke-dasharray="3,2" shape-rendering="crispEdges" y1="0" y2="26" x1="209.1697645600991" x2="209.1697645600991"/><line clip-path="url(#85700)" stroke="black" stroke-dasharray="3,2" shape-rendering="crispEdges" y1="0" y2="26" x1="233.29202808756713" x2="233.29202808756713"/><line clip-path="url(#85700)" stroke="black" stroke-dasharray="3,2" shape-rendering="crispEdges" y1="0" y2="26" x1="253.4489880214787" x2="253.4489880214787"/><line clip-path="url(#85700)" stroke="black" stroke-dasharray="3,2" shape-rendering="crispEdges" y1="0" y2="26" x1="271.788517141677" x2="271.788517141677"/><line clip-path="url(#85700)" stroke="black" stroke-dasharray="3,2" shape-rendering="crispEdges" y1="0" y2="26" x1="303.3457249070632" x2="303.3457249070632"/><line clip-path="url(#85700)" stroke="black" stroke-dasharray="3,2" shape-rendering="crispEdges" y1="0" y2="26" x1="323.6679058240397" x2="323.6679058240397"/><line clip-path="url(#85700)" stroke="black" stroke-dasharray="3,2" shape-rendering="crispEdges" y1="0" y2="26" x1="335.3985956216439" x2="335.3985956216439"/><line clip-path="url(#85700)" stroke="black" stroke-dasharray="3,2" shape-rendering="crispEdges" y1="0" y2="26" x1="358.1990912845931" x2="358.1990912845931"/><line clip-path="url(#85700)" stroke="black" stroke-dasharray="3,2" shape-rendering="crispEdges" y1="0" y2="26" x1="375.71251548946714" x2="375.71251548946714"/><rect clip-path="url(#85700)" stroke-dasharray="none" fill="none" stroke="black" x="0" width="400" height="26"/><text font-family="Arial" fill="black" font-size="15" dominant-baseline="central" x="405" y="13">FGFR3</text><text fill="#858585" fill-opacity="0" font-size="13" font-family="Arial" text-anchor="middle" dominant-baseline="auto" y="-24">ends at 759 AA</text><defs><clipPath id="85700"><rect x="0" y="0" height="26" width="454.171875"/></clipPath></defs><rect clip-path="url(#85700)" fill="white" fill-opacity="0" width="400" height="26"/></g><g transform="translate(79.30607187112764,106)"><line y1="26" stroke="black" stroke-opacity="0" shape-rendering="crispEdges" y2="29"/><rect clip-path="url(#45654)" fill="white" x="0" width="320.69392812887236" height="26"/><rect clip-path="url(#45654)" fill="#8dd3c7" x="228.99628252788102" width="9.41759603469643" height="26"/><rect clip-path="url(#45654)" fill="#bebada" x="212.1437422552664" width="0" height="26"/><rect clip-path="url(#45654)" fill="#fb8072" x="189.83890954151175" width="0" height="26"/><rect clip-path="url(#45654)" fill="#bebada" x="155.14250309789344" width="0" height="26"/><rect clip-path="url(#45654)" fill="#fb8072" x="230.97893432465924" width="0" height="26"/><rect clip-path="url(#45654)" fill="#bebada" x="213.1350681536555" width="0.495662949194525" height="26"/><rect clip-path="url(#45654)" fill="#bebada" x="189.83890954151175" width="0" height="26"/><rect clip-path="url(#45654)" fill="#fb8072" x="153.15985130111522" width="0" height="26"/><rect clip-path="url(#45654)" fill="#bebada" x="161.58612143742255" width="0" height="26"/><rect clip-path="url(#45654)" fill="#bebada" x="211.15241635687732" width="0" height="26"/><rect clip-path="url(#45654)" fill="#fb8072" x="236.9268897149938" width="1.4869888475836603" height="26"/><rect clip-path="url(#45654)" fill="#fb8072" x="212.1437422552664" width="0" height="26"/><rect clip-path="url(#45654)" fill="#80b1d3" x="145.22924411400248" width="136.30731102850064" height="26"/><rect clip-path="url(#45654)" fill="#fb8072" x="213.1350681536555" width="0" height="26"/><rect clip-path="url(#45654)" fill="#bebada" x="151.17719950433704" width="1.9826517967781854" height="26"/><rect clip-path="url(#45654)" fill="#bebada" x="214.62205700123917" width="0" height="26"/><rect clip-path="url(#45654)" fill="#bebada" x="178.43866171003717" width="0" height="26"/><rect clip-path="url(#45654)" fill="#bebada" x="162.57744733581166" width="0" height="26"/><rect clip-path="url(#45654)" fill="#E8E89E" x="148.20322180916978" width="133.82899628252787" height="26"/><rect clip-path="url(#45654)" fill="#bebada" x="229.4919454770756" width="0" height="26"/><rect clip-path="url(#45654)" fill="#bebada" x="186.36926889714994" width="1.486988847583632" height="26"/><rect clip-path="url(#45654)" fill="#fb8072" x="211.15241635687732" width="0" height="26"/><rect clip-path="url(#45654)" fill="#fb8072" x="190.83023543990086" width="0" height="26"/><line clip-path="url(#45654)" stroke="black" stroke-dasharray="3,2" shape-rendering="crispEdges" y1="0" y2="26" x1="95.16728624535315" x2="95.16728624535315"/><line clip-path="url(#45654)" stroke="black" stroke-dasharray="3,2" shape-rendering="crispEdges" y1="0" y2="26" x1="129.2028087567121" x2="129.2028087567121"/><line clip-path="url(#45654)" stroke="black" stroke-dasharray="3,2" shape-rendering="crispEdges" y1="0" y2="26" x1="139.77695167286245" x2="139.77695167286245"/><line clip-path="url(#45654)" stroke="black" stroke-dasharray="3,2" shape-rendering="crispEdges" y1="0" y2="26" x1="168.3601817430814" x2="168.3601817430814"/><line clip-path="url(#45654)" stroke="black" stroke-dasharray="3,2" shape-rendering="crispEdges" y1="0" y2="26" x1="188.51714167699296" x2="188.51714167699296"/><line clip-path="url(#45654)" stroke="black" stroke-dasharray="3,2" shape-rendering="crispEdges" y1="0" y2="26" x1="212.80462618752577" x2="212.80462618752577"/><line clip-path="url(#45654)" stroke="black" stroke-dasharray="3,2" shape-rendering="crispEdges" y1="0" y2="26" x1="228.66584056175134" x2="228.66584056175134"/><line clip-path="url(#45654)" stroke="black" stroke-dasharray="3,2" shape-rendering="crispEdges" y1="0" y2="26" x1="242.87484510532838" x2="242.87484510532838"/><line clip-path="url(#45654)" stroke="black" stroke-dasharray="3,2" shape-rendering="crispEdges" y1="0" y2="26" x1="271.1276332094176" x2="271.1276332094176"/><line clip-path="url(#45654)" stroke="black" stroke-dasharray="3,2" shape-rendering="crispEdges" y1="0" y2="26" x1="295.24989673688555" x2="295.24989673688555"/><rect clip-path="url(#45654)" stroke-dasharray="none" fill="none" stroke="black" x="0" width="320.69392812887236" height="26"/><text font-family="Arial" fill="black" font-size="15" dominant-baseline="central" x="325.69392812887236" y="13">WEE1</text><text fill="#858585" fill-opacity="0" font-size="13" font-family="Arial" text-anchor="middle" dominant-baseline="hanging" y="50">starts at 193 AA</text><defs><clipPath id="45654"><rect x="0" y="0" height="26" width="368.20955312887236"/></clipPath></defs><rect clip-path="url(#45654)" fill="white" fill-opacity="0" width="320.69392812887236" height="26"/></g><line stroke="black" stroke-dasharray="3,2" x1="376.2081784386617" y1="34" x2="174.96902106567535" y2="98"/><g transform="translate(376.2081784386617,0)"><text font-family="Arial" font-size="13" fill="black" text-anchor="start" y="39" dominant-baseline="hanging">exon 17, 759 AA</text><rect height="3" fill="black" x="-376.2081784386617" width="376.2081784386617" y="31"/></g><g transform="translate(174.96902106567535,106)"><text font-family="Arial" font-size="13" fill="black" text-anchor="end" y="-13" dominant-baseline="auto">exon 2, 193 AA</text><rect height="3" fill="black" x="0" width="225.03097893432465" y="-8"/></g></g><g transform="translate(40,238)"/><text class="sja_svgtext" fill="black" font-size="12" text-anchor="end" x="506.6388425011617" y="291" style="display: none;">drag to resize</text><g transform="translate(0,259.525390625)" style="font-family: Arial;"><g><text transform="translate(10,30)" text-anchor="start" font-weight="700" font-size="12" dominant-baseline="central">FGFR3 NM_000142</text><g transform="translate(10,50)"><text transform="translate(12.5,5)" font-size="12" dominant-baseline="central"><tspan dominant-baseline="central" font-weight="700" x="0">IGc2</tspan><tspan dominant-baseline="central" x="36.015625">Immunoglobulin C-2 Type</tspan></text><rect height="10" width="10" y="0.2373046875" fill="#a6d854" stroke="#aaa" shape-rendering="crispEdges"/></g><g transform="translate(10,75)"><text transform="translate(12.5,5)" font-size="12" dominant-baseline="central"><tspan dominant-baseline="central" font-weight="700" x="0">IG</tspan><tspan dominant-baseline="central" x="22.671875">Immunoglobulin</tspan></text><rect height="10" width="10" y="0.2373046875" fill="#fdb462" stroke="#aaa" shape-rendering="crispEdges"/></g><g transform="translate(10,100)"><text transform="translate(12.5,5)" font-size="12" dominant-baseline="central"><tspan dominant-baseline="central" font-weight="700" x="0">Ig2_FGFR</tspan><tspan dominant-baseline="central" x="66.671875">Second immunoglobulin (Ig)-like domain of fibroblast growth factor (FGF) rece...</tspan></text><rect height="10" width="10" y="0.2373046875" fill="#e5c494" stroke="#aaa" shape-rendering="crispEdges"/></g><g transform="translate(10,125)"><text transform="translate(12.5,5)" font-size="12" dominant-baseline="central"><tspan dominant-baseline="central" font-weight="700" x="0">other</tspan><tspan dominant-baseline="central" x="40">FGF binding site [polypeptide binding]</tspan></text><rect height="10" width="10" y="0.2373046875" fill="#E8E89E" stroke="#aaa" shape-rendering="crispEdges"/></g><g transform="translate(10,150)"><text transform="translate(12.5,5)" font-size="12" dominant-baseline="central"><tspan dominant-baseline="central" font-weight="700" x="0">other</tspan><tspan dominant-baseline="central" x="40">ligand binding site [chemical binding]</tspan></text><rect height="10" width="10" y="0.2373046875" fill="#bebada" stroke="#aaa" shape-rendering="crispEdges"/></g><g transform="translate(10,175)"><text transform="translate(12.5,5)" font-size="12" dominant-baseline="central"><tspan dominant-baseline="central" font-weight="700" x="0">IG_like</tspan><tspan dominant-baseline="central" x="49.359375">Immunoglobulin like</tspan></text><rect height="10" width="10" y="0.2373046875" fill="#ffd92f" stroke="#aaa" shape-rendering="crispEdges"/></g><g transform="translate(10,200)"><text transform="translate(12.5,5)" font-size="12" dominant-baseline="central"><tspan dominant-baseline="central" font-weight="700" x="0">Ig3_FGFR-2</tspan><tspan dominant-baseline="central" x="77.34375">Third immunoglobulin (Ig)-like domain of fibroblast growth factor receptor 2 ...</tspan></text><rect height="10" width="10" y="0.2373046875" fill="#80b1d3" stroke="#aaa" shape-rendering="crispEdges"/></g><g transform="translate(10,225)"><text transform="translate(12.5,5)" font-size="12" dominant-baseline="central"><tspan dominant-baseline="central" font-weight="700" x="0">PKc_like</tspan><tspan dominant-baseline="central" x="60.0390625">Protein Kinases, catalytic domain</tspan></text><rect height="10" width="10" y="0.2373046875" fill="#b3b3b3" stroke="#aaa" shape-rendering="crispEdges"/></g><g transform="translate(10,250)"><text transform="translate(12.5,5)" font-size="12" dominant-baseline="central"><tspan dominant-baseline="central" font-weight="700" x="0">Pkinase_Tyr</tspan><tspan dominant-baseline="central" x="79.8203125">Protein tyrosine kinase</tspan></text><rect height="10" width="10" y="0.2373046875" fill="#fb8072" stroke="#aaa" shape-rendering="crispEdges"/></g><g transform="translate(10,275)"><text transform="translate(12.5,5)" font-size="12" dominant-baseline="central"><tspan dominant-baseline="central" font-weight="700" x="0">other</tspan><tspan dominant-baseline="central" x="40">ATP binding site [chemical binding]</tspan></text><rect height="10" width="10" y="0.2373046875" fill="#8dd3c7" stroke="#aaa" shape-rendering="crispEdges"/></g></g><g><text transform="translate(10,305)" text-anchor="start" font-weight="700" font-size="12" dominant-baseline="central">WEE1 NM_003390</text><g transform="translate(10,325)"><text transform="translate(12.5,5)" font-size="12" dominant-baseline="central"><tspan dominant-baseline="central" font-weight="700" x="0">PTKc_Wee1a</tspan><tspan dominant-baseline="central" x="85.15625">Catalytic domain of the Protein Tyrosine Kinase, Wee1a</tspan></text><rect height="10" width="10" y="0.2373046875" fill="#80b1d3" stroke="#aaa" shape-rendering="crispEdges"/></g><g transform="translate(10,350)"><text transform="translate(12.5,5)" font-size="12" dominant-baseline="central"><tspan dominant-baseline="central" font-weight="700" x="0">Pkinase</tspan><tspan dominant-baseline="central" x="55.3671875">Protein kinase domain</tspan></text><rect height="10" width="10" y="0.25" fill="#E8E89E" stroke="#aaa" shape-rendering="crispEdges"/></g><g transform="translate(10,375)"><text transform="translate(12.5,5)" font-size="12" dominant-baseline="central"><tspan dominant-baseline="central" font-weight="700" x="0">other</tspan><tspan dominant-baseline="central" x="40">ATP binding site [chemical binding]</tspan></text><rect height="10" width="10" y="0.2373046875" fill="#bebada" stroke="#aaa" shape-rendering="crispEdges"/></g><g transform="translate(10,400)"><text transform="translate(12.5,5)" font-size="12" dominant-baseline="central"><tspan dominant-baseline="central" font-weight="700" x="0">other</tspan><tspan dominant-baseline="central" x="40">polypeptide substrate binding site [polypeptide binding]</tspan></text><rect height="10" width="10" y="0.2373046875" fill="#fb8072" stroke="#aaa" shape-rendering="crispEdges"/></g><g transform="translate(10,425)"><text transform="translate(12.5,5)" font-size="12" dominant-baseline="central"><tspan dominant-baseline="central" font-weight="700" x="0">other</tspan><tspan dominant-baseline="central" x="40">activation loop (A-loop)</tspan></text><rect height="10" width="10" y="0.2373046875" fill="#8dd3c7" stroke="#aaa" shape-rendering="crispEdges"/></g></g></g></svg>