<svg xmlns="http://www.w3.org/2000/svg" width="1052.6322153884832" height="646.525390625"><g transform="translate(40,70)"><g transform="translate(0,0)"><line y1="-3" stroke="black" stroke-opacity="0" shape-rendering="crispEdges" y2="0"/><rect clip-path="url(#91251)" fill="white" x="0" width="384.74374255065555" height="26"/><rect clip-path="url(#91251)" fill="#b3b3b3" x="218.8319427890346" width="158.76042908224076" height="26"/><rect clip-path="url(#91251)" fill="#fb8072" x="225.02979737783076" width="131.58522050059597" height="26"/><rect clip-path="url(#91251)" fill="#ffd92f" x="123.95709177592373" width="45.76877234803338" height="26"/><rect clip-path="url(#91251)" fill="#80b1d3" x="127.77115613825984" width="42.43146603098927" height="26"/><rect clip-path="url(#91251)" fill="#e5c494" x="76.7580452920143" width="40.047675804529206" height="26"/><rect clip-path="url(#91251)" fill="#fdb462" x="25.74493444576877" width="33.849821215733016" height="26"/><rect clip-path="url(#91251)" fill="#a6d854" x="25.268176400476758" width="27.17520858164482" height="26"/><rect clip-path="url(#91251)" fill="#8dd3c7" x="264.60071513706794" width="1.4302741358760613" height="26"/><rect clip-path="url(#91251)" fill="#8dd3c7" x="227.89034564958283" width="1.430274135876033" height="26"/><rect clip-path="url(#91251)" fill="#bebada" x="134.44576877234803" width="0.9535160905840314" height="26"/><rect clip-path="url(#91251)" fill="#bebada" x="81.52562574493444" width="0.9535160905840314" height="26"/><rect clip-path="url(#91251)" fill="#8dd3c7" x="296.0667461263409" width="0.4767580452920015" height="26"/><rect clip-path="url(#91251)" fill="#bebada" x="149.22526817640048" width="0.4767580452920299" height="26"/><rect clip-path="url(#91251)" fill="#8dd3c7" x="302.2646007151371" width="0.47675804529205834" height="26"/><rect clip-path="url(#91251)" fill="#8dd3c7" x="241.23957091775924" width="0" height="26"/><rect clip-path="url(#91251)" fill="#bebada" x="132.06197854588797" width="0" height="26"/><rect clip-path="url(#91251)" fill="#8dd3c7" x="256.97258641239574" width="0" height="26"/><rect clip-path="url(#91251)" fill="#8dd3c7" x="230.75089392133492" width="0" height="26"/><rect clip-path="url(#91251)" fill="#8dd3c7" x="294.1597139451728" width="0" height="26"/><rect clip-path="url(#91251)" fill="#8dd3c7" x="297.49702026221695" width="0" height="26"/><rect clip-path="url(#91251)" fill="#E8E89E" x="77.71156138259833" width="0" height="26"/><rect clip-path="url(#91251)" fill="#bebada" x="78.18831942789035" width="0" height="26"/><rect clip-path="url(#91251)" fill="#bebada" x="83.43265792610251" width="0" height="26"/><rect clip-path="url(#91251)" fill="#8dd3c7" x="242.19308700834327" width="0" height="26"/><rect clip-path="url(#91251)" fill="#E8E89E" x="79.61859356376638" width="0" height="26"/><rect clip-path="url(#91251)" fill="#bebada" x="163.52800953516092" width="0" height="26"/><rect clip-path="url(#91251)" fill="#bebada" x="151.60905840286054" width="0" height="26"/><rect clip-path="url(#91251)" fill="#8dd3c7" x="231.70441001191898" width="0" height="26"/><rect clip-path="url(#91251)" fill="#bebada" x="153.5160905840286" width="0" height="26"/><rect clip-path="url(#91251)" fill="#E8E89E" x="78.66507747318236" width="0" height="26"/><line clip-path="url(#91251)" stroke="black" stroke-dasharray="3,2" shape-rendering="crispEdges" y1="0" y2="26" x1="17.322208978943188" x2="17.322208978943188"/><line clip-path="url(#91251)" stroke="black" stroke-dasharray="3,2" shape-rendering="crispEdges" y1="0" y2="26" x1="60.23043305522448" x2="60.23043305522448"/><line clip-path="url(#91251)" stroke="black" stroke-dasharray="3,2" shape-rendering="crispEdges" y1="0" y2="26" x1="70.7191100516488" x2="70.7191100516488"/><line clip-path="url(#91251)" stroke="black" stroke-dasharray="3,2" shape-rendering="crispEdges" y1="0" y2="26" x1="97.73539928486295" x2="97.73539928486295"/><line clip-path="url(#91251)" stroke="black" stroke-dasharray="3,2" shape-rendering="crispEdges" y1="0" y2="26" x1="117.4413984902662" x2="117.4413984902662"/><line clip-path="url(#91251)" stroke="black" stroke-dasharray="3,2" shape-rendering="crispEdges" y1="0" y2="26" x1="147.79499404052444" x2="147.79499404052444"/><line clip-path="url(#91251)" stroke="black" stroke-dasharray="3,2" shape-rendering="crispEdges" y1="0" y2="26" x1="170.8382995629718" x2="170.8382995629718"/><line clip-path="url(#91251)" stroke="black" stroke-dasharray="3,2" shape-rendering="crispEdges" y1="0" y2="26" x1="201.19189511323003" x2="201.19189511323003"/><line clip-path="url(#91251)" stroke="black" stroke-dasharray="3,2" shape-rendering="crispEdges" y1="0" y2="26" x1="224.39411998410807" x2="224.39411998410807"/><line clip-path="url(#91251)" stroke="black" stroke-dasharray="3,2" shape-rendering="crispEdges" y1="0" y2="26" x1="243.78228049264996" x2="243.78228049264996"/><line clip-path="url(#91251)" stroke="black" stroke-dasharray="3,2" shape-rendering="crispEdges" y1="0" y2="26" x1="261.4223281684545" x2="261.4223281684545"/><line clip-path="url(#91251)" stroke="black" stroke-dasharray="3,2" shape-rendering="crispEdges" y1="0" y2="26" x1="291.77592371871276" x2="291.77592371871276"/><line clip-path="url(#91251)" stroke="black" stroke-dasharray="3,2" shape-rendering="crispEdges" y1="0" y2="26" x1="311.32300357568533" x2="311.32300357568533"/><line clip-path="url(#91251)" stroke="black" stroke-dasharray="3,2" shape-rendering="crispEdges" y1="0" y2="26" x1="322.60627731426297" x2="322.60627731426297"/><line clip-path="url(#91251)" stroke="black" stroke-dasharray="3,2" shape-rendering="crispEdges" y1="0" y2="26" x1="344.53714739769566" x2="344.53714739769566"/><line clip-path="url(#91251)" stroke="black" stroke-dasharray="3,2" shape-rendering="crispEdges" y1="0" y2="26" x1="361.38259833134686" x2="361.38259833134686"/><rect clip-path="url(#91251)" stroke-dasharray="none" fill="none" stroke="black" x="0" width="384.74374255065555" height="26"/><text font-family="Arial" fill="black" font-size="15" dominant-baseline="central" x="389.74374255065555" y="13">FGFR3</text><text fill="#858585" fill-opacity="0" font-size="13" font-family="Arial" text-anchor="middle" dominant-baseline="auto" y="-24">ends at 759 AA</text><defs><clipPath id="91251"><rect x="0" y="0" height="26" width="438.91561755065555"/></clipPath></defs><rect clip-path="url(#91251)" fill="white" fill-opacity="0" width="384.74374255065555" height="26"/></g><g transform="translate(0,106)"><line y1="26" stroke="black" stroke-opacity="0" shape-rendering="crispEdges" y2="29"/><rect clip-path="url(#66346)" fill="white" x="0" width="400" height="26"/><rect clip-path="url(#66346)" fill="#8dd3c7" x="310.84624553039333" width="48.1525625744934" height="26"/><rect clip-path="url(#66346)" fill="#bebada" x="304.64839094159714" width="92.01430274135873" height="26"/><line clip-path="url(#66346)" stroke="black" stroke-dasharray="3,2" shape-rendering="crispEdges" y1="0" y2="26" x1="25.744934445768774" x2="25.744934445768774"/><line clip-path="url(#66346)" stroke="black" stroke-dasharray="3,2" shape-rendering="crispEdges" y1="0" y2="26" x1="48.47040127135479" x2="48.47040127135479"/><line clip-path="url(#66346)" stroke="black" stroke-dasharray="3,2" shape-rendering="crispEdges" y1="0" y2="26" x1="220.10329757647992" x2="220.10329757647992"/><line clip-path="url(#66346)" stroke="black" stroke-dasharray="3,2" shape-rendering="crispEdges" y1="0" y2="26" x1="232.18116805721095" x2="232.18116805721095"/><line clip-path="url(#66346)" stroke="black" stroke-dasharray="3,2" shape-rendering="crispEdges" y1="0" y2="26" x1="252.84068335319824" x2="252.84068335319824"/><line clip-path="url(#66346)" stroke="black" stroke-dasharray="3,2" shape-rendering="crispEdges" y1="0" y2="26" x1="261.26340882002387" x2="261.26340882002387"/><line clip-path="url(#66346)" stroke="black" stroke-dasharray="3,2" shape-rendering="crispEdges" y1="0" y2="26" x1="277.79102105681363" x2="277.79102105681363"/><line clip-path="url(#66346)" stroke="black" stroke-dasharray="3,2" shape-rendering="crispEdges" y1="0" y2="26" x1="291.77592371871276" x2="291.77592371871276"/><line clip-path="url(#66346)" stroke="black" stroke-dasharray="3,2" shape-rendering="crispEdges" y1="0" y2="26" x1="308.4624553039332" x2="308.4624553039332"/><line clip-path="url(#66346)" stroke="black" stroke-dasharray="3,2" shape-rendering="crispEdges" y1="0" y2="26" x1="320.69924513309496" x2="320.69924513309496"/><line clip-path="url(#66346)" stroke="black" stroke-dasharray="3,2" shape-rendering="crispEdges" y1="0" y2="26" x1="327.6916964640445" x2="327.6916964640445"/><line clip-path="url(#66346)" stroke="black" stroke-dasharray="3,2" shape-rendering="crispEdges" y1="0" y2="26" x1="353.2777115613826" x2="353.2777115613826"/><line clip-path="url(#66346)" stroke="black" stroke-dasharray="3,2" shape-rendering="crispEdges" y1="0" y2="26" x1="370.2820818434644" x2="370.2820818434644"/><line clip-path="url(#66346)" stroke="black" stroke-dasharray="3,2" shape-rendering="crispEdges" y1="0" y2="26" x1="389.5113230035757" x2="389.5113230035757"/><rect clip-path="url(#66346)" stroke-dasharray="none" fill="none" stroke="black" x="0" width="400" height="26"/><text font-family="Arial" fill="black" font-size="15" dominant-baseline="central" x="405" y="13">TACC3</text><text fill="#858585" fill-opacity="0" font-size="13" font-family="Arial" text-anchor="middle" dominant-baseline="hanging" y="50">starts at 613 AA</text><defs><clipPath id="66346"><rect x="0" y="0" height="26" width="453.0625"/></clipPath></defs><rect clip-path="url(#66346)" fill="white" fill-opacity="0" width="400" height="26"/></g><line stroke="black" stroke-dasharray="3,2" x1="361.85935637663886" y1="34" x2="292.25268176400476" y2="98"/><g transform="translate(361.85935637663886,0)"><text font-family="Arial" font-size="13" fill="black" text-anchor="start" y="39" dominant-baseline="hanging">exon 17, 759 AA</text><rect height="3" fill="black" x="-361.85935637663886" width="361.85935637663886" y="31"/></g><g transform="translate(292.25268176400476,106)"><text font-family="Arial" font-size="13" fill="black" text-anchor="end" y="-13" dominant-baseline="auto">exon 10, 613 AA</text><rect height="3" fill="black" x="0" width="107.74731823599524" y="-8"/></g></g><g transform="translate(40,238)"/><text class="sja_svgtext" fill="black" font-size="12" text-anchor="end" x="507.54627788848325" y="291" style="display: none;">drag to resize</text><g transform="translate(0,259.525390625)" style="font-family: Arial;"><g><text transform="translate(10,30)" text-anchor="start" font-weight="700" font-size="12" dominant-baseline="central">FGFR3 NM_000142</text><g transform="translate(10,50)"><text transform="translate(12.5,5)" font-size="12" dominant-baseline="central"><tspan dominant-baseline="central" font-weight="700" x="0">IGc2</tspan><tspan dominant-baseline="central" x="36.015625">Immunoglobulin C-2 Type</tspan></text><rect height="10" width="10" y="0.2373046875" fill="#a6d854" stroke="#aaa" shape-rendering="crispEdges"/></g><g transform="translate(10,75)"><text transform="translate(12.5,5)" font-size="12" dominant-baseline="central"><tspan dominant-baseline="central" font-weight="700" x="0">IG</tspan><tspan dominant-baseline="central" x="22.671875">Immunoglobulin</tspan></text><rect height="10" width="10" y="0.2373046875" fill="#fdb462" stroke="#aaa" shape-rendering="crispEdges"/></g><g transform="translate(10,100)"><text transform="translate(12.5,5)" font-size="12" dominant-baseline="central"><tspan dominant-baseline="central" font-weight="700" x="0">Ig2_FGFR</tspan><tspan dominant-baseline="central" x="66.671875">Second immunoglobulin (Ig)-like domain of fibroblast growth factor (FGF) rece...</tspan></text><rect height="10" width="10" y="0.2373046875" fill="#e5c494" stroke="#aaa" shape-rendering="crispEdges"/></g><g transform="translate(10,125)"><text transform="translate(12.5,5)" font-size="12" dominant-baseline="central"><tspan dominant-baseline="central" font-weight="700" x="0">other</tspan><tspan dominant-baseline="central" x="40">FGF binding site [polypeptide binding]</tspan></text><rect height="10" width="10" y="0.2373046875" fill="#E8E89E" stroke="#aaa" shape-rendering="crispEdges"/></g><g transform="translate(10,150)"><text transform="translate(12.5,5)" font-size="12" dominant-baseline="central"><tspan dominant-baseline="central" font-weight="700" x="0">other</tspan><tspan dominant-baseline="central" x="40">ligand binding site [chemical binding]</tspan></text><rect height="10" width="10" y="0.2373046875" fill="#bebada" stroke="#aaa" shape-rendering="crispEdges"/></g><g transform="translate(10,175)"><text transform="translate(12.5,5)" font-size="12" dominant-baseline="central"><tspan dominant-baseline="central" font-weight="700" x="0">IG_like</tspan><tspan dominant-baseline="central" x="49.359375">Immunoglobulin like</tspan></text><rect height="10" width="10" y="0.2373046875" fill="#ffd92f" stroke="#aaa" shape-rendering="crispEdges"/></g><g transform="translate(10,200)"><text transform="translate(12.5,5)" font-size="12" dominant-baseline="central"><tspan dominant-baseline="central" font-weight="700" x="0">Ig3_FGFR-2</tspan><tspan dominant-baseline="central" x="77.34375">Third immunoglobulin (Ig)-like domain of fibroblast growth factor receptor 2 ...</tspan></text><rect height="10" width="10" y="0.2373046875" fill="#80b1d3" stroke="#aaa" shape-rendering="crispEdges"/></g><g transform="translate(10,225)"><text transform="translate(12.5,5)" font-size="12" dominant-baseline="central"><tspan dominant-baseline="central" font-weight="700" x="0">PKc_like</tspan><tspan dominant-baseline="central" x="60.0390625">Protein Kinases, catalytic domain</tspan></text><rect height="10" width="10" y="0.2373046875" fill="#b3b3b3" stroke="#aaa" shape-rendering="crispEdges"/></g><g transform="translate(10,250)"><text transform="translate(12.5,5)" font-size="12" dominant-baseline="central"><tspan dominant-baseline="central" font-weight="700" x="0">Pkinase_Tyr</tspan><tspan dominant-baseline="central" x="79.8203125">Protein tyrosine kinase</tspan></text><rect height="10" width="10" y="0.2373046875" fill="#fb8072" stroke="#aaa" shape-rendering="crispEdges"/></g><g transform="translate(10,275)"><text transform="translate(12.5,5)" font-size="12" dominant-baseline="central"><tspan dominant-baseline="central" font-weight="700" x="0">other</tspan><tspan dominant-baseline="central" x="40">ATP binding site [chemical binding]</tspan></text><rect height="10" width="10" y="0.2373046875" fill="#8dd3c7" stroke="#aaa" shape-rendering="crispEdges"/></g></g><g><text transform="translate(10,305)" text-anchor="start" font-weight="700" font-size="12" dominant-baseline="central">TACC3 NM_006342</text><g transform="translate(10,325)"><text transform="translate(12.5,5)" font-size="12" dominant-baseline="central"><tspan dominant-baseline="central" font-weight="700" x="0">TACC</tspan><tspan dominant-baseline="central" x="42.4375">Transforming acidic coiled-coil-containing protein (TACC)</tspan></text><rect height="10" width="10" y="0.2373046875" fill="#bebada" stroke="#aaa" shape-rendering="crispEdges"/></g><g transform="translate(10,350)"><text transform="translate(12.5,5)" font-size="12" dominant-baseline="central"><tspan dominant-baseline="central" font-weight="700" x="0">iSH2_PI3K_IA_R</tspan><tspan dominant-baseline="central" x="104.046875">Inter-Src homology 2 (iSH2) helical domain of Class IA Phosphoinositide 3-kin...</tspan></text><rect height="10" width="10" y="0.2373046875" fill="#8dd3c7" stroke="#aaa" shape-rendering="crispEdges"/></g></g></g></svg>