<svg xmlns="http://www.w3.org/2000/svg" width="1024.039187661886" height="721.525390625"><g transform="translate(40,70)"><g transform="translate(25.44553582973205,0)"><line y1="-3" stroke="black" stroke-opacity="0" shape-rendering="crispEdges" y2="0"/><rect clip-path="url(#56046)" fill="white" x="0" width="247.73599386032234" height="26"/><rect clip-path="url(#56046)" fill="#b3b3b3" x="140.90560245587108" width="102.22563315425941" height="26"/><rect clip-path="url(#56046)" fill="#fb8072" x="144.89639293937068" width="84.72755180353033" height="26"/><rect clip-path="url(#56046)" fill="#ffd92f" x="79.81580966999233" width="29.470452801227935" height="26"/><rect clip-path="url(#56046)" fill="#80b1d3" x="82.27168073676133" width="27.321565617805064" height="26"/><rect clip-path="url(#56046)" fill="#e5c494" x="49.424405218726015" width="25.78664620107444" height="26"/><rect clip-path="url(#56046)" fill="#fdb462" x="16.577129700690712" width="21.795855717574824" height="26"/><rect clip-path="url(#56046)" fill="#a6d854" x="16.270145817344588" width="17.49808135072909" height="26"/><rect clip-path="url(#56046)" fill="#8dd3c7" x="170.376055257099" width="0.9209516500383756" height="26"/><rect clip-path="url(#56046)" fill="#8dd3c7" x="146.7382962394474" width="0.9209516500383756" height="26"/><rect clip-path="url(#56046)" fill="#bebada" x="86.56945510360707" width="0.613967766692241" height="26"/><rect clip-path="url(#56046)" fill="#bebada" x="52.494244052187256" width="0.6139677666922481" height="26"/><rect clip-path="url(#56046)" fill="#8dd3c7" x="190.63699155794322" width="0.30698388334610627" height="26"/><rect clip-path="url(#56046)" fill="#bebada" x="96.08595548733692" width="0.3069838833461205" height="26"/><rect clip-path="url(#56046)" fill="#8dd3c7" x="194.62778204144283" width="0.3069838833461347" height="26"/><rect clip-path="url(#56046)" fill="#8dd3c7" x="155.33384497313892" width="0" height="26"/><rect clip-path="url(#56046)" fill="#bebada" x="85.03453568687644" width="0" height="26"/><rect clip-path="url(#56046)" fill="#8dd3c7" x="165.46431312356103" width="0" height="26"/><rect clip-path="url(#56046)" fill="#8dd3c7" x="148.58019953952416" width="0" height="26"/><rect clip-path="url(#56046)" fill="#8dd3c7" x="189.4090560245587" width="0" height="26"/><rect clip-path="url(#56046)" fill="#8dd3c7" x="191.5579432079816" width="0" height="26"/><rect clip-path="url(#56046)" fill="#E8E89E" x="50.03837298541826" width="0" height="26"/><rect clip-path="url(#56046)" fill="#bebada" x="50.34535686876439" width="0" height="26"/><rect clip-path="url(#56046)" fill="#bebada" x="53.72217958557176" width="0" height="26"/><rect clip-path="url(#56046)" fill="#8dd3c7" x="155.94781273983116" width="0" height="26"/><rect clip-path="url(#56046)" fill="#E8E89E" x="51.26630851880276" width="0" height="26"/><rect clip-path="url(#56046)" fill="#bebada" x="105.29547198772065" width="0" height="26"/><rect clip-path="url(#56046)" fill="#bebada" x="97.62087490406753" width="0" height="26"/><rect clip-path="url(#56046)" fill="#8dd3c7" x="149.19416730621643" width="0" height="26"/><rect clip-path="url(#56046)" fill="#bebada" x="98.84881043745203" width="0" height="26"/><rect clip-path="url(#56046)" fill="#E8E89E" x="50.65234075211051" width="0" height="26"/><line clip-path="url(#56046)" stroke="black" stroke-dasharray="3,2" shape-rendering="crispEdges" y1="0" y2="26" x1="11.153747761575852" x2="11.153747761575852"/><line clip-path="url(#56046)" stroke="black" stroke-dasharray="3,2" shape-rendering="crispEdges" y1="0" y2="26" x1="38.78229726272704" x2="38.78229726272704"/><line clip-path="url(#56046)" stroke="black" stroke-dasharray="3,2" shape-rendering="crispEdges" y1="0" y2="26" x1="45.535942696341785" x2="45.535942696341785"/><line clip-path="url(#56046)" stroke="black" stroke-dasharray="3,2" shape-rendering="crispEdges" y1="0" y2="26" x1="62.931696085955494" x2="62.931696085955494"/><line clip-path="url(#56046)" stroke="black" stroke-dasharray="3,2" shape-rendering="crispEdges" y1="0" y2="26" x1="75.62036326426197" x2="75.62036326426197"/><line clip-path="url(#56046)" stroke="black" stroke-dasharray="3,2" shape-rendering="crispEdges" y1="0" y2="26" x1="95.16500383729854" x2="95.16500383729854"/><line clip-path="url(#56046)" stroke="black" stroke-dasharray="3,2" shape-rendering="crispEdges" y1="0" y2="26" x1="110.00255819902789" x2="110.00255819902789"/><line clip-path="url(#56046)" stroke="black" stroke-dasharray="3,2" shape-rendering="crispEdges" y1="0" y2="26" x1="129.54719877206446" x2="129.54719877206446"/><line clip-path="url(#56046)" stroke="black" stroke-dasharray="3,2" shape-rendering="crispEdges" y1="0" y2="26" x1="144.4870810949092" x2="144.4870810949092"/><line clip-path="url(#56046)" stroke="black" stroke-dasharray="3,2" shape-rendering="crispEdges" y1="0" y2="26" x1="156.9710923509849" x2="156.9710923509849"/><line clip-path="url(#56046)" stroke="black" stroke-dasharray="3,2" shape-rendering="crispEdges" y1="0" y2="26" x1="168.3294960347915" x2="168.3294960347915"/><line clip-path="url(#56046)" stroke="black" stroke-dasharray="3,2" shape-rendering="crispEdges" y1="0" y2="26" x1="187.8741366078281" x2="187.8741366078281"/><line clip-path="url(#56046)" stroke="black" stroke-dasharray="3,2" shape-rendering="crispEdges" y1="0" y2="26" x1="200.4604758250192" x2="200.4604758250192"/><line clip-path="url(#56046)" stroke="black" stroke-dasharray="3,2" shape-rendering="crispEdges" y1="0" y2="26" x1="207.7257610642108" x2="207.7257610642108"/><line clip-path="url(#56046)" stroke="black" stroke-dasharray="3,2" shape-rendering="crispEdges" y1="0" y2="26" x1="221.8470196981325" x2="221.8470196981325"/><line clip-path="url(#56046)" stroke="black" stroke-dasharray="3,2" shape-rendering="crispEdges" y1="0" y2="26" x1="232.69378357636225" x2="232.69378357636225"/><rect clip-path="url(#56046)" stroke-dasharray="none" fill="none" stroke="black" x="0" width="247.73599386032234" height="26"/><text font-family="Arial" fill="black" font-size="15" dominant-baseline="central" x="252.73599386032234" y="13">FGFR3</text><text fill="#858585" fill-opacity="0" font-size="13" font-family="Arial" text-anchor="middle" dominant-baseline="auto" y="-24">ends at 759 AA</text><defs><clipPath id="56046"><rect x="0" y="0" height="26" width="301.9078688603223"/></clipPath></defs><rect clip-path="url(#56046)" fill="white" fill-opacity="0" width="247.73599386032234" height="26"/></g><g transform="translate(0,106)"><line y1="26" stroke="black" stroke-opacity="0" shape-rendering="crispEdges" y2="29"/><rect clip-path="url(#57295)" fill="white" x="0" width="400" height="26"/><rect clip-path="url(#57295)" fill="#8dd3c7" x="258.7874136607828" width="75.51803530314658" height="26"/><rect clip-path="url(#57295)" fill="#bebada" x="257.5594781273983" width="26.093630084420568" height="26"/><rect clip-path="url(#57295)" fill="#fb8072" x="244.05218726016886" width="1.5349194167305882" height="26"/><rect clip-path="url(#57295)" fill="#80b1d3" x="213.04681504221028" width="49.73138910207214" height="26"/><rect clip-path="url(#57295)" fill="#E8E89E" x="186.64620107444358" width="102.83960092095168" height="26"/><line clip-path="url(#57295)" stroke="black" stroke-dasharray="3,2" shape-rendering="crispEdges" y1="0" y2="26" x1="163.92939370683038" x2="163.92939370683038"/><line clip-path="url(#57295)" stroke="black" stroke-dasharray="3,2" shape-rendering="crispEdges" y1="0" y2="26" x1="173.650550012791" x2="173.650550012791"/><line clip-path="url(#57295)" stroke="black" stroke-dasharray="3,2" shape-rendering="crispEdges" y1="0" y2="26" x1="184.49731389102072" x2="184.49731389102072"/><line clip-path="url(#57295)" stroke="black" stroke-dasharray="3,2" shape-rendering="crispEdges" y1="0" y2="26" x1="194.93476592478896" x2="194.93476592478896"/><line clip-path="url(#57295)" stroke="black" stroke-dasharray="3,2" shape-rendering="crispEdges" y1="0" y2="26" x1="210.18163213097978" x2="210.18163213097978"/><line clip-path="url(#57295)" stroke="black" stroke-dasharray="3,2" shape-rendering="crispEdges" y1="0" y2="26" x1="224.09823484267076" x2="224.09823484267076"/><line clip-path="url(#57295)" stroke="black" stroke-dasharray="3,2" shape-rendering="crispEdges" y1="0" y2="26" x1="245.8940905602456" x2="245.8940905602456"/><line clip-path="url(#57295)" stroke="black" stroke-dasharray="3,2" shape-rendering="crispEdges" y1="0" y2="26" x1="267.07597851112814" x2="267.07597851112814"/><line clip-path="url(#57295)" stroke="black" stroke-dasharray="3,2" shape-rendering="crispEdges" y1="0" y2="26" x1="277.82041442824254" x2="277.82041442824254"/><line clip-path="url(#57295)" stroke="black" stroke-dasharray="3,2" shape-rendering="crispEdges" y1="0" y2="26" x1="293.4765924788949" x2="293.4765924788949"/><line clip-path="url(#57295)" stroke="black" stroke-dasharray="3,2" shape-rendering="crispEdges" y1="0" y2="26" x1="310.97467382962395" x2="310.97467382962395"/><line clip-path="url(#57295)" stroke="black" stroke-dasharray="3,2" shape-rendering="crispEdges" y1="0" y2="26" x1="327.55180353031466" x2="327.55180353031466"/><line clip-path="url(#57295)" stroke="black" stroke-dasharray="3,2" shape-rendering="crispEdges" y1="0" y2="26" x1="336.76132003069836" x2="336.76132003069836"/><line clip-path="url(#57295)" stroke="black" stroke-dasharray="3,2" shape-rendering="crispEdges" y1="0" y2="26" x1="345.3568687643899" x2="345.3568687643899"/><line clip-path="url(#57295)" stroke="black" stroke-dasharray="3,2" shape-rendering="crispEdges" y1="0" y2="26" x1="358.14786390381175" x2="358.14786390381175"/><line clip-path="url(#57295)" stroke="black" stroke-dasharray="3,2" shape-rendering="crispEdges" y1="0" y2="26" x1="369.30161166538755" x2="369.30161166538755"/><line clip-path="url(#57295)" stroke="black" stroke-dasharray="3,2" shape-rendering="crispEdges" y1="0" y2="26" x1="386.0833972883091" x2="386.0833972883091"/><rect clip-path="url(#57295)" stroke-dasharray="none" fill="none" stroke="black" x="0" width="400" height="26"/><text font-family="Arial" fill="black" font-size="15" dominant-baseline="central" x="405" y="13">CGNL1</text><text fill="#858585" fill-opacity="0" font-size="13" font-family="Arial" text-anchor="middle" dominant-baseline="hanging" y="50">starts at 906 AA</text><defs><clipPath id="57295"><rect x="0" y="0" height="26" width="455.0234375"/></clipPath></defs><rect clip-path="url(#57295)" fill="white" fill-opacity="0" width="400" height="26"/></g><line stroke="black" stroke-dasharray="3,2" x1="258.44630328944044" y1="34" x2="278.12739831158865" y2="98"/><g transform="translate(258.44630328944044,0)"><text font-family="Arial" font-size="13" fill="black" text-anchor="end" y="39" dominant-baseline="hanging">exon 17, 759 AA</text><rect height="3" fill="black" x="-233.00076745970838" width="233.00076745970838" y="31"/></g><g transform="translate(278.12739831158865,106)"><text font-family="Arial" font-size="13" fill="black" text-anchor="start" y="-13" dominant-baseline="auto">exon 11, 906 AA</text><rect height="3" fill="black" x="0" width="121.87260168841135" y="-8"/></g></g><g transform="translate(40,238)"/><text class="sja_svgtext" fill="black" font-size="12" text-anchor="end" x="515.695437661886" y="291" style="display: none;">drag to resize</text><g transform="translate(0,259.525390625)" style="font-family: Arial;"><g><text transform="translate(10,30)" text-anchor="start" font-weight="700" font-size="12" dominant-baseline="central">FGFR3 NM_000142</text><g transform="translate(10,50)"><text transform="translate(12.5,5)" font-size="12" dominant-baseline="central"><tspan dominant-baseline="central" font-weight="700" x="0">IGc2</tspan><tspan dominant-baseline="central" x="36.015625">Immunoglobulin C-2 Type</tspan></text><rect height="10" width="10" y="0.2373046875" fill="#a6d854" stroke="#aaa" shape-rendering="crispEdges"/></g><g transform="translate(10,75)"><text transform="translate(12.5,5)" font-size="12" dominant-baseline="central"><tspan dominant-baseline="central" font-weight="700" x="0">IG</tspan><tspan dominant-baseline="central" x="22.671875">Immunoglobulin</tspan></text><rect height="10" width="10" y="0.2373046875" fill="#fdb462" stroke="#aaa" shape-rendering="crispEdges"/></g><g transform="translate(10,100)"><text transform="translate(12.5,5)" font-size="12" dominant-baseline="central"><tspan dominant-baseline="central" font-weight="700" x="0">Ig2_FGFR</tspan><tspan dominant-baseline="central" x="66.671875">Second immunoglobulin (Ig)-like domain of fibroblast growth factor (FGF) rece...</tspan></text><rect height="10" width="10" y="0.2373046875" fill="#e5c494" stroke="#aaa" shape-rendering="crispEdges"/></g><g transform="translate(10,125)"><text transform="translate(12.5,5)" font-size="12" dominant-baseline="central"><tspan dominant-baseline="central" font-weight="700" x="0">other</tspan><tspan dominant-baseline="central" x="40">FGF binding site [polypeptide binding]</tspan></text><rect height="10" width="10" y="0.2373046875" fill="#E8E89E" stroke="#aaa" shape-rendering="crispEdges"/></g><g transform="translate(10,150)"><text transform="translate(12.5,5)" font-size="12" dominant-baseline="central"><tspan dominant-baseline="central" font-weight="700" x="0">other</tspan><tspan dominant-baseline="central" x="40">ligand binding site [chemical binding]</tspan></text><rect height="10" width="10" y="0.2373046875" fill="#bebada" stroke="#aaa" shape-rendering="crispEdges"/></g><g transform="translate(10,175)"><text transform="translate(12.5,5)" font-size="12" dominant-baseline="central"><tspan dominant-baseline="central" font-weight="700" x="0">IG_like</tspan><tspan dominant-baseline="central" x="49.359375">Immunoglobulin like</tspan></text><rect height="10" width="10" y="0.2373046875" fill="#ffd92f" stroke="#aaa" shape-rendering="crispEdges"/></g><g transform="translate(10,200)"><text transform="translate(12.5,5)" font-size="12" dominant-baseline="central"><tspan dominant-baseline="central" font-weight="700" x="0">Ig3_FGFR-2</tspan><tspan dominant-baseline="central" x="77.34375">Third immunoglobulin (Ig)-like domain of fibroblast growth factor receptor 2 ...</tspan></text><rect height="10" width="10" y="0.2373046875" fill="#80b1d3" stroke="#aaa" shape-rendering="crispEdges"/></g><g transform="translate(10,225)"><text transform="translate(12.5,5)" font-size="12" dominant-baseline="central"><tspan dominant-baseline="central" font-weight="700" x="0">PKc_like</tspan><tspan dominant-baseline="central" x="60.0390625">Protein Kinases, catalytic domain</tspan></text><rect height="10" width="10" y="0.2373046875" fill="#b3b3b3" stroke="#aaa" shape-rendering="crispEdges"/></g><g transform="translate(10,250)"><text transform="translate(12.5,5)" font-size="12" dominant-baseline="central"><tspan dominant-baseline="central" font-weight="700" x="0">Pkinase_Tyr</tspan><tspan dominant-baseline="central" x="79.8203125">Protein tyrosine kinase</tspan></text><rect height="10" width="10" y="0.2373046875" fill="#fb8072" stroke="#aaa" shape-rendering="crispEdges"/></g><g transform="translate(10,275)"><text transform="translate(12.5,5)" font-size="12" dominant-baseline="central"><tspan dominant-baseline="central" font-weight="700" x="0">other</tspan><tspan dominant-baseline="central" x="40">ATP binding site [chemical binding]</tspan></text><rect height="10" width="10" y="0.2373046875" fill="#8dd3c7" stroke="#aaa" shape-rendering="crispEdges"/></g></g><g><text transform="translate(10,305)" text-anchor="start" font-weight="700" font-size="12" dominant-baseline="central">CGNL1 NM_032866</text><g transform="translate(10,325)"><text transform="translate(12.5,5)" font-size="12" dominant-baseline="central"><tspan dominant-baseline="central" font-weight="700" x="0">Taxilin</tspan><tspan dominant-baseline="central" x="47.125">Myosin-like coiled-coil protein</tspan></text><rect height="10" width="10" y="0.2373046875" fill="#E8E89E" stroke="#aaa" shape-rendering="crispEdges"/></g><g transform="translate(10,350)"><text transform="translate(12.5,5)" font-size="12" dominant-baseline="central"><tspan dominant-baseline="central" font-weight="700" x="0">SPEC</tspan><tspan dominant-baseline="central" x="42.6796875">Spectrin repeats, found in several proteins involved in cytoskeletal structur...</tspan></text><rect height="10" width="10" y="0.2373046875" fill="#80b1d3" stroke="#aaa" shape-rendering="crispEdges"/></g><g transform="translate(10,375)"><text transform="translate(12.5,5)" font-size="12" dominant-baseline="central"><tspan dominant-baseline="central" font-weight="700" x="0">other</tspan><tspan dominant-baseline="central" x="40">linker region</tspan></text><rect height="10" width="10" y="0.2373046875" fill="#fb8072" stroke="#aaa" shape-rendering="crispEdges"/></g><g transform="translate(10,400)"><text transform="translate(12.5,5)" font-size="12" dominant-baseline="central"><tspan dominant-baseline="central" font-weight="700" x="0">DUF4200</tspan><tspan dominant-baseline="central" x="61.359375">Domain of unknown function (DUF4200)</tspan></text><rect height="10" width="10" y="0.2373046875" fill="#bebada" stroke="#aaa" shape-rendering="crispEdges"/></g><g transform="translate(10,425)"><text transform="translate(12.5,5)" font-size="12" dominant-baseline="central"><tspan dominant-baseline="central" font-weight="700" x="0">Tropomyosin</tspan><tspan dominant-baseline="central" x="85.34375">Tropomyosin</tspan></text><rect height="10" width="10" y="0.2373046875" fill="#8dd3c7" stroke="#aaa" shape-rendering="crispEdges"/></g></g></g></svg>