<svg xmlns="http://www.w3.org/2000/svg" width="1004.0625" height="796.525390625"><g transform="translate(40,70)"><g transform="translate(0,0)"><line y1="-3" stroke="black" stroke-opacity="0" shape-rendering="crispEdges" y2="0"/><rect clip-path="url(#58198)" fill="white" x="0" width="400" height="26"/><rect clip-path="url(#58198)" fill="#fdb462" x="311.16279069767444" width="60.930232558139494" height="26"/><rect clip-path="url(#58198)" fill="#fb8072" x="315.81395348837214" width="45.581395348837134" height="26"/><rect clip-path="url(#58198)" fill="#fdb462" x="360" width="27.441860465116292" height="26"/><rect clip-path="url(#58198)" fill="#8dd3c7" x="356.27906976744185" width="25.581395348837248" height="26"/><rect clip-path="url(#58198)" fill="#80b1d3" x="302.3255813953488" width="20.93023255813955" height="26"/><rect clip-path="url(#58198)" fill="#E8E89E" x="14.418604651162791" width="17.674418604651162" height="26"/><rect clip-path="url(#58198)" fill="#a6d854" x="295.8139534883721" width="16.74418604651163" height="26"/><rect clip-path="url(#58198)" fill="#a6d854" x="329.30232558139534" width="16.27906976744191" height="26"/><rect clip-path="url(#58198)" fill="#a6d854" x="362.3255813953489" width="14.883720930232528" height="26"/><rect clip-path="url(#58198)" fill="#a6d854" x="313.48837209302326" width="14.883720930232585" height="26"/><rect clip-path="url(#58198)" fill="#a6d854" x="347.4418604651163" width="13.953488372092977" height="26"/><rect clip-path="url(#58198)" fill="#bebada" x="382.7906976744186" width="0.9302325581395507" height="26"/><rect clip-path="url(#58198)" fill="#bebada" x="351.6279069767442" width="0.9302325581394939" height="26"/><rect clip-path="url(#58198)" fill="#bebada" x="366.9767441860465" width="0.9302325581395507" height="26"/><rect clip-path="url(#58198)" fill="#bebada" x="365.1162790697674" width="0.4651162790697754" height="26"/><rect clip-path="url(#58198)" fill="#bebada" x="384.65116279069764" width="0.4651162790697754" height="26"/><rect clip-path="url(#58198)" fill="#bebada" x="380.93023255813955" width="0.4651162790697754" height="26"/><rect clip-path="url(#58198)" fill="#bebada" x="368.8372093023256" width="0.46511627906971853" height="26"/><rect clip-path="url(#58198)" fill="#bebada" x="353.48837209302326" width="0.4651162790697754" height="26"/><rect clip-path="url(#58198)" fill="#bebada" x="349.7674418604651" width="0.4651162790697754" height="26"/><rect clip-path="url(#58198)" fill="#bebada" x="363.25581395348837" width="0" height="26"/><rect clip-path="url(#58198)" fill="#bebada" x="377.2093023255814" width="0" height="26"/><rect clip-path="url(#58198)" fill="#bebada" x="378.1395348837209" width="0" height="26"/><rect clip-path="url(#58198)" fill="#bebada" x="386.9767441860465" width="0" height="26"/><rect clip-path="url(#58198)" fill="#bebada" x="357.2093023255814" width="0" height="26"/><rect clip-path="url(#58198)" fill="#bebada" x="355.8139534883721" width="0" height="26"/><rect clip-path="url(#58198)" fill="#bebada" x="362.3255813953489" width="0" height="26"/><rect clip-path="url(#58198)" fill="#bebada" x="372.5581395348837" width="0" height="26"/><rect clip-path="url(#58198)" fill="#bebada" x="379.06976744186045" width="0" height="26"/><rect clip-path="url(#58198)" fill="#bebada" x="388.3720930232558" width="0" height="26"/><rect clip-path="url(#58198)" fill="#bebada" x="371.16279069767444" width="0" height="26"/><rect clip-path="url(#58198)" fill="#bebada" x="361.39534883720927" width="0" height="26"/><rect clip-path="url(#58198)" fill="#bebada" x="347.906976744186" width="0" height="26"/><line clip-path="url(#58198)" stroke="black" stroke-dasharray="3,2" shape-rendering="crispEdges" y1="0" y2="26" x1="5.736434108527132" x2="5.736434108527132"/><line clip-path="url(#58198)" stroke="black" stroke-dasharray="3,2" shape-rendering="crispEdges" y1="0" y2="26" x1="193.64341085271317" x2="193.64341085271317"/><line clip-path="url(#58198)" stroke="black" stroke-dasharray="3,2" shape-rendering="crispEdges" y1="0" y2="26" x1="219.68992248062014" x2="219.68992248062014"/><line clip-path="url(#58198)" stroke="black" stroke-dasharray="3,2" shape-rendering="crispEdges" y1="0" y2="26" x1="239.37984496124028" x2="239.37984496124028"/><line clip-path="url(#58198)" stroke="black" stroke-dasharray="3,2" shape-rendering="crispEdges" y1="0" y2="26" x1="276.5891472868217" x2="276.5891472868217"/><line clip-path="url(#58198)" stroke="black" stroke-dasharray="3,2" shape-rendering="crispEdges" y1="0" y2="26" x1="290.2325581395349" x2="290.2325581395349"/><line clip-path="url(#58198)" stroke="black" stroke-dasharray="3,2" shape-rendering="crispEdges" y1="0" y2="26" x1="324.34108527131787" x2="324.34108527131787"/><line clip-path="url(#58198)" stroke="black" stroke-dasharray="3,2" shape-rendering="crispEdges" y1="0" y2="26" x1="346.51162790697674" x2="346.51162790697674"/><line clip-path="url(#58198)" stroke="black" stroke-dasharray="3,2" shape-rendering="crispEdges" y1="0" y2="26" x1="377.6744186046511" x2="377.6744186046511"/><line clip-path="url(#58198)" stroke="black" stroke-dasharray="3,2" shape-rendering="crispEdges" y1="0" y2="26" x1="391.6279069767442" x2="391.6279069767442"/><rect clip-path="url(#58198)" stroke-dasharray="none" fill="none" stroke="black" x="0" width="400" height="26"/><text font-family="Arial" fill="black" font-size="15" dominant-baseline="central" x="405" y="13">KANK2</text><text fill="#858585" fill-opacity="0" font-size="13" font-family="Arial" text-anchor="middle" dominant-baseline="auto" y="-24">ends at 416 AA</text><defs><clipPath id="58198"><rect x="0" y="0" height="26" width="454.1953125"/></clipPath></defs><rect clip-path="url(#58198)" fill="white" fill-opacity="0" width="400" height="26"/></g><g transform="translate(0,106)"><line y1="26" stroke="black" stroke-opacity="0" shape-rendering="crispEdges" y2="29"/><rect clip-path="url(#48188)" fill="white" x="0" width="390.2325581395349" height="26"/><rect clip-path="url(#48188)" fill="#8dd3c7" x="257.6744186046512" width="125.11627906976742" height="26"/><rect clip-path="url(#48188)" fill="#bebada" x="321.8604651162791" width="0" height="26"/><rect clip-path="url(#48188)" fill="#fb8072" x="42.7906976744186" width="26.97674418604651" height="26"/><rect clip-path="url(#48188)" fill="#80b1d3" x="330.2325581395349" width="0" height="26"/><rect clip-path="url(#48188)" fill="#E8E89E" x="155.8139534883721" width="0" height="26"/><rect clip-path="url(#48188)" fill="#bebada" x="323.72093023255815" width="0" height="26"/><rect clip-path="url(#48188)" fill="#80b1d3" x="260.4651162790698" width="0.4651162790697754" height="26"/><rect clip-path="url(#48188)" fill="#E8E89E" x="164.18604651162792" width="0" height="26"/><rect clip-path="url(#48188)" fill="#E8E89E" x="162.32558139534885" width="0.4651162790697754" height="26"/><rect clip-path="url(#48188)" fill="#80b1d3" x="297.2093023255814" width="0.46511627906971853" height="26"/><rect clip-path="url(#48188)" fill="#a6d854" x="144.1860465116279" width="0" height="26"/><rect clip-path="url(#48188)" fill="#80b1d3" x="325.1162790697675" width="0" height="26"/><rect clip-path="url(#48188)" fill="#bebada" x="360.4651162790698" width="0" height="26"/><rect clip-path="url(#48188)" fill="#80b1d3" x="323.72093023255815" width="0.4651162790697754" height="26"/><rect clip-path="url(#48188)" fill="#bebada" x="344.6511627906977" width="0" height="26"/><rect clip-path="url(#48188)" fill="#80b1d3" x="272.5581395348837" width="0" height="26"/><rect clip-path="url(#48188)" fill="#fdb462" x="329.7674418604651" width="11.627906976744214" height="26"/><rect clip-path="url(#48188)" fill="#bebada" x="338.6046511627907" width="1.8604651162791015" height="26"/><rect clip-path="url(#48188)" fill="#80b1d3" x="294.4186046511628" width="1.3953488372092693" height="26"/><rect clip-path="url(#48188)" fill="#ffd92f" x="70.69767441860465" width="20.000000000000014" height="26"/><rect clip-path="url(#48188)" fill="#e5c494" x="254.88372093023258" width="133.48837209302326" height="26"/><rect clip-path="url(#48188)" fill="#b3b3b3" x="140" width="36.279069767441854" height="26"/><rect clip-path="url(#48188)" fill="#8dd3c7" x="95.34883720930233" width="36.279069767441854" height="26"/><rect clip-path="url(#48188)" fill="#80b1d3" x="273.48837209302326" width="0" height="26"/><rect clip-path="url(#48188)" fill="#80b1d3" x="264.1860465116279" width="0" height="26"/><rect clip-path="url(#48188)" fill="#80b1d3" x="261.8604651162791" width="0.4651162790697754" height="26"/><line clip-path="url(#48188)" stroke="black" stroke-dasharray="3,2" shape-rendering="crispEdges" y1="0" y2="26" x1="32.86821705426357" x2="32.86821705426357"/><line clip-path="url(#48188)" stroke="black" stroke-dasharray="3,2" shape-rendering="crispEdges" y1="0" y2="26" x1="44.49612403100775" x2="44.49612403100775"/><line clip-path="url(#48188)" stroke="black" stroke-dasharray="3,2" shape-rendering="crispEdges" y1="0" y2="26" x1="55.65891472868218" x2="55.65891472868218"/><line clip-path="url(#48188)" stroke="black" stroke-dasharray="3,2" shape-rendering="crispEdges" y1="0" y2="26" x1="66.35658914728683" x2="66.35658914728683"/><line clip-path="url(#48188)" stroke="black" stroke-dasharray="3,2" shape-rendering="crispEdges" y1="0" y2="26" x1="90.38759689922482" x2="90.38759689922482"/><line clip-path="url(#48188)" stroke="black" stroke-dasharray="3,2" shape-rendering="crispEdges" y1="0" y2="26" x1="111.62790697674419" x2="111.62790697674419"/><line clip-path="url(#48188)" stroke="black" stroke-dasharray="3,2" shape-rendering="crispEdges" y1="0" y2="26" x1="132.24806201550388" x2="132.24806201550388"/><line clip-path="url(#48188)" stroke="black" stroke-dasharray="3,2" shape-rendering="crispEdges" y1="0" y2="26" x1="179.68992248062014" x2="179.68992248062014"/><line clip-path="url(#48188)" stroke="black" stroke-dasharray="3,2" shape-rendering="crispEdges" y1="0" y2="26" x1="185.27131782945736" x2="185.27131782945736"/><line clip-path="url(#48188)" stroke="black" stroke-dasharray="3,2" shape-rendering="crispEdges" y1="0" y2="26" x1="200.93023255813955" x2="200.93023255813955"/><line clip-path="url(#48188)" stroke="black" stroke-dasharray="3,2" shape-rendering="crispEdges" y1="0" y2="26" x1="216.43410852713177" x2="216.43410852713177"/><line clip-path="url(#48188)" stroke="black" stroke-dasharray="3,2" shape-rendering="crispEdges" y1="0" y2="26" x1="223.87596899224803" x2="223.87596899224803"/><line clip-path="url(#48188)" stroke="black" stroke-dasharray="3,2" shape-rendering="crispEdges" y1="0" y2="26" x1="253.17829457364346" x2="253.17829457364346"/><line clip-path="url(#48188)" stroke="black" stroke-dasharray="3,2" shape-rendering="crispEdges" y1="0" y2="26" x1="273.48837209302326" x2="273.48837209302326"/><line clip-path="url(#48188)" stroke="black" stroke-dasharray="3,2" shape-rendering="crispEdges" y1="0" y2="26" x1="300.31007751937983" x2="300.31007751937983"/><line clip-path="url(#48188)" stroke="black" stroke-dasharray="3,2" shape-rendering="crispEdges" y1="0" y2="26" x1="336.74418604651163" x2="336.74418604651163"/><line clip-path="url(#48188)" stroke="black" stroke-dasharray="3,2" shape-rendering="crispEdges" y1="0" y2="26" x1="361.39534883720927" x2="361.39534883720927"/><rect clip-path="url(#48188)" stroke-dasharray="none" fill="none" stroke="black" x="0" width="390.2325581395349" height="26"/><text font-family="Arial" fill="black" font-size="15" dominant-baseline="central" x="395.2325581395349" y="13">NTRK2</text><text fill="#858585" fill-opacity="0" font-size="13" font-family="Arial" text-anchor="middle" dominant-baseline="hanging" y="50">starts at 482 AA</text><defs><clipPath id="48188"><rect x="0" y="0" height="26" width="444.4122456395349"/></clipPath></defs><rect clip-path="url(#48188)" fill="white" fill-opacity="0" width="390.2325581395349" height="26"/></g><line stroke="black" stroke-dasharray="3,2" x1="193.48837209302326" y1="34" x2="224.18604651162792" y2="98"/><g transform="translate(193.48837209302326,0)"><text font-family="Arial" font-size="13" fill="black" text-anchor="end" y="39" dominant-baseline="hanging">exon 4, 416 AA</text><rect height="3" fill="black" x="-193.48837209302326" width="193.48837209302326" y="31"/></g><g transform="translate(224.18604651162792,106)"><text font-family="Arial" font-size="13" fill="black" text-anchor="start" y="-13" dominant-baseline="auto">exon 14, 482 AA</text><rect height="3" fill="black" x="0" width="166.04651162790697" y="-8"/></g></g><g transform="translate(40,238)"/><text class="sja_svgtext" fill="black" font-size="12" text-anchor="end" x="489.1953125" y="291" style="display: none;">drag to resize</text><g transform="translate(0,259.525390625)" style="font-family: Arial;"><g><text transform="translate(10,30)" text-anchor="start" font-weight="700" font-size="12" dominant-baseline="central">KANK2 NM_015493</text><g transform="translate(10,50)"><text transform="translate(12.5,5)" font-size="12" dominant-baseline="central"><tspan dominant-baseline="central" font-weight="700" x="0">KN_motif</tspan><tspan dominant-baseline="central" x="63.3359375">KN motif</tspan></text><rect height="10" width="10" y="0.25" fill="#E8E89E" stroke="#aaa" shape-rendering="crispEdges"/></g><g transform="translate(10,75)"><text transform="translate(12.5,5)" font-size="12" dominant-baseline="central"><tspan dominant-baseline="central" font-weight="700" x="0">ANK repeat</tspan><tspan dominant-baseline="central" x="75.3515625">ANK repeat [structural motif]</tspan></text><rect height="10" width="10" y="0.25" fill="#a6d854" stroke="#aaa" shape-rendering="crispEdges"/></g><g transform="translate(10,100)"><text transform="translate(12.5,5)" font-size="12" dominant-baseline="central"><tspan dominant-baseline="central" font-weight="700" x="0">Ank_4</tspan><tspan dominant-baseline="central" x="46.0234375">Ankyrin repeats (many copies)</tspan></text><rect height="10" width="10" y="0.2373046875" fill="#80b1d3" stroke="#aaa" shape-rendering="crispEdges"/></g><g transform="translate(10,125)"><text transform="translate(12.5,5)" font-size="12" dominant-baseline="central"><tspan dominant-baseline="central" font-weight="700" x="0">ANK</tspan><tspan dominant-baseline="central" x="36">ankyrin repeats; ankyrin repeats mediate protein-protein interactions in very...</tspan></text><rect height="10" width="10" y="0.2373046875" fill="#fdb462" stroke="#aaa" shape-rendering="crispEdges"/></g><g transform="translate(10,150)"><text transform="translate(12.5,5)" font-size="12" dominant-baseline="central"><tspan dominant-baseline="central" font-weight="700" x="0">Ank_2</tspan><tspan dominant-baseline="central" x="46.0234375">Ankyrin repeats (3 copies)</tspan></text><rect height="10" width="10" y="0.2373046875" fill="#fb8072" stroke="#aaa" shape-rendering="crispEdges"/></g><g transform="translate(10,175)"><text transform="translate(12.5,5)" font-size="12" dominant-baseline="central"><tspan dominant-baseline="central" font-weight="700" x="0">other</tspan><tspan dominant-baseline="central" x="40">oligomer interface [polypeptide binding]</tspan></text><rect height="10" width="10" y="0.2373046875" fill="#bebada" stroke="#aaa" shape-rendering="crispEdges"/></g><g transform="translate(10,200)"><text transform="translate(12.5,5)" font-size="12" dominant-baseline="central"><tspan dominant-baseline="central" font-weight="700" x="0">Ank_5</tspan><tspan dominant-baseline="central" x="46.0234375">Ankyrin repeats (many copies)</tspan></text><rect height="10" width="10" y="0.2373046875" fill="#8dd3c7" stroke="#aaa" shape-rendering="crispEdges"/></g></g><g><text transform="translate(10,230)" text-anchor="start" font-weight="700" font-size="12" dominant-baseline="central">NTRK2 NM_006180</text><g transform="translate(10,250)"><text transform="translate(12.5,5)" font-size="12" dominant-baseline="central"><tspan dominant-baseline="central" font-weight="700" x="0">LRR_8</tspan><tspan dominant-baseline="central" x="48.015625">Leucine rich repeat</tspan></text><rect height="10" width="10" y="0.25" fill="#fb8072" stroke="#aaa" shape-rendering="crispEdges"/></g><g transform="translate(10,275)"><text transform="translate(12.5,5)" font-size="12" dominant-baseline="central"><tspan dominant-baseline="central" font-weight="700" x="0">TPKR_C2</tspan><tspan dominant-baseline="central" x="64.6796875">Tyrosine-protein kinase receptor C2 Ig-like domain</tspan></text><rect height="10" width="10" y="0.2373046875" fill="#ffd92f" stroke="#aaa" shape-rendering="crispEdges"/></g><g transform="translate(10,300)"><text transform="translate(12.5,5)" font-size="12" dominant-baseline="central"><tspan dominant-baseline="central" font-weight="700" x="0">Ig</tspan><tspan dominant-baseline="central" x="20.6640625">Immunoglobulin domain</tspan></text><rect height="10" width="10" y="0.2373046875" fill="#8dd3c7" stroke="#aaa" shape-rendering="crispEdges"/></g><g transform="translate(10,325)"><text transform="translate(12.5,5)" font-size="12" dominant-baseline="central"><tspan dominant-baseline="central" font-weight="700" x="0">Ig_TrkB_d5</tspan><tspan dominant-baseline="central" x="74.6953125">Fifth domain (immunoglobulin-like) of Trk receptor TrkB</tspan></text><rect height="10" width="10" y="0.2373046875" fill="#b3b3b3" stroke="#aaa" shape-rendering="crispEdges"/></g><g transform="translate(10,350)"><text transform="translate(12.5,5)" font-size="12" dominant-baseline="central"><tspan dominant-baseline="central" font-weight="700" x="0">other</tspan><tspan dominant-baseline="central" x="40">interdomain interaction [polypeptide binding]</tspan></text><rect height="10" width="10" y="0.2373046875" fill="#a6d854" stroke="#aaa" shape-rendering="crispEdges"/></g><g transform="translate(10,375)"><text transform="translate(12.5,5)" font-size="12" dominant-baseline="central"><tspan dominant-baseline="central" font-weight="700" x="0">other</tspan><tspan dominant-baseline="central" x="40">receptor binding site [polypeptide binding]</tspan></text><rect height="10" width="10" y="0.2373046875" fill="#E8E89E" stroke="#aaa" shape-rendering="crispEdges"/></g><g transform="translate(10,400)"><text transform="translate(12.5,5)" font-size="12" dominant-baseline="central"><tspan dominant-baseline="central" font-weight="700" x="0">PTKc_TrkB</tspan><tspan dominant-baseline="central" x="74.03125">Catalytic domain of the Protein Tyrosine Kinase, Tropomyosin Related Kinase B</tspan></text><rect height="10" width="10" y="0.2373046875" fill="#e5c494" stroke="#aaa" shape-rendering="crispEdges"/></g><g transform="translate(10,425)"><text transform="translate(12.5,5)" font-size="12" dominant-baseline="central"><tspan dominant-baseline="central" font-weight="700" x="0">Pkinase_Tyr</tspan><tspan dominant-baseline="central" x="79.8203125">Protein tyrosine kinase</tspan></text><rect height="10" width="10" y="0.2373046875" fill="#8dd3c7" stroke="#aaa" shape-rendering="crispEdges"/></g><g transform="translate(10,450)"><text transform="translate(12.5,5)" font-size="12" dominant-baseline="central"><tspan dominant-baseline="central" font-weight="700" x="0">other</tspan><tspan dominant-baseline="central" x="40">ATP binding site [chemical binding]</tspan></text><rect height="10" width="10" y="0.2373046875" fill="#80b1d3" stroke="#aaa" shape-rendering="crispEdges"/></g><g transform="translate(10,475)"><text transform="translate(12.5,5)" font-size="12" dominant-baseline="central"><tspan dominant-baseline="central" font-weight="700" x="0">other</tspan><tspan dominant-baseline="central" x="40">polypeptide substrate binding site [polypeptide binding]</tspan></text><rect height="10" width="10" y="0.2373046875" fill="#bebada" stroke="#aaa" shape-rendering="crispEdges"/></g><g transform="translate(10,500)"><text transform="translate(12.5,5)" font-size="12" dominant-baseline="central"><tspan dominant-baseline="central" font-weight="700" x="0">other</tspan><tspan dominant-baseline="central" x="40">activation loop (A-loop)</tspan></text><rect height="10" width="10" y="0.2373046875" fill="#fdb462" stroke="#aaa" shape-rendering="crispEdges"/></g></g></g></svg>