<svg xmlns="http://www.w3.org/2000/svg" width="1104.2874572191658" height="896.5"><g transform="translate(61.318707219165816,70)"><g transform="translate(0,0)"><line y1="-3" stroke="black" stroke-opacity="0" shape-rendering="crispEdges" y2="0"/><rect clip-path="url(#67156)" fill="white" x="0" width="400" height="26"/><rect clip-path="url(#67156)" fill="#b3b3b3" x="226.4073694984647" width="153.53121801432954" height="26"/><rect clip-path="url(#67156)" fill="#8dd3c7" x="241.14636642784032" width="137.15455475946774" height="26"/><rect clip-path="url(#67156)" fill="#bebada" x="127.32855680655067" width="40.94165813715455" height="26"/><rect clip-path="url(#67156)" fill="#fdb462" x="88.43398157625384" width="36.43807574206754" height="26"/><rect clip-path="url(#67156)" fill="#e5c494" x="90.07164790174002" width="35.61924257932445" height="26"/><rect clip-path="url(#67156)" fill="#E8E89E" x="174.4114636642784" width="32.343909928352105" height="26"/><rect clip-path="url(#67156)" fill="#ffd92f" x="331.21801432958034" width="10.23541453428868" height="26"/><rect clip-path="url(#67156)" fill="#fb8072" x="338.9969293756397" width="1.6376663254862365" height="26"/><rect clip-path="url(#67156)" fill="#a6d854" x="155.57830092118732" width="1.2282497441146063" height="26"/><rect clip-path="url(#67156)" fill="#80b1d3" x="244.83111566018425" width="1.2282497441146347" height="26"/><rect clip-path="url(#67156)" fill="#80b1d3" x="325.89559877175026" width="0.4094165813715449" height="26"/><rect clip-path="url(#67156)" fill="#80b1d3" x="243.60286591606962" width="0.4094165813715449" height="26"/><rect clip-path="url(#67156)" fill="#fb8072" x="344.3193449334698" width="0" height="26"/><rect clip-path="url(#67156)" fill="#fb8072" x="325.89559877175026" width="0" height="26"/><rect clip-path="url(#67156)" fill="#80b1d3" x="255.06653019447288" width="0" height="26"/><rect clip-path="url(#67156)" fill="#80b1d3" x="246.87819856704198" width="0" height="26"/><rect clip-path="url(#67156)" fill="#80b1d3" x="275.5373592630502" width="0" height="26"/><rect clip-path="url(#67156)" fill="#80b1d3" x="274.7185261003071" width="0" height="26"/><rect clip-path="url(#67156)" fill="#80b1d3" x="277.17502558853636" width="0" height="26"/><rect clip-path="url(#67156)" fill="#fb8072" x="358.6489252814739" width="0" height="26"/><rect clip-path="url(#67156)" fill="#80b1d3" x="327.1238485158649" width="0" height="26"/><rect clip-path="url(#67156)" fill="#a6d854" x="158.03480040941656" width="0" height="26"/><rect clip-path="url(#67156)" fill="#fb8072" x="324.2579324462641" width="0" height="26"/><rect clip-path="url(#67156)" fill="#80b1d3" x="331.6274309109519" width="0" height="26"/><rect clip-path="url(#67156)" fill="#80b1d3" x="254.24769703172979" width="0" height="26"/><line clip-path="url(#67156)" stroke="black" stroke-dasharray="3,2" shape-rendering="crispEdges" y1="0" y2="26" x1="9.143636983964516" x2="9.143636983964516"/><line clip-path="url(#67156)" stroke="black" stroke-dasharray="3,2" shape-rendering="crispEdges" y1="0" y2="26" x1="45.99112930740362" x2="45.99112930740362"/><line clip-path="url(#67156)" stroke="black" stroke-dasharray="3,2" shape-rendering="crispEdges" y1="0" y2="26" x1="84.4762879563289" x2="84.4762879563289"/><line clip-path="url(#67156)" stroke="black" stroke-dasharray="3,2" shape-rendering="crispEdges" y1="0" y2="26" x1="103.17297850562947" x2="103.17297850562947"/><line clip-path="url(#67156)" stroke="black" stroke-dasharray="3,2" shape-rendering="crispEdges" y1="0" y2="26" x1="126.23677925622654" x2="126.23677925622654"/><line clip-path="url(#67156)" stroke="black" stroke-dasharray="3,2" shape-rendering="crispEdges" y1="0" y2="26" x1="152.16649607642444" x2="152.16649607642444"/><line clip-path="url(#67156)" stroke="black" stroke-dasharray="3,2" shape-rendering="crispEdges" y1="0" y2="26" x1="167.9972705561242" x2="167.9972705561242"/><line clip-path="url(#67156)" stroke="black" stroke-dasharray="3,2" shape-rendering="crispEdges" y1="0" y2="26" x1="183.69157284203342" x2="183.69157284203342"/><line clip-path="url(#67156)" stroke="black" stroke-dasharray="3,2" shape-rendering="crispEdges" y1="0" y2="26" x1="210.16717843739337" x2="210.16717843739337"/><line clip-path="url(#67156)" stroke="black" stroke-dasharray="3,2" shape-rendering="crispEdges" y1="0" y2="26" x1="224.7697031729785" x2="224.7697031729785"/><line clip-path="url(#67156)" stroke="black" stroke-dasharray="3,2" shape-rendering="crispEdges" y1="0" y2="26" x1="242.10167178437393" x2="242.10167178437393"/><line clip-path="url(#67156)" stroke="black" stroke-dasharray="3,2" shape-rendering="crispEdges" y1="0" y2="26" x1="256.431252132378" x2="256.431252132378"/><line clip-path="url(#67156)" stroke="black" stroke-dasharray="3,2" shape-rendering="crispEdges" y1="0" y2="26" x1="271.5796656431252" x2="271.5796656431252"/><line clip-path="url(#67156)" stroke="black" stroke-dasharray="3,2" shape-rendering="crispEdges" y1="0" y2="26" x1="292.18696690549297" x2="292.18696690549297"/><line clip-path="url(#67156)" stroke="black" stroke-dasharray="3,2" shape-rendering="crispEdges" y1="0" y2="26" x1="304.7424087342204" x2="304.7424087342204"/><line clip-path="url(#67156)" stroke="black" stroke-dasharray="3,2" shape-rendering="crispEdges" y1="0" y2="26" x1="322.21084953940635" x2="322.21084953940635"/><line clip-path="url(#67156)" stroke="black" stroke-dasharray="3,2" shape-rendering="crispEdges" y1="0" y2="26" x1="338.9969293756397" x2="338.9969293756397"/><line clip-path="url(#67156)" stroke="black" stroke-dasharray="3,2" shape-rendering="crispEdges" y1="0" y2="26" x1="354.2818150801774" x2="354.2818150801774"/><line clip-path="url(#67156)" stroke="black" stroke-dasharray="3,2" shape-rendering="crispEdges" y1="0" y2="26" x1="367.92903445922894" x2="367.92903445922894"/><line clip-path="url(#67156)" stroke="black" stroke-dasharray="3,2" shape-rendering="crispEdges" y1="0" y2="26" x1="382.3950870010235" x2="382.3950870010235"/><rect clip-path="url(#67156)" stroke-dasharray="none" fill="none" stroke="black" x="0" width="400" height="26"/><text font-family="Arial" fill="black" font-size="15" dominant-baseline="central" x="405" y="13">KIT</text><text fill="#858585" fill-opacity="0" font-size="13" font-family="Arial" text-anchor="middle" dominant-baseline="auto" y="-24">ends at 411 AA</text><defs><clipPath id="67156"><rect x="0" y="0" height="26" width="428.3359375"/></clipPath></defs><rect clip-path="url(#67156)" fill="white" fill-opacity="0" width="400" height="26"/></g><g transform="translate(155.8665563243172,106)"><line y1="26" stroke="black" stroke-opacity="0" shape-rendering="crispEdges" y2="29"/><rect clip-path="url(#69892)" fill="white" x="0" width="101.94472876151484" height="26"/><rect clip-path="url(#69892)" fill="#8dd3c7" x="27.840327533265096" width="1.2282497441146347" height="26"/><rect clip-path="url(#69892)" fill="#bebada" x="16.37666325486182" width="2.865916069600818" height="26"/><rect clip-path="url(#69892)" fill="#fb8072" x="14.329580348004093" width="68.78198567041966" height="26"/><rect clip-path="url(#69892)" fill="#80b1d3" x="35.619242579324464" width="1.2282497441146347" height="26"/><rect clip-path="url(#69892)" fill="#E8E89E" x="17.60491299897646" width="2.047082906857728" height="26"/><rect clip-path="url(#69892)" fill="#a6d854" x="36.438075742067554" width="0.4094165813715449" height="26"/><rect clip-path="url(#69892)" fill="#fdb462" x="28.24974411463664" width="0.8188331627430898" height="26"/><rect clip-path="url(#69892)" fill="#a6d854" x="41.760491299897645" width="4.503582395087001" height="26"/><rect clip-path="url(#69892)" fill="#ffd92f" x="36.438075742067554" width="0.4094165813715449" height="26"/><rect clip-path="url(#69892)" fill="#e5c494" x="36.438075742067554" width="0.4094165813715449" height="26"/><rect clip-path="url(#69892)" fill="#E8E89E" x="63.45957011258955" width="0" height="26"/><rect clip-path="url(#69892)" fill="#e5c494" x="75.33265097236438" width="0" height="26"/><rect clip-path="url(#69892)" fill="#e5c494" x="25.383828045035823" width="0" height="26"/><rect clip-path="url(#69892)" fill="#fdb462" x="25.79324462640737" width="1.2282497441146383" height="26"/><rect clip-path="url(#69892)" fill="#b3b3b3" x="62.231320368474925" width="1.2282497441146276" height="26"/><rect clip-path="url(#69892)" fill="#E8E89E" x="62.231320368474925" width="0.4094165813715378" height="26"/><rect clip-path="url(#69892)" fill="#ffd92f" x="16.786079836233366" width="0.4094165813715449" height="26"/><rect clip-path="url(#69892)" fill="#E8E89E" x="74.51381780962129" width="0.8188331627430898" height="26"/><rect clip-path="url(#69892)" fill="#e5c494" x="34.39099283520982" width="0.409416581371552" height="26"/><rect clip-path="url(#69892)" fill="#e5c494" x="35.619242579324464" width="0" height="26"/><rect clip-path="url(#69892)" fill="#e5c494" x="19.24257932446264" width="0.40941658137154846" height="26"/><rect clip-path="url(#69892)" fill="#E8E89E" x="24.97441146366428" width="0" height="26"/><rect clip-path="url(#69892)" fill="#8dd3c7" x="26.61207778915046" width="0" height="26"/><rect clip-path="url(#69892)" fill="#e5c494" x="26.202661207778913" width="0" height="26"/><rect clip-path="url(#69892)" fill="#8dd3c7" x="25.79324462640737" width="0.4094165813715449" height="26"/><rect clip-path="url(#69892)" fill="#bebada" x="74.51381780962129" width="0.8188331627430898" height="26"/><rect clip-path="url(#69892)" fill="#e5c494" x="28.659160696008186" width="0.4094165813715449" height="26"/><line clip-path="url(#69892)" stroke="black" stroke-dasharray="3,2" shape-rendering="crispEdges" y1="0" y2="26" x1="19.379051518253156" x2="19.379051518253156"/><line clip-path="url(#69892)" stroke="black" stroke-dasharray="3,2" shape-rendering="crispEdges" y1="0" y2="26" x1="27.15796656431252" x2="27.15796656431252"/><line clip-path="url(#69892)" stroke="black" stroke-dasharray="3,2" shape-rendering="crispEdges" y1="0" y2="26" x1="37.66632548618219" x2="37.66632548618219"/><rect clip-path="url(#69892)" stroke-dasharray="none" fill="none" stroke="black" x="0" width="101.94472876151484" height="26"/><text font-family="Arial" fill="black" font-size="15" dominant-baseline="central" x="106.94472876151484" y="13">RASL11B</text><text fill="#858585" fill-opacity="0" font-size="13" font-family="Arial" text-anchor="middle" dominant-baseline="hanging" y="50">starts at 48 AA</text><defs><clipPath id="69892"><rect x="0" y="0" height="26" width="171.71035376151485"/></clipPath></defs><rect clip-path="url(#69892)" fill="white" fill-opacity="0" width="101.94472876151484" height="26"/></g><line stroke="black" stroke-dasharray="3,2" x1="168.2702149437052" y1="34" x2="175.51855223015139" y2="98"/><g transform="translate(168.2702149437052,0)"><text font-family="Arial" font-size="13" fill="black" text-anchor="end" y="39" dominant-baseline="hanging">exon 7, 411 AA</text><rect height="3" fill="black" x="-168.2702149437052" width="168.2702149437052" y="31"/></g><g transform="translate(175.51855223015139,106)"><text font-family="Arial" font-size="13" fill="black" text-anchor="start" y="-13" dominant-baseline="auto">exon 2, 48 AA</text><rect height="3" fill="black" x="0" width="82.29273285568065" y="-8"/></g></g><g transform="translate(61.318707219165816,238)"/><text class="sja_svgtext" fill="black" font-size="12" text-anchor="end" x="526.0843322191658" y="291" style="display: none;">drag to resize</text><g transform="translate(0,259.525390625)" style="font-family: Arial;"><g><text transform="translate(10,30)" text-anchor="start" font-weight="700" font-size="12" dominant-baseline="central">KIT NM_000222</text><g transform="translate(10,50)"><text transform="translate(12.5,5)" font-size="12" dominant-baseline="central"><tspan dominant-baseline="central" font-weight="700" x="0">ig</tspan><tspan dominant-baseline="central" x="20.6640625">Immunoglobulin domain</tspan></text><rect height="10" width="10" y="0.2373046875" fill="#fdb462" stroke="#aaa" shape-rendering="crispEdges"/></g><g transform="translate(10,75)"><text transform="translate(12.5,5)" font-size="12" dominant-baseline="central"><tspan dominant-baseline="central" font-weight="700" x="0">IG_like</tspan><tspan dominant-baseline="central" x="49.359375">Immunoglobulin like</tspan></text><rect height="10" width="10" y="0.2373046875" fill="#e5c494" stroke="#aaa" shape-rendering="crispEdges"/></g><g transform="translate(10,100)"><text transform="translate(12.5,5)" font-size="12" dominant-baseline="central"><tspan dominant-baseline="central" font-weight="700" x="0">Ig4_SCFR</tspan><tspan dominant-baseline="central" x="66.6796875">Fourth immunoglobulin (Ig)-like domain of stem cell factor receptor (SCFR)</tspan></text><rect height="10" width="10" y="0.2373046875" fill="#bebada" stroke="#aaa" shape-rendering="crispEdges"/></g><g transform="translate(10,125)"><text transform="translate(12.5,5)" font-size="12" dominant-baseline="central"><tspan dominant-baseline="central" font-weight="700" x="0">other</tspan><tspan dominant-baseline="central" x="40">dimerization interface [polypeptide binding]</tspan></text><rect height="10" width="10" y="0.2373046875" fill="#a6d854" stroke="#aaa" shape-rendering="crispEdges"/></g><g transform="translate(10,150)"><text transform="translate(12.5,5)" font-size="12" dominant-baseline="central"><tspan dominant-baseline="central" font-weight="700" x="0">Ig</tspan><tspan dominant-baseline="central" x="20.6640625">Immunoglobulin domain</tspan></text><rect height="10" width="10" y="0.2373046875" fill="#E8E89E" stroke="#aaa" shape-rendering="crispEdges"/></g><g transform="translate(10,175)"><text transform="translate(12.5,5)" font-size="12" dominant-baseline="central"><tspan dominant-baseline="central" font-weight="700" x="0">PTKc_Kit</tspan><tspan dominant-baseline="central" x="63.34375">Catalytic domain of the Protein Tyrosine Kinase, Kit</tspan></text><rect height="10" width="10" y="0.2373046875" fill="#b3b3b3" stroke="#aaa" shape-rendering="crispEdges"/></g><g transform="translate(10,200)"><text transform="translate(12.5,5)" font-size="12" dominant-baseline="central"><tspan dominant-baseline="central" font-weight="700" x="0">Pkinase_Tyr</tspan><tspan dominant-baseline="central" x="79.8203125">Protein tyrosine kinase</tspan></text><rect height="10" width="10" y="0.2373046875" fill="#8dd3c7" stroke="#aaa" shape-rendering="crispEdges"/></g><g transform="translate(10,225)"><text transform="translate(12.5,5)" font-size="12" dominant-baseline="central"><tspan dominant-baseline="central" font-weight="700" x="0">other</tspan><tspan dominant-baseline="central" x="40">ATP binding site [chemical binding]</tspan></text><rect height="10" width="10" y="0.2373046875" fill="#80b1d3" stroke="#aaa" shape-rendering="crispEdges"/></g><g transform="translate(10,250)"><text transform="translate(12.5,5)" font-size="12" dominant-baseline="central"><tspan dominant-baseline="central" font-weight="700" x="0">other</tspan><tspan dominant-baseline="central" x="40">polypeptide substrate binding site [polypeptide binding]</tspan></text><rect height="10" width="10" y="0.2373046875" fill="#fb8072" stroke="#aaa" shape-rendering="crispEdges"/></g><g transform="translate(10,275)"><text transform="translate(12.5,5)" font-size="12" dominant-baseline="central"><tspan dominant-baseline="central" font-weight="700" x="0">other</tspan><tspan dominant-baseline="central" x="40">activation loop (A-loop)</tspan></text><rect height="10" width="10" y="0.2373046875" fill="#ffd92f" stroke="#aaa" shape-rendering="crispEdges"/></g></g><g><text transform="translate(10,305)" text-anchor="start" font-weight="700" font-size="12" dominant-baseline="central">RASL11B NM_023940</text><g transform="translate(10,325)"><text transform="translate(12.5,5)" font-size="12" dominant-baseline="central"><tspan dominant-baseline="central" font-weight="700" x="0">RERG_RasL11_like</tspan><tspan dominant-baseline="central" x="120.0625">Ras-related and Estrogen-Regulated Growth inhibitor (RERG) and Ras-like 11 (R...</tspan></text><rect height="10" width="10" y="0.2373046875" fill="#fb8072" stroke="#aaa" shape-rendering="crispEdges"/></g><g transform="translate(10,350)"><text transform="translate(12.5,5)" font-size="12" dominant-baseline="central"><tspan dominant-baseline="central" font-weight="700" x="0">other</tspan><tspan dominant-baseline="central" x="40">G1 box</tspan></text><rect height="10" width="10" y="0.25" fill="#bebada" stroke="#aaa" shape-rendering="crispEdges"/></g><g transform="translate(10,375)"><text transform="translate(12.5,5)" font-size="12" dominant-baseline="central"><tspan dominant-baseline="central" font-weight="700" x="0">other</tspan><tspan dominant-baseline="central" x="40">putative GDI interaction site [polypeptide binding]</tspan></text><rect height="10" width="10" y="0.2373046875" fill="#ffd92f" stroke="#aaa" shape-rendering="crispEdges"/></g><g transform="translate(10,400)"><text transform="translate(12.5,5)" font-size="12" dominant-baseline="central"><tspan dominant-baseline="central" font-weight="700" x="0">other</tspan><tspan dominant-baseline="central" x="40">GTP/Mg2+ binding site [chemical binding]</tspan></text><rect height="10" width="10" y="0.2373046875" fill="#E8E89E" stroke="#aaa" shape-rendering="crispEdges"/></g><g transform="translate(10,425)"><text transform="translate(12.5,5)" font-size="12" dominant-baseline="central"><tspan dominant-baseline="central" font-weight="700" x="0">other</tspan><tspan dominant-baseline="central" x="40">putative GEF interaction site [polypeptide binding]</tspan></text><rect height="10" width="10" y="0.2373046875" fill="#e5c494" stroke="#aaa" shape-rendering="crispEdges"/></g><g transform="translate(10,450)"><text transform="translate(12.5,5)" font-size="12" dominant-baseline="central"><tspan dominant-baseline="central" font-weight="700" x="0">other</tspan><tspan dominant-baseline="central" x="40">putative effector interaction site</tspan></text><rect height="10" width="10" y="0.25" fill="#8dd3c7" stroke="#aaa" shape-rendering="crispEdges"/></g><g transform="translate(10,475)"><text transform="translate(12.5,5)" font-size="12" dominant-baseline="central"><tspan dominant-baseline="central" font-weight="700" x="0">other</tspan><tspan dominant-baseline="central" x="40">Switch I region</tspan></text><rect height="10" width="10" y="0.2373046875" fill="#fdb462" stroke="#aaa" shape-rendering="crispEdges"/></g><g transform="translate(10,500)"><text transform="translate(12.5,5)" font-size="12" dominant-baseline="central"><tspan dominant-baseline="central" font-weight="700" x="0">other</tspan><tspan dominant-baseline="central" x="40">G2 box</tspan></text><rect height="10" width="10" y="0.25" fill="#8dd3c7" stroke="#aaa" shape-rendering="crispEdges"/></g><g transform="translate(10,525)"><text transform="translate(12.5,5)" font-size="12" dominant-baseline="central"><tspan dominant-baseline="central" font-weight="700" x="0">other</tspan><tspan dominant-baseline="central" x="40">G3 box</tspan></text><rect height="10" width="10" y="0.25" fill="#80b1d3" stroke="#aaa" shape-rendering="crispEdges"/></g><g transform="translate(10,550)"><text transform="translate(12.5,5)" font-size="12" dominant-baseline="central"><tspan dominant-baseline="central" font-weight="700" x="0">other</tspan><tspan dominant-baseline="central" x="40">Switch II region</tspan></text><rect height="10" width="10" y="0.2373046875" fill="#a6d854" stroke="#aaa" shape-rendering="crispEdges"/></g><g transform="translate(10,575)"><text transform="translate(12.5,5)" font-size="12" dominant-baseline="central"><tspan dominant-baseline="central" font-weight="700" x="0">other</tspan><tspan dominant-baseline="central" x="40">G4 box</tspan></text><rect height="10" width="10" y="0.25" fill="#b3b3b3" stroke="#aaa" shape-rendering="crispEdges"/></g><g transform="translate(10,600)"><text transform="translate(12.5,5)" font-size="12" dominant-baseline="central"><tspan dominant-baseline="central" font-weight="700" x="0">other</tspan><tspan dominant-baseline="central" x="40">G5 box</tspan></text><rect height="10" width="10" y="0.25" fill="#bebada" stroke="#aaa" shape-rendering="crispEdges"/></g></g></g></svg>