<svg xmlns="http://www.w3.org/2000/svg" width="1052.1875" height="696.525390625"><g transform="translate(40,70)"><g transform="translate(93.87222946544978,0)"><line y1="-3" stroke="black" stroke-opacity="0" shape-rendering="crispEdges" y2="0"/><rect clip-path="url(#77752)" fill="white" x="0" width="306.1277705345502" height="26"/><rect clip-path="url(#77752)" fill="#80b1d3" x="19.295958279009128" width="270.14341590612776" height="26"/><rect clip-path="url(#77752)" fill="#8dd3c7" x="11.99478487614081" width="65.1890482398957" height="26"/><rect clip-path="url(#77752)" fill="#fb8072" x="73.01173402868318" width="50.58670143415907" height="26"/><rect clip-path="url(#77752)" fill="#bebada" x="219.03520208604957" width="25.03259452411993" height="26"/><rect clip-path="url(#77752)" fill="#bebada" x="194.00260756192964" width="22.946544980443264" height="26"/><rect clip-path="url(#77752)" fill="#bebada" x="245.632333767927" width="22.946544980443292" height="26"/><line clip-path="url(#77752)" stroke="black" stroke-dasharray="3,2" shape-rendering="crispEdges" y1="0" y2="26" x1="20.860495436766623" x2="20.860495436766623"/><line clip-path="url(#77752)" stroke="black" stroke-dasharray="3,2" shape-rendering="crispEdges" y1="0" y2="26" x1="38.765754019991306" x2="38.765754019991306"/><line clip-path="url(#77752)" stroke="black" stroke-dasharray="3,2" shape-rendering="crispEdges" y1="0" y2="26" x1="55.1064754454585" x2="55.1064754454585"/><line clip-path="url(#77752)" stroke="black" stroke-dasharray="3,2" shape-rendering="crispEdges" y1="0" y2="26" x1="76.83615819209041" x2="76.83615819209041"/><line clip-path="url(#77752)" stroke="black" stroke-dasharray="3,2" shape-rendering="crispEdges" y1="0" y2="26" x1="107.43155149934812" x2="107.43155149934812"/><line clip-path="url(#77752)" stroke="black" stroke-dasharray="3,2" shape-rendering="crispEdges" y1="0" y2="26" x1="137.85310734463278" x2="137.85310734463278"/><line clip-path="url(#77752)" stroke="black" stroke-dasharray="3,2" shape-rendering="crispEdges" y1="0" y2="26" x1="162.71186440677965" x2="162.71186440677965"/><line clip-path="url(#77752)" stroke="black" stroke-dasharray="3,2" shape-rendering="crispEdges" y1="0" y2="26" x1="204.60669274228596" x2="204.60669274228596"/><line clip-path="url(#77752)" stroke="black" stroke-dasharray="3,2" shape-rendering="crispEdges" y1="0" y2="26" x1="239.72186006084314" x2="239.72186006084314"/><line clip-path="url(#77752)" stroke="black" stroke-dasharray="3,2" shape-rendering="crispEdges" y1="0" y2="26" x1="256.75793133420257" x2="256.75793133420257"/><rect clip-path="url(#77752)" stroke-dasharray="none" fill="none" stroke="black" x="0" width="306.1277705345502" height="26"/><text font-family="Arial" fill="black" font-size="15" dominant-baseline="central" x="311.1277705345502" y="13">KLHL7</text><text fill="#858585" fill-opacity="0" font-size="13" font-family="Arial" text-anchor="middle" dominant-baseline="auto" y="-24">ends at 148 AA</text><defs><clipPath id="77752"><rect x="0" y="0" height="26" width="356.9949580345502"/></clipPath></defs><rect clip-path="url(#77752)" fill="white" fill-opacity="0" width="306.1277705345502" height="26"/></g><g transform="translate(0,106)"><line y1="26" stroke="black" stroke-opacity="0" shape-rendering="crispEdges" y2="29"/><rect clip-path="url(#33175)" fill="white" x="0" width="400" height="26"/><rect clip-path="url(#33175)" fill="#8dd3c7" x="85.00651890482399" width="0" height="26"/><rect clip-path="url(#33175)" fill="#8dd3c7" x="95.4367666232073" width="0" height="26"/><rect clip-path="url(#33175)" fill="#bebada" x="146.02346805736636" width="0" height="26"/><rect clip-path="url(#33175)" fill="#fb8072" x="300.3911342894394" width="0" height="26"/><rect clip-path="url(#33175)" fill="#fb8072" x="251.890482398957" width="0" height="26"/><rect clip-path="url(#33175)" fill="#80b1d3" x="81.35593220338984" width="37.02737940026074" height="26"/><rect clip-path="url(#33175)" fill="#8dd3c7" x="97.52281616688396" width="1.0430247718383328" height="26"/><rect clip-path="url(#33175)" fill="#E8E89E" x="319.1655801825293" width="3.1290743155150267" height="26"/><rect clip-path="url(#33175)" fill="#a6d854" x="279.5306388526727" width="0" height="26"/><rect clip-path="url(#33175)" fill="#fb8072" x="309.77835723598434" width="0" height="26"/><rect clip-path="url(#33175)" fill="#bebada" x="130.89960886571058" width="0" height="26"/><rect clip-path="url(#33175)" fill="#a6d854" x="311.34289439374186" width="0" height="26"/><rect clip-path="url(#33175)" fill="#fdb462" x="305.60625814863107" width="0" height="26"/><rect clip-path="url(#33175)" fill="#fdb462" x="294.65449804432853" width="0.5215123859191522" height="26"/><rect clip-path="url(#33175)" fill="#a6d854" x="320.7301173402868" width="1.5645371577575133" height="26"/><rect clip-path="url(#33175)" fill="#a6d854" x="301.4341590612777" width="0" height="26"/><rect clip-path="url(#33175)" fill="#bebada" x="129.33507170795306" width="0" height="26"/><rect clip-path="url(#33175)" fill="#fdb462" x="293.089960886571" width="0" height="26"/><rect clip-path="url(#33175)" fill="#fdb462" x="268.5788787483703" width="1.0430247718383043" height="26"/><rect clip-path="url(#33175)" fill="#8dd3c7" x="88.65710560625814" width="0" height="26"/><rect clip-path="url(#33175)" fill="#8dd3c7" x="82.39895697522816" width="0" height="26"/><rect clip-path="url(#33175)" fill="#fb8072" x="245.63233376792698" width="0" height="26"/><rect clip-path="url(#33175)" fill="#bebada" x="137.6792698826597" width="0" height="26"/><rect clip-path="url(#33175)" fill="#fdb462" x="248.76140808344198" width="0.5215123859191522" height="26"/><rect clip-path="url(#33175)" fill="#bebada" x="136.1147327249022" width="0" height="26"/><rect clip-path="url(#33175)" fill="#fdb462" x="296.7405475880052" width="0.5215123859191522" height="26"/><rect clip-path="url(#33175)" fill="#fb8072" x="304.04172099087356" width="0" height="26"/><rect clip-path="url(#33175)" fill="#fdb462" x="306.6492829204694" width="0" height="26"/><rect clip-path="url(#33175)" fill="#ffd92f" x="241.46023468057365" width="131.4211212516297" height="26"/><rect clip-path="url(#33175)" fill="#fb8072" x="301.4341590612777" width="0" height="26"/><rect clip-path="url(#33175)" fill="#bebada" x="122.55541069100391" width="0" height="26"/><rect clip-path="url(#33175)" fill="#fdb462" x="247.71838331160362" width="0" height="26"/><rect clip-path="url(#33175)" fill="#fb8072" x="302.47718383311604" width="0.5215123859191522" height="26"/><rect clip-path="url(#33175)" fill="#fb8072" x="241.46023468057365" width="2.0860495436766655" height="26"/><rect clip-path="url(#33175)" fill="#bebada" x="141.85136897001306" width="0" height="26"/><rect clip-path="url(#33175)" fill="#a6d854" x="300.3911342894394" width="0" height="26"/><rect clip-path="url(#33175)" fill="#fb8072" x="268.05736636245115" width="0" height="26"/><rect clip-path="url(#33175)" fill="#e5c494" x="128.81355932203388" width="0" height="26"/><rect clip-path="url(#33175)" fill="#fb8072" x="275.8800521512386" width="1.5645371577574565" height="26"/><rect clip-path="url(#33175)" fill="#fdb462" x="372.88135593220335" width="0" height="26"/><rect clip-path="url(#33175)" fill="#fb8072" x="279.5306388526727" width="0" height="26"/><rect clip-path="url(#33175)" fill="#a6d854" x="243.54628422425031" width="0" height="26"/><rect clip-path="url(#33175)" fill="#b3b3b3" x="122.55541069100391" width="23.468057366362444" height="26"/><rect clip-path="url(#33175)" fill="#E8E89E" x="309.2568448500652" width="6.779661016949149" height="26"/><rect clip-path="url(#33175)" fill="#a6d854" x="280.5736636245111" width="0" height="26"/><rect clip-path="url(#33175)" fill="#fdb462" x="263.3637548891786" width="3.1290743155150267" height="26"/><rect clip-path="url(#33175)" fill="#bebada" x="140.28683181225554" width="0" height="26"/><rect clip-path="url(#33175)" fill="#8dd3c7" x="86.04954367666232" width="1.564537157757485" height="26"/><rect clip-path="url(#33175)" fill="#e5c494" x="127.77053455019556" width="0" height="26"/><rect clip-path="url(#33175)" fill="#fb8072" x="250.84745762711864" width="0" height="26"/><rect clip-path="url(#33175)" fill="#a6d854" x="302.47718383311604" width="0" height="26"/><line clip-path="url(#33175)" stroke="black" stroke-dasharray="3,2" shape-rendering="crispEdges" y1="0" y2="26" x1="23.989569752281618" x2="23.989569752281618"/><line clip-path="url(#33175)" stroke="black" stroke-dasharray="3,2" shape-rendering="crispEdges" y1="0" y2="26" x1="41.720990873533246" x2="41.720990873533246"/><line clip-path="url(#33175)" stroke="black" stroke-dasharray="3,2" shape-rendering="crispEdges" y1="0" y2="26" x1="87.61408083441981" x2="87.61408083441981"/><line clip-path="url(#33175)" stroke="black" stroke-dasharray="3,2" shape-rendering="crispEdges" y1="0" y2="26" x1="105.69317687961754" x2="105.69317687961754"/><line clip-path="url(#33175)" stroke="black" stroke-dasharray="3,2" shape-rendering="crispEdges" y1="0" y2="26" x1="123.59843546284223" x2="123.59843546284223"/><line clip-path="url(#33175)" stroke="black" stroke-dasharray="3,2" shape-rendering="crispEdges" y1="0" y2="26" x1="149.5002172968275" x2="149.5002172968275"/><line clip-path="url(#33175)" stroke="black" stroke-dasharray="3,2" shape-rendering="crispEdges" y1="0" y2="26" x1="170.3607127335941" x2="170.3607127335941"/><line clip-path="url(#33175)" stroke="black" stroke-dasharray="3,2" shape-rendering="crispEdges" y1="0" y2="26" x1="198.1747066492829" x2="198.1747066492829"/><line clip-path="url(#33175)" stroke="black" stroke-dasharray="3,2" shape-rendering="crispEdges" y1="0" y2="26" x1="204.60669274228596" x2="204.60669274228596"/><line clip-path="url(#33175)" stroke="black" stroke-dasharray="3,2" shape-rendering="crispEdges" y1="0" y2="26" x1="228.42242503259453" x2="228.42242503259453"/><line clip-path="url(#33175)" stroke="black" stroke-dasharray="3,2" shape-rendering="crispEdges" y1="0" y2="26" x1="248.93524554541503" x2="248.93524554541503"/><line clip-path="url(#33175)" stroke="black" stroke-dasharray="3,2" shape-rendering="crispEdges" y1="0" y2="26" x1="263.7114298131247" x2="263.7114298131247"/><line clip-path="url(#33175)" stroke="black" stroke-dasharray="3,2" shape-rendering="crispEdges" y1="0" y2="26" x1="294.4806605823555" x2="294.4806605823555"/><line clip-path="url(#33175)" stroke="black" stroke-dasharray="3,2" shape-rendering="crispEdges" y1="0" y2="26" x1="302.6510212950891" x2="302.6510212950891"/><line clip-path="url(#33175)" stroke="black" stroke-dasharray="3,2" shape-rendering="crispEdges" y1="0" y2="26" x1="323.33767926988264" x2="323.33767926988264"/><line clip-path="url(#33175)" stroke="black" stroke-dasharray="3,2" shape-rendering="crispEdges" y1="0" y2="26" x1="346.28422425032596" x2="346.28422425032596"/><line clip-path="url(#33175)" stroke="black" stroke-dasharray="3,2" shape-rendering="crispEdges" y1="0" y2="26" x1="369.7522816166884" x2="369.7522816166884"/><rect clip-path="url(#33175)" stroke-dasharray="none" fill="none" stroke="black" x="0" width="400" height="26"/><text font-family="Arial" fill="black" font-size="15" dominant-baseline="central" x="405" y="13">BRAF</text><text fill="#858585" fill-opacity="0" font-size="13" font-family="Arial" text-anchor="middle" dominant-baseline="hanging" y="50">starts at 393 AA</text><defs><clipPath id="33175"><rect x="0" y="0" height="26" width="445.0078125"/></clipPath></defs><rect clip-path="url(#33175)" fill="white" fill-opacity="0" width="400" height="26"/></g><line stroke="black" stroke-dasharray="3,2" x1="171.0560625814863" y1="34" x2="204.9543676662321" y2="98"/><g transform="translate(171.0560625814863,0)"><text font-family="Arial" font-size="13" fill="black" text-anchor="end" y="39" dominant-baseline="hanging">intron 4, 148 AA</text><rect height="3" fill="black" x="-77.18383311603651" width="77.18383311603651" y="31"/></g><g transform="translate(204.9543676662321,106)"><text font-family="Arial" font-size="13" fill="black" text-anchor="start" y="-13" dominant-baseline="auto">exon 10, 393 AA</text><rect height="3" fill="black" x="0" width="195.0456323337679" y="-8"/></g></g><g transform="translate(40,238)"/><text class="sja_svgtext" fill="black" font-size="12" text-anchor="end" x="485.8671875" y="291" style="display: none;">drag to resize</text><g transform="translate(0,259.525390625)" style="font-family: Arial;"><g><text transform="translate(10,30)" text-anchor="start" font-weight="700" font-size="12" dominant-baseline="central">KLHL7 NM_001031710</text><g transform="translate(10,50)"><text transform="translate(12.5,5)" font-size="12" dominant-baseline="central"><tspan dominant-baseline="central" font-weight="700" x="0">BTB_POZ_KLHL7</tspan><tspan dominant-baseline="central" x="111.34375">BTB (Broad-Complex, Tramtrack and Bric a brac)/POZ (poxvirus and zinc finger)...</tspan></text><rect height="10" width="10" y="0.2373046875" fill="#8dd3c7" stroke="#aaa" shape-rendering="crispEdges"/></g><g transform="translate(10,75)"><text transform="translate(12.5,5)" font-size="12" dominant-baseline="central"><tspan dominant-baseline="central" font-weight="700" x="0">PHA03098</tspan><tspan dominant-baseline="central" x="68.7109375">kelch-like protein</tspan></text><rect height="10" width="10" y="0.25" fill="#80b1d3" stroke="#aaa" shape-rendering="crispEdges"/></g><g transform="translate(10,100)"><text transform="translate(12.5,5)" font-size="12" dominant-baseline="central"><tspan dominant-baseline="central" font-weight="700" x="0">BACK_KLHL7</tspan><tspan dominant-baseline="central" x="90.0078125">BACK (BTB and C-terminal Kelch) domain found in Kelch-like protein 7 (KLHL7)</tspan></text><rect height="10" width="10" y="0.2373046875" fill="#fb8072" stroke="#aaa" shape-rendering="crispEdges"/></g><g transform="translate(10,125)"><text transform="translate(12.5,5)" font-size="12" dominant-baseline="central"><tspan dominant-baseline="central" font-weight="700" x="0">KELCH repeat</tspan><tspan dominant-baseline="central" x="90.6875">KELCH repeat [structural motif]</tspan></text><rect height="10" width="10" y="0.25" fill="#bebada" stroke="#aaa" shape-rendering="crispEdges"/></g></g><g><text transform="translate(10,155)" text-anchor="start" font-weight="700" font-size="12" dominant-baseline="central">BRAF NM_004333</text><g transform="translate(10,175)"><text transform="translate(12.5,5)" font-size="12" dominant-baseline="central"><tspan dominant-baseline="central" font-weight="700" x="0">Raf_RBD</tspan><tspan dominant-baseline="central" x="62.0078125">Ubiquitin domain of Raf serine/threonine kinases</tspan></text><rect height="10" width="10" y="0.25" fill="#80b1d3" stroke="#aaa" shape-rendering="crispEdges"/></g><g transform="translate(10,200)"><text transform="translate(12.5,5)" font-size="12" dominant-baseline="central"><tspan dominant-baseline="central" font-weight="700" x="0">other</tspan><tspan dominant-baseline="central" x="40">RafRBD - Ras interaction site [polypeptide binding]</tspan></text><rect height="10" width="10" y="0.2373046875" fill="#8dd3c7" stroke="#aaa" shape-rendering="crispEdges"/></g><g transform="translate(10,225)"><text transform="translate(12.5,5)" font-size="12" dominant-baseline="central"><tspan dominant-baseline="central" font-weight="700" x="0">other</tspan><tspan dominant-baseline="central" x="40">zinc binding sites [ion binding]</tspan></text><rect height="10" width="10" y="0.2373046875" fill="#bebada" stroke="#aaa" shape-rendering="crispEdges"/></g><g transform="translate(10,250)"><text transform="translate(12.5,5)" font-size="12" dominant-baseline="central"><tspan dominant-baseline="central" font-weight="700" x="0">C1_1</tspan><tspan dominant-baseline="central" x="38.6875">Phorbol esters/diacylglycerol binding domain (C1 domain)</tspan></text><rect height="10" width="10" y="0.2373046875" fill="#b3b3b3" stroke="#aaa" shape-rendering="crispEdges"/></g><g transform="translate(10,275)"><text transform="translate(12.5,5)" font-size="12" dominant-baseline="central"><tspan dominant-baseline="central" font-weight="700" x="0">other</tspan><tspan dominant-baseline="central" x="40">putative RAS interaction site [polypeptide binding]</tspan></text><rect height="10" width="10" y="0.2373046875" fill="#e5c494" stroke="#aaa" shape-rendering="crispEdges"/></g><g transform="translate(10,300)"><text transform="translate(12.5,5)" font-size="12" dominant-baseline="central"><tspan dominant-baseline="central" font-weight="700" x="0">other</tspan><tspan dominant-baseline="central" x="40">ATP binding site [chemical binding]</tspan></text><rect height="10" width="10" y="0.2373046875" fill="#fb8072" stroke="#aaa" shape-rendering="crispEdges"/></g><g transform="translate(10,325)"><text transform="translate(12.5,5)" font-size="12" dominant-baseline="central"><tspan dominant-baseline="central" font-weight="700" x="0">STKc_Raf</tspan><tspan dominant-baseline="central" x="66.6875">Catalytic domain of the Serine/Threonine Kinases, Raf (Rapidly Accelerated Fi...</tspan></text><rect height="10" width="10" y="0.2373046875" fill="#ffd92f" stroke="#aaa" shape-rendering="crispEdges"/></g><g transform="translate(10,350)"><text transform="translate(12.5,5)" font-size="12" dominant-baseline="central"><tspan dominant-baseline="central" font-weight="700" x="0">other</tspan><tspan dominant-baseline="central" x="40">polypeptide substrate binding site [polypeptide binding]</tspan></text><rect height="10" width="10" y="0.2373046875" fill="#a6d854" stroke="#aaa" shape-rendering="crispEdges"/></g><g transform="translate(10,375)"><text transform="translate(12.5,5)" font-size="12" dominant-baseline="central"><tspan dominant-baseline="central" font-weight="700" x="0">other</tspan><tspan dominant-baseline="central" x="40">dimer interface [polypeptide binding]</tspan></text><rect height="10" width="10" y="0.2373046875" fill="#fdb462" stroke="#aaa" shape-rendering="crispEdges"/></g><g transform="translate(10,400)"><text transform="translate(12.5,5)" font-size="12" dominant-baseline="central"><tspan dominant-baseline="central" font-weight="700" x="0">other</tspan><tspan dominant-baseline="central" x="40">activation loop (A-loop)</tspan></text><rect height="10" width="10" y="0.2373046875" fill="#E8E89E" stroke="#aaa" shape-rendering="crispEdges"/></g></g></g></svg>