<svg xmlns="http://www.w3.org/2000/svg" width="1027.0703125" height="871.525390625"><g transform="translate(40,70)"><g transform="translate(0,0)"><line y1="-3" stroke="black" stroke-opacity="0" shape-rendering="crispEdges" y2="0"/><rect clip-path="url(#22506)" fill="white" x="0" width="400" height="26"/><rect clip-path="url(#22506)" fill="#bebada" x="45.12489927477841" width="29.65350523771152" height="26"/><rect clip-path="url(#22506)" fill="#8dd3c7" x="265.914585012087" width="29.331184528605945" height="26"/><rect clip-path="url(#22506)" fill="#8dd3c7" x="202.4174053182917" width="29.00886381950039" height="26"/><rect clip-path="url(#22506)" fill="#8dd3c7" x="234.97179693795326" width="29.00886381950042" height="26"/><rect clip-path="url(#22506)" fill="#e5c494" x="364.86704270749397" width="27.074939564867066" height="26"/><rect clip-path="url(#22506)" fill="#a6d854" x="170.1853344077357" width="26.107977437550375" height="26"/><rect clip-path="url(#22506)" fill="#b3b3b3" x="19.016921837228043" width="24.496373892022564" height="26"/><rect clip-path="url(#22506)" fill="#bebada" x="113.13456889605158" width="24.174053182916992" height="26"/><rect clip-path="url(#22506)" fill="#bebada" x="326.8331990330379" width="23.2070910556003" height="26"/><rect clip-path="url(#22506)" fill="#80b1d3" x="85.09266720386785" width="22.562449637389207" height="26"/><rect clip-path="url(#22506)" fill="#bebada" x="144.72199838839646" width="21.273166800966948" height="26"/><rect clip-path="url(#22506)" fill="#fdb462" x="229.81466559226428" width="0.32232070910558264" height="26"/><rect clip-path="url(#22506)" fill="#fdb462" x="293.63416599516523" width="0.3223207091055542" height="26"/><rect clip-path="url(#22506)" fill="#fdb462" x="260.7574536663981" width="0.3223207091055542" height="26"/><rect clip-path="url(#22506)" fill="#fdb462" x="261.72441579371474" width="0.3223207091055542" height="26"/><rect clip-path="url(#22506)" fill="#fdb462" x="228.8477034649476" width="0.3223207091055542" height="26"/><rect clip-path="url(#22506)" fill="#fdb462" x="292.6672038678485" width="0.3223207091055542" height="26"/><rect clip-path="url(#22506)" fill="#ffd92f" x="265.914585012087" width="0" height="26"/><rect clip-path="url(#22506)" fill="#ffd92f" x="223.69057211925866" width="0" height="26"/><rect clip-path="url(#22506)" fill="#ffd92f" x="202.4174053182917" width="0" height="26"/><rect clip-path="url(#22506)" fill="#ffd92f" x="287.51007252215953" width="0" height="26"/><rect clip-path="url(#22506)" fill="#ffd92f" x="228.52538275584203" width="0" height="26"/><rect clip-path="url(#22506)" fill="#ffd92f" x="292.34488315874296" width="0" height="26"/><line clip-path="url(#22506)" stroke="black" stroke-dasharray="3,2" shape-rendering="crispEdges" y1="0" y2="26" x1="9.77706150953532" x2="9.77706150953532"/><line clip-path="url(#22506)" stroke="black" stroke-dasharray="3,2" shape-rendering="crispEdges" y1="0" y2="26" x1="11.710985764168681" x2="11.710985764168681"/><line clip-path="url(#22506)" stroke="black" stroke-dasharray="3,2" shape-rendering="crispEdges" y1="0" y2="26" x1="23.099650819231805" x2="23.099650819231805"/><line clip-path="url(#22506)" stroke="black" stroke-dasharray="3,2" shape-rendering="crispEdges" y1="0" y2="26" x1="44.26537738383025" x2="44.26537738383025"/><line clip-path="url(#22506)" stroke="black" stroke-dasharray="3,2" shape-rendering="crispEdges" y1="0" y2="26" x1="57.48052645715821" x2="57.48052645715821"/><line clip-path="url(#22506)" stroke="black" stroke-dasharray="3,2" shape-rendering="crispEdges" y1="0" y2="26" x1="75.85280687617512" x2="75.85280687617512"/><line clip-path="url(#22506)" stroke="black" stroke-dasharray="3,2" shape-rendering="crispEdges" y1="0" y2="26" x1="87.88611334944937" x2="87.88611334944937"/><line clip-path="url(#22506)" stroke="black" stroke-dasharray="3,2" shape-rendering="crispEdges" y1="0" y2="26" x1="107.76255707762556" x2="107.76255707762556"/><line clip-path="url(#22506)" stroke="black" stroke-dasharray="3,2" shape-rendering="crispEdges" y1="0" y2="26" x1="121.9446682782702" x2="121.9446682782702"/><line clip-path="url(#22506)" stroke="black" stroke-dasharray="3,2" shape-rendering="crispEdges" y1="0" y2="26" x1="137.4160623153371" x2="137.4160623153371"/><line clip-path="url(#22506)" stroke="black" stroke-dasharray="3,2" shape-rendering="crispEdges" y1="0" y2="26" x1="149.44936878861134" x2="149.44936878861134"/><line clip-path="url(#22506)" stroke="black" stroke-dasharray="3,2" shape-rendering="crispEdges" y1="0" y2="26" x1="167.3918882621542" x2="167.3918882621542"/><line clip-path="url(#22506)" stroke="black" stroke-dasharray="3,2" shape-rendering="crispEdges" y1="0" y2="26" x1="183.29304324469513" x2="183.29304324469513"/><line clip-path="url(#22506)" stroke="black" stroke-dasharray="3,2" shape-rendering="crispEdges" y1="0" y2="26" x1="196.72307279076017" x2="196.72307279076017"/><line clip-path="url(#22506)" stroke="black" stroke-dasharray="3,2" shape-rendering="crispEdges" y1="0" y2="26" x1="201.55788342734354" x2="201.55788342734354"/><line clip-path="url(#22506)" stroke="black" stroke-dasharray="3,2" shape-rendering="crispEdges" y1="0" y2="26" x1="212.51678753693258" x2="212.51678753693258"/><line clip-path="url(#22506)" stroke="black" stroke-dasharray="3,2" shape-rendering="crispEdges" y1="0" y2="26" x1="233.7899543378996" x2="233.7899543378996"/><line clip-path="url(#22506)" stroke="black" stroke-dasharray="3,2" shape-rendering="crispEdges" y1="0" y2="26" x1="241.41821112006446" x2="241.41821112006446"/><line clip-path="url(#22506)" stroke="black" stroke-dasharray="3,2" shape-rendering="crispEdges" y1="0" y2="26" x1="265.37738383024447" x2="265.37738383024447"/><line clip-path="url(#22506)" stroke="black" stroke-dasharray="3,2" shape-rendering="crispEdges" y1="0" y2="26" x1="278.5925329035724" x2="278.5925329035724"/><line clip-path="url(#22506)" stroke="black" stroke-dasharray="3,2" shape-rendering="crispEdges" y1="0" y2="26" x1="297.2871340316949" x2="297.2871340316949"/><line clip-path="url(#22506)" stroke="black" stroke-dasharray="3,2" shape-rendering="crispEdges" y1="0" y2="26" x1="298.8987375772227" x2="298.8987375772227"/><line clip-path="url(#22506)" stroke="black" stroke-dasharray="3,2" shape-rendering="crispEdges" y1="0" y2="26" x1="324.3620735965619" x2="324.3620735965619"/><line clip-path="url(#22506)" stroke="black" stroke-dasharray="3,2" shape-rendering="crispEdges" y1="0" y2="26" x1="336.9325812516787" x2="336.9325812516787"/><line clip-path="url(#22506)" stroke="black" stroke-dasharray="3,2" shape-rendering="crispEdges" y1="0" y2="26" x1="353.3709374160623" x2="353.3709374160623"/><line clip-path="url(#22506)" stroke="black" stroke-dasharray="3,2" shape-rendering="crispEdges" y1="0" y2="26" x1="367.553048616707" x2="367.553048616707"/><line clip-path="url(#22506)" stroke="black" stroke-dasharray="3,2" shape-rendering="crispEdges" y1="0" y2="26" x1="375.07386516250335" x2="375.07386516250335"/><rect clip-path="url(#22506)" stroke-dasharray="none" fill="none" stroke="black" x="0" width="400" height="26"/><text font-family="Arial" fill="black" font-size="15" dominant-baseline="central" x="405" y="13">NFASC</text><text fill="#858585" fill-opacity="0" font-size="13" font-family="Arial" text-anchor="middle" dominant-baseline="auto" y="-24">ends at 824 AA</text><defs><clipPath id="22506"><rect x="0" y="0" height="26" width="455.015625"/></clipPath></defs><rect clip-path="url(#22506)" fill="white" fill-opacity="0" width="400" height="26"/></g><g transform="translate(123.9756019613997,106)"><line y1="26" stroke="black" stroke-opacity="0" shape-rendering="crispEdges" y2="29"/><rect clip-path="url(#59998)" fill="white" x="0" width="254.955680902498" height="26"/><rect clip-path="url(#59998)" fill="#8dd3c7" x="62.85253827558421" width="28.041901692183714" height="26"/><rect clip-path="url(#59998)" fill="#bebada" x="37.711522965350525" width="7.091055600322321" height="26"/><rect clip-path="url(#59998)" fill="#fb8072" x="173.4085414987913" width="0" height="26"/><rect clip-path="url(#59998)" fill="#fb8072" x="189.84689766317484" width="0.32232070910558264" height="26"/><rect clip-path="url(#59998)" fill="#fb8072" x="208.8638195004029" width="0.3223207091055542" height="26"/><rect clip-path="url(#59998)" fill="#fb8072" x="172.76390008058019" width="0" height="26"/><rect clip-path="url(#59998)" fill="#80b1d3" x="99.27477840451249" width="0" height="26"/><rect clip-path="url(#59998)" fill="#E8E89E" x="223.3682514101531" width="0" height="26"/><rect clip-path="url(#59998)" fill="#fb8072" x="166.9621273166801" width="0" height="26"/><rect clip-path="url(#59998)" fill="#a6d854" x="48.67042707493956" width="13.215149073327964" height="26"/><rect clip-path="url(#59998)" fill="#fdb462" x="96.37389202256244" width="25.78565672844482" height="26"/><rect clip-path="url(#59998)" fill="#E8E89E" x="219.17808219178085" width="1.2892828364222169" height="26"/><rect clip-path="url(#59998)" fill="#fb8072" x="164.3835616438356" width="0.32232070910558264" height="26"/><rect clip-path="url(#59998)" fill="#ffd92f" x="107.3327961321515" width="0" height="26"/><rect clip-path="url(#59998)" fill="#fb8072" x="213.37630942788076" width="0" height="26"/><rect clip-path="url(#59998)" fill="#e5c494" x="162.44963738920225" width="87.34891216760678" height="26"/><rect clip-path="url(#59998)" fill="#fb8072" x="209.83078162771957" width="0" height="26"/><rect clip-path="url(#59998)" fill="#b3b3b3" x="160.5157131345689" width="89.92747784045125" height="26"/><rect clip-path="url(#59998)" fill="#fb8072" x="165.3505237711523" width="0.32232070910558264" height="26"/><rect clip-path="url(#59998)" fill="#8dd3c7" x="213.05398871877517" width="8.058017727639026" height="26"/><rect clip-path="url(#59998)" fill="#ffd92f" x="112.48992747784045" width="0.3223207091055684" height="26"/><rect clip-path="url(#59998)" fill="#E8E89E" x="207.57453666398067" width="0" height="26"/><rect clip-path="url(#59998)" fill="#ffd92f" x="113.7792103142627" width="0" height="26"/><rect clip-path="url(#59998)" fill="#bebada" x="29.653505237711524" width="18.694601128122482" height="26"/><rect clip-path="url(#59998)" fill="#80b1d3" x="90.57211925866237" width="0.3223207091055542" height="26"/><rect clip-path="url(#59998)" fill="#bebada" x="21.91780821917808" width="7.735697018533443" height="26"/><rect clip-path="url(#59998)" fill="#E8E89E" x="234.32715551974215" width="0" height="26"/><rect clip-path="url(#59998)" fill="#bebada" x="29.975825946817082" width="7.413376309427882" height="26"/><rect clip-path="url(#59998)" fill="#E8E89E" x="208.8638195004029" width="0" height="26"/><rect clip-path="url(#59998)" fill="#fb8072" x="187.91297340854152" width="0.9669621273166626" height="26"/><rect clip-path="url(#59998)" fill="#bebada" x="45.12489927477841" width="3.8678485092667216" height="26"/><line clip-path="url(#59998)" stroke="black" stroke-dasharray="3,2" shape-rendering="crispEdges" y1="0" y2="26" x1="22.777330110126243" x2="22.777330110126243"/><line clip-path="url(#59998)" stroke="black" stroke-dasharray="3,2" shape-rendering="crispEdges" y1="0" y2="26" x1="30.835347837765248" x2="30.835347837765248"/><line clip-path="url(#59998)" stroke="black" stroke-dasharray="3,2" shape-rendering="crispEdges" y1="0" y2="26" x1="38.571044856298684" x2="38.571044856298684"/><line clip-path="url(#59998)" stroke="black" stroke-dasharray="3,2" shape-rendering="crispEdges" y1="0" y2="26" x1="45.98442116572656" x2="45.98442116572656"/><line clip-path="url(#59998)" stroke="black" stroke-dasharray="3,2" shape-rendering="crispEdges" y1="0" y2="26" x1="61.670695675530496" x2="61.670695675530496"/><line clip-path="url(#59998)" stroke="black" stroke-dasharray="3,2" shape-rendering="crispEdges" y1="0" y2="26" x1="77.03464947622885" x2="77.03464947622885"/><line clip-path="url(#59998)" stroke="black" stroke-dasharray="3,2" shape-rendering="crispEdges" y1="0" y2="26" x1="91.32420091324201" x2="91.32420091324201"/><line clip-path="url(#59998)" stroke="black" stroke-dasharray="3,2" shape-rendering="crispEdges" y1="0" y2="26" x1="126.45715820574806" x2="126.45715820574806"/><line clip-path="url(#59998)" stroke="black" stroke-dasharray="3,2" shape-rendering="crispEdges" y1="0" y2="26" x1="132.4738114423852" x2="132.4738114423852"/><line clip-path="url(#59998)" stroke="black" stroke-dasharray="3,2" shape-rendering="crispEdges" y1="0" y2="26" x1="143.54015578834273" x2="143.54015578834273"/><line clip-path="url(#59998)" stroke="black" stroke-dasharray="3,2" shape-rendering="crispEdges" y1="0" y2="26" x1="159.33387053451517" x2="159.33387053451517"/><line clip-path="url(#59998)" stroke="black" stroke-dasharray="3,2" shape-rendering="crispEdges" y1="0" y2="26" x1="173.4085414987913" x2="173.4085414987913"/><line clip-path="url(#59998)" stroke="black" stroke-dasharray="3,2" shape-rendering="crispEdges" y1="0" y2="26" x1="191.99570239054523" x2="191.99570239054523"/><line clip-path="url(#59998)" stroke="black" stroke-dasharray="3,2" shape-rendering="crispEdges" y1="0" y2="26" x1="217.88879935535857" x2="217.88879935535857"/><line clip-path="url(#59998)" stroke="black" stroke-dasharray="3,2" shape-rendering="crispEdges" y1="0" y2="26" x1="234.9717969379533" x2="234.9717969379533"/><rect clip-path="url(#59998)" stroke-dasharray="none" fill="none" stroke="black" x="0" width="254.955680902498" height="26"/><text font-family="Arial" fill="black" font-size="15" dominant-baseline="central" x="259.955680902498" y="13">NTRK1</text><text fill="#858585" fill-opacity="0" font-size="13" font-family="Arial" text-anchor="middle" dominant-baseline="hanging" y="50">starts at 393 AA</text><defs><clipPath id="59998"><rect x="0" y="0" height="26" width="309.135368402498"/></clipPath></defs><rect clip-path="url(#59998)" fill="white" fill-opacity="0" width="254.955680902498" height="26"/></g><line stroke="black" stroke-dasharray="3,2" x1="265.59226430298145" y1="34" x2="250.6476406398848" y2="98"/><g transform="translate(265.59226430298145,0)"><text font-family="Arial" font-size="13" fill="black" text-anchor="start" y="39" dominant-baseline="hanging">exon 21, 824 AA</text><rect height="3" fill="black" x="-265.59226430298145" width="265.59226430298145" y="31"/></g><g transform="translate(250.6476406398848,106)"><text font-family="Arial" font-size="13" fill="black" text-anchor="end" y="-13" dominant-baseline="auto">exon 9, 393 AA</text><rect height="3" fill="black" x="0" width="128.2836422240129" y="-8"/></g></g><g transform="translate(40,238)"/><text class="sja_svgtext" fill="black" font-size="12" text-anchor="end" x="490.015625" y="291" style="display: none;">drag to resize</text><g transform="translate(0,259.525390625)" style="font-family: Arial;"><g><text transform="translate(10,30)" text-anchor="start" font-weight="700" font-size="12" dominant-baseline="central">NFASC NM_001005388</text><g transform="translate(10,50)"><text transform="translate(12.5,5)" font-size="12" dominant-baseline="central"><tspan dominant-baseline="central" font-weight="700" x="0">Ig_hNeurofascin_like</tspan><tspan dominant-baseline="central" x="130.7109375">Immunoglobulin (Ig)-like domain of human neurofascin (NF)</tspan></text><rect height="10" width="10" y="0.2373046875" fill="#b3b3b3" stroke="#aaa" shape-rendering="crispEdges"/></g><g transform="translate(10,75)"><text transform="translate(12.5,5)" font-size="12" dominant-baseline="central"><tspan dominant-baseline="central" font-weight="700" x="0">Ig</tspan><tspan dominant-baseline="central" x="20.6640625">Immunoglobulin domain</tspan></text><rect height="10" width="10" y="0.2373046875" fill="#bebada" stroke="#aaa" shape-rendering="crispEdges"/></g><g transform="translate(10,100)"><text transform="translate(12.5,5)" font-size="12" dominant-baseline="central"><tspan dominant-baseline="central" font-weight="700" x="0">Ig3_L1-CAM_like</tspan><tspan dominant-baseline="central" x="106.03125">Third immunoglobulin (Ig)-like domain of the L1 cell adhesion molecule (CAM)</tspan></text><rect height="10" width="10" y="0.2373046875" fill="#80b1d3" stroke="#aaa" shape-rendering="crispEdges"/></g><g transform="translate(10,125)"><text transform="translate(12.5,5)" font-size="12" dominant-baseline="central"><tspan dominant-baseline="central" font-weight="700" x="0">I-set</tspan><tspan dominant-baseline="central" x="34.6796875">Immunoglobulin I-set domain</tspan></text><rect height="10" width="10" y="0.2373046875" fill="#a6d854" stroke="#aaa" shape-rendering="crispEdges"/></g><g transform="translate(10,150)"><text transform="translate(12.5,5)" font-size="12" dominant-baseline="central"><tspan dominant-baseline="central" font-weight="700" x="0">FN3</tspan><tspan dominant-baseline="central" x="32.671875">Fibronectin type 3 domain; One of three types of internal repeats found in th...</tspan></text><rect height="10" width="10" y="0.2373046875" fill="#8dd3c7" stroke="#aaa" shape-rendering="crispEdges"/></g><g transform="translate(10,175)"><text transform="translate(12.5,5)" font-size="12" dominant-baseline="central"><tspan dominant-baseline="central" font-weight="700" x="0">other</tspan><tspan dominant-baseline="central" x="40">Interdomain contacts</tspan></text><rect height="10" width="10" y="0.25" fill="#ffd92f" stroke="#aaa" shape-rendering="crispEdges"/></g><g transform="translate(10,200)"><text transform="translate(12.5,5)" font-size="12" dominant-baseline="central"><tspan dominant-baseline="central" font-weight="700" x="0">other</tspan><tspan dominant-baseline="central" x="40">Cytokine receptor motif</tspan></text><rect height="10" width="10" y="0.2373046875" fill="#fdb462" stroke="#aaa" shape-rendering="crispEdges"/></g><g transform="translate(10,225)"><text transform="translate(12.5,5)" font-size="12" dominant-baseline="central"><tspan dominant-baseline="central" font-weight="700" x="0">fn3</tspan><tspan dominant-baseline="central" x="28">Fibronectin type III domain</tspan></text><rect height="10" width="10" y="0.2373046875" fill="#bebada" stroke="#aaa" shape-rendering="crispEdges"/></g><g transform="translate(10,250)"><text transform="translate(12.5,5)" font-size="12" dominant-baseline="central"><tspan dominant-baseline="central" font-weight="700" x="0">Bravo_FIGEY</tspan><tspan dominant-baseline="central" x="86.6953125">Bravo-like intracellular region</tspan></text><rect height="10" width="10" y="0.2373046875" fill="#e5c494" stroke="#aaa" shape-rendering="crispEdges"/></g></g><g><text transform="translate(10,280)" text-anchor="start" font-weight="700" font-size="12" dominant-baseline="central">NTRK1 NM_001012331</text><g transform="translate(10,300)"><text transform="translate(12.5,5)" font-size="12" dominant-baseline="central"><tspan dominant-baseline="central" font-weight="700" x="0">leucine-rich repeat</tspan><tspan dominant-baseline="central" x="116.7109375">leucine-rich repeat [structural motif]</tspan></text><rect height="10" width="10" y="0.25" fill="#bebada" stroke="#aaa" shape-rendering="crispEdges"/></g><g transform="translate(10,325)"><text transform="translate(12.5,5)" font-size="12" dominant-baseline="central"><tspan dominant-baseline="central" font-weight="700" x="0">LRR_8</tspan><tspan dominant-baseline="central" x="48.015625">Leucine rich repeat</tspan></text><rect height="10" width="10" y="0.25" fill="#bebada" stroke="#aaa" shape-rendering="crispEdges"/></g><g transform="translate(10,350)"><text transform="translate(12.5,5)" font-size="12" dominant-baseline="central"><tspan dominant-baseline="central" font-weight="700" x="0">TPKR_C2</tspan><tspan dominant-baseline="central" x="64.6796875">Tyrosine-protein kinase receptor C2 Ig-like domain</tspan></text><rect height="10" width="10" y="0.2373046875" fill="#a6d854" stroke="#aaa" shape-rendering="crispEdges"/></g><g transform="translate(10,375)"><text transform="translate(12.5,5)" font-size="12" dominant-baseline="central"><tspan dominant-baseline="central" font-weight="700" x="0">Ig_TrkABC_d4</tspan><tspan dominant-baseline="central" x="92.03125">Fourth domain (immunoglobulin-like) of Trk receptors TrkA, TrkB and TrkC</tspan></text><rect height="10" width="10" y="0.2373046875" fill="#8dd3c7" stroke="#aaa" shape-rendering="crispEdges"/></g><g transform="translate(10,400)"><text transform="translate(12.5,5)" font-size="12" dominant-baseline="central"><tspan dominant-baseline="central" font-weight="700" x="0">other</tspan><tspan dominant-baseline="central" x="40">interdomain interface</tspan></text><rect height="10" width="10" y="0.25" fill="#80b1d3" stroke="#aaa" shape-rendering="crispEdges"/></g><g transform="translate(10,425)"><text transform="translate(12.5,5)" font-size="12" dominant-baseline="central"><tspan dominant-baseline="central" font-weight="700" x="0">Ig_TrKABC_d5</tspan><tspan dominant-baseline="central" x="94.0234375">Fifth domain (immunoglobulin-like) of Trk receptors TrkA, TrkB and TrkC</tspan></text><rect height="10" width="10" y="0.2373046875" fill="#fdb462" stroke="#aaa" shape-rendering="crispEdges"/></g><g transform="translate(10,450)"><text transform="translate(12.5,5)" font-size="12" dominant-baseline="central"><tspan dominant-baseline="central" font-weight="700" x="0">other</tspan><tspan dominant-baseline="central" x="40">receptor binding site</tspan></text><rect height="10" width="10" y="0.2373046875" fill="#ffd92f" stroke="#aaa" shape-rendering="crispEdges"/></g><g transform="translate(10,475)"><text transform="translate(12.5,5)" font-size="12" dominant-baseline="central"><tspan dominant-baseline="central" font-weight="700" x="0">PTKc_TrkA</tspan><tspan dominant-baseline="central" x="74.03125">Catalytic domain of the Protein Tyrosine Kinase, Tropomyosin Related Kinase A</tspan></text><rect height="10" width="10" y="0.2373046875" fill="#b3b3b3" stroke="#aaa" shape-rendering="crispEdges"/></g><g transform="translate(10,500)"><text transform="translate(12.5,5)" font-size="12" dominant-baseline="central"><tspan dominant-baseline="central" font-weight="700" x="0">Pkinase_Tyr</tspan><tspan dominant-baseline="central" x="79.8203125">Protein tyrosine kinase</tspan></text><rect height="10" width="10" y="0.2373046875" fill="#e5c494" stroke="#aaa" shape-rendering="crispEdges"/></g><g transform="translate(10,525)"><text transform="translate(12.5,5)" font-size="12" dominant-baseline="central"><tspan dominant-baseline="central" font-weight="700" x="0">other</tspan><tspan dominant-baseline="central" x="40">ATP binding site [chemical binding]</tspan></text><rect height="10" width="10" y="0.2373046875" fill="#fb8072" stroke="#aaa" shape-rendering="crispEdges"/></g><g transform="translate(10,550)"><text transform="translate(12.5,5)" font-size="12" dominant-baseline="central"><tspan dominant-baseline="central" font-weight="700" x="0">other</tspan><tspan dominant-baseline="central" x="40">polypeptide substrate binding site [polypeptide binding]</tspan></text><rect height="10" width="10" y="0.2373046875" fill="#E8E89E" stroke="#aaa" shape-rendering="crispEdges"/></g><g transform="translate(10,575)"><text transform="translate(12.5,5)" font-size="12" dominant-baseline="central"><tspan dominant-baseline="central" font-weight="700" x="0">other</tspan><tspan dominant-baseline="central" x="40">activation loop (A-loop)</tspan></text><rect height="10" width="10" y="0.2373046875" fill="#8dd3c7" stroke="#aaa" shape-rendering="crispEdges"/></g></g></g></svg>