<svg xmlns="http://www.w3.org/2000/svg" width="1017.3904854910713" height="646.525390625"><g transform="translate(40,70)"><g transform="translate(0,0)"><line y1="-3" stroke="black" stroke-opacity="0" shape-rendering="crispEdges" y2="0"/><rect clip-path="url(#33210)" fill="white" x="0" width="400" height="26"/><rect clip-path="url(#33210)" fill="#8dd3c7" x="72.38095238095238" width="5.714285714285722" height="26"/><rect clip-path="url(#33210)" fill="#bebada" x="345.7142857142857" width="4.285714285714278" height="26"/><rect clip-path="url(#33210)" fill="#8dd3c7" x="50" width="10.952380952380956" height="26"/><rect clip-path="url(#33210)" fill="#fb8072" x="331.9047619047619" width="0" height="26"/><rect clip-path="url(#33210)" fill="#fb8072" x="293.80952380952385" width="1.428571428571388" height="26"/><rect clip-path="url(#33210)" fill="#80b1d3" x="168.0952380952381" width="0" height="26"/><rect clip-path="url(#33210)" fill="#E8E89E" x="353.3333333333333" width="0" height="26"/><rect clip-path="url(#33210)" fill="#80b1d3" x="174.28571428571428" width="0.4761904761904816" height="26"/><rect clip-path="url(#33210)" fill="#fb8072" x="260.4761904761905" width="0.4761904761904816" height="26"/><rect clip-path="url(#33210)" fill="#E8E89E" x="347.14285714285717" width="1.9047619047618696" height="26"/><rect clip-path="url(#33210)" fill="#8dd3c7" x="61.42857142857143" width="10.476190476190467" height="26"/><rect clip-path="url(#33210)" fill="#fb8072" x="271.42857142857144" width="0" height="26"/><rect clip-path="url(#33210)" fill="#a6d854" x="49.523809523809526" width="26.666666666666664" height="26"/><rect clip-path="url(#33210)" fill="#fdb462" x="151.9047619047619" width="36.66666666666666" height="26"/><rect clip-path="url(#33210)" fill="#fb8072" x="296.6666666666667" width="0.4761904761904816" height="26"/><rect clip-path="url(#33210)" fill="#ffd92f" x="253.33333333333331" width="142.8571428571429" height="26"/><rect clip-path="url(#33210)" fill="#fb8072" x="325.23809523809524" width="0.4761904761904816" height="26"/><rect clip-path="url(#33210)" fill="#e5c494" x="100.47619047619048" width="42.85714285714286" height="26"/><rect clip-path="url(#33210)" fill="#fb8072" x="272.3809523809524" width="0" height="26"/><rect clip-path="url(#33210)" fill="#b3b3b3" x="142.85714285714286" width="0.4761904761904816" height="26"/><rect clip-path="url(#33210)" fill="#fb8072" x="259.04761904761904" width="0.4761904761904816" height="26"/><rect clip-path="url(#33210)" fill="#E8E89E" x="323.3333333333333" width="0" height="26"/><rect clip-path="url(#33210)" fill="#fb8072" x="262.85714285714283" width="0" height="26"/><rect clip-path="url(#33210)" fill="#E8E89E" x="369.5238095238095" width="0" height="26"/><rect clip-path="url(#33210)" fill="#E8E89E" x="325.23809523809524" width="0" height="26"/><rect clip-path="url(#33210)" fill="#fb8072" x="326.6666666666667" width="0" height="26"/><rect clip-path="url(#33210)" fill="#8dd3c7" x="77.61904761904762" width="21.42857142857143" height="26"/><rect clip-path="url(#33210)" fill="#80b1d3" x="176.19047619047618" width="0" height="26"/><rect clip-path="url(#33210)" fill="#bebada" x="331.42857142857144" width="7.14285714285711" height="26"/><rect clip-path="url(#33210)" fill="#b3b3b3" x="156.1904761904762" width="0" height="26"/><line clip-path="url(#33210)" stroke="black" stroke-dasharray="3,2" shape-rendering="crispEdges" y1="0" y2="26" x1="39.36507936507937" x2="39.36507936507937"/><line clip-path="url(#33210)" stroke="black" stroke-dasharray="3,2" shape-rendering="crispEdges" y1="0" y2="26" x1="51.26984126984128" x2="51.26984126984128"/><line clip-path="url(#33210)" stroke="black" stroke-dasharray="3,2" shape-rendering="crispEdges" y1="0" y2="26" x1="62.698412698412696" x2="62.698412698412696"/><line clip-path="url(#33210)" stroke="black" stroke-dasharray="3,2" shape-rendering="crispEdges" y1="0" y2="26" x1="73.65079365079364" x2="73.65079365079364"/><line clip-path="url(#33210)" stroke="black" stroke-dasharray="3,2" shape-rendering="crispEdges" y1="0" y2="26" x1="98.73015873015873" x2="98.73015873015873"/><line clip-path="url(#33210)" stroke="black" stroke-dasharray="3,2" shape-rendering="crispEdges" y1="0" y2="26" x1="121.42857142857142" x2="121.42857142857142"/><line clip-path="url(#33210)" stroke="black" stroke-dasharray="3,2" shape-rendering="crispEdges" y1="0" y2="26" x1="143.96825396825398" x2="143.96825396825398"/><line clip-path="url(#33210)" stroke="black" stroke-dasharray="3,2" shape-rendering="crispEdges" y1="0" y2="26" x1="191.1111111111111" x2="191.1111111111111"/><line clip-path="url(#33210)" stroke="black" stroke-dasharray="3,2" shape-rendering="crispEdges" y1="0" y2="26" x1="194.9206349206349" x2="194.9206349206349"/><line clip-path="url(#33210)" stroke="black" stroke-dasharray="3,2" shape-rendering="crispEdges" y1="0" y2="26" x1="205.2380952380952" x2="205.2380952380952"/><line clip-path="url(#33210)" stroke="black" stroke-dasharray="3,2" shape-rendering="crispEdges" y1="0" y2="26" x1="221.5873015873016" x2="221.5873015873016"/><line clip-path="url(#33210)" stroke="black" stroke-dasharray="3,2" shape-rendering="crispEdges" y1="0" y2="26" x1="251.58730158730162" x2="251.58730158730162"/><line clip-path="url(#33210)" stroke="black" stroke-dasharray="3,2" shape-rendering="crispEdges" y1="0" y2="26" x1="272.3809523809524" x2="272.3809523809524"/><line clip-path="url(#33210)" stroke="black" stroke-dasharray="3,2" shape-rendering="crispEdges" y1="0" y2="26" x1="299.8412698412698" x2="299.8412698412698"/><line clip-path="url(#33210)" stroke="black" stroke-dasharray="3,2" shape-rendering="crispEdges" y1="0" y2="26" x1="338.57142857142856" x2="338.57142857142856"/><line clip-path="url(#33210)" stroke="black" stroke-dasharray="3,2" shape-rendering="crispEdges" y1="0" y2="26" x1="345.23809523809524" x2="345.23809523809524"/><line clip-path="url(#33210)" stroke="black" stroke-dasharray="3,2" shape-rendering="crispEdges" y1="0" y2="26" x1="370.4761904761905" x2="370.4761904761905"/><rect clip-path="url(#33210)" stroke-dasharray="none" fill="none" stroke="black" x="0" width="400" height="26"/><text font-family="Arial" fill="black" font-size="15" dominant-baseline="central" x="405" y="13">NTRK3</text><text fill="#858585" fill-opacity="0" font-size="13" font-family="Arial" text-anchor="middle" dominant-baseline="auto" y="-24">ends at 711 AA</text><defs><clipPath id="33210"><rect x="0" y="0" height="26" width="454.1796875"/></clipPath></defs><rect clip-path="url(#33210)" fill="white" fill-opacity="0" width="400" height="26"/></g><g transform="translate(10.193176119658972,106)"><line y1="26" stroke="black" stroke-opacity="0" shape-rendering="crispEdges" y2="29"/><rect clip-path="url(#5207)" fill="white" x="0" width="325.7142857142857" height="26"/><rect clip-path="url(#5207)" fill="#8dd3c7" x="3.8095238095238093" width="321.42857142857144" height="26"/><line clip-path="url(#5207)" stroke="black" stroke-dasharray="3,2" shape-rendering="crispEdges" y1="0" y2="26" x1="71.5873015873016" x2="71.5873015873016"/><line clip-path="url(#5207)" stroke="black" stroke-dasharray="3,2" shape-rendering="crispEdges" y1="0" y2="26" x1="100.31746031746032" x2="100.31746031746032"/><line clip-path="url(#5207)" stroke="black" stroke-dasharray="3,2" shape-rendering="crispEdges" y1="0" y2="26" x1="124.44444444444444" x2="124.44444444444444"/><line clip-path="url(#5207)" stroke="black" stroke-dasharray="3,2" shape-rendering="crispEdges" y1="0" y2="26" x1="145.71428571428572" x2="145.71428571428572"/><line clip-path="url(#5207)" stroke="black" stroke-dasharray="3,2" shape-rendering="crispEdges" y1="0" y2="26" x1="160" x2="160"/><line clip-path="url(#5207)" stroke="black" stroke-dasharray="3,2" shape-rendering="crispEdges" y1="0" y2="26" x1="177.61904761904762" x2="177.61904761904762"/><line clip-path="url(#5207)" stroke="black" stroke-dasharray="3,2" shape-rendering="crispEdges" y1="0" y2="26" x1="191.74603174603178" x2="191.74603174603178"/><line clip-path="url(#5207)" stroke="black" stroke-dasharray="3,2" shape-rendering="crispEdges" y1="0" y2="26" x1="217.93650793650795" x2="217.93650793650795"/><line clip-path="url(#5207)" stroke="black" stroke-dasharray="3,2" shape-rendering="crispEdges" y1="0" y2="26" x1="239.20634920634922" x2="239.20634920634922"/><line clip-path="url(#5207)" stroke="black" stroke-dasharray="3,2" shape-rendering="crispEdges" y1="0" y2="26" x1="271.11111111111114" x2="271.11111111111114"/><line clip-path="url(#5207)" stroke="black" stroke-dasharray="3,2" shape-rendering="crispEdges" y1="0" y2="26" x1="296.5079365079365" x2="296.5079365079365"/><rect clip-path="url(#5207)" stroke-dasharray="none" fill="none" stroke="black" x="0" width="325.7142857142857" height="26"/><text font-family="Arial" fill="black" font-size="15" dominant-baseline="central" x="330.7142857142857" y="13">SV2B</text><text fill="#858585" fill-opacity="0" font-size="13" font-family="Arial" text-anchor="middle" dominant-baseline="hanging" y="50">starts at 624 AA</text><defs><clipPath id="5207"><rect x="0" y="0" height="26" width="369.0736607142857"/></clipPath></defs><rect clip-path="url(#5207)" fill="white" fill-opacity="0" width="325.7142857142857" height="26"/></g><line stroke="black" stroke-dasharray="3,2" x1="338.57142857142856" y1="34" x2="307.3360332625161" y2="98"/><g transform="translate(338.57142857142856,0)"><text font-family="Arial" font-size="13" fill="black" text-anchor="start" y="39" dominant-baseline="hanging">exon 17, 711 AA</text><rect height="3" fill="black" x="-338.57142857142856" width="338.57142857142856" y="31"/></g><g transform="translate(307.3360332625161,106)"><text font-family="Arial" font-size="13" fill="black" text-anchor="end" y="-13" dominant-baseline="auto">exon 14, 624 AA</text><rect height="3" fill="black" x="0" width="28.571428571428612" y="-8"/></g></g><g transform="translate(40,238)"/><text class="sja_svgtext" fill="black" font-size="12" text-anchor="end" x="501.8592354910714" y="291" style="display: none;">drag to resize</text><g transform="translate(0,259.525390625)" style="font-family: Arial;"><g><text transform="translate(10,30)" text-anchor="start" font-weight="700" font-size="12" dominant-baseline="central">NTRK3 NM_001012338</text><g transform="translate(10,50)"><text transform="translate(12.5,5)" font-size="12" dominant-baseline="central"><tspan dominant-baseline="central" font-weight="700" x="0">LRR_8</tspan><tspan dominant-baseline="central" x="48.015625">Leucine rich repeat</tspan></text><rect height="10" width="10" y="0.25" fill="#a6d854" stroke="#aaa" shape-rendering="crispEdges"/></g><g transform="translate(10,75)"><text transform="translate(12.5,5)" font-size="12" dominant-baseline="central"><tspan dominant-baseline="central" font-weight="700" x="0">leucine-rich repeat</tspan><tspan dominant-baseline="central" x="116.7109375">leucine-rich repeat [structural motif]</tspan></text><rect height="10" width="10" y="0.25" fill="#8dd3c7" stroke="#aaa" shape-rendering="crispEdges"/></g><g transform="translate(10,100)"><text transform="translate(12.5,5)" font-size="12" dominant-baseline="central"><tspan dominant-baseline="central" font-weight="700" x="0">TPKR_C2</tspan><tspan dominant-baseline="central" x="64.6796875">Tyrosine-protein kinase receptor C2 Ig-like domain</tspan></text><rect height="10" width="10" y="0.2373046875" fill="#8dd3c7" stroke="#aaa" shape-rendering="crispEdges"/></g><g transform="translate(10,125)"><text transform="translate(12.5,5)" font-size="12" dominant-baseline="central"><tspan dominant-baseline="central" font-weight="700" x="0">Ig_TrkABC_d4</tspan><tspan dominant-baseline="central" x="92.03125">Fourth domain (immunoglobulin-like) of Trk receptors TrkA, TrkB and TrkC</tspan></text><rect height="10" width="10" y="0.2373046875" fill="#e5c494" stroke="#aaa" shape-rendering="crispEdges"/></g><g transform="translate(10,150)"><text transform="translate(12.5,5)" font-size="12" dominant-baseline="central"><tspan dominant-baseline="central" font-weight="700" x="0">other</tspan><tspan dominant-baseline="central" x="40">interdomain interface [polypeptide binding]</tspan></text><rect height="10" width="10" y="0.2373046875" fill="#b3b3b3" stroke="#aaa" shape-rendering="crispEdges"/></g><g transform="translate(10,175)"><text transform="translate(12.5,5)" font-size="12" dominant-baseline="central"><tspan dominant-baseline="central" font-weight="700" x="0">Ig_TrKABC_d5</tspan><tspan dominant-baseline="central" x="94.0234375">Fifth domain (immunoglobulin-like) of Trk receptors TrkA, TrkB and TrkC</tspan></text><rect height="10" width="10" y="0.2373046875" fill="#fdb462" stroke="#aaa" shape-rendering="crispEdges"/></g><g transform="translate(10,200)"><text transform="translate(12.5,5)" font-size="12" dominant-baseline="central"><tspan dominant-baseline="central" font-weight="700" x="0">other</tspan><tspan dominant-baseline="central" x="40">receptor binding site [polypeptide binding]</tspan></text><rect height="10" width="10" y="0.2373046875" fill="#80b1d3" stroke="#aaa" shape-rendering="crispEdges"/></g><g transform="translate(10,225)"><text transform="translate(12.5,5)" font-size="12" dominant-baseline="central"><tspan dominant-baseline="central" font-weight="700" x="0">PTKc_TrkC</tspan><tspan dominant-baseline="central" x="74.03125">Catalytic domain of the Protein Tyrosine Kinase, Tropomyosin Related Kinase C</tspan></text><rect height="10" width="10" y="0.2373046875" fill="#ffd92f" stroke="#aaa" shape-rendering="crispEdges"/></g><g transform="translate(10,250)"><text transform="translate(12.5,5)" font-size="12" dominant-baseline="central"><tspan dominant-baseline="central" font-weight="700" x="0">other</tspan><tspan dominant-baseline="central" x="40">ATP binding site [chemical binding]</tspan></text><rect height="10" width="10" y="0.2373046875" fill="#fb8072" stroke="#aaa" shape-rendering="crispEdges"/></g><g transform="translate(10,275)"><text transform="translate(12.5,5)" font-size="12" dominant-baseline="central"><tspan dominant-baseline="central" font-weight="700" x="0">other</tspan><tspan dominant-baseline="central" x="40">polypeptide substrate binding site [polypeptide binding]</tspan></text><rect height="10" width="10" y="0.2373046875" fill="#E8E89E" stroke="#aaa" shape-rendering="crispEdges"/></g><g transform="translate(10,300)"><text transform="translate(12.5,5)" font-size="12" dominant-baseline="central"><tspan dominant-baseline="central" font-weight="700" x="0">other</tspan><tspan dominant-baseline="central" x="40">activation loop (A-loop)</tspan></text><rect height="10" width="10" y="0.2373046875" fill="#bebada" stroke="#aaa" shape-rendering="crispEdges"/></g></g><g><text transform="translate(10,330)" text-anchor="start" font-weight="700" font-size="12" dominant-baseline="central">SV2B NM_014848</text><g transform="translate(10,350)"><text transform="translate(12.5,5)" font-size="12" dominant-baseline="central"><tspan dominant-baseline="central" font-weight="700" x="0">Sugar_tr</tspan><tspan dominant-baseline="central" x="59.3515625">Sugar (and other) transporter</tspan></text><rect height="10" width="10" y="0.2373046875" fill="#8dd3c7" stroke="#aaa" shape-rendering="crispEdges"/></g></g></g></svg>