<svg xmlns="http://www.w3.org/2000/svg" width="1042.4954968291565" height="696.5"><g transform="translate(47.22987182915648,70)"><g transform="translate(82.64058679706602,0)"><line y1="-3" stroke="black" stroke-opacity="0" shape-rendering="crispEdges" y2="0"/><rect clip-path="url(#5532)" fill="white" x="0" width="317.359413202934" height="26"/><rect clip-path="url(#5532)" fill="#80b1d3" x="164.30317848410758" width="137.89731051344742" height="26"/><rect clip-path="url(#5532)" fill="#bebada" x="26.89486552567237" width="37.163814180929094" height="26"/><rect clip-path="url(#5532)" fill="#b3b3b3" x="67.97066014669926" width="22.004889975550128" height="26"/><rect clip-path="url(#5532)" fill="#e5c494" x="237.1638141809291" width="12.224938875305583" height="26"/><rect clip-path="url(#5532)" fill="#E8E89E" x="194.1320293398533" width="2.933985330073341" height="26"/><rect clip-path="url(#5532)" fill="#fb8072" x="31.295843520782398" width="2.444987775061122" height="26"/><rect clip-path="url(#5532)" fill="#a6d854" x="173.59413202933985" width="1.9559902200489034" height="26"/><rect clip-path="url(#5532)" fill="#8dd3c7" x="42.542787286063565" width="1.4669926650366776" height="26"/><rect clip-path="url(#5532)" fill="#fdb462" x="247.92176039119803" width="1.4669926650366563" height="26"/><rect clip-path="url(#5532)" fill="#8dd3c7" x="32.27383863080685" width="1.4669926650366705" height="26"/><rect clip-path="url(#5532)" fill="#a6d854" x="205.86797066014668" width="1.4669926650366847" height="26"/><rect clip-path="url(#5532)" fill="#E8E89E" x="199.02200488997553" width="0.9779951100244375" height="26"/><rect clip-path="url(#5532)" fill="#fb8072" x="43.03178484107579" width="0.9779951100244517" height="26"/><rect clip-path="url(#5532)" fill="#E8E89E" x="225.4278728606357" width="0.48899755501221875" height="26"/><rect clip-path="url(#5532)" fill="#a6d854" x="230.80684596577018" width="0.48899755501219033" height="26"/><rect clip-path="url(#5532)" fill="#E8E89E" x="223.4718826405868" width="0.48899755501219033" height="26"/><rect clip-path="url(#5532)" fill="#E8E89E" x="180.440097799511" width="0.48899755501221875" height="26"/><rect clip-path="url(#5532)" fill="#bebada" x="75.79462102689486" width="0" height="26"/><rect clip-path="url(#5532)" fill="#fb8072" x="41.075794621026894" width="0" height="26"/><rect clip-path="url(#5532)" fill="#E8E89E" x="234.71882640586796" width="0" height="26"/><rect clip-path="url(#5532)" fill="#fdb462" x="229.8288508557457" width="0" height="26"/><rect clip-path="url(#5532)" fill="#ffd92f" x="41.075794621026894" width="0" height="26"/><rect clip-path="url(#5532)" fill="#a6d854" x="237.6528117359413" width="0" height="26"/><rect clip-path="url(#5532)" fill="#a6d854" x="177.50611246943762" width="0" height="26"/><rect clip-path="url(#5532)" fill="#E8E89E" x="167.23716381418092" width="0" height="26"/><rect clip-path="url(#5532)" fill="#fdb462" x="230.80684596577018" width="0" height="26"/><rect clip-path="url(#5532)" fill="#a6d854" x="198.53300733496332" width="0" height="26"/><rect clip-path="url(#5532)" fill="#8dd3c7" x="72.86063569682152" width="0" height="26"/><rect clip-path="url(#5532)" fill="#a6d854" x="183.37408312958436" width="0" height="26"/><rect clip-path="url(#5532)" fill="#fdb462" x="228.85085574572128" width="0" height="26"/><rect clip-path="url(#5532)" fill="#E8E89E" x="166.25916870415648" width="0" height="26"/><rect clip-path="url(#5532)" fill="#a6d854" x="228.85085574572128" width="0" height="26"/><rect clip-path="url(#5532)" fill="#8dd3c7" x="41.075794621026894" width="0" height="26"/><rect clip-path="url(#5532)" fill="#bebada" x="82.15158924205379" width="0" height="26"/><rect clip-path="url(#5532)" fill="#E8E89E" x="296.82151589242056" width="0" height="26"/><rect clip-path="url(#5532)" fill="#a6d854" x="209.29095354523227" width="0" height="26"/><rect clip-path="url(#5532)" fill="#a6d854" x="232.27383863080684" width="0" height="26"/><rect clip-path="url(#5532)" fill="#bebada" x="80.6845965770171" width="0" height="26"/><rect clip-path="url(#5532)" fill="#fdb462" x="175.55012224938875" width="0" height="26"/><rect clip-path="url(#5532)" fill="#a6d854" x="182.3960880195599" width="0" height="26"/><rect clip-path="url(#5532)" fill="#E8E89E" x="233.74083129584352" width="0" height="26"/><rect clip-path="url(#5532)" fill="#8dd3c7" x="27.87286063569682" width="0" height="26"/><rect clip-path="url(#5532)" fill="#bebada" x="74.32762836185819" width="0" height="26"/><rect clip-path="url(#5532)" fill="#E8E89E" x="179.46210268948656" width="0" height="26"/><rect clip-path="url(#5532)" fill="#fdb462" x="209.29095354523227" width="0" height="26"/><rect clip-path="url(#5532)" fill="#fdb462" x="210.26894865525674" width="0" height="26"/><rect clip-path="url(#5532)" fill="#a6d854" x="229.8288508557457" width="0" height="26"/><rect clip-path="url(#5532)" fill="#bebada" x="86.06356968215158" width="0" height="26"/><rect clip-path="url(#5532)" fill="#bebada" x="67.97066014669926" width="0" height="26"/><rect clip-path="url(#5532)" fill="#bebada" x="89.97555012224939" width="0" height="26"/><rect clip-path="url(#5532)" fill="#fb8072" x="34.718826405867965" width="0" height="26"/><rect clip-path="url(#5532)" fill="#8dd3c7" x="73.83863080684597" width="0" height="26"/><rect clip-path="url(#5532)" fill="#fb8072" x="27.87286063569682" width="0" height="26"/><rect clip-path="url(#5532)" fill="#fdb462" x="239.11980440097798" width="0" height="26"/><rect clip-path="url(#5532)" fill="#bebada" x="84.59657701711491" width="0" height="26"/><rect clip-path="url(#5532)" fill="#fb8072" x="28.850855745721272" width="0" height="26"/><rect clip-path="url(#5532)" fill="#E8E89E" x="222.00488997555013" width="0" height="26"/><rect clip-path="url(#5532)" fill="#fb8072" x="61.12469437652812" width="0" height="26"/><rect clip-path="url(#5532)" fill="#8dd3c7" x="31.295843520782398" width="0" height="26"/><line clip-path="url(#5532)" stroke="black" stroke-dasharray="3,2" shape-rendering="crispEdges" y1="0" y2="26" x1="33.74083129584352" x2="33.74083129584352"/><line clip-path="url(#5532)" stroke="black" stroke-dasharray="3,2" shape-rendering="crispEdges" y1="0" y2="26" x1="52.159739201304" x2="52.159739201304"/><line clip-path="url(#5532)" stroke="black" stroke-dasharray="3,2" shape-rendering="crispEdges" y1="0" y2="26" x1="68.94865525672371" x2="68.94865525672371"/><line clip-path="url(#5532)" stroke="black" stroke-dasharray="3,2" shape-rendering="crispEdges" y1="0" y2="26" x1="94.70252648736756" x2="94.70252648736756"/><line clip-path="url(#5532)" stroke="black" stroke-dasharray="3,2" shape-rendering="crispEdges" y1="0" y2="26" x1="110.83944580277098" x2="110.83944580277098"/><line clip-path="url(#5532)" stroke="black" stroke-dasharray="3,2" shape-rendering="crispEdges" y1="0" y2="26" x1="135.94132029339852" x2="135.94132029339852"/><line clip-path="url(#5532)" stroke="black" stroke-dasharray="3,2" shape-rendering="crispEdges" y1="0" y2="26" x1="140.50529747351263" x2="140.50529747351263"/><line clip-path="url(#5532)" stroke="black" stroke-dasharray="3,2" shape-rendering="crispEdges" y1="0" y2="26" x1="161.3691931540342" x2="161.3691931540342"/><line clip-path="url(#5532)" stroke="black" stroke-dasharray="3,2" shape-rendering="crispEdges" y1="0" y2="26" x1="180.60309698451505" x2="180.60309698451505"/><line clip-path="url(#5532)" stroke="black" stroke-dasharray="3,2" shape-rendering="crispEdges" y1="0" y2="26" x1="194.45802770986145" x2="194.45802770986145"/><line clip-path="url(#5532)" stroke="black" stroke-dasharray="3,2" shape-rendering="crispEdges" y1="0" y2="26" x1="223.30888345558273" x2="223.30888345558273"/><line clip-path="url(#5532)" stroke="black" stroke-dasharray="3,2" shape-rendering="crispEdges" y1="0" y2="26" x1="230.96984515077423" x2="230.96984515077423"/><line clip-path="url(#5532)" stroke="black" stroke-dasharray="3,2" shape-rendering="crispEdges" y1="0" y2="26" x1="250.36674816625919" x2="250.36674816625919"/><line clip-path="url(#5532)" stroke="black" stroke-dasharray="3,2" shape-rendering="crispEdges" y1="0" y2="26" x1="271.88264058679704" x2="271.88264058679704"/><line clip-path="url(#5532)" stroke="black" stroke-dasharray="3,2" shape-rendering="crispEdges" y1="0" y2="26" x1="293.8875305623472" x2="293.8875305623472"/><rect clip-path="url(#5532)" stroke-dasharray="none" fill="none" stroke="black" x="0" width="317.359413202934" height="26"/><text font-family="Arial" fill="black" font-size="15" dominant-baseline="central" x="322.359413202934" y="13">RAF1</text><text fill="#858585" fill-opacity="0" font-size="13" font-family="Arial" text-anchor="middle" dominant-baseline="auto" y="-24">ends at 69 AA</text><defs><clipPath id="5532"><rect x="0" y="0" height="26" width="360.703163202934"/></clipPath></defs><rect clip-path="url(#5532)" fill="white" fill-opacity="0" width="317.359413202934" height="26"/></g><g transform="translate(0,106)"><line y1="26" stroke="black" stroke-opacity="0" shape-rendering="crispEdges" y2="29"/><rect clip-path="url(#32295)" fill="white" x="0" width="400" height="26"/><rect clip-path="url(#32295)" fill="#8dd3c7" x="38.63080684596577" width="147.67726161369194" height="26"/><line clip-path="url(#32295)" stroke="black" stroke-dasharray="3,2" shape-rendering="crispEdges" y1="0" y2="26" x1="15.810920945395274" x2="15.810920945395274"/><line clip-path="url(#32295)" stroke="black" stroke-dasharray="3,2" shape-rendering="crispEdges" y1="0" y2="26" x1="27.22086389568052" x2="27.22086389568052"/><line clip-path="url(#32295)" stroke="black" stroke-dasharray="3,2" shape-rendering="crispEdges" y1="0" y2="26" x1="44.987775061124694" x2="44.987775061124694"/><line clip-path="url(#32295)" stroke="black" stroke-dasharray="3,2" shape-rendering="crispEdges" y1="0" y2="26" x1="59.65770171149144" x2="59.65770171149144"/><line clip-path="url(#32295)" stroke="black" stroke-dasharray="3,2" shape-rendering="crispEdges" y1="0" y2="26" x1="71.88264058679707" x2="71.88264058679707"/><line clip-path="url(#32295)" stroke="black" stroke-dasharray="3,2" shape-rendering="crispEdges" y1="0" y2="26" x1="82.96658516707416" x2="82.96658516707416"/><line clip-path="url(#32295)" stroke="black" stroke-dasharray="3,2" shape-rendering="crispEdges" y1="0" y2="26" x1="99.75550122249389" x2="99.75550122249389"/><line clip-path="url(#32295)" stroke="black" stroke-dasharray="3,2" shape-rendering="crispEdges" y1="0" y2="26" x1="114.26242868785657" x2="114.26242868785657"/><line clip-path="url(#32295)" stroke="black" stroke-dasharray="3,2" shape-rendering="crispEdges" y1="0" y2="26" x1="122.57538712306437" x2="122.57538712306437"/><line clip-path="url(#32295)" stroke="black" stroke-dasharray="3,2" shape-rendering="crispEdges" y1="0" y2="26" x1="133.98533007334962" x2="133.98533007334962"/><line clip-path="url(#32295)" stroke="black" stroke-dasharray="3,2" shape-rendering="crispEdges" y1="0" y2="26" x1="162.18418907905462" x2="162.18418907905462"/><line clip-path="url(#32295)" stroke="black" stroke-dasharray="3,2" shape-rendering="crispEdges" y1="0" y2="26" x1="185.49307253463732" x2="185.49307253463732"/><line clip-path="url(#32295)" stroke="black" stroke-dasharray="3,2" shape-rendering="crispEdges" y1="0" y2="26" x1="202.93398533007334" x2="202.93398533007334"/><line clip-path="url(#32295)" stroke="black" stroke-dasharray="3,2" shape-rendering="crispEdges" y1="0" y2="26" x1="216.95191524042377" x2="216.95191524042377"/><line clip-path="url(#32295)" stroke="black" stroke-dasharray="3,2" shape-rendering="crispEdges" y1="0" y2="26" x1="258.84270578647113" x2="258.84270578647113"/><line clip-path="url(#32295)" stroke="black" stroke-dasharray="3,2" shape-rendering="crispEdges" y1="0" y2="26" x1="269.60065199674005" x2="269.60065199674005"/><line clip-path="url(#32295)" stroke="black" stroke-dasharray="3,2" shape-rendering="crispEdges" y1="0" y2="26" x1="296.3325183374083" x2="296.3325183374083"/><line clip-path="url(#32295)" stroke="black" stroke-dasharray="3,2" shape-rendering="crispEdges" y1="0" y2="26" x1="312.6324368378158" x2="312.6324368378158"/><line clip-path="url(#32295)" stroke="black" stroke-dasharray="3,2" shape-rendering="crispEdges" y1="0" y2="26" x1="325.67237163814184" x2="325.67237163814184"/><line clip-path="url(#32295)" stroke="black" stroke-dasharray="3,2" shape-rendering="crispEdges" y1="0" y2="26" x1="352.07823960880194" x2="352.07823960880194"/><rect clip-path="url(#32295)" stroke-dasharray="none" fill="none" stroke="black" x="0" width="400" height="26"/><text font-family="Arial" fill="black" font-size="15" dominant-baseline="central" x="405" y="13">TBC1D5</text><text fill="#858585" fill-opacity="0" font-size="13" font-family="Arial" text-anchor="middle" dominant-baseline="hanging" y="50">starts at 416 AA</text><defs><clipPath id="32295"><rect x="0" y="0" height="26" width="462.5234375"/></clipPath></defs><rect clip-path="url(#32295)" fill="white" fill-opacity="0" width="400" height="26"/></g><line stroke="black" stroke-dasharray="3,2" x1="116.38141809290954" y1="34" x2="203.4229828850856" y2="98"/><g transform="translate(116.38141809290954,0)"><text font-family="Arial" font-size="13" fill="black" text-anchor="end" y="39" dominant-baseline="hanging">exon 2, 69 AA</text><rect height="3" fill="black" x="-33.74083129584352" width="33.74083129584352" y="31"/></g><g transform="translate(203.4229828850856,106)"><text font-family="Arial" font-size="13" fill="black" text-anchor="start" y="-13" dominant-baseline="auto">exon 17, 416 AA</text><rect height="3" fill="black" x="0" width="196.5770171149144" y="-8"/></g></g><g transform="translate(47.22987182915648,238)"/><text class="sja_svgtext" fill="black" font-size="12" text-anchor="end" x="504.7533093291565" y="291" style="display: none;">drag to resize</text><g transform="translate(0,259.525390625)" style="font-family: Arial;"><g><text transform="translate(10,30)" text-anchor="start" font-weight="700" font-size="12" dominant-baseline="central">RAF1 NM_002880</text><g transform="translate(10,50)"><text transform="translate(12.5,5)" font-size="12" dominant-baseline="central"><tspan dominant-baseline="central" font-weight="700" x="0">RBD_CRAF</tspan><tspan dominant-baseline="central" x="76">Ras-binding domain (RBD) found in RAF proto-oncogene serine/threonine-protein...</tspan></text><rect height="10" width="10" y="0.2373046875" fill="#bebada" stroke="#aaa" shape-rendering="crispEdges"/></g><g transform="translate(10,75)"><text transform="translate(12.5,5)" font-size="12" dominant-baseline="central"><tspan dominant-baseline="central" font-weight="700" x="0">other</tspan><tspan dominant-baseline="central" x="40">RBD_Raf-Ras interaction site [polypeptide binding]</tspan></text><rect height="10" width="10" y="0.2373046875" fill="#fb8072" stroke="#aaa" shape-rendering="crispEdges"/></g><g transform="translate(10,100)"><text transform="translate(12.5,5)" font-size="12" dominant-baseline="central"><tspan dominant-baseline="central" font-weight="700" x="0">other</tspan><tspan dominant-baseline="central" x="40">putative RBD_Raf-KRas interaction site [polypeptide binding]</tspan></text><rect height="10" width="10" y="0.2373046875" fill="#8dd3c7" stroke="#aaa" shape-rendering="crispEdges"/></g><g transform="translate(10,125)"><text transform="translate(12.5,5)" font-size="12" dominant-baseline="central"><tspan dominant-baseline="central" font-weight="700" x="0">other</tspan><tspan dominant-baseline="central" x="40">key conserved lysine K29</tspan></text><rect height="10" width="10" y="0.2373046875" fill="#ffd92f" stroke="#aaa" shape-rendering="crispEdges"/></g><g transform="translate(10,150)"><text transform="translate(12.5,5)" font-size="12" dominant-baseline="central"><tspan dominant-baseline="central" font-weight="700" x="0">other</tspan><tspan dominant-baseline="central" x="40">Ca binding site [ion binding]</tspan></text><rect height="10" width="10" y="0.2373046875" fill="#fb8072" stroke="#aaa" shape-rendering="crispEdges"/></g><g transform="translate(10,175)"><text transform="translate(12.5,5)" font-size="12" dominant-baseline="central"><tspan dominant-baseline="central" font-weight="700" x="0">C1_1</tspan><tspan dominant-baseline="central" x="38.6875">Phorbol esters/diacylglycerol binding domain (C1 domain)</tspan></text><rect height="10" width="10" y="0.2373046875" fill="#b3b3b3" stroke="#aaa" shape-rendering="crispEdges"/></g><g transform="translate(10,200)"><text transform="translate(12.5,5)" font-size="12" dominant-baseline="central"><tspan dominant-baseline="central" font-weight="700" x="0">other</tspan><tspan dominant-baseline="central" x="40">zinc binding sites [ion binding]</tspan></text><rect height="10" width="10" y="0.2373046875" fill="#bebada" stroke="#aaa" shape-rendering="crispEdges"/></g><g transform="translate(10,225)"><text transform="translate(12.5,5)" font-size="12" dominant-baseline="central"><tspan dominant-baseline="central" font-weight="700" x="0">other</tspan><tspan dominant-baseline="central" x="40">putative RAS interaction site [polypeptide binding]</tspan></text><rect height="10" width="10" y="0.2373046875" fill="#8dd3c7" stroke="#aaa" shape-rendering="crispEdges"/></g><g transform="translate(10,250)"><text transform="translate(12.5,5)" font-size="12" dominant-baseline="central"><tspan dominant-baseline="central" font-weight="700" x="0">STKc_C-Raf</tspan><tspan dominant-baseline="central" x="79.3515625">Catalytic domain of the Serine/Threonine Kinase, C-Raf (Rapidly Accelerated F...</tspan></text><rect height="10" width="10" y="0.2373046875" fill="#80b1d3" stroke="#aaa" shape-rendering="crispEdges"/></g><g transform="translate(10,275)"><text transform="translate(12.5,5)" font-size="12" dominant-baseline="central"><tspan dominant-baseline="central" font-weight="700" x="0">other</tspan><tspan dominant-baseline="central" x="40">dimer interface [polypeptide binding]</tspan></text><rect height="10" width="10" y="0.2373046875" fill="#E8E89E" stroke="#aaa" shape-rendering="crispEdges"/></g><g transform="translate(10,300)"><text transform="translate(12.5,5)" font-size="12" dominant-baseline="central"><tspan dominant-baseline="central" font-weight="700" x="0">other</tspan><tspan dominant-baseline="central" x="40">ATP binding site [chemical binding]</tspan></text><rect height="10" width="10" y="0.2373046875" fill="#a6d854" stroke="#aaa" shape-rendering="crispEdges"/></g><g transform="translate(10,325)"><text transform="translate(12.5,5)" font-size="12" dominant-baseline="central"><tspan dominant-baseline="central" font-weight="700" x="0">other</tspan><tspan dominant-baseline="central" x="40">polypeptide substrate binding site [polypeptide binding]</tspan></text><rect height="10" width="10" y="0.2373046875" fill="#fdb462" stroke="#aaa" shape-rendering="crispEdges"/></g><g transform="translate(10,350)"><text transform="translate(12.5,5)" font-size="12" dominant-baseline="central"><tspan dominant-baseline="central" font-weight="700" x="0">other</tspan><tspan dominant-baseline="central" x="40">activation loop (A-loop)</tspan></text><rect height="10" width="10" y="0.2373046875" fill="#e5c494" stroke="#aaa" shape-rendering="crispEdges"/></g></g><g><text transform="translate(10,380)" text-anchor="start" font-weight="700" font-size="12" dominant-baseline="central">TBC1D5 NM_001134381</text><g transform="translate(10,400)"><text transform="translate(12.5,5)" font-size="12" dominant-baseline="central"><tspan dominant-baseline="central" font-weight="700" x="0">TBC</tspan><tspan dominant-baseline="central" x="34.6640625">Domain in Tre-2, BUB2p, and Cdc16p. Probable Rab-GAPs</tspan></text><rect height="10" width="10" y="0.25" fill="#8dd3c7" stroke="#aaa" shape-rendering="crispEdges"/></g></g></g></svg>