<svg xmlns="http://www.w3.org/2000/svg" width="997.234375" height="646.525390625"><g transform="translate(40,70)"><g transform="translate(0,0)"><line y1="-3" stroke="black" stroke-opacity="0" shape-rendering="crispEdges" y2="0"/><rect clip-path="url(#13132)" fill="white" x="0" width="400" height="26"/><rect clip-path="url(#13132)" fill="#fb8072" x="305.2473763118441" width="90.2548725637181" height="26"/><rect clip-path="url(#13132)" fill="#ffd92f" x="232.68365817091455" width="71.664167916042" height="26"/><rect clip-path="url(#13132)" fill="#E8E89E" x="61.169415292353825" width="55.47226386806596" height="26"/><rect clip-path="url(#13132)" fill="#8dd3c7" x="179.01049475262369" width="43.178410794602684" height="26"/><rect clip-path="url(#13132)" fill="#a6d854" x="18.89055472263868" width="31.78410794602699" height="26"/><rect clip-path="url(#13132)" fill="#fdb462" x="131.63418290854574" width="31.784107946026978" height="26"/><rect clip-path="url(#13132)" fill="#80b1d3" x="263.568215892054" width="0.8995502248875482" height="26"/><rect clip-path="url(#13132)" fill="#80b1d3" x="282.45877061469264" width="0.8995502248875482" height="26"/><rect clip-path="url(#13132)" fill="#80b1d3" x="262.3688155922039" width="0.59970014992507" height="26"/><rect clip-path="url(#13132)" fill="#80b1d3" x="273.16341829085457" width="0.59970014992507" height="26"/><rect clip-path="url(#13132)" fill="#80b1d3" x="278.5607196401799" width="0.5997001499250132" height="26"/><rect clip-path="url(#13132)" fill="#80b1d3" x="280.05997001499253" width="0.5997001499250132" height="26"/><rect clip-path="url(#13132)" fill="#80b1d3" x="242.57871064467764" width="0.59970014992507" height="26"/><rect clip-path="url(#13132)" fill="#80b1d3" x="247.07646176911547" width="0.5997001499250132" height="26"/><rect clip-path="url(#13132)" fill="#80b1d3" x="281.25937031484256" width="0.59970014992507" height="26"/><rect clip-path="url(#13132)" fill="#80b1d3" x="302.84857571214394" width="0.2998500749624782" height="26"/><rect clip-path="url(#13132)" fill="#bebada" x="106.44677661169415" width="0.2998500749625208" height="26"/><rect clip-path="url(#13132)" fill="#bebada" x="205.99700149925036" width="0.29985007496256344" height="26"/><rect clip-path="url(#13132)" fill="#80b1d3" x="246.17691154422786" width="0.299850074962535" height="26"/><rect clip-path="url(#13132)" fill="#bebada" x="218.2908545727136" width="0.29985007496256344" height="26"/><rect clip-path="url(#13132)" fill="#80b1d3" x="248.27586206896552" width="0.2998500749625066" height="26"/><rect clip-path="url(#13132)" fill="#bebada" x="105.24737631184409" width="0.2998500749625066" height="26"/><rect clip-path="url(#13132)" fill="#80b1d3" x="249.47526236881558" width="0.299850074962535" height="26"/><rect clip-path="url(#13132)" fill="#80b1d3" x="261.4692653673163" width="0.299850074962535" height="26"/><rect clip-path="url(#13132)" fill="#bebada" x="208.09595202398802" width="0.2998500749625066" height="26"/><rect clip-path="url(#13132)" fill="#bebada" x="104.04797601199401" width="0.2998500749625066" height="26"/><rect clip-path="url(#13132)" fill="#bebada" x="103.14842578710646" width="0.2998500749625066" height="26"/><rect clip-path="url(#13132)" fill="#bebada" x="101.94902548725638" width="0.2998500749625066" height="26"/><rect clip-path="url(#13132)" fill="#80b1d3" x="265.0674662668666" width="0.299850074962535" height="26"/><rect clip-path="url(#13132)" fill="#bebada" x="219.49025487256372" width="0" height="26"/><rect clip-path="url(#13132)" fill="#bebada" x="115.1424287856072" width="0" height="26"/><rect clip-path="url(#13132)" fill="#bebada" x="116.34182908545728" width="0" height="26"/><rect clip-path="url(#13132)" fill="#80b1d3" x="260.5697151424288" width="0" height="26"/><rect clip-path="url(#13132)" fill="#80b1d3" x="274.6626686656671" width="0" height="26"/><rect clip-path="url(#13132)" fill="#bebada" x="204.7976011994003" width="0" height="26"/><rect clip-path="url(#13132)" fill="#bebada" x="221.58920539730133" width="0" height="26"/><rect clip-path="url(#13132)" fill="#80b1d3" x="289.9550224887556" width="0" height="26"/><rect clip-path="url(#13132)" fill="#bebada" x="184.70764617691157" width="0" height="26"/><rect clip-path="url(#13132)" fill="#bebada" x="63.26836581709146" width="0" height="26"/><rect clip-path="url(#13132)" fill="#bebada" x="107.64617691154423" width="0" height="26"/><rect clip-path="url(#13132)" fill="#bebada" x="94.75262368815592" width="0" height="26"/><rect clip-path="url(#13132)" fill="#80b1d3" x="288.75562218890553" width="0" height="26"/><rect clip-path="url(#13132)" fill="#80b1d3" x="301.9490254872564" width="0" height="26"/><rect clip-path="url(#13132)" fill="#80b1d3" x="250.67466266866566" width="0" height="26"/><rect clip-path="url(#13132)" fill="#bebada" x="207.19640179910047" width="0" height="26"/><rect clip-path="url(#13132)" fill="#bebada" x="62.06896551724138" width="0" height="26"/><rect clip-path="url(#13132)" fill="#80b1d3" x="271.3643178410794" width="0" height="26"/><line clip-path="url(#13132)" stroke="black" stroke-dasharray="3,2" shape-rendering="crispEdges" y1="0" y2="26" x1="8.695652173913043" x2="8.695652173913043"/><line clip-path="url(#13132)" stroke="black" stroke-dasharray="3,2" shape-rendering="crispEdges" y1="0" y2="26" x1="21.289355322338828" x2="21.289355322338828"/><line clip-path="url(#13132)" stroke="black" stroke-dasharray="3,2" shape-rendering="crispEdges" y1="0" y2="26" x1="34.48275862068966" x2="34.48275862068966"/><line clip-path="url(#13132)" stroke="black" stroke-dasharray="3,2" shape-rendering="crispEdges" y1="0" y2="26" x1="50.97451274362819" x2="50.97451274362819"/><line clip-path="url(#13132)" stroke="black" stroke-dasharray="3,2" shape-rendering="crispEdges" y1="0" y2="26" x1="71.9640179910045" x2="71.9640179910045"/><line clip-path="url(#13132)" stroke="black" stroke-dasharray="3,2" shape-rendering="crispEdges" y1="0" y2="26" x1="86.3568215892054" x2="86.3568215892054"/><line clip-path="url(#13132)" stroke="black" stroke-dasharray="3,2" shape-rendering="crispEdges" y1="0" y2="26" x1="97.4512743628186" x2="97.4512743628186"/><line clip-path="url(#13132)" stroke="black" stroke-dasharray="3,2" shape-rendering="crispEdges" y1="0" y2="26" x1="107.34632683658172" x2="107.34632683658172"/><line clip-path="url(#13132)" stroke="black" stroke-dasharray="3,2" shape-rendering="crispEdges" y1="0" y2="26" x1="120.13993003498251" x2="120.13993003498251"/><line clip-path="url(#13132)" stroke="black" stroke-dasharray="3,2" shape-rendering="crispEdges" y1="0" y2="26" x1="185.70714642678664" x2="185.70714642678664"/><line clip-path="url(#13132)" stroke="black" stroke-dasharray="3,2" shape-rendering="crispEdges" y1="0" y2="26" x1="193.90304847576212" x2="193.90304847576212"/><line clip-path="url(#13132)" stroke="black" stroke-dasharray="3,2" shape-rendering="crispEdges" y1="0" y2="26" x1="206.19690154922537" x2="206.19690154922537"/><line clip-path="url(#13132)" stroke="black" stroke-dasharray="3,2" shape-rendering="crispEdges" y1="0" y2="26" x1="216.59170414792604" x2="216.59170414792604"/><line clip-path="url(#13132)" stroke="black" stroke-dasharray="3,2" shape-rendering="crispEdges" y1="0" y2="26" x1="238.8805597201399" x2="238.8805597201399"/><line clip-path="url(#13132)" stroke="black" stroke-dasharray="3,2" shape-rendering="crispEdges" y1="0" y2="26" x1="250.87456271864065" x2="250.87456271864065"/><line clip-path="url(#13132)" stroke="black" stroke-dasharray="3,2" shape-rendering="crispEdges" y1="0" y2="26" x1="267.1664167916042" x2="267.1664167916042"/><line clip-path="url(#13132)" stroke="black" stroke-dasharray="3,2" shape-rendering="crispEdges" y1="0" y2="26" x1="278.96051974012994" x2="278.96051974012994"/><line clip-path="url(#13132)" stroke="black" stroke-dasharray="3,2" shape-rendering="crispEdges" y1="0" y2="26" x1="296.2518740629685" x2="296.2518740629685"/><line clip-path="url(#13132)" stroke="black" stroke-dasharray="3,2" shape-rendering="crispEdges" y1="0" y2="26" x1="307.94602698650675" x2="307.94602698650675"/><line clip-path="url(#13132)" stroke="black" stroke-dasharray="3,2" shape-rendering="crispEdges" y1="0" y2="26" x1="334.43278360819585" x2="334.43278360819585"/><line clip-path="url(#13132)" stroke="black" stroke-dasharray="3,2" shape-rendering="crispEdges" y1="0" y2="26" x1="338.9305347326337" x2="338.9305347326337"/><line clip-path="url(#13132)" stroke="black" stroke-dasharray="3,2" shape-rendering="crispEdges" y1="0" y2="26" x1="350.82458770614693" x2="350.82458770614693"/><rect clip-path="url(#13132)" stroke-dasharray="none" fill="none" stroke="black" x="0" width="400" height="26"/><text font-family="Arial" fill="black" font-size="15" dominant-baseline="central" x="405" y="13">SOS1</text><text fill="#858585" fill-opacity="0" font-size="13" font-family="Arial" text-anchor="middle" dominant-baseline="auto" y="-24">ends at 1115 AA</text><defs><clipPath id="13132"><rect x="0" y="0" height="26" width="445.0234375"/></clipPath></defs><rect clip-path="url(#13132)" fill="white" fill-opacity="0" width="400" height="26"/></g><g transform="translate(82.15892053973016,106)"><line y1="26" stroke="black" stroke-opacity="0" shape-rendering="crispEdges" y2="29"/><rect clip-path="url(#21713)" fill="white" x="0" width="317.84107946026984" height="26"/><rect clip-path="url(#21713)" fill="#8dd3c7" x="48.27586206896551" width="31.18440779610195" height="26"/><rect clip-path="url(#21713)" fill="#bebada" x="68.36581709145428" width="0" height="26"/><rect clip-path="url(#21713)" fill="#bebada" x="147.22638680659668" width="0.299850074962535" height="26"/><rect clip-path="url(#21713)" fill="#bebada" x="120.23988005997002" width="0" height="26"/><rect clip-path="url(#21713)" fill="#bebada" x="135.83208395802097" width="0" height="26"/><rect clip-path="url(#21713)" fill="#bebada" x="78.26086956521739" width="0" height="26"/><rect clip-path="url(#21713)" fill="#bebada" x="146.62668665667167" width="0" height="26"/><rect clip-path="url(#21713)" fill="#8dd3c7" x="117.54122938530733" width="29.98500749625188" height="26"/><rect clip-path="url(#21713)" fill="#8dd3c7" x="81.85907046476761" width="31.784107946026978" height="26"/><rect clip-path="url(#21713)" fill="#bebada" x="78.86056971514242" width="0.2998500749625208" height="26"/><rect clip-path="url(#21713)" fill="#fb8072" x="22.488755622188904" width="23.988005997001494" height="26"/><rect clip-path="url(#21713)" fill="#bebada" x="67.76611694152923" width="0" height="26"/><rect clip-path="url(#21713)" fill="#bebada" x="50.37481259370314" width="0.2998500749625208" height="26"/><rect clip-path="url(#21713)" fill="#bebada" x="136.43178410794602" width="0" height="26"/><rect clip-path="url(#21713)" fill="#bebada" x="118.7406296851574" width="0" height="26"/><rect clip-path="url(#21713)" fill="#bebada" x="35.38230884557721" width="0" height="26"/><rect clip-path="url(#21713)" fill="#bebada" x="45.27736131934032" width="0.2998500749625208" height="26"/><rect clip-path="url(#21713)" fill="#80b1d3" x="242.87856071964018" width="16.491754122938517" height="26"/><rect clip-path="url(#21713)" fill="#bebada" x="18.590704647676162" width="0.29985007496251725" height="26"/><rect clip-path="url(#21713)" fill="#bebada" x="44.67766116941529" width="0" height="26"/><rect clip-path="url(#21713)" fill="#bebada" x="34.78260869565217" width="0" height="26"/><line clip-path="url(#21713)" stroke="black" stroke-dasharray="3,2" shape-rendering="crispEdges" y1="0" y2="26" x1="4.797601199400299" x2="4.797601199400299"/><line clip-path="url(#21713)" stroke="black" stroke-dasharray="3,2" shape-rendering="crispEdges" y1="0" y2="26" x1="8.395802098950524" x2="8.395802098950524"/><line clip-path="url(#21713)" stroke="black" stroke-dasharray="3,2" shape-rendering="crispEdges" y1="0" y2="26" x1="21.58920539730135" x2="21.58920539730135"/><line clip-path="url(#21713)" stroke="black" stroke-dasharray="3,2" shape-rendering="crispEdges" y1="0" y2="26" x1="37.181409295352324" x2="37.181409295352324"/><line clip-path="url(#21713)" stroke="black" stroke-dasharray="3,2" shape-rendering="crispEdges" y1="0" y2="26" x1="51.67416291854073" x2="51.67416291854073"/><line clip-path="url(#21713)" stroke="black" stroke-dasharray="3,2" shape-rendering="crispEdges" y1="0" y2="26" x1="68.36581709145428" x2="68.36581709145428"/><line clip-path="url(#21713)" stroke="black" stroke-dasharray="3,2" shape-rendering="crispEdges" y1="0" y2="26" x1="81.85907046476761" x2="81.85907046476761"/><line clip-path="url(#21713)" stroke="black" stroke-dasharray="3,2" shape-rendering="crispEdges" y1="0" y2="26" x1="100.44977511244376" x2="100.44977511244376"/><line clip-path="url(#21713)" stroke="black" stroke-dasharray="3,2" shape-rendering="crispEdges" y1="0" y2="26" x1="127.63618190904548" x2="127.63618190904548"/><line clip-path="url(#21713)" stroke="black" stroke-dasharray="3,2" shape-rendering="crispEdges" y1="0" y2="26" x1="141.62918540729632" x2="141.62918540729632"/><line clip-path="url(#21713)" stroke="black" stroke-dasharray="3,2" shape-rendering="crispEdges" y1="0" y2="26" x1="163.5182408795602" x2="163.5182408795602"/><line clip-path="url(#21713)" stroke="black" stroke-dasharray="3,2" shape-rendering="crispEdges" y1="0" y2="26" x1="193.20339830084956" x2="193.20339830084956"/><line clip-path="url(#21713)" stroke="black" stroke-dasharray="3,2" shape-rendering="crispEdges" y1="0" y2="26" x1="207.19640179910044" x2="207.19640179910044"/><line clip-path="url(#21713)" stroke="black" stroke-dasharray="3,2" shape-rendering="crispEdges" y1="0" y2="26" x1="241.07946026986505" x2="241.07946026986505"/><rect clip-path="url(#21713)" stroke-dasharray="none" fill="none" stroke="black" x="0" width="317.84107946026984" height="26"/><text font-family="Arial" fill="black" font-size="15" dominant-baseline="central" x="322.84107946026984" y="13">DSG4</text><text fill="#858585" fill-opacity="0" font-size="13" font-family="Arial" text-anchor="middle" dominant-baseline="hanging" y="50">starts at 645 AA</text><defs><clipPath id="21713"><rect x="0" y="0" height="26" width="363.69264196026984"/></clipPath></defs><rect clip-path="url(#21713)" fill="white" fill-opacity="0" width="317.84107946026984" height="26"/></g><line stroke="black" stroke-dasharray="3,2" x1="334.3328335832084" y1="34" x2="275.56221889055473" y2="98"/><g transform="translate(334.3328335832084,0)"><text font-family="Arial" font-size="13" fill="black" text-anchor="start" y="39" dominant-baseline="hanging">exon 20, 1115 AA</text><rect height="3" fill="black" x="-334.3328335832084" width="334.3328335832084" y="31"/></g><g transform="translate(275.56221889055473,106)"><text font-family="Arial" font-size="13" fill="black" text-anchor="end" y="-13" dominant-baseline="auto">exon 13, 645 AA</text><rect height="3" fill="black" x="0" width="124.43778110944527" y="-8"/></g></g><g transform="translate(40,238)"/><text class="sja_svgtext" fill="black" font-size="12" text-anchor="end" x="480.8515625" y="291" style="display: none;">drag to resize</text><g transform="translate(0,259.525390625)" style="font-family: Arial;"><g><text transform="translate(10,30)" text-anchor="start" font-weight="700" font-size="12" dominant-baseline="central">SOS1 NM_005633</text><g transform="translate(10,50)"><text transform="translate(12.5,5)" font-size="12" dominant-baseline="central"><tspan dominant-baseline="central" font-weight="700" x="0">Histone</tspan><tspan dominant-baseline="central" x="54.0078125">Core histone H2A/H2B/H3/H4</tspan></text><rect height="10" width="10" y="0.25" fill="#a6d854" stroke="#aaa" shape-rendering="crispEdges"/></g><g transform="translate(10,75)"><text transform="translate(12.5,5)" font-size="12" dominant-baseline="central"><tspan dominant-baseline="central" font-weight="700" x="0">RhoGEF</tspan><tspan dominant-baseline="central" x="58">Guanine nucleotide exchange factor for Rho/Rac/Cdc42-like GTPases</tspan></text><rect height="10" width="10" y="0.2373046875" fill="#E8E89E" stroke="#aaa" shape-rendering="crispEdges"/></g><g transform="translate(10,100)"><text transform="translate(12.5,5)" font-size="12" dominant-baseline="central"><tspan dominant-baseline="central" font-weight="700" x="0">other</tspan><tspan dominant-baseline="central" x="40">GTPase interaction site [polypeptide binding]</tspan></text><rect height="10" width="10" y="0.2373046875" fill="#bebada" stroke="#aaa" shape-rendering="crispEdges"/></g><g transform="translate(10,125)"><text transform="translate(12.5,5)" font-size="12" dominant-baseline="central"><tspan dominant-baseline="central" font-weight="700" x="0">PH_SOS</tspan><tspan dominant-baseline="central" x="58.6875">Son of Sevenless (SOS) Pleckstrin homology (PH) domain</tspan></text><rect height="10" width="10" y="0.2373046875" fill="#fdb462" stroke="#aaa" shape-rendering="crispEdges"/></g><g transform="translate(10,150)"><text transform="translate(12.5,5)" font-size="12" dominant-baseline="central"><tspan dominant-baseline="central" font-weight="700" x="0">RasGEFN</tspan><tspan dominant-baseline="central" x="65.3515625">Guanine nucleotide exchange factor for Ras-like GTPases; N-terminal motif</tspan></text><rect height="10" width="10" y="0.2373046875" fill="#8dd3c7" stroke="#aaa" shape-rendering="crispEdges"/></g><g transform="translate(10,175)"><text transform="translate(12.5,5)" font-size="12" dominant-baseline="central"><tspan dominant-baseline="central" font-weight="700" x="0">RasGEF</tspan><tspan dominant-baseline="central" x="56.6875">Guanine nucleotide exchange factor for Ras-like small GTPases. Small GTP-bind...</tspan></text><rect height="10" width="10" y="0.2373046875" fill="#ffd92f" stroke="#aaa" shape-rendering="crispEdges"/></g><g transform="translate(10,200)"><text transform="translate(12.5,5)" font-size="12" dominant-baseline="central"><tspan dominant-baseline="central" font-weight="700" x="0">other</tspan><tspan dominant-baseline="central" x="40">Ras interaction site [polypeptide binding]</tspan></text><rect height="10" width="10" y="0.2373046875" fill="#80b1d3" stroke="#aaa" shape-rendering="crispEdges"/></g><g transform="translate(10,225)"><text transform="translate(12.5,5)" font-size="12" dominant-baseline="central"><tspan dominant-baseline="central" font-weight="700" x="0">PTZ00449</tspan><tspan dominant-baseline="central" x="66.0390625">104 kDa microneme/rhoptry antigen</tspan></text><rect height="10" width="10" y="0.2373046875" fill="#fb8072" stroke="#aaa" shape-rendering="crispEdges"/></g></g><g><text transform="translate(10,255)" text-anchor="start" font-weight="700" font-size="12" dominant-baseline="central">DSG4 NM_001134453</text><g transform="translate(10,275)"><text transform="translate(12.5,5)" font-size="12" dominant-baseline="central"><tspan dominant-baseline="central" font-weight="700" x="0">other</tspan><tspan dominant-baseline="central" x="40">Ca2+ binding site [ion binding]</tspan></text><rect height="10" width="10" y="0.2373046875" fill="#bebada" stroke="#aaa" shape-rendering="crispEdges"/></g><g transform="translate(10,300)"><text transform="translate(12.5,5)" font-size="12" dominant-baseline="central"><tspan dominant-baseline="central" font-weight="700" x="0">CA</tspan><tspan dominant-baseline="central" x="27.3359375">Cadherin repeats</tspan></text><rect height="10" width="10" y="0.25" fill="#fb8072" stroke="#aaa" shape-rendering="crispEdges"/></g><g transform="translate(10,325)"><text transform="translate(12.5,5)" font-size="12" dominant-baseline="central"><tspan dominant-baseline="central" font-weight="700" x="0">Cadherin_repeat</tspan><tspan dominant-baseline="central" x="104.703125">Cadherin tandem repeat domain</tspan></text><rect height="10" width="10" y="0.25" fill="#8dd3c7" stroke="#aaa" shape-rendering="crispEdges"/></g><g transform="translate(10,350)"><text transform="translate(12.5,5)" font-size="12" dominant-baseline="central"><tspan dominant-baseline="central" font-weight="700" x="0">Cadherin_C</tspan><tspan dominant-baseline="central" x="77.3515625">Cadherin cytoplasmic region</tspan></text><rect height="10" width="10" y="0.2373046875" fill="#80b1d3" stroke="#aaa" shape-rendering="crispEdges"/></g></g></g></svg>