<svg xmlns="http://www.w3.org/2000/svg" width="1023.234375" height="596.525390625"><g transform="translate(40,70)"><g transform="translate(0,0)"><line y1="-3" stroke="black" stroke-opacity="0" shape-rendering="crispEdges" y2="0"/><rect clip-path="url(#36665)" fill="white" x="0" width="400" height="26"/><line clip-path="url(#36665)" stroke="black" stroke-dasharray="3,2" shape-rendering="crispEdges" y1="0" y2="26" x1="18.246869409660107" x2="18.246869409660107"/><line clip-path="url(#36665)" stroke="black" stroke-dasharray="3,2" shape-rendering="crispEdges" y1="0" y2="26" x1="36.612999403697074" x2="36.612999403697074"/><line clip-path="url(#36665)" stroke="black" stroke-dasharray="3,2" shape-rendering="crispEdges" y1="0" y2="26" x1="231.12701252236135" x2="231.12701252236135"/><line clip-path="url(#36665)" stroke="black" stroke-dasharray="3,2" shape-rendering="crispEdges" y1="0" y2="26" x1="255.93321407274897" x2="255.93321407274897"/><line clip-path="url(#36665)" stroke="black" stroke-dasharray="3,2" shape-rendering="crispEdges" y1="0" y2="26" x1="264.75849731663686" x2="264.75849731663686"/><line clip-path="url(#36665)" stroke="black" stroke-dasharray="3,2" shape-rendering="crispEdges" y1="0" y2="26" x1="285.7483601669648" x2="285.7483601669648"/><line clip-path="url(#36665)" stroke="black" stroke-dasharray="3,2" shape-rendering="crispEdges" y1="0" y2="26" x1="305.3070960047704" x2="305.3070960047704"/><line clip-path="url(#36665)" stroke="black" stroke-dasharray="3,2" shape-rendering="crispEdges" y1="0" y2="26" x1="316.27906976744185" x2="316.27906976744185"/><line clip-path="url(#36665)" stroke="black" stroke-dasharray="3,2" shape-rendering="crispEdges" y1="0" y2="26" x1="327.13178294573646" x2="327.13178294573646"/><line clip-path="url(#36665)" stroke="black" stroke-dasharray="3,2" shape-rendering="crispEdges" y1="0" y2="26" x1="337.149672033393" x2="337.149672033393"/><line clip-path="url(#36665)" stroke="black" stroke-dasharray="3,2" shape-rendering="crispEdges" y1="0" y2="26" x1="355.8735837805605" x2="355.8735837805605"/><line clip-path="url(#36665)" stroke="black" stroke-dasharray="3,2" shape-rendering="crispEdges" y1="0" y2="26" x1="368.15742397137745" x2="368.15742397137745"/><line clip-path="url(#36665)" stroke="black" stroke-dasharray="3,2" shape-rendering="crispEdges" y1="0" y2="26" x1="382.1109123434705" x2="382.1109123434705"/><line clip-path="url(#36665)" stroke="black" stroke-dasharray="3,2" shape-rendering="crispEdges" y1="0" y2="26" x1="389.2665474060823" x2="389.2665474060823"/><rect clip-path="url(#36665)" stroke-dasharray="none" fill="none" stroke="black" x="0" width="400" height="26"/><text font-family="Arial" fill="black" font-size="15" dominant-baseline="central" x="405" y="13">SPECC1L</text><text fill="#858585" fill-opacity="0" font-size="13" font-family="Arial" text-anchor="middle" dominant-baseline="auto" y="-24">ends at 716 AA</text><defs><clipPath id="36665"><rect x="0" y="0" height="26" width="473.3671875"/></clipPath></defs><rect clip-path="url(#36665)" fill="white" fill-opacity="0" width="400" height="26"/></g><g transform="translate(70.22451755931581,106)"><line y1="26" stroke="black" stroke-opacity="0" shape-rendering="crispEdges" y2="29"/><rect clip-path="url(#89258)" fill="white" x="0" width="300.1788908765653" height="26"/><rect clip-path="url(#89258)" fill="#8dd3c7" x="198.21109123434704" width="96.24329159212877" height="26"/><rect clip-path="url(#89258)" fill="#bebada" x="247.5849731663685" width="0" height="26"/><rect clip-path="url(#89258)" fill="#fb8072" x="32.91592128801431" width="20.75134168157424" height="26"/><rect clip-path="url(#89258)" fill="#80b1d3" x="254.02504472271912" width="0" height="26"/><rect clip-path="url(#89258)" fill="#E8E89E" x="119.85688729874776" width="0" height="26"/><rect clip-path="url(#89258)" fill="#bebada" x="249.01610017889087" width="0" height="26"/><rect clip-path="url(#89258)" fill="#80b1d3" x="200.35778175313058" width="0.35778175313060956" height="26"/><rect clip-path="url(#89258)" fill="#E8E89E" x="126.29695885509838" width="0" height="26"/><rect clip-path="url(#89258)" fill="#E8E89E" x="124.86583184257603" width="0.35778175313058114" height="26"/><rect clip-path="url(#89258)" fill="#80b1d3" x="228.6225402504472" width="0.35778175313058114" height="26"/><rect clip-path="url(#89258)" fill="#a6d854" x="110.912343470483" width="0" height="26"/><rect clip-path="url(#89258)" fill="#80b1d3" x="250.08944543828264" width="0" height="26"/><rect clip-path="url(#89258)" fill="#bebada" x="277.28085867620746" width="0" height="26"/><rect clip-path="url(#89258)" fill="#80b1d3" x="249.01610017889087" width="0.35778175313058114" height="26"/><rect clip-path="url(#89258)" fill="#bebada" x="265.1162790697674" width="0" height="26"/><rect clip-path="url(#89258)" fill="#80b1d3" x="209.66010733452592" width="0" height="26"/><rect clip-path="url(#89258)" fill="#fdb462" x="253.66726296958853" width="8.944543828264727" height="26"/><rect clip-path="url(#89258)" fill="#bebada" x="260.4651162790698" width="1.4311270125223245" height="26"/><rect clip-path="url(#89258)" fill="#80b1d3" x="226.47584973166366" width="1.0733452593917718" height="26"/><rect clip-path="url(#89258)" fill="#ffd92f" x="54.382826475849726" width="15.384615384615387" height="26"/><rect clip-path="url(#89258)" fill="#e5c494" x="196.06440071556352" width="102.68336314847937" height="26"/><rect clip-path="url(#89258)" fill="#b3b3b3" x="107.69230769230768" width="27.90697674418604" height="26"/><rect clip-path="url(#89258)" fill="#8dd3c7" x="73.34525939177102" width="27.90697674418604" height="26"/><rect clip-path="url(#89258)" fill="#80b1d3" x="210.3756708407871" width="0" height="26"/><rect clip-path="url(#89258)" fill="#80b1d3" x="203.22003577817532" width="0" height="26"/><rect clip-path="url(#89258)" fill="#80b1d3" x="201.43112701252235" width="0.35778175313060956" height="26"/><line clip-path="url(#89258)" stroke="black" stroke-dasharray="3,2" shape-rendering="crispEdges" y1="0" y2="26" x1="25.28324388789505" x2="25.28324388789505"/><line clip-path="url(#89258)" stroke="black" stroke-dasharray="3,2" shape-rendering="crispEdges" y1="0" y2="26" x1="34.22778771615981" x2="34.22778771615981"/><line clip-path="url(#89258)" stroke="black" stroke-dasharray="3,2" shape-rendering="crispEdges" y1="0" y2="26" x1="42.81454979129398" x2="42.81454979129398"/><line clip-path="url(#89258)" stroke="black" stroke-dasharray="3,2" shape-rendering="crispEdges" y1="0" y2="26" x1="51.04353011329755" x2="51.04353011329755"/><line clip-path="url(#89258)" stroke="black" stroke-dasharray="3,2" shape-rendering="crispEdges" y1="0" y2="26" x1="69.52892069171139" x2="69.52892069171139"/><line clip-path="url(#89258)" stroke="black" stroke-dasharray="3,2" shape-rendering="crispEdges" y1="0" y2="26" x1="85.86762075134168" x2="85.86762075134168"/><line clip-path="url(#89258)" stroke="black" stroke-dasharray="3,2" shape-rendering="crispEdges" y1="0" y2="26" x1="101.72927847346452" x2="101.72927847346452"/><line clip-path="url(#89258)" stroke="black" stroke-dasharray="3,2" shape-rendering="crispEdges" y1="0" y2="26" x1="138.2230172927847" x2="138.2230172927847"/><line clip-path="url(#89258)" stroke="black" stroke-dasharray="3,2" shape-rendering="crispEdges" y1="0" y2="26" x1="142.51639833035182" x2="142.51639833035182"/><line clip-path="url(#89258)" stroke="black" stroke-dasharray="3,2" shape-rendering="crispEdges" y1="0" y2="26" x1="154.56171735241503" x2="154.56171735241503"/><line clip-path="url(#89258)" stroke="black" stroke-dasharray="3,2" shape-rendering="crispEdges" y1="0" y2="26" x1="166.48777579010135" x2="166.48777579010135"/><line clip-path="url(#89258)" stroke="black" stroke-dasharray="3,2" shape-rendering="crispEdges" y1="0" y2="26" x1="172.2122838401908" x2="172.2122838401908"/><line clip-path="url(#89258)" stroke="black" stroke-dasharray="3,2" shape-rendering="crispEdges" y1="0" y2="26" x1="194.75253428741803" x2="194.75253428741803"/><line clip-path="url(#89258)" stroke="black" stroke-dasharray="3,2" shape-rendering="crispEdges" y1="0" y2="26" x1="210.3756708407871" x2="210.3756708407871"/><line clip-path="url(#89258)" stroke="black" stroke-dasharray="3,2" shape-rendering="crispEdges" y1="0" y2="26" x1="231.00775193798447" x2="231.00775193798447"/><line clip-path="url(#89258)" stroke="black" stroke-dasharray="3,2" shape-rendering="crispEdges" y1="0" y2="26" x1="259.0339892665474" x2="259.0339892665474"/><line clip-path="url(#89258)" stroke="black" stroke-dasharray="3,2" shape-rendering="crispEdges" y1="0" y2="26" x1="277.9964221824687" x2="277.9964221824687"/><rect clip-path="url(#89258)" stroke-dasharray="none" fill="none" stroke="black" x="0" width="300.1788908765653" height="26"/><text font-family="Arial" fill="black" font-size="15" dominant-baseline="central" x="305.1788908765653" y="13">NTRK2</text><text fill="#858585" fill-opacity="0" font-size="13" font-family="Arial" text-anchor="middle" dominant-baseline="hanging" y="50">starts at 482 AA</text><defs><clipPath id="89258"><rect x="0" y="0" height="26" width="354.3585783765653"/></clipPath></defs><rect clip-path="url(#89258)" fill="white" fill-opacity="0" width="300.1788908765653" height="26"/></g><line stroke="black" stroke-dasharray="3,2" x1="256.1717352415027" y1="34" x2="242.67532256826036" y2="98"/><g transform="translate(256.1717352415027,0)"><text font-family="Arial" font-size="13" fill="black" text-anchor="start" y="39" dominant-baseline="hanging">exon 6, 716 AA</text><rect height="3" fill="black" x="-256.1717352415027" width="256.1717352415027" y="31"/></g><g transform="translate(242.67532256826036,106)"><text font-family="Arial" font-size="13" fill="black" text-anchor="end" y="-13" dominant-baseline="auto">exon 14, 482 AA</text><rect height="3" fill="black" x="0" width="127.72808586762073" y="-8"/></g></g><g transform="translate(40,238)"/><text class="sja_svgtext" fill="black" font-size="12" text-anchor="end" x="508.3671875" y="291" style="display: none;">drag to resize</text><g transform="translate(0,259.525390625)" style="font-family: Arial;"><g/><g><text transform="translate(10,30)" text-anchor="start" font-weight="700" font-size="12" dominant-baseline="central">NTRK2 NM_006180</text><g transform="translate(10,50)"><text transform="translate(12.5,5)" font-size="12" dominant-baseline="central"><tspan dominant-baseline="central" font-weight="700" x="0">LRR_8</tspan><tspan dominant-baseline="central" x="48.015625">Leucine rich repeat</tspan></text><rect height="10" width="10" y="0.25" fill="#fb8072" stroke="#aaa" shape-rendering="crispEdges"/></g><g transform="translate(10,75)"><text transform="translate(12.5,5)" font-size="12" dominant-baseline="central"><tspan dominant-baseline="central" font-weight="700" x="0">TPKR_C2</tspan><tspan dominant-baseline="central" x="64.6796875">Tyrosine-protein kinase receptor C2 Ig-like domain</tspan></text><rect height="10" width="10" y="0.2373046875" fill="#ffd92f" stroke="#aaa" shape-rendering="crispEdges"/></g><g transform="translate(10,100)"><text transform="translate(12.5,5)" font-size="12" dominant-baseline="central"><tspan dominant-baseline="central" font-weight="700" x="0">Ig</tspan><tspan dominant-baseline="central" x="20.6640625">Immunoglobulin domain</tspan></text><rect height="10" width="10" y="0.2373046875" fill="#8dd3c7" stroke="#aaa" shape-rendering="crispEdges"/></g><g transform="translate(10,125)"><text transform="translate(12.5,5)" font-size="12" dominant-baseline="central"><tspan dominant-baseline="central" font-weight="700" x="0">Ig_TrkB_d5</tspan><tspan dominant-baseline="central" x="74.6953125">Fifth domain (immunoglobulin-like) of Trk receptor TrkB</tspan></text><rect height="10" width="10" y="0.2373046875" fill="#b3b3b3" stroke="#aaa" shape-rendering="crispEdges"/></g><g transform="translate(10,150)"><text transform="translate(12.5,5)" font-size="12" dominant-baseline="central"><tspan dominant-baseline="central" font-weight="700" x="0">other</tspan><tspan dominant-baseline="central" x="40">interdomain interaction [polypeptide binding]</tspan></text><rect height="10" width="10" y="0.2373046875" fill="#a6d854" stroke="#aaa" shape-rendering="crispEdges"/></g><g transform="translate(10,175)"><text transform="translate(12.5,5)" font-size="12" dominant-baseline="central"><tspan dominant-baseline="central" font-weight="700" x="0">other</tspan><tspan dominant-baseline="central" x="40">receptor binding site [polypeptide binding]</tspan></text><rect height="10" width="10" y="0.2373046875" fill="#E8E89E" stroke="#aaa" shape-rendering="crispEdges"/></g><g transform="translate(10,200)"><text transform="translate(12.5,5)" font-size="12" dominant-baseline="central"><tspan dominant-baseline="central" font-weight="700" x="0">PTKc_TrkB</tspan><tspan dominant-baseline="central" x="74.03125">Catalytic domain of the Protein Tyrosine Kinase, Tropomyosin Related Kinase B</tspan></text><rect height="10" width="10" y="0.2373046875" fill="#e5c494" stroke="#aaa" shape-rendering="crispEdges"/></g><g transform="translate(10,225)"><text transform="translate(12.5,5)" font-size="12" dominant-baseline="central"><tspan dominant-baseline="central" font-weight="700" x="0">Pkinase_Tyr</tspan><tspan dominant-baseline="central" x="79.8203125">Protein tyrosine kinase</tspan></text><rect height="10" width="10" y="0.2373046875" fill="#8dd3c7" stroke="#aaa" shape-rendering="crispEdges"/></g><g transform="translate(10,250)"><text transform="translate(12.5,5)" font-size="12" dominant-baseline="central"><tspan dominant-baseline="central" font-weight="700" x="0">other</tspan><tspan dominant-baseline="central" x="40">ATP binding site [chemical binding]</tspan></text><rect height="10" width="10" y="0.2373046875" fill="#80b1d3" stroke="#aaa" shape-rendering="crispEdges"/></g><g transform="translate(10,275)"><text transform="translate(12.5,5)" font-size="12" dominant-baseline="central"><tspan dominant-baseline="central" font-weight="700" x="0">other</tspan><tspan dominant-baseline="central" x="40">polypeptide substrate binding site [polypeptide binding]</tspan></text><rect height="10" width="10" y="0.2373046875" fill="#bebada" stroke="#aaa" shape-rendering="crispEdges"/></g><g transform="translate(10,300)"><text transform="translate(12.5,5)" font-size="12" dominant-baseline="central"><tspan dominant-baseline="central" font-weight="700" x="0">other</tspan><tspan dominant-baseline="central" x="40">activation loop (A-loop)</tspan></text><rect height="10" width="10" y="0.2373046875" fill="#fdb462" stroke="#aaa" shape-rendering="crispEdges"/></g></g></g></svg>