<svg xmlns="http://www.w3.org/2000/svg" width="1027.828125" height="846.525390625"><g transform="translate(40,70)"><g transform="translate(125.85119663878585,0)"><line y1="-3" stroke="black" stroke-opacity="0" shape-rendering="crispEdges" y2="0"/><rect clip-path="url(#59676)" fill="white" x="0" width="210.25029797377832" height="26"/><rect clip-path="url(#59676)" fill="#b3b3b3" x="1.9070321811680573" width="46.722288438617404" height="26"/><rect clip-path="url(#59676)" fill="#fb8072" x="180.69129916567343" width="28.605482717520857" height="26"/><rect clip-path="url(#59676)" fill="#e5c494" x="60.0715137067938" width="20.023837902264596" height="26"/><rect clip-path="url(#59676)" fill="#8dd3c7" x="194.99404052443384" width="1.4302741358760613" height="26"/><rect clip-path="url(#59676)" fill="#8dd3c7" x="192.61025029797378" width="0.9535160905840314" height="26"/><rect clip-path="url(#59676)" fill="#8dd3c7" x="205.00595947556616" width="0.9535160905840314" height="26"/><rect clip-path="url(#59676)" fill="#8dd3c7" x="197.85458879618594" width="0.4767580452920299" height="26"/><rect clip-path="url(#59676)" fill="#fdb462" x="67.22288438617403" width="0" height="26"/><rect clip-path="url(#59676)" fill="#a6d854" x="76.28128724672229" width="0" height="26"/><rect clip-path="url(#59676)" fill="#bebada" x="77.71156138259833" width="0" height="26"/><rect clip-path="url(#59676)" fill="#bebada" x="76.28128724672229" width="0" height="26"/><rect clip-path="url(#59676)" fill="#fdb462" x="66.26936829558998" width="0" height="26"/><rect clip-path="url(#59676)" fill="#E8E89E" x="71.99046483909416" width="0" height="26"/><rect clip-path="url(#59676)" fill="#80b1d3" x="80.0953516090584" width="0" height="26"/><rect clip-path="url(#59676)" fill="#E8E89E" x="73.4207389749702" width="0" height="26"/><rect clip-path="url(#59676)" fill="#bebada" x="67.69964243146603" width="0" height="26"/><rect clip-path="url(#59676)" fill="#a6d854" x="69.12991656734208" width="0" height="26"/><rect clip-path="url(#59676)" fill="#80b1d3" x="66.746126340882" width="0" height="26"/><rect clip-path="url(#59676)" fill="#a6d854" x="67.69964243146603" width="0" height="26"/><rect clip-path="url(#59676)" fill="#fdb462" x="61.50178784266985" width="0" height="26"/><rect clip-path="url(#59676)" fill="#bebada" x="61.02502979737783" width="0" height="26"/><rect clip-path="url(#59676)" fill="#8dd3c7" x="199.761620977354" width="0" height="26"/><rect clip-path="url(#59676)" fill="#80b1d3" x="78.66507747318236" width="0" height="26"/><rect clip-path="url(#59676)" fill="#bebada" x="69.12991656734208" width="0" height="26"/><rect clip-path="url(#59676)" fill="#fdb462" x="71.03694874851014" width="0" height="26"/><rect clip-path="url(#59676)" fill="#fdb462" x="70.0834326579261" width="0" height="26"/><rect clip-path="url(#59676)" fill="#bebada" x="73.4207389749702" width="0" height="26"/><rect clip-path="url(#59676)" fill="#bebada" x="62.45530393325388" width="0" height="26"/><rect clip-path="url(#59676)" fill="#E8E89E" x="61.02502979737783" width="0" height="26"/><rect clip-path="url(#59676)" fill="#a6d854" x="77.71156138259833" width="0" height="26"/><rect clip-path="url(#59676)" fill="#E8E89E" x="62.45530393325388" width="0" height="26"/><rect clip-path="url(#59676)" fill="#bebada" x="71.99046483909416" width="0" height="26"/><line clip-path="url(#59676)" stroke="black" stroke-dasharray="3,2" shape-rendering="crispEdges" y1="0" y2="26" x1="32.57846642828765" x2="32.57846642828765"/><line clip-path="url(#59676)" stroke="black" stroke-dasharray="3,2" shape-rendering="crispEdges" y1="0" y2="26" x1="47.8347238776321" x2="47.8347238776321"/><line clip-path="url(#59676)" stroke="black" stroke-dasharray="3,2" shape-rendering="crispEdges" y1="0" y2="26" x1="84.38617401668654" x2="84.38617401668654"/><line clip-path="url(#59676)" stroke="black" stroke-dasharray="3,2" shape-rendering="crispEdges" y1="0" y2="26" x1="106.95272149384189" x2="106.95272149384189"/><line clip-path="url(#59676)" stroke="black" stroke-dasharray="3,2" shape-rendering="crispEdges" y1="0" y2="26" x1="119.82518871672627" x2="119.82518871672627"/><line clip-path="url(#59676)" stroke="black" stroke-dasharray="3,2" shape-rendering="crispEdges" y1="0" y2="26" x1="153.99284862932063" x2="153.99284862932063"/><line clip-path="url(#59676)" stroke="black" stroke-dasharray="3,2" shape-rendering="crispEdges" y1="0" y2="26" x1="185.1410409217322" x2="185.1410409217322"/><rect clip-path="url(#59676)" stroke-dasharray="none" fill="none" stroke="black" x="0" width="210.25029797377832" height="26"/><text font-family="Arial" fill="black" font-size="15" dominant-baseline="central" x="215.25029797377832" y="13">SQSTM1</text><text fill="#858585" fill-opacity="0" font-size="13" font-family="Arial" text-anchor="middle" dominant-baseline="auto" y="-24">ends at 252 AA</text><defs><clipPath id="59676"><rect x="0" y="0" height="26" width="276.9299854737783"/></clipPath></defs><rect clip-path="url(#59676)" fill="white" fill-opacity="0" width="210.25029797377832" height="26"/></g><g transform="translate(0,106)"><line y1="26" stroke="black" stroke-opacity="0" shape-rendering="crispEdges" y2="29"/><rect clip-path="url(#53390)" fill="white" x="0" width="400" height="26"/><rect clip-path="url(#53390)" fill="#8dd3c7" x="264.12395709177594" width="128.2479141835518" height="26"/><rect clip-path="url(#53390)" fill="#bebada" x="329.9165673420739" width="0" height="26"/><rect clip-path="url(#53390)" fill="#fb8072" x="43.86174016686532" width="27.651966626936826" height="26"/><rect clip-path="url(#53390)" fill="#80b1d3" x="338.49821215733016" width="0" height="26"/><rect clip-path="url(#53390)" fill="#E8E89E" x="159.7139451728248" width="0" height="26"/><rect clip-path="url(#53390)" fill="#bebada" x="331.82359952324197" width="0" height="26"/><rect clip-path="url(#53390)" fill="#80b1d3" x="266.984505363528" width="0.47675804529205834" height="26"/><rect clip-path="url(#53390)" fill="#E8E89E" x="168.29558998808105" width="0" height="26"/><rect clip-path="url(#53390)" fill="#E8E89E" x="166.38855780691298" width="0.4767580452920299" height="26"/><rect clip-path="url(#53390)" fill="#80b1d3" x="304.64839094159714" width="0.4767580452920015" height="26"/><rect clip-path="url(#53390)" fill="#a6d854" x="147.79499404052444" width="0" height="26"/><rect clip-path="url(#53390)" fill="#80b1d3" x="333.253873659118" width="0" height="26"/><rect clip-path="url(#53390)" fill="#bebada" x="369.48748510131105" width="0" height="26"/><rect clip-path="url(#53390)" fill="#80b1d3" x="331.82359952324197" width="0.4767580452920015" height="26"/><rect clip-path="url(#53390)" fill="#bebada" x="353.2777115613826" width="0" height="26"/><rect clip-path="url(#53390)" fill="#80b1d3" x="279.3802145411204" width="0" height="26"/><rect clip-path="url(#53390)" fill="#fdb462" x="338.02145411203816" width="11.918951132300322" height="26"/><rect clip-path="url(#53390)" fill="#bebada" x="347.0798569725864" width="1.9070321811680628" height="26"/><rect clip-path="url(#53390)" fill="#80b1d3" x="301.787842669845" width="1.4302741358760613" height="26"/><rect clip-path="url(#53390)" fill="#ffd92f" x="72.46722288438617" width="20.50059594755662" height="26"/><rect clip-path="url(#53390)" fill="#e5c494" x="261.26340882002387" width="136.82955899880807" height="26"/><rect clip-path="url(#53390)" fill="#b3b3b3" x="143.50417163289632" width="37.18712753277708" height="26"/><rect clip-path="url(#53390)" fill="#8dd3c7" x="97.73539928486294" width="37.187127532777126" height="26"/><rect clip-path="url(#53390)" fill="#80b1d3" x="280.33373063170444" width="0" height="26"/><rect clip-path="url(#53390)" fill="#80b1d3" x="270.7985697258641" width="0" height="26"/><rect clip-path="url(#53390)" fill="#80b1d3" x="268.41477949940406" width="0.4767580452920015" height="26"/><line clip-path="url(#53390)" stroke="black" stroke-dasharray="3,2" shape-rendering="crispEdges" y1="0" y2="26" x1="33.690901867302344" x2="33.690901867302344"/><line clip-path="url(#53390)" stroke="black" stroke-dasharray="3,2" shape-rendering="crispEdges" y1="0" y2="26" x1="45.6098529996027" x2="45.6098529996027"/><line clip-path="url(#53390)" stroke="black" stroke-dasharray="3,2" shape-rendering="crispEdges" y1="0" y2="26" x1="57.05204608661105" x2="57.05204608661105"/><line clip-path="url(#53390)" stroke="black" stroke-dasharray="3,2" shape-rendering="crispEdges" y1="0" y2="26" x1="68.01748112832738" x2="68.01748112832738"/><line clip-path="url(#53390)" stroke="black" stroke-dasharray="3,2" shape-rendering="crispEdges" y1="0" y2="26" x1="92.64998013508145" x2="92.64998013508145"/><line clip-path="url(#53390)" stroke="black" stroke-dasharray="3,2" shape-rendering="crispEdges" y1="0" y2="26" x1="114.42193087008343" x2="114.42193087008343"/><line clip-path="url(#53390)" stroke="black" stroke-dasharray="3,2" shape-rendering="crispEdges" y1="0" y2="26" x1="135.55820421136272" x2="135.55820421136272"/><line clip-path="url(#53390)" stroke="black" stroke-dasharray="3,2" shape-rendering="crispEdges" y1="0" y2="26" x1="184.18752483114818" x2="184.18752483114818"/><line clip-path="url(#53390)" stroke="black" stroke-dasharray="3,2" shape-rendering="crispEdges" y1="0" y2="26" x1="189.90862137465237" x2="189.90862137465237"/><line clip-path="url(#53390)" stroke="black" stroke-dasharray="3,2" shape-rendering="crispEdges" y1="0" y2="26" x1="205.9594755661502" x2="205.9594755661502"/><line clip-path="url(#53390)" stroke="black" stroke-dasharray="3,2" shape-rendering="crispEdges" y1="0" y2="26" x1="221.8514104092173" x2="221.8514104092173"/><line clip-path="url(#53390)" stroke="black" stroke-dasharray="3,2" shape-rendering="crispEdges" y1="0" y2="26" x1="229.47953913388952" x2="229.47953913388952"/><line clip-path="url(#53390)" stroke="black" stroke-dasharray="3,2" shape-rendering="crispEdges" y1="0" y2="26" x1="259.5152959872865" x2="259.5152959872865"/><line clip-path="url(#53390)" stroke="black" stroke-dasharray="3,2" shape-rendering="crispEdges" y1="0" y2="26" x1="280.33373063170444" x2="280.33373063170444"/><line clip-path="url(#53390)" stroke="black" stroke-dasharray="3,2" shape-rendering="crispEdges" y1="0" y2="26" x1="307.8267779102105" x2="307.8267779102105"/><line clip-path="url(#53390)" stroke="black" stroke-dasharray="3,2" shape-rendering="crispEdges" y1="0" y2="26" x1="345.17282479141835" x2="345.17282479141835"/><line clip-path="url(#53390)" stroke="black" stroke-dasharray="3,2" shape-rendering="crispEdges" y1="0" y2="26" x1="370.4410011918951" x2="370.4410011918951"/><rect clip-path="url(#53390)" stroke-dasharray="none" fill="none" stroke="black" x="0" width="400" height="26"/><text font-family="Arial" fill="black" font-size="15" dominant-baseline="central" x="405" y="13">NTRK2</text><text fill="#858585" fill-opacity="0" font-size="13" font-family="Arial" text-anchor="middle" dominant-baseline="hanging" y="50">starts at 545 AA</text><defs><clipPath id="53390"><rect x="0" y="0" height="26" width="454.1796875"/></clipPath></defs><rect clip-path="url(#53390)" fill="white" fill-opacity="0" width="400" height="26"/></g><line stroke="black" stroke-dasharray="3,2" x1="245.99422405237345" y1="34" x2="259.8331346841478" y2="98"/><g transform="translate(245.99422405237345,0)"><text font-family="Arial" font-size="13" fill="black" text-anchor="end" y="39" dominant-baseline="hanging">exon 5, 252 AA</text><rect height="3" fill="black" x="-120.1430274135876" width="120.1430274135876" y="31"/></g><g transform="translate(259.8331346841478,106)"><text font-family="Arial" font-size="13" fill="black" text-anchor="start" y="-13" dominant-baseline="auto">exon 15, 545 AA</text><rect height="3" fill="black" x="0" width="140.1668653158522" y="-8"/></g></g><g transform="translate(40,238)"/><text class="sja_svgtext" fill="black" font-size="12" text-anchor="end" x="501.6796875" y="291" style="display: none;">drag to resize</text><g transform="translate(0,259.525390625)" style="font-family: Arial;"><g><text transform="translate(10,30)" text-anchor="start" font-weight="700" font-size="12" dominant-baseline="central">SQSTM1 NM_003900</text><g transform="translate(10,50)"><text transform="translate(12.5,5)" font-size="12" dominant-baseline="central"><tspan dominant-baseline="central" font-weight="700" x="0">PB1_p62</tspan><tspan dominant-baseline="central" x="60.6953125">The PB1 domain is an essential part of p62 scaffold protein (alias sequestoso...</tspan></text><rect height="10" width="10" y="0.2373046875" fill="#b3b3b3" stroke="#aaa" shape-rendering="crispEdges"/></g><g transform="translate(10,75)"><text transform="translate(12.5,5)" font-size="12" dominant-baseline="central"><tspan dominant-baseline="central" font-weight="700" x="0">ZZ_NBR1_like</tspan><tspan dominant-baseline="central" x="90.6953125">Zinc finger, ZZ type. Zinc finger present in Drosophila ref(2)P, NBR1, Human ...</tspan></text><rect height="10" width="10" y="0.2373046875" fill="#e5c494" stroke="#aaa" shape-rendering="crispEdges"/></g><g transform="translate(10,100)"><text transform="translate(12.5,5)" font-size="12" dominant-baseline="central"><tspan dominant-baseline="central" font-weight="700" x="0">other</tspan><tspan dominant-baseline="central" x="40">Zinc-binding sites [ion binding]</tspan></text><rect height="10" width="10" y="0.2373046875" fill="#bebada" stroke="#aaa" shape-rendering="crispEdges"/></g><g transform="translate(10,125)"><text transform="translate(12.5,5)" font-size="12" dominant-baseline="central"><tspan dominant-baseline="central" font-weight="700" x="0">other</tspan><tspan dominant-baseline="central" x="40">zinc cluster 1 [ion binding]</tspan></text><rect height="10" width="10" y="0.2373046875" fill="#E8E89E" stroke="#aaa" shape-rendering="crispEdges"/></g><g transform="translate(10,150)"><text transform="translate(12.5,5)" font-size="12" dominant-baseline="central"><tspan dominant-baseline="central" font-weight="700" x="0">other</tspan><tspan dominant-baseline="central" x="40">putative charged binding surface</tspan></text><rect height="10" width="10" y="0.2373046875" fill="#fdb462" stroke="#aaa" shape-rendering="crispEdges"/></g><g transform="translate(10,175)"><text transform="translate(12.5,5)" font-size="12" dominant-baseline="central"><tspan dominant-baseline="central" font-weight="700" x="0">other</tspan><tspan dominant-baseline="central" x="40">putative hydrophobic binding surface</tspan></text><rect height="10" width="10" y="0.2373046875" fill="#80b1d3" stroke="#aaa" shape-rendering="crispEdges"/></g><g transform="translate(10,200)"><text transform="translate(12.5,5)" font-size="12" dominant-baseline="central"><tspan dominant-baseline="central" font-weight="700" x="0">other</tspan><tspan dominant-baseline="central" x="40">zinc cluster 2 [ion binding]</tspan></text><rect height="10" width="10" y="0.2373046875" fill="#a6d854" stroke="#aaa" shape-rendering="crispEdges"/></g><g transform="translate(10,225)"><text transform="translate(12.5,5)" font-size="12" dominant-baseline="central"><tspan dominant-baseline="central" font-weight="700" x="0">UBA_5</tspan><tspan dominant-baseline="central" x="49.3515625">UBA domain</tspan></text><rect height="10" width="10" y="0.25" fill="#fb8072" stroke="#aaa" shape-rendering="crispEdges"/></g><g transform="translate(10,250)"><text transform="translate(12.5,5)" font-size="12" dominant-baseline="central"><tspan dominant-baseline="central" font-weight="700" x="0">other</tspan><tspan dominant-baseline="central" x="40">polypeptide substrate binding site [polypeptide binding]</tspan></text><rect height="10" width="10" y="0.2373046875" fill="#8dd3c7" stroke="#aaa" shape-rendering="crispEdges"/></g></g><g><text transform="translate(10,280)" text-anchor="start" font-weight="700" font-size="12" dominant-baseline="central">NTRK2 NM_006180</text><g transform="translate(10,300)"><text transform="translate(12.5,5)" font-size="12" dominant-baseline="central"><tspan dominant-baseline="central" font-weight="700" x="0">LRR_8</tspan><tspan dominant-baseline="central" x="48.015625">Leucine rich repeat</tspan></text><rect height="10" width="10" y="0.25" fill="#fb8072" stroke="#aaa" shape-rendering="crispEdges"/></g><g transform="translate(10,325)"><text transform="translate(12.5,5)" font-size="12" dominant-baseline="central"><tspan dominant-baseline="central" font-weight="700" x="0">TPKR_C2</tspan><tspan dominant-baseline="central" x="64.6796875">Tyrosine-protein kinase receptor C2 Ig-like domain</tspan></text><rect height="10" width="10" y="0.2373046875" fill="#ffd92f" stroke="#aaa" shape-rendering="crispEdges"/></g><g transform="translate(10,350)"><text transform="translate(12.5,5)" font-size="12" dominant-baseline="central"><tspan dominant-baseline="central" font-weight="700" x="0">Ig</tspan><tspan dominant-baseline="central" x="20.6640625">Immunoglobulin domain</tspan></text><rect height="10" width="10" y="0.2373046875" fill="#8dd3c7" stroke="#aaa" shape-rendering="crispEdges"/></g><g transform="translate(10,375)"><text transform="translate(12.5,5)" font-size="12" dominant-baseline="central"><tspan dominant-baseline="central" font-weight="700" x="0">Ig_TrkB_d5</tspan><tspan dominant-baseline="central" x="74.6953125">Fifth domain (immunoglobulin-like) of Trk receptor TrkB</tspan></text><rect height="10" width="10" y="0.2373046875" fill="#b3b3b3" stroke="#aaa" shape-rendering="crispEdges"/></g><g transform="translate(10,400)"><text transform="translate(12.5,5)" font-size="12" dominant-baseline="central"><tspan dominant-baseline="central" font-weight="700" x="0">other</tspan><tspan dominant-baseline="central" x="40">interdomain interaction [polypeptide binding]</tspan></text><rect height="10" width="10" y="0.2373046875" fill="#a6d854" stroke="#aaa" shape-rendering="crispEdges"/></g><g transform="translate(10,425)"><text transform="translate(12.5,5)" font-size="12" dominant-baseline="central"><tspan dominant-baseline="central" font-weight="700" x="0">other</tspan><tspan dominant-baseline="central" x="40">receptor binding site [polypeptide binding]</tspan></text><rect height="10" width="10" y="0.2373046875" fill="#E8E89E" stroke="#aaa" shape-rendering="crispEdges"/></g><g transform="translate(10,450)"><text transform="translate(12.5,5)" font-size="12" dominant-baseline="central"><tspan dominant-baseline="central" font-weight="700" x="0">PTKc_TrkB</tspan><tspan dominant-baseline="central" x="74.03125">Catalytic domain of the Protein Tyrosine Kinase, Tropomyosin Related Kinase B</tspan></text><rect height="10" width="10" y="0.2373046875" fill="#e5c494" stroke="#aaa" shape-rendering="crispEdges"/></g><g transform="translate(10,475)"><text transform="translate(12.5,5)" font-size="12" dominant-baseline="central"><tspan dominant-baseline="central" font-weight="700" x="0">Pkinase_Tyr</tspan><tspan dominant-baseline="central" x="79.8203125">Protein tyrosine kinase</tspan></text><rect height="10" width="10" y="0.2373046875" fill="#8dd3c7" stroke="#aaa" shape-rendering="crispEdges"/></g><g transform="translate(10,500)"><text transform="translate(12.5,5)" font-size="12" dominant-baseline="central"><tspan dominant-baseline="central" font-weight="700" x="0">other</tspan><tspan dominant-baseline="central" x="40">ATP binding site [chemical binding]</tspan></text><rect height="10" width="10" y="0.2373046875" fill="#80b1d3" stroke="#aaa" shape-rendering="crispEdges"/></g><g transform="translate(10,525)"><text transform="translate(12.5,5)" font-size="12" dominant-baseline="central"><tspan dominant-baseline="central" font-weight="700" x="0">other</tspan><tspan dominant-baseline="central" x="40">polypeptide substrate binding site [polypeptide binding]</tspan></text><rect height="10" width="10" y="0.2373046875" fill="#bebada" stroke="#aaa" shape-rendering="crispEdges"/></g><g transform="translate(10,550)"><text transform="translate(12.5,5)" font-size="12" dominant-baseline="central"><tspan dominant-baseline="central" font-weight="700" x="0">other</tspan><tspan dominant-baseline="central" x="40">activation loop (A-loop)</tspan></text><rect height="10" width="10" y="0.2373046875" fill="#fdb462" stroke="#aaa" shape-rendering="crispEdges"/></g></g></g></svg>