<svg xmlns="http://www.w3.org/2000/svg" width="1078.9512960841175" height="696.525390625"><g transform="translate(67.73254608411746,70)"><g transform="translate(58.21040611361137,0)"><line y1="-3" stroke="black" stroke-opacity="0" shape-rendering="crispEdges" y2="0"/><rect clip-path="url(#18474)" fill="white" x="0" width="144.06229720960414" height="26"/><rect clip-path="url(#18474)" fill="#8dd3c7" x="4.9318624269954565" width="138.61129136924075" height="26"/><line clip-path="url(#18474)" stroke="black" stroke-dasharray="3,2" shape-rendering="crispEdges" y1="0" y2="26" x1="13.065109236426562" x2="13.065109236426562"/><line clip-path="url(#18474)" stroke="black" stroke-dasharray="3,2" shape-rendering="crispEdges" y1="0" y2="26" x1="20.246593121349772" x2="20.246593121349772"/><line clip-path="url(#18474)" stroke="black" stroke-dasharray="3,2" shape-rendering="crispEdges" y1="0" y2="26" x1="34.09041747782825" x2="34.09041747782825"/><line clip-path="url(#18474)" stroke="black" stroke-dasharray="3,2" shape-rendering="crispEdges" y1="0" y2="26" x1="38.84923210036772" x2="38.84923210036772"/><line clip-path="url(#18474)" stroke="black" stroke-dasharray="3,2" shape-rendering="crispEdges" y1="0" y2="26" x1="48.88600475881462" x2="48.88600475881462"/><line clip-path="url(#18474)" stroke="black" stroke-dasharray="3,2" shape-rendering="crispEdges" y1="0" y2="26" x1="55.46182132814189" x2="55.46182132814189"/><line clip-path="url(#18474)" stroke="black" stroke-dasharray="3,2" shape-rendering="crispEdges" y1="0" y2="26" x1="68.87302617348041" x2="68.87302617348041"/><line clip-path="url(#18474)" stroke="black" stroke-dasharray="3,2" shape-rendering="crispEdges" y1="0" y2="26" x1="77.35236859182348" x2="77.35236859182348"/><line clip-path="url(#18474)" stroke="black" stroke-dasharray="3,2" shape-rendering="crispEdges" y1="0" y2="26" x1="87.30261734804238" x2="87.30261734804238"/><line clip-path="url(#18474)" stroke="black" stroke-dasharray="3,2" shape-rendering="crispEdges" y1="0" y2="26" x1="93.61886221068569" x2="93.61886221068569"/><line clip-path="url(#18474)" stroke="black" stroke-dasharray="3,2" shape-rendering="crispEdges" y1="0" y2="26" x1="102.5308241401687" x2="102.5308241401687"/><line clip-path="url(#18474)" stroke="black" stroke-dasharray="3,2" shape-rendering="crispEdges" y1="0" y2="26" x1="115.59593337659527" x2="115.59593337659527"/><line clip-path="url(#18474)" stroke="black" stroke-dasharray="3,2" shape-rendering="crispEdges" y1="0" y2="26" x1="123.64265628379837" x2="123.64265628379837"/><line clip-path="url(#18474)" stroke="black" stroke-dasharray="3,2" shape-rendering="crispEdges" y1="0" y2="26" x1="135.75600259571706" x2="135.75600259571706"/><rect clip-path="url(#18474)" stroke-dasharray="none" fill="none" stroke="black" x="0" width="144.06229720960414" height="26"/><text font-family="Arial" fill="black" font-size="15" dominant-baseline="central" x="149.06229720960414" y="13">ST7</text><text fill="#858585" fill-opacity="0" font-size="13" font-family="Arial" text-anchor="middle" dominant-baseline="auto" y="-24">ends at 51 AA</text><defs><clipPath id="18474"><rect x="0" y="0" height="26" width="176.57792220960414"/></clipPath></defs><rect clip-path="url(#18474)" fill="white" fill-opacity="0" width="144.06229720960414" height="26"/></g><g transform="translate(0,106)"><line y1="26" stroke="black" stroke-opacity="0" shape-rendering="crispEdges" y2="29"/><line clip-path="url(#44838)" stroke="#858585" x1="0" x2="34.26346528228423" y1="13" y2="13" stroke-width="13.5"/><rect clip-path="url(#44838)" fill="white" x="34.26346528228423" width="365.73653471771576" height="26"/><rect clip-path="url(#44838)" fill="#8dd3c7" x="353.27709279688514" width="0" height="26"/><rect clip-path="url(#44838)" fill="#bebada" x="351.46009085009734" width="0" height="26"/><rect clip-path="url(#44838)" fill="#fb8072" x="146.13887086307594" width="0" height="26"/><rect clip-path="url(#44838)" fill="#80b1d3" x="66.45035691109669" width="0.7787151200519133" height="26"/><rect clip-path="url(#44838)" fill="#fb8072" x="156.00259571706684" width="0.2595717066839569" height="26"/><rect clip-path="url(#44838)" fill="#E8E89E" x="204.8020765736535" width="21.544451654769603" height="26"/><rect clip-path="url(#44838)" fill="#80b1d3" x="91.36924075275795" width="0.7787151200519133" height="26"/><rect clip-path="url(#44838)" fill="#a6d854" x="355.87280986372485" width="4.931862426995508" height="26"/><rect clip-path="url(#44838)" fill="#80b1d3" x="108.50097339390005" width="0" height="26"/><rect clip-path="url(#44838)" fill="#8dd3c7" x="340.8176508760545" width="0.2595717066839711" height="26"/><rect clip-path="url(#44838)" fill="#fdb462" x="318.7540558079169" width="67.22907203114863" height="26"/><rect clip-path="url(#44838)" fill="#8dd3c7" x="320.31148604802075" width="0.7787151200519133" height="26"/><rect clip-path="url(#44838)" fill="#8dd3c7" x="322.3880597014925" width="0" height="26"/><rect clip-path="url(#44838)" fill="#8dd3c7" x="334.8475016223232" width="0" height="26"/><rect clip-path="url(#44838)" fill="#80b1d3" x="93.70538611291369" width="0.2595717066839711" height="26"/><rect clip-path="url(#44838)" fill="#80b1d3" x="83.5820895522388" width="0.5191434133679422" height="26"/><rect clip-path="url(#44838)" fill="#8dd3c7" x="352.49837767683323" width="0.2595717066839711" height="26"/><rect clip-path="url(#44838)" fill="#bebada" x="361.32381570408825" width="1.0382868267358845" height="26"/><rect clip-path="url(#44838)" fill="#8dd3c7" x="355.87280986372485" width="0.2595717066839711" height="26"/><rect clip-path="url(#44838)" fill="#8dd3c7" x="339.2602206359507" width="0.7787151200519133" height="26"/><rect clip-path="url(#44838)" fill="#fb8072" x="120.18170019467877" width="0.7787151200519133" height="26"/><rect clip-path="url(#44838)" fill="#80b1d3" x="72.68007787151201" width="0" height="26"/><rect clip-path="url(#44838)" fill="#ffd92f" x="226.86567164179104" width="29.331602855288764" height="26"/><rect clip-path="url(#44838)" fill="#e5c494" x="319.7923426346528" width="67.74821544451657" height="26"/><rect clip-path="url(#44838)" fill="#bebada" x="364.69824789097987" width="0" height="26"/><rect clip-path="url(#44838)" fill="#fb8072" x="131.8624269954575" width="0" height="26"/><rect clip-path="url(#44838)" fill="#fb8072" x="144.84101232965608" width="0.2595717066839853" height="26"/><rect clip-path="url(#44838)" fill="#b3b3b3" x="40.752757949383515" width="127.44970798182997" height="26"/><rect clip-path="url(#44838)" fill="#8dd3c7" x="180.40233614536015" width="24.140168721609342" height="26"/><rect clip-path="url(#44838)" fill="#8dd3c7" x="326.5412070084361" width="0" height="26"/><rect clip-path="url(#44838)" fill="#80b1d3" x="90.85009733939" width="0" height="26"/><rect clip-path="url(#44838)" fill="#8dd3c7" x="327.060350421804" width="0" height="26"/><rect clip-path="url(#44838)" fill="#a6d854" x="361.32381570408825" width="1.5574302401038267" height="26"/><rect clip-path="url(#44838)" fill="#fb8072" x="130.0454250486697" width="0" height="26"/><rect clip-path="url(#44838)" fill="#bebada" x="352.49837767683323" width="0" height="26"/><rect clip-path="url(#44838)" fill="#bebada" x="256.4568462037638" width="24.918883841661284" height="26"/><rect clip-path="url(#44838)" fill="#fb8072" x="112.39454899415963" width="0" height="26"/><rect clip-path="url(#44838)" fill="#fb8072" x="168.9811810512654" width="10.902011680726815" height="26"/><rect clip-path="url(#44838)" fill="#bebada" x="373.52368591823495" width="0" height="26"/><line clip-path="url(#44838)" stroke="black" stroke-dasharray="3,2" shape-rendering="crispEdges" y1="6.5" y2="19.5" x1="33.05213065109236" x2="33.05213065109236"/><line clip-path="url(#44838)" stroke="black" stroke-dasharray="3,2" shape-rendering="crispEdges" y1="0" y2="26" x1="138.0921479558728" x2="138.0921479558728"/><line clip-path="url(#44838)" stroke="black" stroke-dasharray="3,2" shape-rendering="crispEdges" y1="0" y2="26" x1="154.70473718364698" x2="154.70473718364698"/><line clip-path="url(#44838)" stroke="black" stroke-dasharray="3,2" shape-rendering="crispEdges" y1="0" y2="26" x1="166.3854639844257" x2="166.3854639844257"/><line clip-path="url(#44838)" stroke="black" stroke-dasharray="3,2" shape-rendering="crispEdges" y1="0" y2="26" x1="181.44062297209604" x2="181.44062297209604"/><line clip-path="url(#44838)" stroke="black" stroke-dasharray="3,2" shape-rendering="crispEdges" y1="0" y2="26" x1="195.3709712308025" x2="195.3709712308025"/><line clip-path="url(#44838)" stroke="black" stroke-dasharray="3,2" shape-rendering="crispEdges" y1="0" y2="26" x1="204.28293316028552" x2="204.28293316028552"/><line clip-path="url(#44838)" stroke="black" stroke-dasharray="3,2" shape-rendering="crispEdges" y1="0" y2="26" x1="216.1367077655202" x2="216.1367077655202"/><line clip-path="url(#44838)" stroke="black" stroke-dasharray="3,2" shape-rendering="crispEdges" y1="0" y2="26" x1="230.15357992645468" x2="230.15357992645468"/><line clip-path="url(#44838)" stroke="black" stroke-dasharray="3,2" shape-rendering="crispEdges" y1="0" y2="26" x1="243.47826086956525" x2="243.47826086956525"/><line clip-path="url(#44838)" stroke="black" stroke-dasharray="3,2" shape-rendering="crispEdges" y1="0" y2="26" x1="262.42699545749514" x2="262.42699545749514"/><line clip-path="url(#44838)" stroke="black" stroke-dasharray="3,2" shape-rendering="crispEdges" y1="0" y2="26" x1="275.1460090850097" x2="275.1460090850097"/><line clip-path="url(#44838)" stroke="black" stroke-dasharray="3,2" shape-rendering="crispEdges" y1="0" y2="26" x1="288.73026173480423" x2="288.73026173480423"/><line clip-path="url(#44838)" stroke="black" stroke-dasharray="3,2" shape-rendering="crispEdges" y1="0" y2="26" x1="300.9301319489509" x2="300.9301319489509"/><line clip-path="url(#44838)" stroke="black" stroke-dasharray="3,2" shape-rendering="crispEdges" y1="0" y2="26" x1="320.9171533636167" x2="320.9171533636167"/><line clip-path="url(#44838)" stroke="black" stroke-dasharray="3,2" shape-rendering="crispEdges" y1="0" y2="26" x1="327.9255894440839" x2="327.9255894440839"/><line clip-path="url(#44838)" stroke="black" stroke-dasharray="3,2" shape-rendering="crispEdges" y1="0" y2="26" x1="343.6729396495782" x2="343.6729396495782"/><line clip-path="url(#44838)" stroke="black" stroke-dasharray="3,2" shape-rendering="crispEdges" y1="0" y2="26" x1="353.1905688946572" x2="353.1905688946572"/><line clip-path="url(#44838)" stroke="black" stroke-dasharray="3,2" shape-rendering="crispEdges" y1="0" y2="26" x1="367.55353666450355" x2="367.55353666450355"/><line clip-path="url(#44838)" stroke="black" stroke-dasharray="3,2" shape-rendering="crispEdges" y1="0" y2="26" x1="379.40731126973833" x2="379.40731126973833"/><rect clip-path="url(#44838)" stroke-dasharray="none" fill="none" stroke="black" x="34.26346528228423" width="365.73653471771576" height="26"/><text font-family="Arial" fill="black" font-size="15" dominant-baseline="central" x="405" y="13">MET</text><text fill="#858585" fill-opacity="0" font-size="13" font-family="Arial" text-anchor="middle" dominant-baseline="hanging" y="50">starts at 383 bp in 5' UTR</text><defs><clipPath id="44838"><rect x="0" y="0" height="26" width="436.6640625"/></clipPath></defs><rect clip-path="url(#44838)" fill="white" fill-opacity="0" width="400" height="26"/></g><line stroke="black" stroke-dasharray="3,2" x1="71.44856315449391" y1="34" x2="33.13865455332036" y2="98"/><g transform="translate(71.44856315449391,0)"><text font-family="Arial" font-size="13" fill="black" text-anchor="start" y="39" dominant-baseline="hanging">exon 1, 51 AA</text><rect height="3" fill="black" x="-13.238157040882543" width="13.238157040882543" y="31"/></g><g transform="translate(33.13865455332036,106)"><text font-family="Arial" font-size="13" fill="black" text-anchor="end" y="-13" dominant-baseline="auto">5' UTR, exon 2</text><rect height="3" fill="black" x="0" width="366.86134544667965" y="-8"/></g></g><g transform="translate(67.73254608411746,238)"/><text class="sja_svgtext" fill="black" font-size="12" text-anchor="end" x="502.7325460841175" y="291" style="display: none;">drag to resize</text><g transform="translate(0,259.525390625)" style="font-family: Arial;"><g><text transform="translate(10,30)" text-anchor="start" font-weight="700" font-size="12" dominant-baseline="central">ST7 NM_018412</text><g transform="translate(10,50)"><text transform="translate(12.5,5)" font-size="12" dominant-baseline="central"><tspan dominant-baseline="central" font-weight="700" x="0">ST7</tspan><tspan dominant-baseline="central" x="32.0078125">ST7 protein</tspan></text><rect height="10" width="10" y="0.25" fill="#8dd3c7" stroke="#aaa" shape-rendering="crispEdges"/></g></g><g><text transform="translate(10,80)" text-anchor="start" font-weight="700" font-size="12" dominant-baseline="central">MET NM_001127500</text><g transform="translate(10,100)"><text transform="translate(12.5,5)" font-size="12" dominant-baseline="central"><tspan dominant-baseline="central" font-weight="700" x="0">Sema_MET</tspan><tspan dominant-baseline="central" x="74.03125">The Sema domain, a protein interacting module, of MET (also called hepatocyte...</tspan></text><rect height="10" width="10" y="0.2373046875" fill="#b3b3b3" stroke="#aaa" shape-rendering="crispEdges"/></g><g transform="translate(10,125)"><text transform="translate(12.5,5)" font-size="12" dominant-baseline="central"><tspan dominant-baseline="central" font-weight="700" x="0">other</tspan><tspan dominant-baseline="central" x="40">HGF binding site [polypeptide binding]</tspan></text><rect height="10" width="10" y="0.2373046875" fill="#80b1d3" stroke="#aaa" shape-rendering="crispEdges"/></g><g transform="translate(10,150)"><text transform="translate(12.5,5)" font-size="12" dominant-baseline="central"><tspan dominant-baseline="central" font-weight="700" x="0">other</tspan><tspan dominant-baseline="central" x="40">InlB binding site [polypeptide binding]</tspan></text><rect height="10" width="10" y="0.2373046875" fill="#fb8072" stroke="#aaa" shape-rendering="crispEdges"/></g><g transform="translate(10,175)"><text transform="translate(12.5,5)" font-size="12" dominant-baseline="central"><tspan dominant-baseline="central" font-weight="700" x="0">PSI</tspan><tspan dominant-baseline="central" x="29.34375">domain found in Plexins, Semaphorins and Integrins</tspan></text><rect height="10" width="10" y="0.2373046875" fill="#fb8072" stroke="#aaa" shape-rendering="crispEdges"/></g><g transform="translate(10,200)"><text transform="translate(12.5,5)" font-size="12" dominant-baseline="central"><tspan dominant-baseline="central" font-weight="700" x="0">IPT_plexin_repeat1</tspan><tspan dominant-baseline="central" x="119.3828125">First repeat of the IPT domain of Plexins and Cell Surface Receptors (PCSR) ....</tspan></text><rect height="10" width="10" y="0.2373046875" fill="#8dd3c7" stroke="#aaa" shape-rendering="crispEdges"/></g><g transform="translate(10,225)"><text transform="translate(12.5,5)" font-size="12" dominant-baseline="central"><tspan dominant-baseline="central" font-weight="700" x="0">IPT_plexin_repeat2</tspan><tspan dominant-baseline="central" x="119.3828125">Second repeat of the IPT domain of Plexins and Cell Surface Receptors (PCSR) ...</tspan></text><rect height="10" width="10" y="0.2373046875" fill="#E8E89E" stroke="#aaa" shape-rendering="crispEdges"/></g><g transform="translate(10,250)"><text transform="translate(12.5,5)" font-size="12" dominant-baseline="central"><tspan dominant-baseline="central" font-weight="700" x="0">IPT</tspan><tspan dominant-baseline="central" x="28.671875">Immunoglobulin-like fold, Plexins, Transcription factors (IPT). IPTs are also...</tspan></text><rect height="10" width="10" y="0.2373046875" fill="#ffd92f" stroke="#aaa" shape-rendering="crispEdges"/></g><g transform="translate(10,275)"><text transform="translate(12.5,5)" font-size="12" dominant-baseline="central"><tspan dominant-baseline="central" font-weight="700" x="0">IPT</tspan><tspan dominant-baseline="central" x="28.671875">ig-like, plexins, transcription factors</tspan></text><rect height="10" width="10" y="0.2373046875" fill="#bebada" stroke="#aaa" shape-rendering="crispEdges"/></g><g transform="translate(10,300)"><text transform="translate(12.5,5)" font-size="12" dominant-baseline="central"><tspan dominant-baseline="central" font-weight="700" x="0">Pkinase_Tyr</tspan><tspan dominant-baseline="central" x="79.8203125">Protein tyrosine kinase</tspan></text><rect height="10" width="10" y="0.2373046875" fill="#fdb462" stroke="#aaa" shape-rendering="crispEdges"/></g><g transform="translate(10,325)"><text transform="translate(12.5,5)" font-size="12" dominant-baseline="central"><tspan dominant-baseline="central" font-weight="700" x="0">PTKc_Met_Ron</tspan><tspan dominant-baseline="central" x="98.015625">Catalytic domain of the Protein Tyrosine Kinases, Met and Ron</tspan></text><rect height="10" width="10" y="0.2373046875" fill="#e5c494" stroke="#aaa" shape-rendering="crispEdges"/></g><g transform="translate(10,350)"><text transform="translate(12.5,5)" font-size="12" dominant-baseline="central"><tspan dominant-baseline="central" font-weight="700" x="0">other</tspan><tspan dominant-baseline="central" x="40">ATP binding site [chemical binding]</tspan></text><rect height="10" width="10" y="0.2373046875" fill="#8dd3c7" stroke="#aaa" shape-rendering="crispEdges"/></g><g transform="translate(10,375)"><text transform="translate(12.5,5)" font-size="12" dominant-baseline="central"><tspan dominant-baseline="central" font-weight="700" x="0">other</tspan><tspan dominant-baseline="central" x="40">polypeptide substrate binding site [polypeptide binding]</tspan></text><rect height="10" width="10" y="0.2373046875" fill="#bebada" stroke="#aaa" shape-rendering="crispEdges"/></g><g transform="translate(10,400)"><text transform="translate(12.5,5)" font-size="12" dominant-baseline="central"><tspan dominant-baseline="central" font-weight="700" x="0">other</tspan><tspan dominant-baseline="central" x="40">activation loop (A-loop)</tspan></text><rect height="10" width="10" y="0.2373046875" fill="#a6d854" stroke="#aaa" shape-rendering="crispEdges"/></g></g></g></svg>